<?xml version="1.0" encoding="UTF-8"?>
<svg id="Volume" xmlns="http://www.w3.org/2000/svg" viewBox="0 0 105 105">
  <defs>
    <style>
      .cls-1 {
        fill: #fff;
      }
    </style>
  </defs>
  <g>
    <rect class="cls-1" x="81.699996948" y="60.400001526" width="3.199996948" height="3.200000763"/>
    <rect class="cls-1" x="81.699996948" y="57.200000763" width="3.199996948" height="3.200000763"/>
    <rect class="cls-1" x="81.699996948" y="54" width="3.199996948" height="3.200000763"/>
    <rect class="cls-1" x="81.699996948" y="50.799999237" width="3.199996948" height="3.200000763"/>
    <rect class="cls-1" x="81.699996948" y="47.700000763" width="3.199996948" height="3.200000763"/>
    <rect class="cls-1" x="78.5" y="66.800003052" width="3.199996948" height="3.199996948"/>
    <rect class="cls-1" x="78.5" y="63.599998474" width="3.199996948" height="3.199996948"/>
    <rect class="cls-1" x="78.5" y="60.400001526" width="3.199996948" height="3.200000763"/>
    <rect class="cls-1" x="78.5" y="57.200000763" width="3.199996948" height="3.200000763"/>
    <rect class="cls-1" x="78.5" y="54" width="3.199996948" height="3.200000763"/>
    <rect class="cls-1" x="78.5" y="50.799999237" width="3.199996948" height="3.200000763"/>
    <rect class="cls-1" x="78.5" y="47.700000763" width="3.199996948" height="3.200000763"/>
    <rect class="cls-1" x="78.5" y="44.5" width="3.199996948" height="3.200000763"/>
    <rect class="cls-1" x="78.5" y="41.299999237" width="3.199996948" height="3.200000763"/>
    <rect class="cls-1" x="75.400001526" y="73.099998474" width="3.199996948" height="3.199996948"/>
    <rect class="cls-1" x="75.400001526" y="69.900001526" width="3.199996948" height="3.199996948"/>
    <rect class="cls-1" x="75.400001526" y="66.800003052" width="3.199996948" height="3.199996948"/>
    <rect class="cls-1" x="75.400001526" y="63.599998474" width="3.199996948" height="3.199996948"/>
    <rect class="cls-1" x="75.400001526" y="44.5" width="3.199996948" height="3.200000763"/>
    <rect class="cls-1" x="75.400001526" y="41.299999237" width="3.199996948" height="3.200000763"/>
    <rect class="cls-1" x="75.400001526" y="38.099998474" width="3.199996948" height="3.200000763"/>
    <rect class="cls-1" x="75.400001526" y="34.900001526" width="3.199996948" height="3.200000763"/>
    <rect class="cls-1" x="72.199996948" y="73.099998474" width="3.199996948" height="3.199996948"/>
    <rect class="cls-1" x="72.199996948" y="69.900001526" width="3.199996948" height="3.199996948"/>
    <rect class="cls-1" x="72.199996948" y="38.099998474" width="3.199996948" height="3.200000763"/>
    <rect class="cls-1" x="72.199996948" y="34.900001526" width="3.199996948" height="3.200000763"/>
    <rect class="cls-1" x="69" y="76.300003052" width="3.199996948" height="3.199996948"/>
    <rect class="cls-1" x="69" y="73.099998474" width="3.199996948" height="3.199996948"/>
    <rect class="cls-1" x="69" y="34.900001526" width="3.199996948" height="3.200000763"/>
    <rect class="cls-1" x="69" y="31.799999237" width="3.199996948" height="3.200000763"/>
    <rect class="cls-1" x="65.800003052" y="79.5" width="3.199996948" height="3.199996948"/>
    <rect class="cls-1" x="65.800003052" y="76.300003052" width="3.199996948" height="3.199996948"/>
    <rect class="cls-1" x="65.800003052" y="73.099998474" width="3.199996948" height="3.199996948"/>
    <rect class="cls-1" x="65.800003052" y="57.200000763" width="3.199996948" height="3.200000763"/>
    <rect class="cls-1" x="65.800003052" y="54" width="3.199996948" height="3.200000763"/>
    <rect class="cls-1" x="65.800003052" y="50.799999237" width="3.199996948" height="3.200000763"/>
    <rect class="cls-1" x="65.800003052" y="34.900001526" width="3.199996948" height="3.200000763"/>
    <rect class="cls-1" x="65.800003052" y="31.799999237" width="3.199996948" height="3.200000763"/>
    <rect class="cls-1" x="65.800003052" y="28.600000381" width="3.199996948" height="3.200000763"/>
    <rect class="cls-1" x="62.599998474" y="79.5" width="3.199996948" height="3.199996948"/>
    <rect class="cls-1" x="62.599998474" y="76.300003052" width="3.199996948" height="3.199996948"/>
    <rect class="cls-1" x="62.599998474" y="60.400001526" width="3.199996948" height="3.200000763"/>
    <rect class="cls-1" x="62.599998474" y="57.200000763" width="3.199996948" height="3.200000763"/>
    <rect class="cls-1" x="62.599998474" y="54" width="3.199996948" height="3.200000763"/>
    <rect class="cls-1" x="62.599998474" y="50.799999237" width="3.199996948" height="3.200000763"/>
    <rect class="cls-1" x="62.599998474" y="47.700000763" width="3.199996948" height="3.200000763"/>
    <rect class="cls-1" x="62.599998474" y="31.799999237" width="3.199996948" height="3.200000763"/>
    <rect class="cls-1" x="62.599998474" y="28.600000381" width="3.199996948" height="3.200000763"/>
    <rect class="cls-1" x="59.5" y="79.5" width="3.200000763" height="3.199996948"/>
    <rect class="cls-1" x="59.5" y="76.300003052" width="3.200000763" height="3.199996948"/>
    <rect class="cls-1" x="59.5" y="63.599998474" width="3.200000763" height="3.199996948"/>
    <rect class="cls-1" x="59.5" y="60.400001526" width="3.200000763" height="3.200000763"/>
    <rect class="cls-1" x="59.5" y="57.200000763" width="3.200000763" height="3.200000763"/>
    <rect class="cls-1" x="59.5" y="54" width="3.200000763" height="3.200000763"/>
    <rect class="cls-1" x="59.5" y="50.799999237" width="3.200000763" height="3.200000763"/>
    <rect class="cls-1" x="59.5" y="47.700000763" width="3.200000763" height="3.200000763"/>
    <rect class="cls-1" x="59.5" y="44.5" width="3.200000763" height="3.200000763"/>
    <rect class="cls-1" x="59.5" y="31.799999237" width="3.200000763" height="3.200000763"/>
    <rect class="cls-1" x="59.5" y="28.600000381" width="3.200000763" height="3.200000763"/>
    <rect class="cls-1" x="49.900001526" y="79.5" width="3.200000763" height="3.199996948"/>
    <rect class="cls-1" x="49.900001526" y="76.300003052" width="3.200000763" height="3.199996948"/>
    <rect class="cls-1" x="49.900001526" y="73.099998474" width="3.200000763" height="3.199996948"/>
    <rect class="cls-1" x="49.900001526" y="69.900001526" width="3.200000763" height="3.199996948"/>
    <rect class="cls-1" x="49.900001526" y="66.800003052" width="3.200000763" height="3.199996948"/>
    <rect class="cls-1" x="49.900001526" y="63.599998474" width="3.200000763" height="3.199996948"/>
    <rect class="cls-1" x="49.900001526" y="60.400001526" width="3.200000763" height="3.200000763"/>
    <rect class="cls-1" x="49.900001526" y="57.200000763" width="3.200000763" height="3.200000763"/>
    <rect class="cls-1" x="49.900001526" y="54" width="3.200000763" height="3.200000763"/>
    <rect class="cls-1" x="49.900001526" y="50.799999237" width="3.200000763" height="3.200000763"/>
    <rect class="cls-1" x="49.900001526" y="47.700000763" width="3.200000763" height="3.200000763"/>
    <rect class="cls-1" x="49.900001526" y="44.5" width="3.200000763" height="3.200000763"/>
    <rect class="cls-1" x="49.900001526" y="41.299999237" width="3.200000763" height="3.200000763"/>
    <rect class="cls-1" x="49.900001526" y="38.099998474" width="3.200000763" height="3.200000763"/>
    <rect class="cls-1" x="49.900001526" y="34.900001526" width="3.200000763" height="3.200000763"/>
    <rect class="cls-1" x="49.900001526" y="31.799999237" width="3.200000763" height="3.200000763"/>
    <rect class="cls-1" x="49.900001526" y="28.600000381" width="3.200000763" height="3.200000763"/>
    <rect class="cls-1" x="46.700000763" y="76.300003052" width="3.200000763" height="3.199996948"/>
    <rect class="cls-1" x="46.700000763" y="73.099998474" width="3.200000763" height="3.199996948"/>
    <rect class="cls-1" x="46.700000763" y="69.900001526" width="3.200000763" height="3.199996948"/>
    <rect class="cls-1" x="46.700000763" y="66.800003052" width="3.200000763" height="3.199996948"/>
    <rect class="cls-1" x="46.700000763" y="63.599998474" width="3.200000763" height="3.199996948"/>
    <rect class="cls-1" x="46.700000763" y="60.400001526" width="3.200000763" height="3.200000763"/>
    <rect class="cls-1" x="46.700000763" y="57.200000763" width="3.200000763" height="3.200000763"/>
    <rect class="cls-1" x="46.700000763" y="54" width="3.200000763" height="3.200000763"/>
    <rect class="cls-1" x="46.700000763" y="50.799999237" width="3.200000763" height="3.200000763"/>
    <rect class="cls-1" x="46.700000763" y="47.700000763" width="3.200000763" height="3.200000763"/>
    <rect class="cls-1" x="46.700000763" y="44.5" width="3.200000763" height="3.200000763"/>
    <rect class="cls-1" x="46.700000763" y="41.299999237" width="3.200000763" height="3.200000763"/>
    <rect class="cls-1" x="46.700000763" y="38.099998474" width="3.200000763" height="3.200000763"/>
    <rect class="cls-1" x="46.700000763" y="34.900001526" width="3.200000763" height="3.200000763"/>
    <rect class="cls-1" x="46.700000763" y="31.799999237" width="3.200000763" height="3.200000763"/>
    <rect class="cls-1" x="43.5" y="73.099998474" width="3.200000763" height="3.199996948"/>
    <rect class="cls-1" x="43.5" y="69.900001526" width="3.200000763" height="3.199996948"/>
    <rect class="cls-1" x="43.5" y="66.800003052" width="3.200000763" height="3.199996948"/>
    <rect class="cls-1" x="43.5" y="41.299999237" width="3.200000763" height="3.200000763"/>
    <rect class="cls-1" x="43.5" y="38.099998474" width="3.200000763" height="3.200000763"/>
    <rect class="cls-1" x="43.5" y="34.900001526" width="3.200000763" height="3.200000763"/>
    <rect class="cls-1" x="40.400001526" y="69.900001526" width="3.200000763" height="3.199996948"/>
    <rect class="cls-1" x="40.400001526" y="66.800003052" width="3.200000763" height="3.199996948"/>
    <rect class="cls-1" x="40.400001526" y="63.599998474" width="3.200000763" height="3.199996948"/>
    <rect class="cls-1" x="40.400001526" y="44.5" width="3.200000763" height="3.200000763"/>
    <rect class="cls-1" x="40.400001526" y="41.299999237" width="3.200000763" height="3.200000763"/>
    <rect class="cls-1" x="40.400001526" y="38.099998474" width="3.200000763" height="3.200000763"/>
    <rect class="cls-1" x="37.200000763" y="66.800003052" width="3.200000763" height="3.199996948"/>
    <rect class="cls-1" x="37.200000763" y="63.599998474" width="3.200000763" height="3.199996948"/>
    <rect class="cls-1" x="37.200000763" y="60.400001526" width="3.200000763" height="3.200000763"/>
    <rect class="cls-1" x="37.200000763" y="47.700000763" width="3.200000763" height="3.200000763"/>
    <rect class="cls-1" x="37.200000763" y="44.5" width="3.200000763" height="3.200000763"/>
    <rect class="cls-1" x="37.200000763" y="41.299999237" width="3.200000763" height="3.200000763"/>
    <rect class="cls-1" x="34" y="63.599998474" width="3.200000763" height="3.199996948"/>
    <rect class="cls-1" x="34" y="60.400001526" width="3.200000763" height="3.200000763"/>
    <rect class="cls-1" x="34" y="57.200000763" width="3.200000763" height="3.200000763"/>
    <rect class="cls-1" x="34" y="54" width="3.200000763" height="3.200000763"/>
    <rect class="cls-1" x="34" y="50.799999237" width="3.200000763" height="3.200000763"/>
    <rect class="cls-1" x="34" y="47.700000763" width="3.200000763" height="3.200000763"/>
    <rect class="cls-1" x="34" y="44.5" width="3.200000763" height="3.200000763"/>
    <rect class="cls-1" x="30.799999237" y="63.599998474" width="3.200000763" height="3.199996948"/>
    <rect class="cls-1" x="30.799999237" y="60.400001526" width="3.200000763" height="3.200000763"/>
    <rect class="cls-1" x="30.799999237" y="57.200000763" width="3.200000763" height="3.200000763"/>
    <rect class="cls-1" x="30.799999237" y="54" width="3.200000763" height="3.200000763"/>
    <rect class="cls-1" x="30.799999237" y="50.799999237" width="3.200000763" height="3.200000763"/>
    <rect class="cls-1" x="30.799999237" y="47.700000763" width="3.200000763" height="3.200000763"/>
    <rect class="cls-1" x="30.799999237" y="44.5" width="3.200000763" height="3.200000763"/>
    <rect class="cls-1" x="27.600000381" y="63.599998474" width="3.200000763" height="3.199996948"/>
    <rect class="cls-1" x="27.600000381" y="60.400001526" width="3.200000763" height="3.200000763"/>
    <rect class="cls-1" x="27.600000381" y="47.700000763" width="3.200000763" height="3.200000763"/>
    <rect class="cls-1" x="27.600000381" y="44.5" width="3.200000763" height="3.200000763"/>
    <rect class="cls-1" x="24.5" y="63.599998474" width="3.200000763" height="3.199996948"/>
    <rect class="cls-1" x="24.5" y="60.400001526" width="3.200000763" height="3.200000763"/>
    <rect class="cls-1" x="24.5" y="57.200000763" width="3.200000763" height="3.200000763"/>
    <rect class="cls-1" x="24.5" y="54" width="3.200000763" height="3.200000763"/>
    <rect class="cls-1" x="24.5" y="50.799999237" width="3.200000763" height="3.200000763"/>
    <rect class="cls-1" x="24.5" y="47.700000763" width="3.200000763" height="3.200000763"/>
    <rect class="cls-1" x="24.5" y="44.5" width="3.200000763" height="3.200000763"/>
    <rect class="cls-1" x="21.299999237" y="63.599998474" width="3.200000763" height="3.199996948"/>
    <rect class="cls-1" x="21.299999237" y="60.400001526" width="3.200000763" height="3.200000763"/>
    <rect class="cls-1" x="21.299999237" y="57.200000763" width="3.200000763" height="3.200000763"/>
    <rect class="cls-1" x="21.299999237" y="54" width="3.200000763" height="3.200000763"/>
    <rect class="cls-1" x="21.299999237" y="50.799999237" width="3.200000763" height="3.200000763"/>
    <rect class="cls-1" x="21.299999237" y="47.700000763" width="3.200000763" height="3.200000763"/>
    <rect class="cls-1" x="21.299999237" y="44.5" width="3.200000763" height="3.200000763"/>
  </g>
  <g>
    <rect x="81.100000381" y="57.25" width="3.199996948" height="3.200000763"/>
    <rect x="81.100000381" y="54.049999237" width="3.199996948" height="3.200000763"/>
    <rect x="81.100000381" y="50.850002289" width="3.199996948" height="3.200000763"/>
    <rect x="81.100000381" y="47.650001526" width="3.199996948" height="3.200000763"/>
    <rect x="81.100000381" y="44.450000763" width="3.199996948" height="3.200000763"/>
    <rect x="77.900003433" y="63.549999237" width="3.199996948" height="3.199996948"/>
    <rect x="77.900003433" y="60.450000763" width="3.199996948" height="3.200000763"/>
    <rect x="77.900003433" y="57.25" width="3.199996948" height="3.200000763"/>
    <rect x="77.900003433" y="54.049999237" width="3.199996948" height="3.200000763"/>
    <rect x="77.900003433" y="50.850002289" width="3.199996948" height="3.200000763"/>
    <rect x="77.900003433" y="47.650001526" width="3.199996948" height="3.200000763"/>
    <rect x="77.900003433" y="44.450000763" width="3.199996948" height="3.200000763"/>
    <rect x="77.900003433" y="41.350002289" width="3.199996948" height="3.200000763"/>
    <rect x="77.900003433" y="38.150001526" width="3.199996948" height="3.200000763"/>
    <rect x="74.800004959" y="69.950000763" width="3.199996948" height="3.199996948"/>
    <rect x="74.800004959" y="66.750003815" width="3.199996948" height="3.199996948"/>
    <rect x="74.800004959" y="63.549999237" width="3.199996948" height="3.199996948"/>
    <rect x="74.800004959" y="60.450000763" width="3.199996948" height="3.200000763"/>
    <rect x="74.800004959" y="41.350002289" width="3.199996948" height="3.200000763"/>
    <rect x="74.800004959" y="38.150001526" width="3.199996948" height="3.200000763"/>
    <rect x="74.800004959" y="34.950000763" width="3.199996948" height="3.200000763"/>
    <rect x="74.800004959" y="31.75" width="3.199996948" height="3.200000763"/>
    <rect x="71.600000381" y="69.950000763" width="3.199996948" height="3.199996948"/>
    <rect x="71.600000381" y="66.750003815" width="3.199996948" height="3.199996948"/>
    <rect x="71.600000381" y="34.950000763" width="3.199996948" height="3.200000763"/>
    <rect x="71.600000381" y="31.75" width="3.199996948" height="3.200000763"/>
    <rect x="68.400003433" y="73.149997711" width="3.199996948" height="3.199996948"/>
    <rect x="68.400003433" y="69.950000763" width="3.199996948" height="3.199996948"/>
    <rect x="68.400003433" y="31.75" width="3.199996948" height="3.200000763"/>
    <rect x="68.400003433" y="28.550001144" width="3.199996948" height="3.200000763"/>
    <rect x="65.200006485" y="76.350002289" width="3.199996948" height="3.199996948"/>
    <rect x="65.200006485" y="73.149997711" width="3.199996948" height="3.199996948"/>
    <rect x="65.200006485" y="69.950000763" width="3.199996948" height="3.199996948"/>
    <rect x="65.200006485" y="54.049999237" width="3.199996948" height="3.200000763"/>
    <rect x="65.200006485" y="50.850002289" width="3.199996948" height="3.200000763"/>
    <rect x="65.200006485" y="47.650001526" width="3.199996948" height="3.200000763"/>
    <rect x="65.200006485" y="31.75" width="3.199996948" height="3.200000763"/>
    <rect x="65.200006485" y="28.550001144" width="3.199996948" height="3.200000763"/>
    <rect x="65.200006485" y="25.450000763" width="3.199996948" height="3.200000763"/>
    <rect x="62.000001907" y="76.350002289" width="3.199996948" height="3.199996948"/>
    <rect x="62.000001907" y="73.149997711" width="3.199996948" height="3.199996948"/>
    <rect x="62.000001907" y="57.25" width="3.199996948" height="3.200000763"/>
    <rect x="62.000001907" y="54.049999237" width="3.199996948" height="3.200000763"/>
    <rect x="62.000001907" y="50.850002289" width="3.199996948" height="3.200000763"/>
    <rect x="62.000001907" y="47.650001526" width="3.199996948" height="3.200000763"/>
    <rect x="62.000001907" y="44.450000763" width="3.199996948" height="3.200000763"/>
    <rect x="62.000001907" y="28.550001144" width="3.199996948" height="3.200000763"/>
    <rect x="62.000001907" y="25.450000763" width="3.199996948" height="3.200000763"/>
    <rect x="58.900003433" y="76.350002289" width="3.200000763" height="3.199996948"/>
    <rect x="58.900003433" y="73.149997711" width="3.200000763" height="3.199996948"/>
    <rect x="58.900003433" y="60.450000763" width="3.200000763" height="3.200000763"/>
    <rect x="58.900003433" y="57.25" width="3.200000763" height="3.200000763"/>
    <rect x="58.900003433" y="54.049999237" width="3.200000763" height="3.200000763"/>
    <rect x="58.900003433" y="50.850002289" width="3.200000763" height="3.200000763"/>
    <rect x="58.900003433" y="47.650001526" width="3.200000763" height="3.200000763"/>
    <rect x="58.900003433" y="44.450000763" width="3.200000763" height="3.200000763"/>
    <rect x="58.900003433" y="41.350002289" width="3.200000763" height="3.200000763"/>
    <rect x="58.900003433" y="28.550001144" width="3.200000763" height="3.200000763"/>
    <rect x="58.900003433" y="25.450000763" width="3.200000763" height="3.200000763"/>
    <rect x="49.300004959" y="76.350002289" width="3.200000763" height="3.199996948"/>
    <rect x="49.300004959" y="73.149997711" width="3.200000763" height="3.199996948"/>
    <rect x="49.300004959" y="69.950000763" width="3.200000763" height="3.199996948"/>
    <rect x="49.300004959" y="66.750003815" width="3.200000763" height="3.199996948"/>
    <rect x="49.300004959" y="63.549999237" width="3.200000763" height="3.199996948"/>
    <rect x="49.300004959" y="60.450000763" width="3.200000763" height="3.200000763"/>
    <rect x="49.300004959" y="57.25" width="3.200000763" height="3.200000763"/>
    <rect x="49.300004959" y="54.049999237" width="3.200000763" height="3.200000763"/>
    <rect x="49.300004959" y="50.850002289" width="3.200000763" height="3.200000763"/>
    <rect x="49.300004959" y="47.650001526" width="3.200000763" height="3.200000763"/>
    <rect x="49.300004959" y="44.450000763" width="3.200000763" height="3.200000763"/>
    <rect x="49.300004959" y="41.350002289" width="3.200000763" height="3.200000763"/>
    <rect x="49.300004959" y="38.150001526" width="3.200000763" height="3.200000763"/>
    <rect x="49.300004959" y="34.950000763" width="3.200000763" height="3.200000763"/>
    <rect x="49.300004959" y="31.75" width="3.200000763" height="3.200000763"/>
    <rect x="49.300004959" y="28.550001144" width="3.200000763" height="3.200000763"/>
    <rect x="49.300004959" y="25.450000763" width="3.200000763" height="3.200000763"/>
    <rect x="46.100004196" y="73.149997711" width="3.200000763" height="3.199996948"/>
    <rect x="46.100004196" y="69.950000763" width="3.200000763" height="3.199996948"/>
    <rect x="46.100004196" y="66.750003815" width="3.200000763" height="3.199996948"/>
    <rect x="46.100004196" y="63.549999237" width="3.200000763" height="3.199996948"/>
    <rect x="46.100004196" y="60.450000763" width="3.200000763" height="3.200000763"/>
    <rect x="46.100004196" y="57.25" width="3.200000763" height="3.200000763"/>
    <rect x="46.100004196" y="54.049999237" width="3.200000763" height="3.200000763"/>
    <rect x="46.100004196" y="50.850002289" width="3.200000763" height="3.200000763"/>
    <rect x="46.100004196" y="47.650001526" width="3.200000763" height="3.200000763"/>
    <rect x="46.100004196" y="44.450000763" width="3.200000763" height="3.200000763"/>
    <rect x="46.100004196" y="41.350002289" width="3.200000763" height="3.200000763"/>
    <rect x="46.100004196" y="38.150001526" width="3.200000763" height="3.200000763"/>
    <rect x="46.100004196" y="34.950000763" width="3.200000763" height="3.200000763"/>
    <rect x="46.100004196" y="31.75" width="3.200000763" height="3.200000763"/>
    <rect x="46.100004196" y="28.550001144" width="3.200000763" height="3.200000763"/>
    <rect x="42.900003433" y="69.950000763" width="3.200000763" height="3.199996948"/>
    <rect x="42.900003433" y="66.750003815" width="3.200000763" height="3.199996948"/>
    <rect x="42.900003433" y="63.549999237" width="3.200000763" height="3.199996948"/>
    <rect x="42.900003433" y="38.150001526" width="3.200000763" height="3.200000763"/>
    <rect x="42.900003433" y="34.950000763" width="3.200000763" height="3.200000763"/>
    <rect x="42.900003433" y="31.75" width="3.200000763" height="3.200000763"/>
    <rect x="39.800004959" y="66.750003815" width="3.200000763" height="3.199996948"/>
    <rect x="39.800004959" y="63.549999237" width="3.200000763" height="3.199996948"/>
    <rect x="39.800004959" y="60.450000763" width="3.200000763" height="3.200000763"/>
    <rect x="39.800004959" y="41.350002289" width="3.200000763" height="3.200000763"/>
    <rect x="39.800004959" y="38.150001526" width="3.200000763" height="3.200000763"/>
    <rect x="39.800004959" y="34.950000763" width="3.200000763" height="3.200000763"/>
    <rect x="36.600004196" y="63.549999237" width="3.200000763" height="3.199996948"/>
    <rect x="36.600004196" y="60.450000763" width="3.200000763" height="3.200000763"/>
    <rect x="36.600004196" y="57.25" width="3.200000763" height="3.200000763"/>
    <rect x="36.600004196" y="44.450000763" width="3.200000763" height="3.200000763"/>
    <rect x="36.600004196" y="41.350002289" width="3.200000763" height="3.200000763"/>
    <rect x="36.600004196" y="38.150001526" width="3.200000763" height="3.200000763"/>
    <rect x="33.400003433" y="60.450000763" width="3.200000763" height="3.200000763"/>
    <rect x="33.400003433" y="57.25" width="3.200000763" height="3.200000763"/>
    <rect x="33.400003433" y="54.049999237" width="3.200000763" height="3.200000763"/>
    <rect x="33.400003433" y="50.850002289" width="3.200000763" height="3.200000763"/>
    <rect x="33.400003433" y="47.650001526" width="3.200000763" height="3.200000763"/>
    <rect x="33.400003433" y="44.450000763" width="3.200000763" height="3.200000763"/>
    <rect x="33.400003433" y="41.350002289" width="3.200000763" height="3.200000763"/>
    <rect x="30.20000267" y="60.450000763" width="3.200000763" height="3.200000763"/>
    <rect x="30.20000267" y="57.25" width="3.200000763" height="3.200000763"/>
    <rect x="30.20000267" y="54.049999237" width="3.200000763" height="3.200000763"/>
    <rect x="30.20000267" y="50.850002289" width="3.200000763" height="3.200000763"/>
    <rect x="30.20000267" y="47.650001526" width="3.200000763" height="3.200000763"/>
    <rect x="30.20000267" y="44.450000763" width="3.200000763" height="3.200000763"/>
    <rect x="30.20000267" y="41.350002289" width="3.200000763" height="3.200000763"/>
    <rect x="27.000003815" y="60.450000763" width="3.200000763" height="3.200000763"/>
    <rect x="27.000003815" y="57.25" width="3.200000763" height="3.200000763"/>
    <rect x="27.000003815" y="44.450000763" width="3.200000763" height="3.200000763"/>
    <rect x="27.000003815" y="41.350002289" width="3.200000763" height="3.200000763"/>
    <rect x="23.900003433" y="60.450000763" width="3.200000763" height="3.200000763"/>
    <rect x="23.900003433" y="57.25" width="3.200000763" height="3.200000763"/>
    <rect x="23.900003433" y="54.049999237" width="3.200000763" height="3.200000763"/>
    <rect x="23.900003433" y="50.850002289" width="3.200000763" height="3.200000763"/>
    <rect x="23.900003433" y="47.650001526" width="3.200000763" height="3.200000763"/>
    <rect x="23.900003433" y="44.450000763" width="3.200000763" height="3.200000763"/>
    <rect x="23.900003433" y="41.350002289" width="3.200000763" height="3.200000763"/>
    <rect x="20.70000267" y="60.450000763" width="3.200000763" height="3.200000763"/>
    <rect x="20.70000267" y="57.25" width="3.200000763" height="3.200000763"/>
    <rect x="20.70000267" y="54.049999237" width="3.200000763" height="3.200000763"/>
    <rect x="20.70000267" y="50.850002289" width="3.200000763" height="3.200000763"/>
    <rect x="20.70000267" y="47.650001526" width="3.200000763" height="3.200000763"/>
    <rect x="20.70000267" y="44.450000763" width="3.200000763" height="3.200000763"/>
    <rect x="20.70000267" y="41.350002289" width="3.200000763" height="3.200000763"/>
  </g>
</svg>