<?xml version="1.0" encoding="UTF-8"?>
<svg id="Volume" xmlns="http://www.w3.org/2000/svg" width="210" height="105" viewBox="0 0 210 105">
  <g>
    <rect x="82.7" y="60.4" width="3.2" height="3.2" style="fill: #fff;"/>
    <rect x="82.7" y="57.2" width="3.2" height="3.2" style="fill: #fff;"/>
    <rect x="82.7" y="54" width="3.2" height="3.2" style="fill: #fff;"/>
    <rect x="82.7" y="50.8" width="3.2" height="3.2" style="fill: #fff;"/>
    <rect x="82.7" y="47.7" width="3.2" height="3.2" style="fill: #fff;"/>
    <rect x="79.5" y="66.8" width="3.2" height="3.2" style="fill: #fff;"/>
    <rect x="79.5" y="63.6" width="3.2" height="3.2" style="fill: #fff;"/>
    <rect x="79.5" y="60.4" width="3.2" height="3.2" style="fill: #fff;"/>
    <rect x="79.5" y="57.2" width="3.2" height="3.2" style="fill: #fff;"/>
    <rect x="79.5" y="54" width="3.2" height="3.2" style="fill: #fff;"/>
    <rect x="79.5" y="50.8" width="3.2" height="3.2" style="fill: #fff;"/>
    <rect x="79.5" y="47.7" width="3.2" height="3.2" style="fill: #fff;"/>
    <rect x="79.5" y="44.5" width="3.2" height="3.2" style="fill: #fff;"/>
    <rect x="79.5" y="41.3" width="3.2" height="3.2" style="fill: #fff;"/>
    <rect x="76.4" y="73.1" width="3.2" height="3.2" style="fill: #fff;"/>
    <rect x="76.4" y="69.9" width="3.2" height="3.2" style="fill: #fff;"/>
    <rect x="76.4" y="66.8" width="3.2" height="3.2" style="fill: #fff;"/>
    <rect x="76.4" y="63.6" width="3.2" height="3.2" style="fill: #fff;"/>
    <rect x="76.4" y="44.5" width="3.2" height="3.2" style="fill: #fff;"/>
    <rect x="76.4" y="41.3" width="3.2" height="3.2" style="fill: #fff;"/>
    <rect x="76.4" y="38.1" width="3.2" height="3.2" style="fill: #fff;"/>
    <rect x="76.4" y="34.9" width="3.2" height="3.2" style="fill: #fff;"/>
    <rect x="73.2" y="73.1" width="3.2" height="3.2" style="fill: #fff;"/>
    <rect x="73.2" y="69.9" width="3.2" height="3.2" style="fill: #fff;"/>
    <rect x="73.2" y="38.1" width="3.2" height="3.2" style="fill: #fff;"/>
    <rect x="73.2" y="34.9" width="3.2" height="3.2" style="fill: #fff;"/>
    <rect x="70" y="76.3" width="3.2" height="3.2" style="fill: #fff;"/>
    <rect x="70" y="73.1" width="3.2" height="3.2" style="fill: #fff;"/>
    <rect x="70" y="34.9" width="3.2" height="3.2" style="fill: #fff;"/>
    <rect x="70" y="31.8" width="3.2" height="3.2" style="fill: #fff;"/>
    <rect x="66.8" y="79.5" width="3.2" height="3.2" style="fill: #fff;"/>
    <rect x="66.8" y="76.3" width="3.2" height="3.2" style="fill: #fff;"/>
    <rect x="66.8" y="73.1" width="3.2" height="3.2" style="fill: #fff;"/>
    <rect x="66.8" y="57.2" width="3.2" height="3.2" style="fill: #fff;"/>
    <rect x="66.8" y="54" width="3.2" height="3.2" style="fill: #fff;"/>
    <rect x="66.8" y="50.8" width="3.2" height="3.2" style="fill: #fff;"/>
    <rect x="66.8" y="34.9" width="3.2" height="3.2" style="fill: #fff;"/>
    <rect x="66.8" y="31.8" width="3.2" height="3.2" style="fill: #fff;"/>
    <rect x="66.8" y="28.6" width="3.2" height="3.2" style="fill: #fff;"/>
    <rect x="63.6" y="79.5" width="3.2" height="3.2" style="fill: #fff;"/>
    <rect x="63.6" y="76.3" width="3.2" height="3.2" style="fill: #fff;"/>
    <rect x="63.6" y="60.4" width="3.2" height="3.2" style="fill: #fff;"/>
    <rect x="63.6" y="57.2" width="3.2" height="3.2" style="fill: #fff;"/>
    <rect x="63.6" y="54" width="3.2" height="3.2" style="fill: #fff;"/>
    <rect x="63.6" y="50.8" width="3.2" height="3.2" style="fill: #fff;"/>
    <rect x="63.6" y="47.7" width="3.2" height="3.2" style="fill: #fff;"/>
    <rect x="63.6" y="31.8" width="3.2" height="3.2" style="fill: #fff;"/>
    <rect x="63.6" y="28.6" width="3.2" height="3.2" style="fill: #fff;"/>
    <rect x="60.5" y="79.5" width="3.2" height="3.2" style="fill: #fff;"/>
    <rect x="60.5" y="76.3" width="3.2" height="3.2" style="fill: #fff;"/>
    <rect x="60.5" y="63.6" width="3.2" height="3.2" style="fill: #fff;"/>
    <rect x="60.5" y="60.4" width="3.2" height="3.2" style="fill: #fff;"/>
    <rect x="60.5" y="57.2" width="3.2" height="3.2" style="fill: #fff;"/>
    <rect x="60.5" y="54" width="3.2" height="3.2" style="fill: #fff;"/>
    <rect x="60.5" y="50.8" width="3.2" height="3.2" style="fill: #fff;"/>
    <rect x="60.5" y="47.7" width="3.2" height="3.2" style="fill: #fff;"/>
    <rect x="60.5" y="44.5" width="3.2" height="3.2" style="fill: #fff;"/>
    <rect x="60.5" y="31.8" width="3.2" height="3.2" style="fill: #fff;"/>
    <rect x="60.5" y="28.6" width="3.2" height="3.2" style="fill: #fff;"/>
    <rect x="50.9" y="79.5" width="3.2" height="3.2" style="fill: #fff;"/>
    <rect x="50.9" y="76.3" width="3.2" height="3.2" style="fill: #fff;"/>
    <rect x="50.9" y="73.1" width="3.2" height="3.2" style="fill: #fff;"/>
    <rect x="50.9" y="69.9" width="3.2" height="3.2" style="fill: #fff;"/>
    <rect x="50.9" y="66.8" width="3.2" height="3.2" style="fill: #fff;"/>
    <rect x="50.9" y="63.6" width="3.2" height="3.2" style="fill: #fff;"/>
    <rect x="50.9" y="60.4" width="3.2" height="3.2" style="fill: #fff;"/>
    <rect x="50.9" y="57.2" width="3.2" height="3.2" style="fill: #fff;"/>
    <rect x="50.9" y="54" width="3.2" height="3.2" style="fill: #fff;"/>
    <rect x="50.9" y="50.8" width="3.2" height="3.2" style="fill: #fff;"/>
    <rect x="50.9" y="47.7" width="3.2" height="3.2" style="fill: #fff;"/>
    <rect x="50.9" y="44.5" width="3.2" height="3.2" style="fill: #fff;"/>
    <rect x="50.9" y="41.3" width="3.2" height="3.2" style="fill: #fff;"/>
    <rect x="50.9" y="38.1" width="3.2" height="3.2" style="fill: #fff;"/>
    <rect x="50.9" y="34.9" width="3.2" height="3.2" style="fill: #fff;"/>
    <rect x="50.9" y="31.8" width="3.2" height="3.2" style="fill: #fff;"/>
    <rect x="50.9" y="28.6" width="3.2" height="3.2" style="fill: #fff;"/>
    <rect x="47.7" y="76.3" width="3.2" height="3.2" style="fill: #fff;"/>
    <rect x="47.7" y="73.1" width="3.2" height="3.2" style="fill: #fff;"/>
    <rect x="47.7" y="69.9" width="3.2" height="3.2" style="fill: #fff;"/>
    <rect x="47.7" y="66.8" width="3.2" height="3.2" style="fill: #fff;"/>
    <rect x="47.7" y="63.6" width="3.2" height="3.2" style="fill: #fff;"/>
    <rect x="47.7" y="60.4" width="3.2" height="3.2" style="fill: #fff;"/>
    <rect x="47.7" y="57.2" width="3.2" height="3.2" style="fill: #fff;"/>
    <rect x="47.7" y="54" width="3.2" height="3.2" style="fill: #fff;"/>
    <rect x="47.7" y="50.8" width="3.2" height="3.2" style="fill: #fff;"/>
    <rect x="47.7" y="47.7" width="3.2" height="3.2" style="fill: #fff;"/>
    <rect x="47.7" y="44.5" width="3.2" height="3.2" style="fill: #fff;"/>
    <rect x="47.7" y="41.3" width="3.2" height="3.2" style="fill: #fff;"/>
    <rect x="47.7" y="38.1" width="3.2" height="3.2" style="fill: #fff;"/>
    <rect x="47.7" y="34.9" width="3.2" height="3.2" style="fill: #fff;"/>
    <rect x="47.7" y="31.8" width="3.2" height="3.2" style="fill: #fff;"/>
    <rect x="44.5" y="73.1" width="3.2" height="3.2" style="fill: #fff;"/>
    <rect x="44.5" y="69.9" width="3.2" height="3.2" style="fill: #fff;"/>
    <rect x="44.5" y="66.8" width="3.2" height="3.2" style="fill: #fff;"/>
    <rect x="44.5" y="41.3" width="3.2" height="3.2" style="fill: #fff;"/>
    <rect x="44.5" y="38.1" width="3.2" height="3.2" style="fill: #fff;"/>
    <rect x="44.5" y="34.9" width="3.2" height="3.2" style="fill: #fff;"/>
    <rect x="41.4" y="69.9" width="3.2" height="3.2" style="fill: #fff;"/>
    <rect x="41.4" y="66.8" width="3.2" height="3.2" style="fill: #fff;"/>
    <rect x="41.4" y="63.6" width="3.2" height="3.2" style="fill: #fff;"/>
    <rect x="41.4" y="44.5" width="3.2" height="3.2" style="fill: #fff;"/>
    <rect x="41.4" y="41.3" width="3.2" height="3.2" style="fill: #fff;"/>
    <rect x="41.4" y="38.1" width="3.2" height="3.2" style="fill: #fff;"/>
    <rect x="38.2" y="66.8" width="3.2" height="3.2" style="fill: #fff;"/>
    <rect x="38.2" y="63.6" width="3.2" height="3.2" style="fill: #fff;"/>
    <rect x="38.2" y="60.4" width="3.2" height="3.2" style="fill: #fff;"/>
    <rect x="38.2" y="47.7" width="3.2" height="3.2" style="fill: #fff;"/>
    <rect x="38.2" y="44.5" width="3.2" height="3.2" style="fill: #fff;"/>
    <rect x="38.2" y="41.3" width="3.2" height="3.2" style="fill: #fff;"/>
    <rect x="35" y="63.6" width="3.2" height="3.2" style="fill: #fff;"/>
    <rect x="35" y="60.4" width="3.2" height="3.2" style="fill: #fff;"/>
    <rect x="35" y="57.2" width="3.2" height="3.2" style="fill: #fff;"/>
    <rect x="35" y="54" width="3.2" height="3.2" style="fill: #fff;"/>
    <rect x="35" y="50.8" width="3.2" height="3.2" style="fill: #fff;"/>
    <rect x="35" y="47.7" width="3.2" height="3.2" style="fill: #fff;"/>
    <rect x="35" y="44.5" width="3.2" height="3.2" style="fill: #fff;"/>
    <rect x="31.8" y="63.6" width="3.2" height="3.2" style="fill: #fff;"/>
    <rect x="31.8" y="60.4" width="3.2" height="3.2" style="fill: #fff;"/>
    <rect x="31.8" y="57.2" width="3.2" height="3.2" style="fill: #fff;"/>
    <rect x="31.8" y="54" width="3.2" height="3.2" style="fill: #fff;"/>
    <rect x="31.8" y="50.8" width="3.2" height="3.2" style="fill: #fff;"/>
    <rect x="31.8" y="47.7" width="3.2" height="3.2" style="fill: #fff;"/>
    <rect x="31.8" y="44.5" width="3.2" height="3.2" style="fill: #fff;"/>
    <rect x="28.6" y="63.6" width="3.2" height="3.2" style="fill: #fff;"/>
    <rect x="28.6" y="60.4" width="3.2" height="3.2" style="fill: #fff;"/>
    <rect x="28.6" y="47.7" width="3.2" height="3.2" style="fill: #fff;"/>
    <rect x="28.6" y="44.5" width="3.2" height="3.2" style="fill: #fff;"/>
    <rect x="25.5" y="63.6" width="3.2" height="3.2" style="fill: #fff;"/>
    <rect x="25.5" y="60.4" width="3.2" height="3.2" style="fill: #fff;"/>
    <rect x="25.5" y="57.2" width="3.2" height="3.2" style="fill: #fff;"/>
    <rect x="25.5" y="54" width="3.2" height="3.2" style="fill: #fff;"/>
    <rect x="25.5" y="50.8" width="3.2" height="3.2" style="fill: #fff;"/>
    <rect x="25.5" y="47.7" width="3.2" height="3.2" style="fill: #fff;"/>
    <rect x="25.5" y="44.5" width="3.2" height="3.2" style="fill: #fff;"/>
    <rect x="22.3" y="63.6" width="3.2" height="3.2" style="fill: #fff;"/>
    <rect x="22.3" y="60.4" width="3.2" height="3.2" style="fill: #fff;"/>
    <rect x="22.3" y="57.2" width="3.2" height="3.2" style="fill: #fff;"/>
    <rect x="22.3" y="54" width="3.2" height="3.2" style="fill: #fff;"/>
    <rect x="22.3" y="50.8" width="3.2" height="3.2" style="fill: #fff;"/>
    <rect x="22.3" y="47.7" width="3.2" height="3.2" style="fill: #fff;"/>
    <rect x="22.3" y="44.5" width="3.2" height="3.2" style="fill: #fff;"/>
  </g>
  <g>
    <rect x="82.7" y="57.3" width="3.2" height="3.2"/>
    <rect x="82.7" y="54.1" width="3.2" height="3.2"/>
    <rect x="82.7" y="50.9" width="3.2" height="3.2"/>
    <rect x="82.7" y="47.7" width="3.2" height="3.2"/>
    <rect x="82.7" y="44.5" width="3.2" height="3.2"/>
    <rect x="79.5" y="63.6" width="3.2" height="3.2"/>
    <rect x="79.5" y="60.5" width="3.2" height="3.2"/>
    <rect x="79.5" y="57.3" width="3.2" height="3.2"/>
    <rect x="79.5" y="54.1" width="3.2" height="3.2"/>
    <rect x="79.5" y="50.9" width="3.2" height="3.2"/>
    <rect x="79.5" y="47.7" width="3.2" height="3.2"/>
    <rect x="79.5" y="44.5" width="3.2" height="3.2"/>
    <rect x="79.5" y="41.4" width="3.2" height="3.2"/>
    <rect x="79.5" y="38.2" width="3.2" height="3.2"/>
    <rect x="76.4" y="70" width="3.2" height="3.2"/>
    <rect x="76.4" y="66.8" width="3.2" height="3.2"/>
    <rect x="76.4" y="63.6" width="3.2" height="3.2"/>
    <rect x="76.4" y="60.5" width="3.2" height="3.2"/>
    <rect x="76.4" y="41.4" width="3.2" height="3.2"/>
    <rect x="76.4" y="38.2" width="3.2" height="3.2"/>
    <rect x="76.4" y="35" width="3.2" height="3.2"/>
    <rect x="76.4" y="31.8" width="3.2" height="3.2"/>
    <rect x="73.2" y="70" width="3.2" height="3.2"/>
    <rect x="73.2" y="66.8" width="3.2" height="3.2"/>
    <rect x="73.2" y="35" width="3.2" height="3.2"/>
    <rect x="73.2" y="31.8" width="3.2" height="3.2"/>
    <rect x="70" y="73.2" width="3.2" height="3.2"/>
    <rect x="70" y="70" width="3.2" height="3.2"/>
    <rect x="70" y="31.8" width="3.2" height="3.2"/>
    <rect x="70" y="28.6" width="3.2" height="3.2"/>
    <rect x="66.8" y="76.4" width="3.2" height="3.2"/>
    <rect x="66.8" y="73.2" width="3.2" height="3.2"/>
    <rect x="66.8" y="70" width="3.2" height="3.2"/>
    <rect x="66.8" y="54.1" width="3.2" height="3.2"/>
    <rect x="66.8" y="50.9" width="3.2" height="3.2"/>
    <rect x="66.8" y="47.7" width="3.2" height="3.2"/>
    <rect x="66.8" y="31.8" width="3.2" height="3.2"/>
    <rect x="66.8" y="28.6" width="3.2" height="3.2"/>
    <rect x="66.8" y="25.5" width="3.2" height="3.2"/>
    <rect x="63.6" y="76.4" width="3.2" height="3.2"/>
    <rect x="63.6" y="73.2" width="3.2" height="3.2"/>
    <rect x="63.6" y="57.3" width="3.2" height="3.2"/>
    <rect x="63.6" y="54.1" width="3.2" height="3.2"/>
    <rect x="63.6" y="50.9" width="3.2" height="3.2"/>
    <rect x="63.6" y="47.7" width="3.2" height="3.2"/>
    <rect x="63.6" y="44.5" width="3.2" height="3.2"/>
    <rect x="63.6" y="28.6" width="3.2" height="3.2"/>
    <rect x="63.6" y="25.5" width="3.2" height="3.2"/>
    <rect x="60.5" y="76.4" width="3.2" height="3.2"/>
    <rect x="60.5" y="73.2" width="3.2" height="3.2"/>
    <rect x="60.5" y="60.5" width="3.2" height="3.2"/>
    <rect x="60.5" y="57.3" width="3.2" height="3.2"/>
    <rect x="60.5" y="54.1" width="3.2" height="3.2"/>
    <rect x="60.5" y="50.9" width="3.2" height="3.2"/>
    <rect x="60.5" y="47.7" width="3.2" height="3.2"/>
    <rect x="60.5" y="44.5" width="3.2" height="3.2"/>
    <rect x="60.5" y="41.4" width="3.2" height="3.2"/>
    <rect x="60.5" y="28.6" width="3.2" height="3.2"/>
    <rect x="60.5" y="25.5" width="3.2" height="3.2"/>
    <rect x="50.9" y="76.4" width="3.2" height="3.2"/>
    <rect x="50.9" y="73.2" width="3.2" height="3.2"/>
    <rect x="50.9" y="70" width="3.2" height="3.2"/>
    <rect x="50.9" y="66.8" width="3.2" height="3.2"/>
    <rect x="50.9" y="63.6" width="3.2" height="3.2"/>
    <rect x="50.9" y="60.5" width="3.2" height="3.2"/>
    <rect x="50.9" y="57.3" width="3.2" height="3.2"/>
    <rect x="50.9" y="54.1" width="3.2" height="3.2"/>
    <rect x="50.9" y="50.9" width="3.2" height="3.2"/>
    <rect x="50.9" y="47.7" width="3.2" height="3.2"/>
    <rect x="50.9" y="44.5" width="3.2" height="3.2"/>
    <rect x="50.9" y="41.4" width="3.2" height="3.2"/>
    <rect x="50.9" y="38.2" width="3.2" height="3.2"/>
    <rect x="50.9" y="35" width="3.2" height="3.2"/>
    <rect x="50.9" y="31.8" width="3.2" height="3.2"/>
    <rect x="50.9" y="28.6" width="3.2" height="3.2"/>
    <rect x="50.9" y="25.5" width="3.2" height="3.2"/>
    <rect x="47.7" y="73.2" width="3.2" height="3.2"/>
    <rect x="47.7" y="70" width="3.2" height="3.2"/>
    <rect x="47.7" y="66.8" width="3.2" height="3.2"/>
    <rect x="47.7" y="63.6" width="3.2" height="3.2"/>
    <rect x="47.7" y="60.5" width="3.2" height="3.2"/>
    <rect x="47.7" y="57.3" width="3.2" height="3.2"/>
    <rect x="47.7" y="54.1" width="3.2" height="3.2"/>
    <rect x="47.7" y="50.9" width="3.2" height="3.2"/>
    <rect x="47.7" y="47.7" width="3.2" height="3.2"/>
    <rect x="47.7" y="44.5" width="3.2" height="3.2"/>
    <rect x="47.7" y="41.4" width="3.2" height="3.2"/>
    <rect x="47.7" y="38.2" width="3.2" height="3.2"/>
    <rect x="47.7" y="35" width="3.2" height="3.2"/>
    <rect x="47.7" y="31.8" width="3.2" height="3.2"/>
    <rect x="47.7" y="28.6" width="3.2" height="3.2"/>
    <rect x="44.5" y="70" width="3.2" height="3.2"/>
    <rect x="44.5" y="66.8" width="3.2" height="3.2"/>
    <rect x="44.5" y="63.6" width="3.2" height="3.2"/>
    <rect x="44.5" y="38.2" width="3.2" height="3.2"/>
    <rect x="44.5" y="35" width="3.2" height="3.2"/>
    <rect x="44.5" y="31.8" width="3.2" height="3.2"/>
    <rect x="41.4" y="66.8" width="3.2" height="3.2"/>
    <rect x="41.4" y="63.6" width="3.2" height="3.2"/>
    <rect x="41.4" y="60.5" width="3.2" height="3.2"/>
    <rect x="41.4" y="41.4" width="3.2" height="3.2"/>
    <rect x="41.4" y="38.2" width="3.2" height="3.2"/>
    <rect x="41.4" y="35" width="3.2" height="3.2"/>
    <rect x="38.2" y="63.6" width="3.2" height="3.2"/>
    <rect x="38.2" y="60.5" width="3.2" height="3.2"/>
    <rect x="38.2" y="57.3" width="3.2" height="3.2"/>
    <rect x="38.2" y="44.5" width="3.2" height="3.2"/>
    <rect x="38.2" y="41.4" width="3.2" height="3.2"/>
    <rect x="38.2" y="38.2" width="3.2" height="3.2"/>
    <rect x="35" y="60.5" width="3.2" height="3.2"/>
    <rect x="35" y="57.3" width="3.2" height="3.2"/>
    <rect x="35" y="54.1" width="3.2" height="3.2"/>
    <rect x="35" y="50.9" width="3.2" height="3.2"/>
    <rect x="35" y="47.7" width="3.2" height="3.2"/>
    <rect x="35" y="44.5" width="3.2" height="3.2"/>
    <rect x="35" y="41.4" width="3.2" height="3.2"/>
    <rect x="31.8" y="60.5" width="3.2" height="3.2"/>
    <rect x="31.8" y="57.3" width="3.2" height="3.2"/>
    <rect x="31.8" y="54.1" width="3.2" height="3.2"/>
    <rect x="31.8" y="50.9" width="3.2" height="3.2"/>
    <rect x="31.8" y="47.7" width="3.2" height="3.2"/>
    <rect x="31.8" y="44.5" width="3.2" height="3.2"/>
    <rect x="31.8" y="41.4" width="3.2" height="3.2"/>
    <rect x="28.6" y="60.5" width="3.2" height="3.2"/>
    <rect x="28.6" y="57.3" width="3.2" height="3.2"/>
    <rect x="28.6" y="44.5" width="3.2" height="3.2"/>
    <rect x="28.6" y="41.4" width="3.2" height="3.2"/>
    <rect x="25.5" y="60.5" width="3.2" height="3.2"/>
    <rect x="25.5" y="57.3" width="3.2" height="3.2"/>
    <rect x="25.5" y="54.1" width="3.2" height="3.2"/>
    <rect x="25.5" y="50.9" width="3.2" height="3.2"/>
    <rect x="25.5" y="47.7" width="3.2" height="3.2"/>
    <rect x="25.5" y="44.5" width="3.2" height="3.2"/>
    <rect x="25.5" y="41.4" width="3.2" height="3.2"/>
    <rect x="22.3" y="60.5" width="3.2" height="3.2"/>
    <rect x="22.3" y="57.3" width="3.2" height="3.2"/>
    <rect x="22.3" y="54.1" width="3.2" height="3.2"/>
    <rect x="22.3" y="50.9" width="3.2" height="3.2"/>
    <rect x="22.3" y="47.7" width="3.2" height="3.2"/>
    <rect x="22.3" y="44.5" width="3.2" height="3.2"/>
    <rect x="22.3" y="41.4" width="3.2" height="3.2"/>
  </g>
  <g>
    <rect x="187.5" y="60.4" width="3.2" height="3.2" style="fill: #fff;"/>
    <rect x="187.5" y="57.2" width="3.2" height="3.2" style="fill: #fff;"/>
    <rect x="187.5" y="54" width="3.2" height="3.2" style="fill: #fff;"/>
    <rect x="187.5" y="50.8" width="3.2" height="3.2" style="fill: #fff;"/>
    <rect x="187.5" y="47.7" width="3.2" height="3.2" style="fill: #fff;"/>
    <rect x="184.4" y="66.8" width="3.2" height="3.2" style="fill: #fff;"/>
    <rect x="184.4" y="63.6" width="3.2" height="3.2" style="fill: #fff;"/>
    <rect x="184.4" y="60.4" width="3.2" height="3.2" style="fill: #fff;"/>
    <rect x="184.4" y="57.2" width="3.2" height="3.2" style="fill: #fff;"/>
    <rect x="184.4" y="54" width="3.2" height="3.2" style="fill: #fff;"/>
    <rect x="184.4" y="50.8" width="3.2" height="3.2" style="fill: #fff;"/>
    <rect x="184.4" y="47.7" width="3.2" height="3.2" style="fill: #fff;"/>
    <rect x="184.4" y="44.5" width="3.2" height="3.2" style="fill: #fff;"/>
    <rect x="184.4" y="41.3" width="3.2" height="3.2" style="fill: #fff;"/>
    <rect x="181.2" y="73.1" width="3.2" height="3.2" style="fill: #fff;"/>
    <rect x="181.2" y="69.9" width="3.2" height="3.2" style="fill: #fff;"/>
    <rect x="181.2" y="66.8" width="3.2" height="3.2" style="fill: #fff;"/>
    <rect x="181.2" y="63.6" width="3.2" height="3.2" style="fill: #fff;"/>
    <rect x="181.2" y="44.5" width="3.2" height="3.2" style="fill: #fff;"/>
    <rect x="181.2" y="41.3" width="3.2" height="3.2" style="fill: #fff;"/>
    <rect x="181.2" y="38.1" width="3.2" height="3.2" style="fill: #fff;"/>
    <rect x="181.2" y="34.9" width="3.2" height="3.2" style="fill: #fff;"/>
    <rect x="178" y="73.1" width="3.2" height="3.2" style="fill: #fff;"/>
    <rect x="178" y="69.9" width="3.2" height="3.2" style="fill: #fff;"/>
    <rect x="178" y="38.1" width="3.2" height="3.2" style="fill: #fff;"/>
    <rect x="178" y="34.9" width="3.2" height="3.2" style="fill: #fff;"/>
    <rect x="174.8" y="76.3" width="3.2" height="3.2" style="fill: #fff;"/>
    <rect x="174.8" y="73.1" width="3.2" height="3.2" style="fill: #fff;"/>
    <rect x="174.8" y="34.9" width="3.2" height="3.2" style="fill: #fff;"/>
    <rect x="174.8" y="31.8" width="3.2" height="3.2" style="fill: #fff;"/>
    <rect x="171.6" y="79.5" width="3.2" height="3.2" style="fill: #fff;"/>
    <rect x="171.6" y="76.3" width="3.2" height="3.2" style="fill: #fff;"/>
    <rect x="171.6" y="73.1" width="3.2" height="3.2" style="fill: #fff;"/>
    <rect x="171.6" y="57.2" width="3.2" height="3.2" style="fill: #fff;"/>
    <rect x="171.6" y="54" width="3.2" height="3.2" style="fill: #fff;"/>
    <rect x="171.6" y="50.8" width="3.2" height="3.2" style="fill: #fff;"/>
    <rect x="171.6" y="34.9" width="3.2" height="3.2" style="fill: #fff;"/>
    <rect x="171.6" y="31.8" width="3.2" height="3.2" style="fill: #fff;"/>
    <rect x="171.6" y="28.6" width="3.2" height="3.2" style="fill: #fff;"/>
    <rect x="168.4" y="79.5" width="3.2" height="3.2" style="fill: #fff;"/>
    <rect x="168.4" y="76.3" width="3.2" height="3.2" style="fill: #fff;"/>
    <rect x="168.4" y="60.4" width="3.2" height="3.2" style="fill: #fff;"/>
    <rect x="168.4" y="57.2" width="3.2" height="3.2" style="fill: #fff;"/>
    <rect x="168.4" y="54" width="3.2" height="3.2" style="fill: #fff;"/>
    <rect x="168.4" y="50.8" width="3.2" height="3.2" style="fill: #fff;"/>
    <rect x="168.4" y="47.7" width="3.2" height="3.2" style="fill: #fff;"/>
    <rect x="168.4" y="31.8" width="3.2" height="3.2" style="fill: #fff;"/>
    <rect x="168.4" y="28.6" width="3.2" height="3.2" style="fill: #fff;"/>
    <rect x="165.3" y="79.5" width="3.2" height="3.2" style="fill: #fff;"/>
    <rect x="165.3" y="76.3" width="3.2" height="3.2" style="fill: #fff;"/>
    <rect x="165.3" y="63.6" width="3.2" height="3.2" style="fill: #fff;"/>
    <rect x="165.3" y="60.4" width="3.2" height="3.2" style="fill: #fff;"/>
    <rect x="165.3" y="57.2" width="3.2" height="3.2" style="fill: #fff;"/>
    <rect x="165.3" y="54" width="3.2" height="3.2" style="fill: #fff;"/>
    <rect x="165.3" y="50.8" width="3.2" height="3.2" style="fill: #fff;"/>
    <rect x="165.3" y="47.7" width="3.2" height="3.2" style="fill: #fff;"/>
    <rect x="165.3" y="44.5" width="3.2" height="3.2" style="fill: #fff;"/>
    <rect x="165.3" y="31.8" width="3.2" height="3.2" style="fill: #fff;"/>
    <rect x="165.3" y="28.6" width="3.2" height="3.2" style="fill: #fff;"/>
    <rect x="155.7" y="79.5" width="3.2" height="3.2" style="fill: #fff;"/>
    <rect x="155.7" y="76.3" width="3.2" height="3.2" style="fill: #fff;"/>
    <rect x="155.7" y="73.1" width="3.2" height="3.2" style="fill: #fff;"/>
    <rect x="155.7" y="69.9" width="3.2" height="3.2" style="fill: #fff;"/>
    <rect x="155.7" y="66.8" width="3.2" height="3.2" style="fill: #fff;"/>
    <rect x="155.7" y="63.6" width="3.2" height="3.2" style="fill: #fff;"/>
    <rect x="155.7" y="60.4" width="3.2" height="3.2" style="fill: #fff;"/>
    <rect x="155.7" y="57.2" width="3.2" height="3.2" style="fill: #fff;"/>
    <rect x="155.7" y="54" width="3.2" height="3.2" style="fill: #fff;"/>
    <rect x="155.7" y="50.8" width="3.2" height="3.2" style="fill: #fff;"/>
    <rect x="155.7" y="47.7" width="3.2" height="3.2" style="fill: #fff;"/>
    <rect x="155.7" y="44.5" width="3.2" height="3.2" style="fill: #fff;"/>
    <rect x="155.7" y="41.3" width="3.2" height="3.2" style="fill: #fff;"/>
    <rect x="155.7" y="38.1" width="3.2" height="3.2" style="fill: #fff;"/>
    <rect x="155.7" y="34.9" width="3.2" height="3.2" style="fill: #fff;"/>
    <rect x="155.7" y="31.8" width="3.2" height="3.2" style="fill: #fff;"/>
    <rect x="155.7" y="28.6" width="3.2" height="3.2" style="fill: #fff;"/>
    <rect x="152.5" y="76.3" width="3.2" height="3.2" style="fill: #fff;"/>
    <rect x="152.5" y="73.1" width="3.2" height="3.2" style="fill: #fff;"/>
    <rect x="152.5" y="69.9" width="3.2" height="3.2" style="fill: #fff;"/>
    <rect x="152.5" y="66.8" width="3.2" height="3.2" style="fill: #fff;"/>
    <rect x="152.5" y="63.6" width="3.2" height="3.2" style="fill: #fff;"/>
    <rect x="152.5" y="60.4" width="3.2" height="3.2" style="fill: #fff;"/>
    <rect x="152.5" y="57.2" width="3.2" height="3.2" style="fill: #fff;"/>
    <rect x="152.5" y="54" width="3.2" height="3.2" style="fill: #fff;"/>
    <rect x="152.5" y="50.8" width="3.2" height="3.2" style="fill: #fff;"/>
    <rect x="152.5" y="47.7" width="3.2" height="3.2" style="fill: #fff;"/>
    <rect x="152.5" y="44.5" width="3.2" height="3.2" style="fill: #fff;"/>
    <rect x="152.5" y="41.3" width="3.2" height="3.2" style="fill: #fff;"/>
    <rect x="152.5" y="38.1" width="3.2" height="3.2" style="fill: #fff;"/>
    <rect x="152.5" y="34.9" width="3.2" height="3.2" style="fill: #fff;"/>
    <rect x="152.5" y="31.8" width="3.2" height="3.2" style="fill: #fff;"/>
    <rect x="149.4" y="73.1" width="3.2" height="3.2" style="fill: #fff;"/>
    <rect x="149.4" y="69.9" width="3.2" height="3.2" style="fill: #fff;"/>
    <rect x="149.4" y="66.8" width="3.2" height="3.2" style="fill: #fff;"/>
    <rect x="149.4" y="41.3" width="3.2" height="3.2" style="fill: #fff;"/>
    <rect x="149.4" y="38.1" width="3.2" height="3.2" style="fill: #fff;"/>
    <rect x="149.4" y="34.9" width="3.2" height="3.2" style="fill: #fff;"/>
    <rect x="146.2" y="69.9" width="3.2" height="3.2" style="fill: #fff;"/>
    <rect x="146.2" y="66.8" width="3.2" height="3.2" style="fill: #fff;"/>
    <rect x="146.2" y="63.6" width="3.2" height="3.2" style="fill: #fff;"/>
    <rect x="146.2" y="44.5" width="3.2" height="3.2" style="fill: #fff;"/>
    <rect x="146.2" y="41.3" width="3.2" height="3.2" style="fill: #fff;"/>
    <rect x="146.2" y="38.1" width="3.2" height="3.2" style="fill: #fff;"/>
    <rect x="143" y="66.8" width="3.2" height="3.2" style="fill: #fff;"/>
    <rect x="143" y="63.6" width="3.2" height="3.2" style="fill: #fff;"/>
    <rect x="143" y="60.4" width="3.2" height="3.2" style="fill: #fff;"/>
    <rect x="143" y="47.7" width="3.2" height="3.2" style="fill: #fff;"/>
    <rect x="143" y="44.5" width="3.2" height="3.2" style="fill: #fff;"/>
    <rect x="143" y="41.3" width="3.2" height="3.2" style="fill: #fff;"/>
    <rect x="139.8" y="63.6" width="3.2" height="3.2" style="fill: #fff;"/>
    <rect x="139.8" y="60.4" width="3.2" height="3.2" style="fill: #fff;"/>
    <rect x="139.8" y="57.2" width="3.2" height="3.2" style="fill: #fff;"/>
    <rect x="139.8" y="54" width="3.2" height="3.2" style="fill: #fff;"/>
    <rect x="139.8" y="50.8" width="3.2" height="3.2" style="fill: #fff;"/>
    <rect x="139.8" y="47.7" width="3.2" height="3.2" style="fill: #fff;"/>
    <rect x="139.8" y="44.5" width="3.2" height="3.2" style="fill: #fff;"/>
    <rect x="136.6" y="63.6" width="3.2" height="3.2" style="fill: #fff;"/>
    <rect x="136.6" y="60.4" width="3.2" height="3.2" style="fill: #fff;"/>
    <rect x="136.6" y="57.2" width="3.2" height="3.2" style="fill: #fff;"/>
    <rect x="136.6" y="54" width="3.2" height="3.2" style="fill: #fff;"/>
    <rect x="136.6" y="50.8" width="3.2" height="3.2" style="fill: #fff;"/>
    <rect x="136.6" y="47.7" width="3.2" height="3.2" style="fill: #fff;"/>
    <rect x="136.6" y="44.5" width="3.2" height="3.2" style="fill: #fff;"/>
    <rect x="133.4" y="63.6" width="3.2" height="3.2" style="fill: #fff;"/>
    <rect x="133.4" y="60.4" width="3.2" height="3.2" style="fill: #fff;"/>
    <rect x="133.4" y="47.7" width="3.2" height="3.2" style="fill: #fff;"/>
    <rect x="133.4" y="44.5" width="3.2" height="3.2" style="fill: #fff;"/>
    <rect x="130.3" y="63.6" width="3.2" height="3.2" style="fill: #fff;"/>
    <rect x="130.3" y="60.4" width="3.2" height="3.2" style="fill: #fff;"/>
    <rect x="130.3" y="57.2" width="3.2" height="3.2" style="fill: #fff;"/>
    <rect x="130.3" y="54" width="3.2" height="3.2" style="fill: #fff;"/>
    <rect x="130.3" y="50.8" width="3.2" height="3.2" style="fill: #fff;"/>
    <rect x="130.3" y="47.7" width="3.2" height="3.2" style="fill: #fff;"/>
    <rect x="130.3" y="44.5" width="3.2" height="3.2" style="fill: #fff;"/>
    <rect x="127.1" y="63.6" width="3.2" height="3.2" style="fill: #fff;"/>
    <rect x="127.1" y="60.4" width="3.2" height="3.2" style="fill: #fff;"/>
    <rect x="127.1" y="57.2" width="3.2" height="3.2" style="fill: #fff;"/>
    <rect x="127.1" y="54" width="3.2" height="3.2" style="fill: #fff;"/>
    <rect x="127.1" y="50.8" width="3.2" height="3.2" style="fill: #fff;"/>
    <rect x="127.1" y="47.7" width="3.2" height="3.2" style="fill: #fff;"/>
    <rect x="127.1" y="44.5" width="3.2" height="3.2" style="fill: #fff;"/>
  </g>
  <g>
    <rect x="187.5" y="79.5" width="3.2" height="3.2" style="fill: #fff;"/>
    <rect x="187.5" y="76.4" width="3.2" height="3.2" style="fill: #e52421;"/>
    <rect x="187.5" y="73.2" width="3.2" height="3.2" style="fill: #e52421;"/>
    <rect x="187.5" y="57.3" width="3.2" height="3.2"/>
    <rect x="187.5" y="54.1" width="3.2" height="3.2"/>
    <rect x="187.5" y="50.9" width="3.2" height="3.2"/>
    <rect x="187.5" y="47.7" width="3.2" height="3.2"/>
    <rect x="187.5" y="44.5" width="3.2" height="3.2"/>
    <rect x="184.4" y="79.5" width="3.2" height="3.2" style="fill: #fff;"/>
    <rect x="184.4" y="76.4" width="3.2" height="3.2" style="fill: #e52421;"/>
    <rect x="184.4" y="73.2" width="3.2" height="3.2" style="fill: #e52421;"/>
    <rect x="184.4" y="70" width="3.2" height="3.2" style="fill: #e52421;"/>
    <rect x="184.4" y="63.6" width="3.2" height="3.2"/>
    <rect x="184.4" y="60.5" width="3.2" height="3.2"/>
    <rect x="184.4" y="57.3" width="3.2" height="3.2"/>
    <rect x="184.4" y="54.1" width="3.2" height="3.2"/>
    <rect x="184.4" y="50.9" width="3.2" height="3.2"/>
    <rect x="184.4" y="47.7" width="3.2" height="3.2"/>
    <rect x="184.4" y="44.5" width="3.2" height="3.2"/>
    <rect x="184.4" y="41.4" width="3.2" height="3.2"/>
    <rect x="184.4" y="38.2" width="3.2" height="3.2"/>
    <rect x="181.2" y="76.4" width="3.2" height="3.2" style="fill: #fff;"/>
    <rect x="181.2" y="73.2" width="3.2" height="3.2" style="fill: #e52421;"/>
    <rect x="181.2" y="70" width="3.2" height="3.2" style="fill: #e52421;"/>
    <rect x="181.2" y="66.8" width="3.2" height="3.2" style="fill: #e52421;"/>
    <rect x="181.2" y="63.6" width="3.2" height="3.2"/>
    <rect x="181.2" y="60.5" width="3.2" height="3.2"/>
    <rect x="181.2" y="41.4" width="3.2" height="3.2"/>
    <rect x="181.2" y="38.2" width="3.2" height="3.2"/>
    <rect x="181.2" y="35" width="3.2" height="3.2"/>
    <rect x="181.2" y="31.8" width="3.2" height="3.2"/>
    <rect x="178" y="73.2" width="3.2" height="3.2" style="fill: #fff;"/>
    <rect x="178" y="70" width="3.2" height="3.2" style="fill: #e52421;"/>
    <rect x="178" y="66.8" width="3.2" height="3.2" style="fill: #e52421;"/>
    <rect x="178" y="63.6" width="3.2" height="3.2" style="fill: #e52421;"/>
    <rect x="178" y="35" width="3.2" height="3.2"/>
    <rect x="178" y="31.8" width="3.2" height="3.2"/>
    <rect x="174.8" y="73.2" width="3.2" height="3.2"/>
    <rect x="174.8" y="70" width="3.2" height="3.2" style="fill: #fff;"/>
    <rect x="174.8" y="66.8" width="3.2" height="3.2" style="fill: #e52421;"/>
    <rect x="174.8" y="63.6" width="3.2" height="3.2" style="fill: #e52421;"/>
    <rect x="174.8" y="60.5" width="3.2" height="3.2" style="fill: #e52421;"/>
    <rect x="174.8" y="31.8" width="3.2" height="3.2"/>
    <rect x="174.8" y="28.6" width="3.2" height="3.2"/>
    <rect x="171.6" y="76.4" width="3.2" height="3.2"/>
    <rect x="171.6" y="73.2" width="3.2" height="3.2"/>
    <rect x="171.6" y="70" width="3.2" height="3.2"/>
    <rect x="171.6" y="66.8" width="3.2" height="3.2" style="fill: #fff;"/>
    <rect x="171.6" y="63.6" width="3.2" height="3.2" style="fill: #e52421;"/>
    <rect x="171.6" y="60.5" width="3.2" height="3.2" style="fill: #e52421;"/>
    <rect x="171.6" y="57.3" width="3.2" height="3.2" style="fill: #e52421;"/>
    <rect x="171.6" y="54.1" width="3.2" height="3.2"/>
    <rect x="171.6" y="50.9" width="3.2" height="3.2"/>
    <rect x="171.6" y="47.7" width="3.2" height="3.2"/>
    <rect x="171.6" y="31.8" width="3.2" height="3.2"/>
    <rect x="171.6" y="28.6" width="3.2" height="3.2"/>
    <rect x="171.6" y="25.5" width="3.2" height="3.2"/>
    <rect x="168.4" y="76.4" width="3.2" height="3.2"/>
    <rect x="168.4" y="73.2" width="3.2" height="3.2"/>
    <rect x="168.4" y="63.6" width="3.2" height="3.2" style="fill: #fff;"/>
    <rect x="168.4" y="60.5" width="3.2" height="3.2" style="fill: #e52421;"/>
    <rect x="168.4" y="57.3" width="3.2" height="3.2" style="fill: #e52421;"/>
    <rect x="168.4" y="54.1" width="3.2" height="3.2" style="fill: #e52421;"/>
    <rect x="168.4" y="50.9" width="3.2" height="3.2"/>
    <rect x="168.4" y="47.7" width="3.2" height="3.2"/>
    <rect x="168.4" y="44.5" width="3.2" height="3.2"/>
    <rect x="168.4" y="28.6" width="3.2" height="3.2"/>
    <rect x="168.4" y="25.5" width="3.2" height="3.2"/>
    <rect x="165.3" y="76.4" width="3.2" height="3.2"/>
    <rect x="165.3" y="73.2" width="3.2" height="3.2"/>
    <rect x="165.3" y="60.5" width="3.2" height="3.2" style="fill: #fff;"/>
    <rect x="165.3" y="57.3" width="3.2" height="3.2" style="fill: #e52421;"/>
    <rect x="165.3" y="54.1" width="3.2" height="3.2" style="fill: #e52421;"/>
    <rect x="165.3" y="50.9" width="3.2" height="3.2" style="fill: #e52421;"/>
    <rect x="165.3" y="47.7" width="3.2" height="3.2"/>
    <rect x="165.3" y="44.5" width="3.2" height="3.2"/>
    <rect x="165.3" y="41.4" width="3.2" height="3.2"/>
    <rect x="165.3" y="28.6" width="3.2" height="3.2"/>
    <rect x="165.3" y="25.5" width="3.2" height="3.2"/>
    <rect x="162.1" y="57.3" width="3.2" height="3.2" style="fill: #fff;"/>
    <rect x="162.1" y="54.1" width="3.2" height="3.2" style="fill: #e52421;"/>
    <rect x="162.1" y="50.9" width="3.2" height="3.2" style="fill: #e52421;"/>
    <rect x="162.1" y="47.7" width="3.2" height="3.2" style="fill: #e52421;"/>
    <rect x="158.9" y="54.1" width="3.2" height="3.2" style="fill: #fff;"/>
    <rect x="158.9" y="50.9" width="3.2" height="3.2" style="fill: #e52421;"/>
    <rect x="158.9" y="47.7" width="3.2" height="3.2" style="fill: #e52421;"/>
    <rect x="158.9" y="44.5" width="3.2" height="3.2" style="fill: #e52421;"/>
    <rect x="155.7" y="76.4" width="3.2" height="3.2"/>
    <rect x="155.7" y="73.2" width="3.2" height="3.2"/>
    <rect x="155.7" y="70" width="3.2" height="3.2"/>
    <rect x="155.7" y="66.8" width="3.2" height="3.2"/>
    <rect x="155.7" y="63.6" width="3.2" height="3.2"/>
    <rect x="155.7" y="60.5" width="3.2" height="3.2"/>
    <rect x="155.7" y="57.3" width="3.2" height="3.2"/>
    <rect x="155.7" y="54.1" width="3.2" height="3.2"/>
    <rect x="155.7" y="50.9" width="3.2" height="3.2" style="fill: #fff;"/>
    <rect x="155.7" y="47.7" width="3.2" height="3.2" style="fill: #e52421;"/>
    <rect x="155.7" y="44.5" width="3.2" height="3.2" style="fill: #e52421;"/>
    <rect x="155.7" y="41.4" width="3.2" height="3.2" style="fill: #e52421;"/>
    <rect x="155.7" y="38.2" width="3.2" height="3.2"/>
    <rect x="155.7" y="35" width="3.2" height="3.2"/>
    <rect x="155.7" y="31.8" width="3.2" height="3.2"/>
    <rect x="155.7" y="28.6" width="3.2" height="3.2"/>
    <rect x="155.7" y="25.5" width="3.2" height="3.2"/>
    <rect x="152.5" y="73.2" width="3.2" height="3.2"/>
    <rect x="152.5" y="70" width="3.2" height="3.2"/>
    <rect x="152.5" y="66.8" width="3.2" height="3.2"/>
    <rect x="152.5" y="63.6" width="3.2" height="3.2"/>
    <rect x="152.5" y="60.5" width="3.2" height="3.2"/>
    <rect x="152.5" y="57.3" width="3.2" height="3.2"/>
    <rect x="152.5" y="54.1" width="3.2" height="3.2"/>
    <rect x="152.5" y="50.9" width="3.2" height="3.2"/>
    <rect x="152.5" y="47.7" width="3.2" height="3.2" style="fill: #fff;"/>
    <rect x="152.5" y="44.5" width="3.2" height="3.2" style="fill: #e52421;"/>
    <rect x="152.5" y="41.4" width="3.2" height="3.2" style="fill: #e52421;"/>
    <rect x="152.5" y="38.2" width="3.2" height="3.2" style="fill: #e52421;"/>
    <rect x="152.5" y="35" width="3.2" height="3.2"/>
    <rect x="152.5" y="31.8" width="3.2" height="3.2"/>
    <rect x="152.5" y="28.6" width="3.2" height="3.2"/>
    <rect x="149.4" y="70" width="3.2" height="3.2"/>
    <rect x="149.4" y="66.8" width="3.2" height="3.2"/>
    <rect x="149.4" y="63.6" width="3.2" height="3.2"/>
    <rect x="149.4" y="44.5" width="3.2" height="3.2" style="fill: #fff;"/>
    <rect x="149.4" y="41.4" width="3.2" height="3.2" style="fill: #e52421;"/>
    <rect x="149.4" y="38.2" width="3.2" height="3.2" style="fill: #e52421;"/>
    <rect x="149.4" y="35" width="3.2" height="3.2" style="fill: #e52421;"/>
    <rect x="149.4" y="31.8" width="3.2" height="3.2"/>
    <rect x="146.2" y="66.8" width="3.2" height="3.2"/>
    <rect x="146.2" y="63.6" width="3.2" height="3.2"/>
    <rect x="146.2" y="60.5" width="3.2" height="3.2"/>
    <rect x="146.2" y="41.4" width="3.2" height="3.2" style="fill: #fff;"/>
    <rect x="146.2" y="38.2" width="3.2" height="3.2" style="fill: #e52421;"/>
    <rect x="146.2" y="35" width="3.2" height="3.2" style="fill: #e52421;"/>
    <rect x="146.2" y="31.8" width="3.2" height="3.2" style="fill: #e52421;"/>
    <rect x="143" y="63.6" width="3.2" height="3.2"/>
    <rect x="143" y="60.5" width="3.2" height="3.2"/>
    <rect x="143" y="57.3" width="3.2" height="3.2"/>
    <rect x="143" y="44.5" width="3.2" height="3.2"/>
    <rect x="143" y="41.4" width="3.2" height="3.2"/>
    <rect x="143" y="38.2" width="3.2" height="3.2" style="fill: #fff;"/>
    <rect x="143" y="35" width="3.2" height="3.2" style="fill: #e52421;"/>
    <rect x="143" y="31.8" width="3.2" height="3.2" style="fill: #e52421;"/>
    <rect x="143" y="28.6" width="3.2" height="3.2" style="fill: #e52421;"/>
    <rect x="139.8" y="60.5" width="3.2" height="3.2"/>
    <rect x="139.8" y="57.3" width="3.2" height="3.2"/>
    <rect x="139.8" y="54.1" width="3.2" height="3.2"/>
    <rect x="139.8" y="50.9" width="3.2" height="3.2"/>
    <rect x="139.8" y="47.7" width="3.2" height="3.2"/>
    <rect x="139.8" y="44.5" width="3.2" height="3.2"/>
    <rect x="139.8" y="41.4" width="3.2" height="3.2"/>
    <rect x="139.8" y="35" width="3.2" height="3.2" style="fill: #fff;"/>
    <rect x="139.8" y="31.8" width="3.2" height="3.2" style="fill: #e52421;"/>
    <rect x="139.8" y="28.6" width="3.2" height="3.2" style="fill: #e52421;"/>
    <rect x="139.8" y="25.5" width="3.2" height="3.2" style="fill: #e52421;"/>
    <rect x="136.6" y="60.5" width="3.2" height="3.2"/>
    <rect x="136.6" y="57.3" width="3.2" height="3.2"/>
    <rect x="136.6" y="54.1" width="3.2" height="3.2"/>
    <rect x="136.6" y="50.9" width="3.2" height="3.2"/>
    <rect x="136.6" y="47.7" width="3.2" height="3.2"/>
    <rect x="136.6" y="44.5" width="3.2" height="3.2"/>
    <rect x="136.6" y="41.4" width="3.2" height="3.2"/>
    <rect x="136.6" y="31.8" width="3.2" height="3.2" style="fill: #fff;"/>
    <rect x="136.6" y="28.6" width="3.2" height="3.2" style="fill: #e52421;"/>
    <rect x="136.6" y="25.5" width="3.2" height="3.2" style="fill: #e52421;"/>
    <rect x="136.6" y="22.3" width="3.2" height="3.2" style="fill: #e52421;"/>
    <rect x="133.4" y="60.5" width="3.2" height="3.2"/>
    <rect x="133.4" y="57.3" width="3.2" height="3.2"/>
    <rect x="133.4" y="44.5" width="3.2" height="3.2"/>
    <rect x="133.4" y="41.4" width="3.2" height="3.2"/>
    <rect x="133.4" y="28.6" width="3.2" height="3.2" style="fill: #fff;"/>
    <rect x="133.4" y="25.5" width="3.2" height="3.2" style="fill: #e52421;"/>
    <rect x="133.4" y="22.3" width="3.2" height="3.2" style="fill: #e52421;"/>
    <rect x="133.4" y="19.1" width="3.2" height="3.2" style="fill: #e52421;"/>
    <rect x="130.3" y="60.5" width="3.2" height="3.2"/>
    <rect x="130.3" y="57.3" width="3.2" height="3.2"/>
    <rect x="130.3" y="54.1" width="3.2" height="3.2"/>
    <rect x="130.3" y="50.9" width="3.2" height="3.2"/>
    <rect x="130.3" y="47.7" width="3.2" height="3.2"/>
    <rect x="130.3" y="44.5" width="3.2" height="3.2"/>
    <rect x="130.3" y="41.4" width="3.2" height="3.2"/>
    <rect x="130.3" y="25.5" width="3.2" height="3.2" style="fill: #fff;"/>
    <rect x="130.3" y="22.3" width="3.2" height="3.2" style="fill: #e52421;"/>
    <rect x="130.3" y="19.1" width="3.2" height="3.2" style="fill: #e52421;"/>
    <rect x="127.1" y="60.5" width="3.2" height="3.2"/>
    <rect x="127.1" y="57.3" width="3.2" height="3.2"/>
    <rect x="127.1" y="54.1" width="3.2" height="3.2"/>
    <rect x="127.1" y="50.9" width="3.2" height="3.2"/>
    <rect x="127.1" y="47.7" width="3.2" height="3.2"/>
    <rect x="127.1" y="44.5" width="3.2" height="3.2"/>
    <rect x="127.1" y="41.4" width="3.2" height="3.2"/>
  </g>
</svg>