<?xml version="1.0" encoding="UTF-8"?>
<svg id="Volume" xmlns="http://www.w3.org/2000/svg" viewBox="0 0 105 105">
  <defs>
    <style>
      .cls-1 {
        fill: #fff;
      }

      .cls-2 {
        fill: #e52421;
      }
    </style>
  </defs>
  <g>
    <rect class="cls-1" x="82.5" y="58.025001526" width="3.199996948" height="3.200000763"/>
    <rect class="cls-1" x="82.5" y="54.825000763" width="3.199996948" height="3.200000763"/>
    <rect class="cls-1" x="82.5" y="51.625" width="3.199996948" height="3.200000763"/>
    <rect class="cls-1" x="82.5" y="48.424999237" width="3.199996948" height="3.200000763"/>
    <rect class="cls-1" x="82.5" y="45.325000763" width="3.199996948" height="3.200000763"/>
    <rect class="cls-1" x="79.399993896" y="64.425003052" width="3.199996948" height="3.199996948"/>
    <rect class="cls-1" x="79.399993896" y="61.224998474" width="3.199996948" height="3.199996948"/>
    <rect class="cls-1" x="79.399993896" y="58.025001526" width="3.199996948" height="3.200000763"/>
    <rect class="cls-1" x="79.399993896" y="54.825000763" width="3.199996948" height="3.200000763"/>
    <rect class="cls-1" x="79.399993896" y="51.625" width="3.199996948" height="3.200000763"/>
    <rect class="cls-1" x="79.399993896" y="48.424999237" width="3.199996948" height="3.200000763"/>
    <rect class="cls-1" x="79.399993896" y="45.325000763" width="3.199996948" height="3.200000763"/>
    <rect class="cls-1" x="79.399993896" y="42.125" width="3.199996948" height="3.200000763"/>
    <rect class="cls-1" x="79.399993896" y="38.924999237" width="3.199996948" height="3.200000763"/>
    <rect class="cls-1" x="76.199996948" y="70.724998474" width="3.199996948" height="3.199996948"/>
    <rect class="cls-1" x="76.199996948" y="67.525001526" width="3.199996948" height="3.199996948"/>
    <rect class="cls-1" x="76.199996948" y="64.425003052" width="3.199996948" height="3.199996948"/>
    <rect class="cls-1" x="76.199996948" y="61.224998474" width="3.199996948" height="3.199996948"/>
    <rect class="cls-1" x="76.199996948" y="42.125" width="3.199996948" height="3.200000763"/>
    <rect class="cls-1" x="76.199996948" y="38.924999237" width="3.199996948" height="3.200000763"/>
    <rect class="cls-1" x="76.199996948" y="35.724998474" width="3.199996948" height="3.200000763"/>
    <rect class="cls-1" x="76.199996948" y="32.525001526" width="3.199996948" height="3.200000763"/>
    <rect class="cls-1" x="73" y="70.724998474" width="3.199996948" height="3.199996948"/>
    <rect class="cls-1" x="73" y="67.525001526" width="3.199996948" height="3.199996948"/>
    <rect class="cls-1" x="73" y="35.724998474" width="3.199996948" height="3.200000763"/>
    <rect class="cls-1" x="73" y="32.525001526" width="3.199996948" height="3.200000763"/>
    <rect class="cls-1" x="69.800003052" y="73.925003052" width="3.199996948" height="3.199996948"/>
    <rect class="cls-1" x="69.800003052" y="70.724998474" width="3.199996948" height="3.199996948"/>
    <rect class="cls-1" x="69.800003052" y="32.525001526" width="3.199996948" height="3.200000763"/>
    <rect class="cls-1" x="69.800003052" y="29.424999237" width="3.199996948" height="3.200000763"/>
    <rect class="cls-1" x="66.600006104" y="77.125" width="3.199996948" height="3.199996948"/>
    <rect class="cls-1" x="66.600006104" y="73.925003052" width="3.199996948" height="3.199996948"/>
    <rect class="cls-1" x="66.600006104" y="70.724998474" width="3.199996948" height="3.199996948"/>
    <rect class="cls-1" x="66.600006104" y="54.825000763" width="3.199996948" height="3.200000763"/>
    <rect class="cls-1" x="66.600006104" y="51.625" width="3.199996948" height="3.200000763"/>
    <rect class="cls-1" x="66.600006104" y="48.424999237" width="3.199996948" height="3.200000763"/>
    <rect class="cls-1" x="66.600006104" y="32.525001526" width="3.199996948" height="3.200000763"/>
    <rect class="cls-1" x="66.600006104" y="29.424999237" width="3.199996948" height="3.200000763"/>
    <rect class="cls-1" x="66.600006104" y="26.225000381" width="3.199996948" height="3.200000763"/>
    <rect class="cls-1" x="63.399993896" y="77.125" width="3.199996948" height="3.199996948"/>
    <rect class="cls-1" x="63.399993896" y="73.925003052" width="3.199996948" height="3.199996948"/>
    <rect class="cls-1" x="63.399993896" y="58.025001526" width="3.199996948" height="3.200000763"/>
    <rect class="cls-1" x="63.399993896" y="54.825000763" width="3.199996948" height="3.200000763"/>
    <rect class="cls-1" x="63.399993896" y="51.625" width="3.199996948" height="3.200000763"/>
    <rect class="cls-1" x="63.399993896" y="48.424999237" width="3.199996948" height="3.200000763"/>
    <rect class="cls-1" x="63.399993896" y="45.325000763" width="3.199996948" height="3.200000763"/>
    <rect class="cls-1" x="63.399993896" y="29.424999237" width="3.199996948" height="3.200000763"/>
    <rect class="cls-1" x="63.399993896" y="26.225000381" width="3.199996948" height="3.200000763"/>
    <rect class="cls-1" x="60.300003052" y="77.125" width="3.199996948" height="3.199996948"/>
    <rect class="cls-1" x="60.300003052" y="73.925003052" width="3.199996948" height="3.199996948"/>
    <rect class="cls-1" x="60.300003052" y="61.224998474" width="3.199996948" height="3.199996948"/>
    <rect class="cls-1" x="60.300003052" y="58.025001526" width="3.199996948" height="3.200000763"/>
    <rect class="cls-1" x="60.300003052" y="54.825000763" width="3.199996948" height="3.200000763"/>
    <rect class="cls-1" x="60.300003052" y="51.625" width="3.199996948" height="3.200000763"/>
    <rect class="cls-1" x="60.300003052" y="48.424999237" width="3.199996948" height="3.200000763"/>
    <rect class="cls-1" x="60.300003052" y="45.325000763" width="3.199996948" height="3.200000763"/>
    <rect class="cls-1" x="60.300003052" y="42.125" width="3.199996948" height="3.200000763"/>
    <rect class="cls-1" x="60.300003052" y="29.424999237" width="3.199996948" height="3.200000763"/>
    <rect class="cls-1" x="60.300003052" y="26.225000381" width="3.199996948" height="3.200000763"/>
    <rect class="cls-1" x="50.699996948" y="77.125" width="3.199996948" height="3.199996948"/>
    <rect class="cls-1" x="50.699996948" y="73.925003052" width="3.199996948" height="3.199996948"/>
    <rect class="cls-1" x="50.699996948" y="70.724998474" width="3.199996948" height="3.199996948"/>
    <rect class="cls-1" x="50.699996948" y="67.525001526" width="3.199996948" height="3.199996948"/>
    <rect class="cls-1" x="50.699996948" y="64.425003052" width="3.199996948" height="3.199996948"/>
    <rect class="cls-1" x="50.699996948" y="61.224998474" width="3.199996948" height="3.199996948"/>
    <rect class="cls-1" x="50.699996948" y="58.025001526" width="3.199996948" height="3.200000763"/>
    <rect class="cls-1" x="50.699996948" y="54.825000763" width="3.199996948" height="3.200000763"/>
    <rect class="cls-1" x="50.699996948" y="51.625" width="3.199996948" height="3.200000763"/>
    <rect class="cls-1" x="50.699996948" y="48.424999237" width="3.199996948" height="3.200000763"/>
    <rect class="cls-1" x="50.699996948" y="45.325000763" width="3.199996948" height="3.200000763"/>
    <rect class="cls-1" x="50.699996948" y="42.125" width="3.199996948" height="3.200000763"/>
    <rect class="cls-1" x="50.699996948" y="38.924999237" width="3.199996948" height="3.200000763"/>
    <rect class="cls-1" x="50.699996948" y="35.724998474" width="3.199996948" height="3.200000763"/>
    <rect class="cls-1" x="50.699996948" y="32.525001526" width="3.199996948" height="3.200000763"/>
    <rect class="cls-1" x="50.699996948" y="29.424999237" width="3.199996948" height="3.200000763"/>
    <rect class="cls-1" x="50.699996948" y="26.225000381" width="3.199996948" height="3.200000763"/>
    <rect class="cls-1" x="47.5" y="73.925003052" width="3.199996948" height="3.199996948"/>
    <rect class="cls-1" x="47.5" y="70.724998474" width="3.199996948" height="3.199996948"/>
    <rect class="cls-1" x="47.5" y="67.525001526" width="3.199996948" height="3.199996948"/>
    <rect class="cls-1" x="47.5" y="64.425003052" width="3.199996948" height="3.199996948"/>
    <rect class="cls-1" x="47.5" y="61.224998474" width="3.199996948" height="3.199996948"/>
    <rect class="cls-1" x="47.5" y="58.025001526" width="3.199996948" height="3.200000763"/>
    <rect class="cls-1" x="47.5" y="54.825000763" width="3.199996948" height="3.200000763"/>
    <rect class="cls-1" x="47.5" y="51.625" width="3.199996948" height="3.200000763"/>
    <rect class="cls-1" x="47.5" y="48.424999237" width="3.199996948" height="3.200000763"/>
    <rect class="cls-1" x="47.5" y="45.325000763" width="3.199996948" height="3.200000763"/>
    <rect class="cls-1" x="47.5" y="42.125" width="3.199996948" height="3.200000763"/>
    <rect class="cls-1" x="47.5" y="38.924999237" width="3.199996948" height="3.200000763"/>
    <rect class="cls-1" x="47.5" y="35.724998474" width="3.199996948" height="3.200000763"/>
    <rect class="cls-1" x="47.5" y="32.525001526" width="3.199996948" height="3.200000763"/>
    <rect class="cls-1" x="47.5" y="29.424999237" width="3.199996948" height="3.200000763"/>
    <rect class="cls-1" x="44.399993896" y="70.724998474" width="3.199996948" height="3.199996948"/>
    <rect class="cls-1" x="44.399993896" y="67.525001526" width="3.199996948" height="3.199996948"/>
    <rect class="cls-1" x="44.399993896" y="64.425003052" width="3.199996948" height="3.199996948"/>
    <rect class="cls-1" x="44.399993896" y="38.924999237" width="3.199996948" height="3.200000763"/>
    <rect class="cls-1" x="44.399993896" y="35.724998474" width="3.199996948" height="3.200000763"/>
    <rect class="cls-1" x="44.399993896" y="32.525001526" width="3.199996948" height="3.200000763"/>
    <rect class="cls-1" x="41.199996948" y="67.525001526" width="3.199996948" height="3.199996948"/>
    <rect class="cls-1" x="41.199996948" y="64.425003052" width="3.199996948" height="3.199996948"/>
    <rect class="cls-1" x="41.199996948" y="61.224998474" width="3.199996948" height="3.199996948"/>
    <rect class="cls-1" x="41.199996948" y="42.125" width="3.199996948" height="3.200000763"/>
    <rect class="cls-1" x="41.199996948" y="38.924999237" width="3.199996948" height="3.200000763"/>
    <rect class="cls-1" x="41.199996948" y="35.724998474" width="3.199996948" height="3.200000763"/>
    <rect class="cls-1" x="38" y="64.425003052" width="3.199996948" height="3.199996948"/>
    <rect class="cls-1" x="38" y="61.224998474" width="3.199996948" height="3.199996948"/>
    <rect class="cls-1" x="38" y="58.025001526" width="3.199996948" height="3.200000763"/>
    <rect class="cls-1" x="38" y="45.325000763" width="3.199996948" height="3.200000763"/>
    <rect class="cls-1" x="38" y="42.125" width="3.199996948" height="3.200000763"/>
    <rect class="cls-1" x="38" y="38.924999237" width="3.199996948" height="3.200000763"/>
    <rect class="cls-1" x="34.800003052" y="61.224998474" width="3.199996948" height="3.199996948"/>
    <rect class="cls-1" x="34.800003052" y="58.025001526" width="3.199996948" height="3.200000763"/>
    <rect class="cls-1" x="34.800003052" y="54.825000763" width="3.199996948" height="3.200000763"/>
    <rect class="cls-1" x="34.800003052" y="51.625" width="3.199996948" height="3.200000763"/>
    <rect class="cls-1" x="34.800003052" y="48.424999237" width="3.199996948" height="3.200000763"/>
    <rect class="cls-1" x="34.800003052" y="45.325000763" width="3.199996948" height="3.200000763"/>
    <rect class="cls-1" x="34.800003052" y="42.125" width="3.199996948" height="3.200000763"/>
    <rect class="cls-1" x="31.600006104" y="61.224998474" width="3.199996948" height="3.199996948"/>
    <rect class="cls-1" x="31.600006104" y="58.025001526" width="3.199996948" height="3.200000763"/>
    <rect class="cls-1" x="31.600006104" y="54.825000763" width="3.199996948" height="3.200000763"/>
    <rect class="cls-1" x="31.600006104" y="51.625" width="3.199996948" height="3.200000763"/>
    <rect class="cls-1" x="31.600006104" y="48.424999237" width="3.199996948" height="3.200000763"/>
    <rect class="cls-1" x="31.600006104" y="45.325000763" width="3.199996948" height="3.200000763"/>
    <rect class="cls-1" x="31.600006104" y="42.125" width="3.199996948" height="3.200000763"/>
    <rect class="cls-1" x="28.399993896" y="61.224998474" width="3.199996948" height="3.199996948"/>
    <rect class="cls-1" x="28.399993896" y="58.025001526" width="3.199996948" height="3.200000763"/>
    <rect class="cls-1" x="28.399993896" y="45.325000763" width="3.199996948" height="3.200000763"/>
    <rect class="cls-1" x="28.399993896" y="42.125" width="3.199996948" height="3.200000763"/>
    <rect class="cls-1" x="25.300003052" y="61.224998474" width="3.199996948" height="3.199996948"/>
    <rect class="cls-1" x="25.300003052" y="58.025001526" width="3.199996948" height="3.200000763"/>
    <rect class="cls-1" x="25.300003052" y="54.825000763" width="3.199996948" height="3.200000763"/>
    <rect class="cls-1" x="25.300003052" y="51.625" width="3.199996948" height="3.200000763"/>
    <rect class="cls-1" x="25.300003052" y="48.424999237" width="3.199996948" height="3.200000763"/>
    <rect class="cls-1" x="25.300003052" y="45.325000763" width="3.199996948" height="3.200000763"/>
    <rect class="cls-1" x="25.300003052" y="42.125" width="3.199996948" height="3.200000763"/>
    <rect class="cls-1" x="22.099998474" y="61.224998474" width="3.200004578" height="3.199996948"/>
    <rect class="cls-1" x="22.099998474" y="58.025001526" width="3.200004578" height="3.200000763"/>
    <rect class="cls-1" x="22.099998474" y="54.825000763" width="3.200004578" height="3.200000763"/>
    <rect class="cls-1" x="22.099998474" y="51.625" width="3.200004578" height="3.200000763"/>
    <rect class="cls-1" x="22.099998474" y="48.424999237" width="3.200004578" height="3.200000763"/>
    <rect class="cls-1" x="22.099998474" y="45.325000763" width="3.200004578" height="3.200000763"/>
    <rect class="cls-1" x="22.099998474" y="42.125" width="3.200004578" height="3.200000763"/>
  </g>
  <g>
    <rect class="cls-1" x="82.5" y="81.875" width="3.199996948" height="3.199996948"/>
    <rect class="cls-2" x="82.5" y="78.775001526" width="3.199996948" height="3.199996948"/>
    <rect class="cls-2" x="82.5" y="75.574996948" width="3.199996948" height="3.199996948"/>
    <rect x="82.5" y="59.674999237" width="3.199996948" height="3.200000763"/>
    <rect x="82.5" y="56.474998474" width="3.199996948" height="3.200000763"/>
    <rect x="82.5" y="53.275001526" width="3.199996948" height="3.200000763"/>
    <rect x="82.5" y="50.075000763" width="3.199996948" height="3.200000763"/>
    <rect x="82.5" y="46.875" width="3.199996948" height="3.200000763"/>
    <rect class="cls-1" x="79.399993896" y="81.875" width="3.199996948" height="3.199996948"/>
    <rect class="cls-2" x="79.399993896" y="78.775001526" width="3.199996948" height="3.199996948"/>
    <rect class="cls-2" x="79.399993896" y="75.574996948" width="3.199996948" height="3.199996948"/>
    <rect class="cls-2" x="79.399993896" y="72.375" width="3.199996948" height="3.199996948"/>
    <rect x="79.399993896" y="65.974998474" width="3.199996948" height="3.199996948"/>
    <rect x="79.399993896" y="62.875" width="3.199996948" height="3.200000763"/>
    <rect x="79.399993896" y="59.674999237" width="3.199996948" height="3.200000763"/>
    <rect x="79.399993896" y="56.474998474" width="3.199996948" height="3.200000763"/>
    <rect x="79.399993896" y="53.275001526" width="3.199996948" height="3.200000763"/>
    <rect x="79.399993896" y="50.075000763" width="3.199996948" height="3.200000763"/>
    <rect x="79.399993896" y="46.875" width="3.199996948" height="3.200000763"/>
    <rect x="79.399993896" y="43.775001526" width="3.199996948" height="3.200000763"/>
    <rect x="79.399993896" y="40.575000763" width="3.199996948" height="3.200000763"/>
    <rect class="cls-1" x="76.199996948" y="78.775001526" width="3.199996948" height="3.199996948"/>
    <rect class="cls-2" x="76.199996948" y="75.574996948" width="3.199996948" height="3.199996948"/>
    <rect class="cls-2" x="76.199996948" y="72.375" width="3.199996948" height="3.199996948"/>
    <rect class="cls-2" x="76.199996948" y="69.175003052" width="3.199996948" height="3.199996948"/>
    <rect x="76.199996948" y="65.974998474" width="3.199996948" height="3.199996948"/>
    <rect x="76.199996948" y="62.875" width="3.199996948" height="3.200000763"/>
    <rect x="76.199996948" y="43.775001526" width="3.199996948" height="3.200000763"/>
    <rect x="76.199996948" y="40.575000763" width="3.199996948" height="3.200000763"/>
    <rect x="76.199996948" y="37.375" width="3.199996948" height="3.200000763"/>
    <rect x="76.199996948" y="34.174999237" width="3.199996948" height="3.200000763"/>
    <rect class="cls-1" x="73" y="75.574996948" width="3.199996948" height="3.199996948"/>
    <rect class="cls-2" x="73" y="72.375" width="3.199996948" height="3.199996948"/>
    <rect class="cls-2" x="73" y="69.175003052" width="3.199996948" height="3.199996948"/>
    <rect class="cls-2" x="73" y="65.974998474" width="3.199996948" height="3.199996948"/>
    <rect x="73" y="37.375" width="3.199996948" height="3.200000763"/>
    <rect x="73" y="34.174999237" width="3.199996948" height="3.200000763"/>
    <rect x="69.800003052" y="75.574996948" width="3.199996948" height="3.199996948"/>
    <rect class="cls-1" x="69.800003052" y="72.375" width="3.199996948" height="3.199996948"/>
    <rect class="cls-2" x="69.800003052" y="69.175003052" width="3.199996948" height="3.199996948"/>
    <rect class="cls-2" x="69.800003052" y="65.974998474" width="3.199996948" height="3.199996948"/>
    <rect class="cls-2" x="69.800003052" y="62.875" width="3.199996948" height="3.200000763"/>
    <rect x="69.800003052" y="34.174999237" width="3.199996948" height="3.200000763"/>
    <rect x="69.800003052" y="30.975000381" width="3.199996948" height="3.200000763"/>
    <rect x="66.600006104" y="78.775001526" width="3.199996948" height="3.199996948"/>
    <rect x="66.600006104" y="75.574996948" width="3.199996948" height="3.199996948"/>
    <rect x="66.600006104" y="72.375" width="3.199996948" height="3.199996948"/>
    <rect class="cls-1" x="66.600006104" y="69.175003052" width="3.199996948" height="3.199996948"/>
    <rect class="cls-2" x="66.600006104" y="65.974998474" width="3.199996948" height="3.199996948"/>
    <rect class="cls-2" x="66.600006104" y="62.875" width="3.199996948" height="3.200000763"/>
    <rect class="cls-2" x="66.600006104" y="59.674999237" width="3.199996948" height="3.200000763"/>
    <rect x="66.600006104" y="56.474998474" width="3.199996948" height="3.200000763"/>
    <rect x="66.600006104" y="53.275001526" width="3.199996948" height="3.200000763"/>
    <rect x="66.600006104" y="50.075000763" width="3.199996948" height="3.200000763"/>
    <rect x="66.600006104" y="34.174999237" width="3.199996948" height="3.200000763"/>
    <rect x="66.600006104" y="30.975000381" width="3.199996948" height="3.200000763"/>
    <rect x="66.600006104" y="27.875" width="3.199996948" height="3.200000763"/>
    <rect x="63.399993896" y="78.775001526" width="3.199996948" height="3.199996948"/>
    <rect x="63.399993896" y="75.574996948" width="3.199996948" height="3.199996948"/>
    <rect class="cls-1" x="63.399993896" y="65.974998474" width="3.199996948" height="3.199996948"/>
    <rect class="cls-2" x="63.399993896" y="62.875" width="3.199996948" height="3.200000763"/>
    <rect class="cls-2" x="63.399993896" y="59.674999237" width="3.199996948" height="3.200000763"/>
    <rect class="cls-2" x="63.399993896" y="56.474998474" width="3.199996948" height="3.200000763"/>
    <rect x="63.399993896" y="53.275001526" width="3.199996948" height="3.200000763"/>
    <rect x="63.399993896" y="50.075000763" width="3.199996948" height="3.200000763"/>
    <rect x="63.399993896" y="46.875" width="3.199996948" height="3.200000763"/>
    <rect x="63.399993896" y="30.975000381" width="3.199996948" height="3.200000763"/>
    <rect x="63.399993896" y="27.875" width="3.199996948" height="3.200000763"/>
    <rect x="60.300003052" y="78.775001526" width="3.199996948" height="3.199996948"/>
    <rect x="60.300003052" y="75.574996948" width="3.199996948" height="3.199996948"/>
    <rect class="cls-1" x="60.300003052" y="62.875" width="3.199996948" height="3.200000763"/>
    <rect class="cls-2" x="60.300003052" y="59.674999237" width="3.199996948" height="3.200000763"/>
    <rect class="cls-2" x="60.300003052" y="56.474998474" width="3.199996948" height="3.200000763"/>
    <rect class="cls-2" x="60.300003052" y="53.275001526" width="3.199996948" height="3.200000763"/>
    <rect x="60.300003052" y="50.075000763" width="3.199996948" height="3.200000763"/>
    <rect x="60.300003052" y="46.875" width="3.199996948" height="3.200000763"/>
    <rect x="60.300003052" y="43.775001526" width="3.199996948" height="3.200000763"/>
    <rect x="60.300003052" y="30.975000381" width="3.199996948" height="3.200000763"/>
    <rect x="60.300003052" y="27.875" width="3.199996948" height="3.200000763"/>
    <rect class="cls-1" x="57.100006104" y="59.674999237" width="3.199996948" height="3.200000763"/>
    <rect class="cls-2" x="57.100006104" y="56.474998474" width="3.199996948" height="3.200000763"/>
    <rect class="cls-2" x="57.100006104" y="53.275001526" width="3.199996948" height="3.200000763"/>
    <rect class="cls-2" x="57.100006104" y="50.075000763" width="3.199996948" height="3.200000763"/>
    <rect class="cls-1" x="53.899993896" y="56.474998474" width="3.199996948" height="3.200000763"/>
    <rect class="cls-2" x="53.899993896" y="53.275001526" width="3.199996948" height="3.200000763"/>
    <rect class="cls-2" x="53.899993896" y="50.075000763" width="3.199996948" height="3.200000763"/>
    <rect class="cls-2" x="53.899993896" y="46.875" width="3.199996948" height="3.200000763"/>
    <rect x="50.699996948" y="78.775001526" width="3.199996948" height="3.199996948"/>
    <rect x="50.699996948" y="75.574996948" width="3.199996948" height="3.199996948"/>
    <rect x="50.699996948" y="72.375" width="3.199996948" height="3.199996948"/>
    <rect x="50.699996948" y="69.175003052" width="3.199996948" height="3.199996948"/>
    <rect x="50.699996948" y="65.974998474" width="3.199996948" height="3.199996948"/>
    <rect x="50.699996948" y="62.875" width="3.199996948" height="3.200000763"/>
    <rect x="50.699996948" y="59.674999237" width="3.199996948" height="3.200000763"/>
    <rect x="50.699996948" y="56.474998474" width="3.199996948" height="3.200000763"/>
    <rect class="cls-1" x="50.699996948" y="53.275001526" width="3.199996948" height="3.200000763"/>
    <rect class="cls-2" x="50.699996948" y="50.075000763" width="3.199996948" height="3.200000763"/>
    <rect class="cls-2" x="50.699996948" y="46.875" width="3.199996948" height="3.200000763"/>
    <rect class="cls-2" x="50.699996948" y="43.775001526" width="3.199996948" height="3.200000763"/>
    <rect x="50.699996948" y="40.575000763" width="3.199996948" height="3.200000763"/>
    <rect x="50.699996948" y="37.375" width="3.199996948" height="3.200000763"/>
    <rect x="50.699996948" y="34.174999237" width="3.199996948" height="3.200000763"/>
    <rect x="50.699996948" y="30.975000381" width="3.199996948" height="3.200000763"/>
    <rect x="50.699996948" y="27.875" width="3.199996948" height="3.200000763"/>
    <rect x="47.5" y="75.574996948" width="3.199996948" height="3.199996948"/>
    <rect x="47.5" y="72.375" width="3.199996948" height="3.199996948"/>
    <rect x="47.5" y="69.175003052" width="3.199996948" height="3.199996948"/>
    <rect x="47.5" y="65.974998474" width="3.199996948" height="3.199996948"/>
    <rect x="47.5" y="62.875" width="3.199996948" height="3.200000763"/>
    <rect x="47.5" y="59.674999237" width="3.199996948" height="3.200000763"/>
    <rect x="47.5" y="56.474998474" width="3.199996948" height="3.200000763"/>
    <rect x="47.5" y="53.275001526" width="3.199996948" height="3.200000763"/>
    <rect class="cls-1" x="47.5" y="50.075000763" width="3.199996948" height="3.200000763"/>
    <rect class="cls-2" x="47.5" y="46.875" width="3.199996948" height="3.200000763"/>
    <rect class="cls-2" x="47.5" y="43.775001526" width="3.199996948" height="3.200000763"/>
    <rect class="cls-2" x="47.5" y="40.575000763" width="3.199996948" height="3.200000763"/>
    <rect x="47.5" y="37.375" width="3.199996948" height="3.200000763"/>
    <rect x="47.5" y="34.174999237" width="3.199996948" height="3.200000763"/>
    <rect x="47.5" y="30.975000381" width="3.199996948" height="3.200000763"/>
    <rect x="44.399993896" y="72.375" width="3.199996948" height="3.199996948"/>
    <rect x="44.399993896" y="69.175003052" width="3.199996948" height="3.199996948"/>
    <rect x="44.399993896" y="65.974998474" width="3.199996948" height="3.199996948"/>
    <rect class="cls-1" x="44.399993896" y="46.875" width="3.199996948" height="3.200000763"/>
    <rect class="cls-2" x="44.399993896" y="43.775001526" width="3.199996948" height="3.200000763"/>
    <rect class="cls-2" x="44.399993896" y="40.575000763" width="3.199996948" height="3.200000763"/>
    <rect class="cls-2" x="44.399993896" y="37.375" width="3.199996948" height="3.200000763"/>
    <rect x="44.399993896" y="34.174999237" width="3.199996948" height="3.200000763"/>
    <rect x="41.199996948" y="69.175003052" width="3.199996948" height="3.199996948"/>
    <rect x="41.199996948" y="65.974998474" width="3.199996948" height="3.199996948"/>
    <rect x="41.199996948" y="62.875" width="3.199996948" height="3.200000763"/>
    <rect class="cls-1" x="41.199996948" y="43.775001526" width="3.199996948" height="3.200000763"/>
    <rect class="cls-2" x="41.199996948" y="40.575000763" width="3.199996948" height="3.200000763"/>
    <rect class="cls-2" x="41.199996948" y="37.375" width="3.199996948" height="3.200000763"/>
    <rect class="cls-2" x="41.199996948" y="34.174999237" width="3.199996948" height="3.200000763"/>
    <rect x="38" y="65.974998474" width="3.199996948" height="3.199996948"/>
    <rect x="38" y="62.875" width="3.199996948" height="3.200000763"/>
    <rect x="38" y="59.674999237" width="3.199996948" height="3.200000763"/>
    <rect x="38" y="46.875" width="3.199996948" height="3.200000763"/>
    <rect x="38" y="43.775001526" width="3.199996948" height="3.200000763"/>
    <rect class="cls-1" x="38" y="40.575000763" width="3.199996948" height="3.200000763"/>
    <rect class="cls-2" x="38" y="37.375" width="3.199996948" height="3.200000763"/>
    <rect class="cls-2" x="38" y="34.174999237" width="3.199996948" height="3.200000763"/>
    <rect class="cls-2" x="38" y="30.975000381" width="3.199996948" height="3.200000763"/>
    <rect x="34.800003052" y="62.875" width="3.199996948" height="3.200000763"/>
    <rect x="34.800003052" y="59.674999237" width="3.199996948" height="3.200000763"/>
    <rect x="34.800003052" y="56.474998474" width="3.199996948" height="3.200000763"/>
    <rect x="34.800003052" y="53.275001526" width="3.199996948" height="3.200000763"/>
    <rect x="34.800003052" y="50.075000763" width="3.199996948" height="3.200000763"/>
    <rect x="34.800003052" y="46.875" width="3.199996948" height="3.200000763"/>
    <rect x="34.800003052" y="43.775001526" width="3.199996948" height="3.200000763"/>
    <rect class="cls-1" x="34.800003052" y="37.375" width="3.199996948" height="3.200000763"/>
    <rect class="cls-2" x="34.800003052" y="34.174999237" width="3.199996948" height="3.200000763"/>
    <rect class="cls-2" x="34.800003052" y="30.975000381" width="3.199996948" height="3.200000763"/>
    <rect class="cls-2" x="34.800003052" y="27.875" width="3.199996948" height="3.200000763"/>
    <rect x="31.600006104" y="62.875" width="3.199996948" height="3.200000763"/>
    <rect x="31.600006104" y="59.674999237" width="3.199996948" height="3.200000763"/>
    <rect x="31.600006104" y="56.474998474" width="3.199996948" height="3.200000763"/>
    <rect x="31.600006104" y="53.275001526" width="3.199996948" height="3.200000763"/>
    <rect x="31.600006104" y="50.075000763" width="3.199996948" height="3.200000763"/>
    <rect x="31.600006104" y="46.875" width="3.199996948" height="3.200000763"/>
    <rect x="31.600006104" y="43.775001526" width="3.199996948" height="3.200000763"/>
    <rect class="cls-1" x="31.600006104" y="34.174999237" width="3.199996948" height="3.200000763"/>
    <rect class="cls-2" x="31.600006104" y="30.975000381" width="3.199996948" height="3.200000763"/>
    <rect class="cls-2" x="31.600006104" y="27.875" width="3.199996948" height="3.200000763"/>
    <rect class="cls-2" x="31.600006104" y="24.674999237" width="3.199996948" height="3.200000763"/>
    <rect x="28.399993896" y="62.875" width="3.199996948" height="3.200000763"/>
    <rect x="28.399993896" y="59.674999237" width="3.199996948" height="3.200000763"/>
    <rect x="28.399993896" y="46.875" width="3.199996948" height="3.200000763"/>
    <rect x="28.399993896" y="43.775001526" width="3.199996948" height="3.200000763"/>
    <rect class="cls-1" x="28.399993896" y="30.975000381" width="3.199996948" height="3.200000763"/>
    <rect class="cls-2" x="28.399993896" y="27.875" width="3.199996948" height="3.200000763"/>
    <rect class="cls-2" x="28.399993896" y="24.674999237" width="3.199996948" height="3.200000763"/>
    <rect class="cls-2" x="28.399993896" y="21.475000381" width="3.199996948" height="3.200000763"/>
    <rect x="25.300003052" y="62.875" width="3.199996948" height="3.200000763"/>
    <rect x="25.300003052" y="59.674999237" width="3.199996948" height="3.200000763"/>
    <rect x="25.300003052" y="56.474998474" width="3.199996948" height="3.200000763"/>
    <rect x="25.300003052" y="53.275001526" width="3.199996948" height="3.200000763"/>
    <rect x="25.300003052" y="50.075000763" width="3.199996948" height="3.200000763"/>
    <rect x="25.300003052" y="46.875" width="3.199996948" height="3.200000763"/>
    <rect x="25.300003052" y="43.775001526" width="3.199996948" height="3.200000763"/>
    <rect class="cls-1" x="25.300003052" y="27.875" width="3.199996948" height="3.200000763"/>
    <rect class="cls-2" x="25.300003052" y="24.674999237" width="3.199996948" height="3.200000763"/>
    <rect class="cls-2" x="25.300003052" y="21.475000381" width="3.199996948" height="3.200000763"/>
    <rect x="22.099998474" y="62.875" width="3.200004578" height="3.200000763"/>
    <rect x="22.099998474" y="59.674999237" width="3.200004578" height="3.200000763"/>
    <rect x="22.099998474" y="56.474998474" width="3.200004578" height="3.200000763"/>
    <rect x="22.099998474" y="53.275001526" width="3.200004578" height="3.200000763"/>
    <rect x="22.099998474" y="50.075000763" width="3.200004578" height="3.200000763"/>
    <rect x="22.099998474" y="46.875" width="3.200004578" height="3.200000763"/>
    <rect x="22.099998474" y="43.775001526" width="3.200004578" height="3.200000763"/>
  </g>
</svg>