<?xml version="1.0" encoding="UTF-8"?>
<svg id="Ebene_2" data-name="Ebene 2" xmlns="http://www.w3.org/2000/svg" width="100.5" height="100.5" viewBox="0 0 100.5 100.5">
  <rect x="94" y="94" width="6.3" height="6.2" style="fill: #5b5b5b;"/>
  <rect x="94" y="87.7" width="6.3" height="6.3" style="fill: #5b5b5b;"/>
  <rect x="94" y="81.5" width="6.3" height="6.2" style="fill: #5b5b5b;"/>
  <rect x="94" y="75.2" width="6.3" height="6.3" style="fill: #5b5b5b;"/>
  <rect x="94" y="69" width="6.3" height="6.2" style="fill: #5b5b5b;"/>
  <rect x="94" y="62.7" width="6.3" height="6.3" style="fill: #5b5b5b;"/>
  <rect x="94" y="56.5" width="6.3" height="6.2" style="fill: #5b5b5b;"/>
  <rect x="94" y="50.2" width="6.3" height="6.3" style="fill: #5b5b5b;"/>
  <rect x="94" y="44" width="6.3" height="6.2" style="fill: #595959;"/>
  <rect x="94" y="37.7" width="6.3" height="6.3" style="fill: #5b5b5b;"/>
  <rect x="94" y="31.5" width="6.3" height="6.2" style="fill: #5b5b5b;"/>
  <rect x="94" y="25.2" width="6.3" height="6.3" style="fill: #5b5b5b;"/>
  <rect x="94" y="19" width="6.3" height="6.2" style="fill: #595959;"/>
  <rect x="94" y="12.7" width="6.3" height="6.3" style="fill: #5e5e5e;"/>
  <rect x="94" y="6.5" width="6.3" height="6.2" style="fill: #5b5b5b;"/>
  <rect x="94" y=".2" width="6.3" height="6.3" style="fill: #5e5e5e;"/>
  <rect x="87.8" y="94" width="6.2" height="6.2" style="fill: #5b5b5b;"/>
  <rect x="87.8" y="87.7" width="6.2" height="6.3" style="fill: #595959;"/>
  <rect x="87.8" y="81.5" width="6.2" height="6.2" style="fill: #5b5b5b;"/>
  <rect x="87.8" y="75.2" width="6.2" height="6.3" style="fill: #5b5b5b;"/>
  <rect x="87.8" y="69" width="6.2" height="6.2" style="fill: #5b5b5b;"/>
  <rect x="87.8" y="62.7" width="6.2" height="6.3" style="fill: #5e5e5e;"/>
  <rect x="87.8" y="56.5" width="6.2" height="6.2" style="fill: #5b5b5b;"/>
  <rect x="87.8" y="50.2" width="6.2" height="6.3" style="fill: #5b5b5b;"/>
  <rect x="87.8" y="44" width="6.2" height="6.2" style="fill: #595959;"/>
  <rect x="87.8" y="37.7" width="6.2" height="6.3" style="fill: #5b5b5b;"/>
  <rect x="87.8" y="31.5" width="6.2" height="6.2" style="fill: #5b5b5b;"/>
  <rect x="87.8" y="25.2" width="6.2" height="6.3" style="fill: #5b5b5b;"/>
  <rect x="87.8" y="19" width="6.2" height="6.2" style="fill: #5b5b5b;"/>
  <rect x="87.8" y="12.7" width="6.2" height="6.3" style="fill: #5b5b5b;"/>
  <rect x="87.8" y="6.5" width="6.2" height="6.2" style="fill: #5b5b5b;"/>
  <rect x="87.8" y=".2" width="6.2" height="6.3" style="fill: #5b5b5b;"/>
  <rect x="81.5" y="94" width="6.3" height="6.2" style="fill: #5b5b5b;"/>
  <rect x="81.5" y="87.7" width="6.3" height="6.3" style="fill: #5b5b5b;"/>
  <rect x="81.5" y="81.5" width="6.3" height="6.2" style="fill: #5b5b5b;"/>
  <rect x="81.5" y="75.2" width="6.3" height="6.3" style="fill: #5b5b5b;"/>
  <rect x="81.5" y="69" width="6.3" height="6.2" style="fill: #5b5b5b;"/>
  <rect x="81.5" y="62.7" width="6.3" height="6.3" style="fill: #595959;"/>
  <rect x="81.5" y="56.5" width="6.3" height="6.2" style="fill: #5b5b5b;"/>
  <rect x="81.5" y="50.2" width="6.3" height="6.3" style="fill: #595959;"/>
  <rect x="81.5" y="44" width="6.3" height="6.2" style="fill: #5b5b5b;"/>
  <rect x="81.5" y="37.7" width="6.3" height="6.3" style="fill: #5b5b5b;"/>
  <rect x="81.5" y="31.5" width="6.3" height="6.2" style="fill: #595959;"/>
  <rect x="81.5" y="25.2" width="6.3" height="6.3" style="fill: #5b5b5b;"/>
  <rect x="81.5" y="19" width="6.3" height="6.2" style="fill: #595959;"/>
  <rect x="81.5" y="12.7" width="6.3" height="6.3" style="fill: #595959;"/>
  <rect x="81.5" y="6.5" width="6.3" height="6.2" style="fill: #5b5b5b;"/>
  <rect x="81.5" y=".2" width="6.3" height="6.3" style="fill: #595959;"/>
  <rect x="75.3" y="94" width="6.2" height="6.2" style="fill: #595959;"/>
  <rect x="75.3" y="87.7" width="6.2" height="6.3" style="fill: #5e5e5e;"/>
  <rect x="75.3" y="81.5" width="6.2" height="6.2" style="fill: #595959;"/>
  <rect x="75.3" y="75.2" width="6.2" height="6.3" style="fill: #5e5e5e;"/>
  <rect x="75.3" y="69" width="6.2" height="6.2" style="fill: #5b5b5b;"/>
  <rect x="75.3" y="62.7" width="6.2" height="6.3" style="fill: #5b5b5b;"/>
  <rect x="75.3" y="56.5" width="6.2" height="6.2" style="fill: #5b5b5b;"/>
  <rect x="75.3" y="50.2" width="6.2" height="6.3" style="fill: #5b5b5b;"/>
  <rect x="75.3" y="44" width="6.2" height="6.2" style="fill: #5b5b5b;"/>
  <rect x="75.3" y="37.7" width="6.2" height="6.3" style="fill: #5b5b5b;"/>
  <rect x="75.3" y="31.5" width="6.2" height="6.2" style="fill: #5b5b5b;"/>
  <rect x="75.3" y="25.2" width="6.2" height="6.3" style="fill: #5b5b5b;"/>
  <rect x="75.3" y="19" width="6.2" height="6.2" style="fill: #5b5b5b;"/>
  <rect x="75.3" y="12.7" width="6.2" height="6.3" style="fill: #5b5b5b;"/>
  <rect x="75.3" y="6.5" width="6.2" height="6.2" style="fill: #595959;"/>
  <rect x="75.3" y=".2" width="6.2" height="6.3" style="fill: #595959;"/>
  <rect x="69" y="94" width="6.3" height="6.2" style="fill: #595959;"/>
  <rect x="69" y="87.7" width="6.3" height="6.3" style="fill: #5e5e5e;"/>
  <rect x="69" y="81.5" width="6.3" height="6.2" style="fill: #5b5b5b;"/>
  <rect x="69" y="75.2" width="6.3" height="6.3" style="fill: #5b5b5b;"/>
  <rect x="69" y="69" width="6.3" height="6.2" style="fill: #5b5b5b;"/>
  <rect x="69" y="62.7" width="6.3" height="6.3" style="fill: #5b5b5b;"/>
  <rect x="69" y="56.5" width="6.3" height="6.2" style="fill: #5b5b5b;"/>
  <rect x="69" y="50.2" width="6.3" height="6.3" style="fill: #5b5b5b;"/>
  <rect x="69" y="44" width="6.3" height="6.2" style="fill: #5e5e5e;"/>
  <rect x="69" y="37.7" width="6.3" height="6.3" style="fill: #5b5b5b;"/>
  <rect x="69" y="31.5" width="6.3" height="6.2" style="fill: #5b5b5b;"/>
  <rect x="69" y="25.2" width="6.3" height="6.3" style="fill: #5b5b5b;"/>
  <rect x="69" y="19" width="6.3" height="6.2" style="fill: #595959;"/>
  <rect x="69" y="12.7" width="6.3" height="6.3" style="fill: #5b5b5b;"/>
  <rect x="69" y="6.5" width="6.3" height="6.2" style="fill: #5b5b5b;"/>
  <rect x="69" y=".2" width="6.3" height="6.3" style="fill: #5b5b5b;"/>
  <rect x="62.8" y="94" width="6.2" height="6.2" style="fill: #595959;"/>
  <rect x="62.8" y="87.7" width="6.2" height="6.3" style="fill: #595959;"/>
  <rect x="62.8" y="81.5" width="6.2" height="6.2" style="fill: #5b5b5b;"/>
  <rect x="62.8" y="75.2" width="6.2" height="6.3" style="fill: #5e5e5e;"/>
  <rect x="62.8" y="69" width="6.2" height="6.2" style="fill: #5b5b5b;"/>
  <rect x="62.8" y="62.7" width="6.2" height="6.3" style="fill: #5b5b5b;"/>
  <rect x="62.8" y="56.5" width="6.2" height="6.2" style="fill: #595959;"/>
  <rect x="62.8" y="50.2" width="6.2" height="6.3" style="fill: #5b5b5b;"/>
  <rect x="62.8" y="44" width="6.2" height="6.2" style="fill: #5b5b5b;"/>
  <rect x="62.8" y="37.7" width="6.2" height="6.3" style="fill: #595959;"/>
  <rect x="62.8" y="31.5" width="6.2" height="6.2" style="fill: #5e5e5e;"/>
  <rect x="62.8" y="25.2" width="6.2" height="6.3" style="fill: #5b5b5b;"/>
  <rect x="62.8" y="19" width="6.2" height="6.2" style="fill: #5b5b5b;"/>
  <rect x="62.8" y="12.7" width="6.2" height="6.3" style="fill: #5b5b5b;"/>
  <rect x="62.8" y="6.5" width="6.2" height="6.2" style="fill: #5b5b5b;"/>
  <rect x="62.8" y=".2" width="6.2" height="6.3" style="fill: #5b5b5b;"/>
  <rect x="56.5" y="94" width="6.3" height="6.2" style="fill: #5b5b5b;"/>
  <rect x="56.5" y="87.7" width="6.3" height="6.3" style="fill: #5b5b5b;"/>
  <rect x="56.5" y="81.5" width="6.3" height="6.2" style="fill: #5b5b5b;"/>
  <rect x="56.5" y="75.2" width="6.3" height="6.3" style="fill: #595959;"/>
  <rect x="56.5" y="69" width="6.3" height="6.2" style="fill: #595959;"/>
  <rect x="56.5" y="62.7" width="6.3" height="6.3" style="fill: #5b5b5b;"/>
  <rect x="56.5" y="56.5" width="6.3" height="6.2" style="fill: #5b5b5b;"/>
  <rect x="56.5" y="50.2" width="6.3" height="6.3" style="fill: #5e5e5e;"/>
  <rect x="56.5" y="44" width="6.3" height="6.2" style="fill: #5b5b5b;"/>
  <rect x="56.5" y="37.7" width="6.3" height="6.3" style="fill: #595959;"/>
  <rect x="56.5" y="31.5" width="6.3" height="6.2" style="fill: #5b5b5b;"/>
  <rect x="56.5" y="25.2" width="6.3" height="6.3" style="fill: #5b5b5b;"/>
  <rect x="56.5" y="19" width="6.3" height="6.2" style="fill: #5b5b5b;"/>
  <rect x="56.5" y="12.7" width="6.3" height="6.3" style="fill: #595959;"/>
  <rect x="56.5" y="6.5" width="6.3" height="6.2" style="fill: #595959;"/>
  <rect x="56.5" y=".2" width="6.3" height="6.3" style="fill: #5b5b5b;"/>
  <rect x="50.3" y="94" width="6.2" height="6.2" style="fill: #5e5e5e;"/>
  <rect x="50.3" y="87.7" width="6.2" height="6.3" style="fill: #595959;"/>
  <rect x="50.3" y="81.5" width="6.2" height="6.2" style="fill: #5b5b5b;"/>
  <rect x="50.3" y="75.2" width="6.2" height="6.3" style="fill: #5b5b5b;"/>
  <rect x="50.3" y="69" width="6.2" height="6.2" style="fill: #5b5b5b;"/>
  <rect x="50.3" y="62.7" width="6.2" height="6.3" style="fill: #5e5e5e;"/>
  <rect x="50.3" y="56.5" width="6.2" height="6.2" style="fill: #5b5b5b;"/>
  <rect x="50.3" y="50.2" width="6.2" height="6.3" style="fill: #5b5b5b;"/>
  <rect x="50.3" y="44" width="6.2" height="6.2" style="fill: #5e5e5e;"/>
  <rect x="50.3" y="37.7" width="6.2" height="6.3" style="fill: #595959;"/>
  <rect x="50.3" y="31.5" width="6.2" height="6.2" style="fill: #5b5b5b;"/>
  <rect x="50.3" y="25.2" width="6.2" height="6.3" style="fill: #5e5e5e;"/>
  <rect x="50.3" y="19" width="6.2" height="6.2" style="fill: #5b5b5b;"/>
  <rect x="50.3" y="12.7" width="6.2" height="6.3" style="fill: #595959;"/>
  <rect x="50.3" y="6.5" width="6.2" height="6.2" style="fill: #5b5b5b;"/>
  <rect x="50.3" y=".2" width="6.2" height="6.3" style="fill: #5b5b5b;"/>
  <rect x="44" y="94" width="6.3" height="6.2" style="fill: #5b5b5b;"/>
  <rect x="44" y="87.7" width="6.3" height="6.3" style="fill: #595959;"/>
  <rect x="44" y="81.5" width="6.3" height="6.2" style="fill: #5b5b5b;"/>
  <rect x="44" y="75.2" width="6.3" height="6.3" style="fill: #5b5b5b;"/>
  <rect x="44" y="69" width="6.3" height="6.2" style="fill: #5b5b5b;"/>
  <rect x="44" y="62.7" width="6.3" height="6.3" style="fill: #5b5b5b;"/>
  <rect x="44" y="56.5" width="6.3" height="6.2" style="fill: #5b5b5b;"/>
  <rect x="44" y="50.2" width="6.3" height="6.3" style="fill: #595959;"/>
  <rect x="44" y="44" width="6.3" height="6.2" style="fill: #5b5b5b;"/>
  <rect x="44" y="37.7" width="6.3" height="6.3" style="fill: #5b5b5b;"/>
  <rect x="44" y="31.5" width="6.3" height="6.2" style="fill: #5e5e5e;"/>
  <rect x="44" y="25.2" width="6.3" height="6.3" style="fill: #5b5b5b;"/>
  <rect x="44" y="19" width="6.3" height="6.2" style="fill: #595959;"/>
  <rect x="44" y="12.7" width="6.3" height="6.3" style="fill: #5e5e5e;"/>
  <rect x="44" y="6.5" width="6.3" height="6.2" style="fill: #595959;"/>
  <rect x="44" y=".2" width="6.3" height="6.3" style="fill: #5b5b5b;"/>
  <rect x="37.8" y="94" width="6.2" height="6.2" style="fill: #5b5b5b;"/>
  <rect x="37.8" y="87.7" width="6.2" height="6.3" style="fill: #5b5b5b;"/>
  <rect x="37.8" y="81.5" width="6.2" height="6.2" style="fill: #5b5b5b;"/>
  <rect x="37.8" y="75.2" width="6.2" height="6.3" style="fill: #5e5e5e;"/>
  <rect x="37.8" y="69" width="6.2" height="6.2" style="fill: #5b5b5b;"/>
  <rect x="37.8" y="62.7" width="6.2" height="6.3" style="fill: #5b5b5b;"/>
  <rect x="37.8" y="56.5" width="6.2" height="6.2" style="fill: #595959;"/>
  <rect x="37.8" y="50.2" width="6.2" height="6.3" style="fill: #5b5b5b;"/>
  <rect x="37.8" y="44" width="6.2" height="6.2" style="fill: #5b5b5b;"/>
  <rect x="37.8" y="37.7" width="6.2" height="6.3" style="fill: #5e5e5e;"/>
  <rect x="37.8" y="31.5" width="6.2" height="6.2" style="fill: #5b5b5b;"/>
  <rect x="37.8" y="25.2" width="6.2" height="6.3" style="fill: #5b5b5b;"/>
  <rect x="37.8" y="19" width="6.2" height="6.2" style="fill: #5b5b5b;"/>
  <rect x="37.8" y="12.7" width="6.2" height="6.3" style="fill: #5b5b5b;"/>
  <rect x="37.8" y="6.5" width="6.2" height="6.2" style="fill: #595959;"/>
  <rect x="37.8" y=".2" width="6.2" height="6.3" style="fill: #5e5e5e;"/>
  <rect x="31.5" y="94" width="6.3" height="6.2" style="fill: #5b5b5b;"/>
  <rect x="31.5" y="87.7" width="6.3" height="6.3" style="fill: #595959;"/>
  <rect x="31.5" y="81.5" width="6.3" height="6.2" style="fill: #5e5e5e;"/>
  <rect x="31.5" y="75.2" width="6.3" height="6.3" style="fill: #5b5b5b;"/>
  <rect x="31.5" y="69" width="6.3" height="6.2" style="fill: #5b5b5b;"/>
  <rect x="31.5" y="62.7" width="6.3" height="6.3" style="fill: #595959;"/>
  <rect x="31.5" y="56.5" width="6.3" height="6.2" style="fill: #5b5b5b;"/>
  <rect x="31.5" y="50.2" width="6.3" height="6.3" style="fill: #5b5b5b;"/>
  <rect x="31.5" y="44" width="6.3" height="6.2" style="fill: #5b5b5b;"/>
  <rect x="31.5" y="37.7" width="6.3" height="6.3" style="fill: #5b5b5b;"/>
  <rect x="31.5" y="31.5" width="6.3" height="6.2" style="fill: #595959;"/>
  <rect x="31.5" y="25.2" width="6.3" height="6.3" style="fill: #5b5b5b;"/>
  <rect x="31.5" y="19" width="6.3" height="6.2" style="fill: #595959;"/>
  <rect x="31.5" y="12.7" width="6.3" height="6.3" style="fill: #5b5b5b;"/>
  <rect x="31.5" y="6.5" width="6.3" height="6.2" style="fill: #5b5b5b;"/>
  <rect x="31.5" y=".2" width="6.3" height="6.3" style="fill: #5b5b5b;"/>
  <rect x="25.3" y="94" width="6.2" height="6.2" style="fill: #5b5b5b;"/>
  <rect x="25.3" y="87.7" width="6.2" height="6.3" style="fill: #595959;"/>
  <rect x="25.3" y="81.5" width="6.2" height="6.2" style="fill: #5b5b5b;"/>
  <rect x="25.3" y="75.2" width="6.2" height="6.3" style="fill: #595959;"/>
  <rect x="25.3" y="69" width="6.2" height="6.2" style="fill: #5b5b5b;"/>
  <rect x="25.3" y="62.7" width="6.2" height="6.3" style="fill: #5b5b5b;"/>
  <rect x="25.3" y="56.5" width="6.2" height="6.2" style="fill: #5b5b5b;"/>
  <rect x="25.3" y="50.2" width="6.2" height="6.3" style="fill: #5b5b5b;"/>
  <rect x="25.3" y="44" width="6.2" height="6.2" style="fill: #5b5b5b;"/>
  <rect x="25.3" y="37.7" width="6.2" height="6.3" style="fill: #5b5b5b;"/>
  <rect x="25.3" y="31.5" width="6.2" height="6.2" style="fill: #5e5e5e;"/>
  <rect x="25.3" y="25.2" width="6.2" height="6.3" style="fill: #595959;"/>
  <rect x="25.3" y="19" width="6.2" height="6.2" style="fill: #5b5b5b;"/>
  <rect x="25.3" y="12.7" width="6.2" height="6.3" style="fill: #595959;"/>
  <rect x="25.3" y="6.5" width="6.2" height="6.2" style="fill: #5b5b5b;"/>
  <rect x="25.3" y=".2" width="6.2" height="6.3" style="fill: #5b5b5b;"/>
  <rect x="19" y="94" width="6.3" height="6.2" style="fill: #5b5b5b;"/>
  <rect x="19" y="87.7" width="6.3" height="6.3" style="fill: #595959;"/>
  <rect x="19" y="81.5" width="6.3" height="6.2" style="fill: #5b5b5b;"/>
  <rect x="19" y="75.2" width="6.3" height="6.3" style="fill: #595959;"/>
  <rect x="19" y="69" width="6.3" height="6.2" style="fill: #5e5e5e;"/>
  <rect x="19" y="62.7" width="6.3" height="6.3" style="fill: #595959;"/>
  <rect x="19" y="56.5" width="6.3" height="6.2" style="fill: #5b5b5b;"/>
  <rect x="19" y="50.2" width="6.3" height="6.3" style="fill: #5e5e5e;"/>
  <rect x="19" y="44" width="6.3" height="6.2" style="fill: #5b5b5b;"/>
  <rect x="19" y="37.7" width="6.3" height="6.3" style="fill: #5b5b5b;"/>
  <rect x="19" y="31.5" width="6.3" height="6.2" style="fill: #5b5b5b;"/>
  <rect x="19" y="25.2" width="6.3" height="6.3" style="fill: #5b5b5b;"/>
  <rect x="19" y="19" width="6.3" height="6.2" style="fill: #5b5b5b;"/>
  <rect x="19" y="12.7" width="6.3" height="6.3" style="fill: #5b5b5b;"/>
  <rect x="19" y="6.5" width="6.3" height="6.2" style="fill: #5e5e5e;"/>
  <rect x="19" y=".2" width="6.3" height="6.3" style="fill: #5e5e5e;"/>
  <rect x="12.8" y="94" width="6.2" height="6.2" style="fill: #595959;"/>
  <rect x="12.8" y="87.7" width="6.2" height="6.3" style="fill: #5b5b5b;"/>
  <rect x="12.8" y="81.5" width="6.2" height="6.2" style="fill: #5b5b5b;"/>
  <rect x="12.8" y="75.2" width="6.2" height="6.3" style="fill: #5e5e5e;"/>
  <rect x="12.8" y="69" width="6.2" height="6.2" style="fill: #5b5b5b;"/>
  <rect x="12.8" y="62.7" width="6.2" height="6.3" style="fill: #5b5b5b;"/>
  <rect x="12.8" y="56.5" width="6.2" height="6.2" style="fill: #5b5b5b;"/>
  <rect x="12.8" y="50.2" width="6.2" height="6.3" style="fill: #5b5b5b;"/>
  <rect x="12.8" y="44" width="6.2" height="6.2" style="fill: #5e5e5e;"/>
  <rect x="12.8" y="37.7" width="6.2" height="6.3" style="fill: #5b5b5b;"/>
  <rect x="12.8" y="31.5" width="6.2" height="6.2" style="fill: #5e5e5e;"/>
  <rect x="12.8" y="25.2" width="6.2" height="6.3" style="fill: #5b5b5b;"/>
  <rect x="12.8" y="19" width="6.2" height="6.2" style="fill: #5e5e5e;"/>
  <rect x="12.8" y="12.7" width="6.2" height="6.3" style="fill: #595959;"/>
  <rect x="12.8" y="6.5" width="6.2" height="6.2" style="fill: #5b5b5b;"/>
  <rect x="12.8" y=".2" width="6.2" height="6.3" style="fill: #5b5b5b;"/>
  <rect x="6.5" y="94" width="6.3" height="6.2" style="fill: #5b5b5b;"/>
  <rect x="6.5" y="87.7" width="6.3" height="6.3" style="fill: #5e5e5e;"/>
  <rect x="6.5" y="81.5" width="6.3" height="6.2" style="fill: #5e5e5e;"/>
  <rect x="6.5" y="75.2" width="6.3" height="6.3" style="fill: #5b5b5b;"/>
  <rect x="6.5" y="69" width="6.3" height="6.2" style="fill: #5b5b5b;"/>
  <rect x="6.5" y="62.7" width="6.3" height="6.3" style="fill: #5b5b5b;"/>
  <rect x="6.5" y="56.5" width="6.3" height="6.2" style="fill: #5e5e5e;"/>
  <rect x="6.5" y="50.2" width="6.3" height="6.3" style="fill: #5b5b5b;"/>
  <rect x="6.5" y="44" width="6.3" height="6.2" style="fill: #5b5b5b;"/>
  <rect x="6.5" y="37.7" width="6.3" height="6.3" style="fill: #5b5b5b;"/>
  <rect x="6.5" y="31.5" width="6.3" height="6.2" style="fill: #5b5b5b;"/>
  <rect x="6.5" y="25.2" width="6.3" height="6.3" style="fill: #5b5b5b;"/>
  <rect x="6.5" y="19" width="6.3" height="6.2" style="fill: #595959;"/>
  <rect x="6.5" y="12.7" width="6.3" height="6.3" style="fill: #5b5b5b;"/>
  <rect x="6.5" y="6.5" width="6.3" height="6.2" style="fill: #595959;"/>
  <rect x="6.5" y=".2" width="6.3" height="6.3" style="fill: #5b5b5b;"/>
  <rect x=".3" y="94" width="6.2" height="6.2" style="fill: #5b5b5b;"/>
  <rect x=".3" y="87.7" width="6.2" height="6.3" style="fill: #5e5e5e;"/>
  <rect x=".3" y="81.5" width="6.2" height="6.2" style="fill: #5b5b5b;"/>
  <rect x=".3" y="75.2" width="6.2" height="6.3" style="fill: #5b5b5b;"/>
  <rect x=".3" y="69" width="6.2" height="6.2" style="fill: #5b5b5b;"/>
  <rect x=".3" y="62.7" width="6.2" height="6.3" style="fill: #5b5b5b;"/>
  <rect x=".3" y="56.5" width="6.2" height="6.2" style="fill: #5b5b5b;"/>
  <rect x=".3" y="50.2" width="6.2" height="6.3" style="fill: #5b5b5b;"/>
  <rect x=".3" y="44" width="6.2" height="6.2" style="fill: #5e5e5e;"/>
  <rect x=".3" y="37.7" width="6.2" height="6.3" style="fill: #5b5b5b;"/>
  <rect x=".3" y="31.5" width="6.2" height="6.2" style="fill: #5e5e5e;"/>
  <rect x=".3" y="25.2" width="6.2" height="6.3" style="fill: #595959;"/>
  <rect x=".3" y="19" width="6.2" height="6.2" style="fill: #5e5e5e;"/>
  <rect x=".3" y="12.7" width="6.2" height="6.3" style="fill: #5b5b5b;"/>
  <rect x=".3" y="6.5" width="6.2" height="6.2" style="fill: #5e5e5e;"/>
  <rect x=".3" y=".2" width="6.2" height="6.3" style="fill: #595959;"/>
</svg>