<?xml version="1.0" encoding="UTF-8"?>
<svg id="Ebene_6" data-name="Ebene 6" xmlns="http://www.w3.org/2000/svg" viewBox="0 0 105 105">
  <defs>
    <style>
      .cls-1 {
        fill: #fff;
      }

      .cls-2 {
        fill: #e52421;
      }

      .cls-3 {
        fill: #b71918;
      }
    </style>
  </defs>
  <rect class="cls-3" x="71.549999952" y="65.250000715" width="3.199996948" height="3.200000763"/>
  <rect class="cls-2" x="71.549999952" y="39.750000715" width="3.199996948" height="3.200000763"/>
  <rect class="cls-2" x="65.149998426" y="65.250000715" width="3.199996948" height="3.200000763"/>
  <rect class="cls-3" x="68.350003004" y="65.250000715" width="3.199996948" height="3.200000763"/>
  <rect class="cls-2" x="49.250000715" y="36.549999952" width="3.200000763" height="3.200000763"/>
  <rect class="cls-2" x="42.950001478" y="27.049999952" width="3.200000763" height="3.200000763"/>
  <rect class="cls-2" x="77.950001478" y="30.250000715" width="3.199996948" height="3.200000763"/>
  <rect class="cls-3" x="87.450001478" y="49.250000715" width="3.199996948" height="3.200000763"/>
  <rect class="cls-3" x="87.450001478" y="46.150002241" width="3.199996948" height="3.200000763"/>
  <rect class="cls-3" x="87.450001478" y="42.950001478" width="3.199996948" height="3.200000763"/>
  <rect class="cls-3" x="87.450001478" y="39.750000715" width="3.199996948" height="3.200000763"/>
  <rect class="cls-3" x="87.450001478" y="36.549999952" width="3.199996948" height="3.200000763"/>
  <rect class="cls-3" x="87.450001478" y="33.350001097" width="3.199996948" height="3.200000763"/>
  <rect class="cls-3" x="87.450001478" y="30.250000715" width="3.199996948" height="3.200000763"/>
  <rect class="cls-3" x="84.249996901" y="49.250000715" width="3.199996948" height="3.200000763"/>
  <rect class="cls-3" x="84.249996901" y="46.150002241" width="3.199996948" height="3.200000763"/>
  <rect class="cls-3" x="84.249996901" y="42.950001478" width="3.199996948" height="3.200000763"/>
  <rect class="cls-3" x="84.249996901" y="39.750000715" width="3.199996948" height="3.200000763"/>
  <rect class="cls-3" x="84.249996901" y="36.549999952" width="3.199996948" height="3.200000763"/>
  <rect class="cls-3" x="84.249996901" y="33.350001097" width="3.199996948" height="3.200000763"/>
  <rect class="cls-3" x="84.249996901" y="30.250000715" width="3.199996948" height="3.200000763"/>
  <rect class="cls-3" x="81.049999952" y="49.250000715" width="3.199996948" height="3.200000763"/>
  <rect class="cls-2" x="81.049999952" y="46.150002241" width="3.199996948" height="3.200000763"/>
  <rect class="cls-3" x="81.049999952" y="58.849999189" width="3.199996948" height="3.200000763"/>
  <rect class="cls-3" x="81.049999952" y="55.650002241" width="3.199996948" height="3.200000763"/>
  <rect class="cls-2" x="74.749996901" y="46.150002241" width="3.199996948" height="3.200000763"/>
  <rect class="cls-2" x="81.049999952" y="33.350001097" width="3.199996948" height="3.200000763"/>
  <rect class="cls-2" x="74.749996901" y="49.250000715" width="3.199996948" height="3.200000763"/>
  <rect class="cls-3" x="74.749996901" y="55.650002241" width="3.199996948" height="3.200000763"/>
  <rect class="cls-3" x="74.749996901" y="58.849999189" width="3.199996948" height="3.200000763"/>
  <rect class="cls-3" x="74.749996901" y="65.250000715" width="3.199996948" height="3.200000763"/>
  <rect class="cls-3" x="74.749996901" y="62.049999952" width="3.199996948" height="3.200000763"/>
  <rect class="cls-2" x="81.049999952" y="30.250000715" width="3.199996948" height="3.200000763"/>
  <rect class="cls-2" x="81.049999952" y="27.049999952" width="3.199996948" height="3.200000763"/>
  <rect class="cls-2" x="81.049999952" y="23.850001097" width="3.199996948" height="3.200000763"/>
  <rect class="cls-2" x="74.749996901" y="20.650000334" width="3.199996948" height="3.200000763"/>
  <rect class="cls-2" x="74.749996901" y="36.549999952" width="3.199996948" height="3.200000763"/>
  <rect class="cls-2" x="74.749996901" y="27.049999952" width="3.199996948" height="3.200000763"/>
  <rect class="cls-3" x="77.950001478" y="58.849999189" width="3.199996948" height="3.200000763"/>
  <rect class="cls-3" x="77.950001478" y="55.650002241" width="3.199996948" height="3.200000763"/>
  <rect class="cls-2" x="81.049999952" y="39.750000715" width="3.199996948" height="3.200000763"/>
  <rect class="cls-2" x="81.049999952" y="36.549999952" width="3.199996948" height="3.200000763"/>
  <rect class="cls-2" x="74.749996901" y="39.750000715" width="3.199996948" height="3.200000763"/>
  <rect class="cls-2" x="74.749996901" y="30.250000715" width="3.199996948" height="3.200000763"/>
  <rect class="cls-2" x="77.950001478" y="46.150002241" width="3.199996948" height="3.200000763"/>
  <rect class="cls-2" x="77.950001478" y="27.049999952" width="3.199996948" height="3.200000763"/>
  <rect class="cls-2" x="77.950001478" y="23.850001097" width="3.199996948" height="3.200000763"/>
  <rect class="cls-2" x="77.950001478" y="33.350001097" width="3.199996948" height="3.200000763"/>
  <rect class="cls-3" x="77.950001478" y="49.250000715" width="3.199996948" height="3.200000763"/>
  <rect class="cls-3" x="81.049999952" y="52.450001478" width="3.199996948" height="3.200000763"/>
  <rect class="cls-3" x="77.950001478" y="52.450001478" width="3.199996948" height="3.200000763"/>
  <rect class="cls-2" x="77.950001478" y="36.549999952" width="3.199996948" height="3.200000763"/>
  <rect class="cls-2" x="77.950001478" y="39.750000715" width="3.199996948" height="3.200000763"/>
  <rect class="cls-2" x="81.049999952" y="42.950001478" width="3.199996948" height="3.200000763"/>
  <rect class="cls-2" x="77.950001478" y="42.950001478" width="3.199996948" height="3.200000763"/>
  <rect class="cls-2" x="74.749996901" y="17.450000525" width="3.199996948" height="3.199999809"/>
  <rect class="cls-2" x="74.749996901" y="33.350001097" width="3.199996948" height="3.200000763"/>
  <rect class="cls-2" x="74.749996901" y="23.850001097" width="3.199996948" height="3.200000763"/>
  <rect class="cls-2" x="74.749996901" y="42.950001478" width="3.199996948" height="3.200000763"/>
  <rect class="cls-2" x="74.749996901" y="52.450001478" width="3.199996948" height="3.200000763"/>
  <rect class="cls-3" x="52.450001478" y="84.250000715" width="3.200000763" height="3.199996948"/>
  <rect class="cls-3" x="52.450001478" y="81.150002241" width="3.200000763" height="3.199996948"/>
  <rect class="cls-2" x="52.450001478" y="77.949997663" width="3.200000763" height="3.199996948"/>
  <rect class="cls-2" x="52.450001478" y="74.750000715" width="3.200000763" height="3.199996948"/>
  <rect class="cls-2" x="52.450001478" y="71.550003767" width="3.200000763" height="3.199996948"/>
  <rect class="cls-2" x="52.450001478" y="68.349999189" width="3.200000763" height="3.199996948"/>
  <rect class="cls-2" x="52.450001478" y="65.250000715" width="3.200000763" height="3.200000763"/>
  <rect class="cls-2" x="52.450001478" y="62.049999952" width="3.200000763" height="3.200000763"/>
  <rect class="cls-2" x="52.450001478" y="58.849999189" width="3.200000763" height="3.200000763"/>
  <rect class="cls-2" x="52.450001478" y="55.650002241" width="3.200000763" height="3.200000763"/>
  <rect class="cls-2" x="52.450001478" y="52.450001478" width="3.200000763" height="3.200000763"/>
  <rect class="cls-2" x="52.450001478" y="49.250000715" width="3.200000763" height="3.200000763"/>
  <rect class="cls-2" x="52.450001478" y="46.150002241" width="3.200000763" height="3.200000763"/>
  <rect class="cls-2" x="52.450001478" y="42.950001478" width="3.200000763" height="3.200000763"/>
  <rect class="cls-2" x="52.450001478" y="39.750000715" width="3.200000763" height="3.200000763"/>
  <rect class="cls-2" x="52.450001478" y="36.549999952" width="3.200000763" height="3.200000763"/>
  <rect class="cls-2" x="52.450001478" y="33.350001097" width="3.200000763" height="3.200000763"/>
  <rect class="cls-3" x="49.250000715" y="84.250000715" width="3.200000763" height="3.199996948"/>
  <rect class="cls-3" x="49.250000715" y="81.150002241" width="3.200000763" height="3.199996948"/>
  <rect class="cls-2" x="49.250000715" y="77.949997663" width="3.200000763" height="3.199996948"/>
  <rect class="cls-2" x="49.250000715" y="74.750000715" width="3.200000763" height="3.199996948"/>
  <rect class="cls-2" x="49.250000715" y="71.550003767" width="3.200000763" height="3.199996948"/>
  <rect class="cls-2" x="49.250000715" y="68.349999189" width="3.200000763" height="3.199996948"/>
  <rect class="cls-2" x="49.250000715" y="65.250000715" width="3.200000763" height="3.200000763"/>
  <rect class="cls-2" x="49.250000715" y="62.049999952" width="3.200000763" height="3.200000763"/>
  <rect class="cls-2" x="49.250000715" y="58.849999189" width="3.200000763" height="3.200000763"/>
  <rect class="cls-2" x="49.250000715" y="55.650002241" width="3.200000763" height="3.200000763"/>
  <rect class="cls-2" x="49.250000715" y="52.450001478" width="3.200000763" height="3.200000763"/>
  <rect class="cls-2" x="49.250000715" y="49.250000715" width="3.200000763" height="3.200000763"/>
  <rect class="cls-2" x="49.250000715" y="46.150002241" width="3.200000763" height="3.200000763"/>
  <rect class="cls-2" x="49.250000715" y="42.950001478" width="3.200000763" height="3.200000763"/>
  <rect class="cls-2" x="49.250000715" y="39.750000715" width="3.200000763" height="3.200000763"/>
  <rect class="cls-2" x="49.250000715" y="33.350001097" width="3.200000763" height="3.200000763"/>
  <rect class="cls-3" x="46.049999952" y="84.250000715" width="3.200000763" height="3.199996948"/>
  <rect class="cls-3" x="46.049999952" y="81.150002241" width="3.200000763" height="3.199996948"/>
  <rect class="cls-2" x="46.049999952" y="77.949997663" width="3.200000763" height="3.199996948"/>
  <rect class="cls-2" x="46.049999952" y="74.750000715" width="3.200000763" height="3.199996948"/>
  <rect class="cls-2" x="46.049999952" y="71.550003767" width="3.200000763" height="3.199996948"/>
  <rect class="cls-2" x="46.049999952" y="68.349999189" width="3.200000763" height="3.199996948"/>
  <rect class="cls-2" x="46.049999952" y="65.250000715" width="3.200000763" height="3.200000763"/>
  <rect class="cls-2" x="46.049999952" y="62.049999952" width="3.200000763" height="3.200000763"/>
  <rect class="cls-2" x="46.049999952" y="58.849999189" width="3.200000763" height="3.200000763"/>
  <rect class="cls-2" x="46.049999952" y="55.650002241" width="3.200000763" height="3.200000763"/>
  <rect class="cls-2" x="46.049999952" y="52.450001478" width="3.200000763" height="3.200000763"/>
  <rect class="cls-2" x="46.049999952" y="49.250000715" width="3.200000763" height="3.200000763"/>
  <rect class="cls-2" x="46.049999952" y="46.150002241" width="3.200000763" height="3.200000763"/>
  <rect class="cls-2" x="46.049999952" y="42.950001478" width="3.200000763" height="3.200000763"/>
  <rect class="cls-2" x="46.049999952" y="39.750000715" width="3.200000763" height="3.200000763"/>
  <rect class="cls-2" x="46.049999952" y="36.549999952" width="3.200000763" height="3.200000763"/>
  <rect class="cls-2" x="46.049999952" y="33.350001097" width="3.200000763" height="3.200000763"/>
  <rect class="cls-2" x="42.950001478" y="77.949997663" width="3.200000763" height="3.199996948"/>
  <rect class="cls-2" x="42.950001478" y="74.750000715" width="3.200000763" height="3.199996948"/>
  <rect class="cls-2" x="42.950001478" y="71.550003767" width="3.200000763" height="3.199996948"/>
  <rect class="cls-2" x="42.950001478" y="68.349999189" width="3.200000763" height="3.199996948"/>
  <rect class="cls-2" x="42.950001478" y="65.250000715" width="3.200000763" height="3.200000763"/>
  <rect class="cls-2" x="42.950001478" y="62.049999952" width="3.200000763" height="3.200000763"/>
  <rect class="cls-2" x="42.950001478" y="58.849999189" width="3.200000763" height="3.200000763"/>
  <rect class="cls-2" x="42.950001478" y="55.650002241" width="3.200000763" height="3.200000763"/>
  <rect class="cls-2" x="42.950001478" y="52.450001478" width="3.200000763" height="3.200000763"/>
  <rect class="cls-2" x="42.950001478" y="49.250000715" width="3.200000763" height="3.200000763"/>
  <rect class="cls-2" x="42.950001478" y="46.150002241" width="3.200000763" height="3.200000763"/>
  <rect class="cls-2" x="42.950001478" y="42.950001478" width="3.200000763" height="3.200000763"/>
  <rect class="cls-2" x="42.950001478" y="39.750000715" width="3.200000763" height="3.200000763"/>
  <rect class="cls-2" x="42.950001478" y="36.549999952" width="3.200000763" height="3.200000763"/>
  <rect class="cls-2" x="42.950001478" y="33.350001097" width="3.200000763" height="3.200000763"/>
  <rect class="cls-2" x="42.950001478" y="23.850001097" width="3.200000763" height="3.200000763"/>
  <rect class="cls-2" x="39.750000715" y="77.949997663" width="3.200000763" height="3.199996948"/>
  <rect class="cls-2" x="39.750000715" y="74.750000715" width="3.200000763" height="3.199996948"/>
  <rect class="cls-2" x="39.750000715" y="71.550003767" width="3.200000763" height="3.199996948"/>
  <rect class="cls-2" x="39.750000715" y="68.349999189" width="3.200000763" height="3.199996948"/>
  <rect class="cls-2" x="39.750000715" y="65.250000715" width="3.200000763" height="3.200000763"/>
  <rect class="cls-2" x="39.750000715" y="62.049999952" width="3.200000763" height="3.200000763"/>
  <rect class="cls-2" x="39.750000715" y="58.849999189" width="3.200000763" height="3.200000763"/>
  <rect class="cls-2" x="39.750000715" y="55.650002241" width="3.200000763" height="3.200000763"/>
  <rect class="cls-2" x="39.750000715" y="52.450001478" width="3.200000763" height="3.200000763"/>
  <rect class="cls-2" x="39.750000715" y="49.250000715" width="3.200000763" height="3.200000763"/>
  <rect class="cls-2" x="39.750000715" y="46.150002241" width="3.200000763" height="3.200000763"/>
  <rect class="cls-2" x="39.750000715" y="42.950001478" width="3.200000763" height="3.200000763"/>
  <rect class="cls-2" x="39.750000715" y="39.750000715" width="3.200000763" height="3.200000763"/>
  <rect class="cls-2" x="39.750000715" y="36.549999952" width="3.200000763" height="3.200000763"/>
  <rect class="cls-2" x="39.750000715" y="33.350001097" width="3.200000763" height="3.200000763"/>
  <rect class="cls-2" x="39.750000715" y="27.049999952" width="3.200000763" height="3.200000763"/>
  <rect class="cls-2" x="39.750000715" y="23.850001097" width="3.200000763" height="3.200000763"/>
  <rect class="cls-2" x="36.549999952" y="71.550003767" width="3.200000763" height="3.199996948"/>
  <rect class="cls-2" x="36.549999952" y="68.349999189" width="3.200000763" height="3.199996948"/>
  <rect class="cls-2" x="36.549999952" y="65.250000715" width="3.200000763" height="3.200000763"/>
  <rect class="cls-2" x="36.549999952" y="62.049999952" width="3.200000763" height="3.200000763"/>
  <rect class="cls-2" x="36.549999952" y="58.849999189" width="3.200000763" height="3.200000763"/>
  <rect class="cls-2" x="36.549999952" y="55.650002241" width="3.200000763" height="3.200000763"/>
  <rect class="cls-2" x="36.549999952" y="52.450001478" width="3.200000763" height="3.200000763"/>
  <rect class="cls-2" x="36.549999952" y="49.250000715" width="3.200000763" height="3.200000763"/>
  <rect class="cls-2" x="36.549999952" y="46.150002241" width="3.200000763" height="3.200000763"/>
  <rect class="cls-2" x="36.549999952" y="42.950001478" width="3.200000763" height="3.200000763"/>
  <rect class="cls-2" x="36.549999952" y="39.750000715" width="3.200000763" height="3.200000763"/>
  <rect class="cls-2" x="36.549999952" y="36.549999952" width="3.200000763" height="3.200000763"/>
  <rect class="cls-2" x="36.549999952" y="33.350001097" width="3.200000763" height="3.200000763"/>
  <rect class="cls-2" x="36.549999952" y="27.049999952" width="3.200000763" height="3.200000763"/>
  <rect class="cls-2" x="36.549999952" y="23.850001097" width="3.200000763" height="3.200000763"/>
  <rect class="cls-2" x="36.549999952" y="20.650000334" width="3.200000763" height="3.200000763"/>
  <rect class="cls-2" x="36.549999952" y="17.450000525" width="3.200000763" height="3.199999809"/>
  <rect class="cls-2" x="33.349999189" y="71.550003767" width="3.200000763" height="3.199996948"/>
  <rect class="cls-2" x="33.349999189" y="68.349999189" width="3.200000763" height="3.199996948"/>
  <rect class="cls-2" x="33.349999189" y="65.250000715" width="3.200000763" height="3.200000763"/>
  <rect class="cls-2" x="33.349999189" y="62.049999952" width="3.200000763" height="3.200000763"/>
  <rect class="cls-2" x="33.349999189" y="58.849999189" width="3.200000763" height="3.200000763"/>
  <rect class="cls-2" x="33.349999189" y="55.650002241" width="3.200000763" height="3.200000763"/>
  <rect class="cls-2" x="33.349999189" y="52.450001478" width="3.200000763" height="3.200000763"/>
  <rect class="cls-2" x="33.349999189" y="49.250000715" width="3.200000763" height="3.200000763"/>
  <rect class="cls-2" x="33.349999189" y="46.150002241" width="3.200000763" height="3.200000763"/>
  <rect class="cls-2" x="33.349999189" y="42.950001478" width="3.200000763" height="3.200000763"/>
  <rect class="cls-2" x="33.349999189" y="39.750000715" width="3.200000763" height="3.200000763"/>
  <rect class="cls-2" x="33.349999189" y="36.549999952" width="3.200000763" height="3.200000763"/>
  <rect class="cls-2" x="33.349999189" y="33.350001097" width="3.200000763" height="3.200000763"/>
  <rect class="cls-2" x="33.349999189" y="20.650000334" width="3.200000763" height="3.200000763"/>
  <rect class="cls-2" x="33.349999189" y="17.450000525" width="3.200000763" height="3.199999809"/>
  <rect class="cls-2" x="30.150000334" y="65.250000715" width="3.200000763" height="3.200000763"/>
  <rect class="cls-2" x="30.150000334" y="62.049999952" width="3.200000763" height="3.200000763"/>
  <rect class="cls-2" x="30.150000334" y="58.849999189" width="3.200000763" height="3.200000763"/>
  <rect class="cls-2" x="30.150000334" y="55.650002241" width="3.200000763" height="3.200000763"/>
  <rect class="cls-2" x="30.150000334" y="52.450001478" width="3.200000763" height="3.200000763"/>
  <rect class="cls-2" x="30.150000334" y="49.250000715" width="3.200000763" height="3.200000763"/>
  <rect class="cls-2" x="30.150000334" y="46.150002241" width="3.200000763" height="3.200000763"/>
  <rect class="cls-2" x="30.150000334" y="42.950001478" width="3.200000763" height="3.200000763"/>
  <rect class="cls-2" x="30.150000334" y="39.750000715" width="3.200000763" height="3.200000763"/>
  <rect class="cls-2" x="30.150000334" y="36.549999952" width="3.200000763" height="3.200000763"/>
  <rect class="cls-2" x="30.150000334" y="20.650000334" width="3.200000763" height="3.200000763"/>
  <rect class="cls-2" x="30.150000334" y="17.450000525" width="3.200000763" height="3.199999809"/>
  <rect class="cls-2" x="27.049999952" y="65.250000715" width="3.200000763" height="3.200000763"/>
  <rect class="cls-2" x="27.049999952" y="62.049999952" width="3.200000763" height="3.200000763"/>
  <rect class="cls-2" x="27.049999952" y="58.849999189" width="3.200000763" height="3.200000763"/>
  <rect class="cls-2" x="27.049999952" y="55.650002241" width="3.200000763" height="3.200000763"/>
  <rect class="cls-2" x="27.049999952" y="52.450001478" width="3.200000763" height="3.200000763"/>
  <rect class="cls-2" x="27.049999952" y="49.250000715" width="3.200000763" height="3.200000763"/>
  <rect class="cls-2" x="27.049999952" y="46.150002241" width="3.200000763" height="3.200000763"/>
  <rect class="cls-2" x="27.049999952" y="36.549999952" width="3.200000763" height="3.200000763"/>
  <rect class="cls-2" x="27.049999952" y="39.750000715" width="3.200000763" height="3.200000763"/>
  <rect class="cls-2" x="27.049999952" y="42.950001478" width="3.200000763" height="3.200000763"/>
  <rect class="cls-2" x="27.049999952" y="27.049999952" width="3.200000763" height="3.200000763"/>
  <rect class="cls-2" x="27.049999952" y="17.450000525" width="3.200000763" height="3.199999809"/>
  <rect class="cls-2" x="27.049999952" y="20.650000334" width="3.200000763" height="3.200000763"/>
  <rect class="cls-2" x="23.849999189" y="58.849999189" width="3.200000763" height="3.200000763"/>
  <rect class="cls-2" x="23.849999189" y="55.650002241" width="3.200000763" height="3.200000763"/>
  <rect class="cls-2" x="23.849999189" y="52.450001478" width="3.200000763" height="3.200000763"/>
  <rect class="cls-2" x="23.849999189" y="49.250000715" width="3.200000763" height="3.200000763"/>
  <rect class="cls-2" x="23.849999189" y="46.150002241" width="3.200000763" height="3.200000763"/>
  <rect class="cls-2" x="23.849999189" y="42.950001478" width="3.200000763" height="3.200000763"/>
  <rect class="cls-2" x="23.849999189" y="33.350001097" width="3.200000763" height="3.200000763"/>
  <rect class="cls-2" x="23.849999189" y="30.250000715" width="3.200000763" height="3.200000763"/>
  <rect class="cls-2" x="23.849999189" y="27.049999952" width="3.200000763" height="3.200000763"/>
  <rect class="cls-2" x="20.650000334" y="58.849999189" width="3.200000763" height="3.200000763"/>
  <rect class="cls-2" x="20.650000334" y="55.650002241" width="3.200000763" height="3.200000763"/>
  <rect class="cls-2" x="20.650000334" y="52.450001478" width="3.200000763" height="3.200000763"/>
  <rect class="cls-2" x="20.650000334" y="49.250000715" width="3.200000763" height="3.200000763"/>
  <rect class="cls-2" x="20.650000334" y="46.150002241" width="3.200000763" height="3.200000763"/>
  <rect class="cls-2" x="20.650000334" y="42.950001478" width="3.200000763" height="3.200000763"/>
  <rect class="cls-2" x="20.650000334" y="33.350001097" width="3.200000763" height="3.200000763"/>
  <rect class="cls-2" x="17.449999571" y="49.250000715" width="3.200000763" height="3.200000763"/>
  <rect class="cls-2" x="17.449999571" y="46.150002241" width="3.200000763" height="3.200000763"/>
  <rect class="cls-2" x="17.449999571" y="42.950001478" width="3.200000763" height="3.200000763"/>
  <rect class="cls-2" x="17.449999571" y="39.750000715" width="3.200000763" height="3.200000763"/>
  <rect class="cls-2" x="17.449999571" y="36.549999952" width="3.200000763" height="3.200000763"/>
  <rect class="cls-2" x="17.449999571" y="33.350001097" width="3.200000763" height="3.200000763"/>
  <rect class="cls-2" x="14.249999762" y="49.250000715" width="3.199999809" height="3.200000763"/>
  <rect class="cls-2" x="14.249999762" y="46.150002241" width="3.199999809" height="3.200000763"/>
  <rect class="cls-2" x="14.249999762" y="42.950001478" width="3.199999809" height="3.200000763"/>
  <rect class="cls-2" x="14.249999762" y="39.750000715" width="3.199999809" height="3.200000763"/>
  <rect class="cls-2" x="14.249999762" y="36.549999952" width="3.199999809" height="3.200000763"/>
  <rect class="cls-2" x="14.249999762" y="33.350001097" width="3.199999809" height="3.200000763"/>
  <rect class="cls-2" x="14.249999762" y="30.250000715" width="3.199999809" height="3.200000763"/>
  <rect class="cls-2" x="17.449999571" y="30.250000715" width="3.200000763" height="3.200000763"/>
  <rect class="cls-2" x="20.650000334" y="30.250000715" width="3.200000763" height="3.200000763"/>
  <rect class="cls-2" x="20.650000334" y="27.049999952" width="3.200000763" height="3.200000763"/>
  <rect class="cls-2" x="20.650000334" y="23.850001097" width="3.200000763" height="3.200000763"/>
  <rect class="cls-2" x="23.849999189" y="23.850001097" width="3.200000763" height="3.200000763"/>
  <rect class="cls-2" x="27.049999952" y="23.850001097" width="3.200000763" height="3.200000763"/>
  <rect class="cls-2" x="30.150000334" y="23.850001097" width="3.200000763" height="3.200000763"/>
  <rect class="cls-2" x="33.349999189" y="23.850001097" width="3.200000763" height="3.200000763"/>
  <rect class="cls-1" x="33.349999189" y="27.049999952" width="3.200000763" height="3.200000763"/>
  <rect class="cls-1" x="30.150000334" y="30.250000715" width="3.200000763" height="3.200000763"/>
  <rect class="cls-2" x="33.349999189" y="30.250000715" width="3.200000763" height="3.200000763"/>
  <rect class="cls-2" x="36.549999952" y="30.250000715" width="3.200000763" height="3.200000763"/>
  <rect class="cls-2" x="39.750000715" y="30.250000715" width="3.200000763" height="3.200000763"/>
  <rect class="cls-2" x="42.950001478" y="30.250000715" width="3.200000763" height="3.200000763"/>
  <rect class="cls-2" x="46.049999952" y="30.250000715" width="3.200000763" height="3.200000763"/>
  <rect class="cls-2" x="49.250000715" y="30.250000715" width="3.200000763" height="3.200000763"/>
  <rect class="cls-2" x="52.450001478" y="30.250000715" width="3.200000763" height="3.200000763"/>
  <rect class="cls-3" x="71.549999952" y="62.049999952" width="3.199996948" height="3.200000763"/>
  <rect class="cls-2" x="71.549999952" y="58.849999189" width="3.199996948" height="3.200000763"/>
  <rect class="cls-2" x="71.549999952" y="55.650002241" width="3.199996948" height="3.200000763"/>
  <rect class="cls-2" x="71.549999952" y="52.450001478" width="3.199996948" height="3.200000763"/>
  <rect class="cls-2" x="71.549999952" y="49.250000715" width="3.199996948" height="3.200000763"/>
  <rect class="cls-2" x="71.549999952" y="46.150002241" width="3.199996948" height="3.200000763"/>
  <rect class="cls-2" x="71.549999952" y="42.950001478" width="3.199996948" height="3.200000763"/>
  <rect class="cls-2" x="71.549999952" y="36.549999952" width="3.199996948" height="3.200000763"/>
  <rect class="cls-2" x="71.549999952" y="33.350001097" width="3.199996948" height="3.200000763"/>
  <rect class="cls-2" x="71.549999952" y="30.250000715" width="3.199996948" height="3.200000763"/>
  <rect class="cls-2" x="71.549999952" y="27.049999952" width="3.199996948" height="3.200000763"/>
  <rect class="cls-2" x="71.549999952" y="23.850001097" width="3.199996948" height="3.200000763"/>
  <rect class="cls-2" x="71.549999952" y="20.650000334" width="3.199996948" height="3.200000763"/>
  <rect class="cls-2" x="71.549999952" y="17.450000525" width="3.199996948" height="3.199999809"/>
  <rect class="cls-3" x="68.350003004" y="71.550003767" width="3.199996948" height="3.199996948"/>
  <rect class="cls-3" x="68.350003004" y="68.349999189" width="3.199996948" height="3.199996948"/>
  <rect class="cls-3" x="68.350003004" y="62.049999952" width="3.199996948" height="3.200000763"/>
  <rect class="cls-2" x="68.350003004" y="58.849999189" width="3.199996948" height="3.200000763"/>
  <rect class="cls-2" x="68.350003004" y="55.650002241" width="3.199996948" height="3.200000763"/>
  <rect class="cls-2" x="68.350003004" y="52.450001478" width="3.199996948" height="3.200000763"/>
  <rect class="cls-2" x="68.350003004" y="49.250000715" width="3.199996948" height="3.200000763"/>
  <rect class="cls-2" x="68.350003004" y="46.150002241" width="3.199996948" height="3.200000763"/>
  <rect class="cls-2" x="68.350003004" y="42.950001478" width="3.199996948" height="3.200000763"/>
  <rect class="cls-2" x="68.350003004" y="39.750000715" width="3.199996948" height="3.200000763"/>
  <rect class="cls-2" x="68.350003004" y="36.549999952" width="3.199996948" height="3.200000763"/>
  <rect class="cls-2" x="68.350003004" y="33.350001097" width="3.199996948" height="3.200000763"/>
  <rect class="cls-2" x="68.350003004" y="30.250000715" width="3.199996948" height="3.200000763"/>
  <rect class="cls-2" x="68.350003004" y="27.049999952" width="3.199996948" height="3.200000763"/>
  <rect class="cls-2" x="68.350003004" y="23.850001097" width="3.199996948" height="3.200000763"/>
  <rect class="cls-2" x="68.350003004" y="20.650000334" width="3.199996948" height="3.200000763"/>
  <rect class="cls-2" x="68.350003004" y="17.450000525" width="3.199996948" height="3.199999809"/>
  <rect class="cls-3" x="65.149998426" y="71.550003767" width="3.199996948" height="3.199996948"/>
  <rect class="cls-3" x="65.149998426" y="68.349999189" width="3.199996948" height="3.199996948"/>
  <rect class="cls-2" x="65.149998426" y="62.049999952" width="3.199996948" height="3.200000763"/>
  <rect class="cls-2" x="65.149998426" y="58.849999189" width="3.199996948" height="3.200000763"/>
  <rect class="cls-2" x="65.149998426" y="55.650002241" width="3.199996948" height="3.200000763"/>
  <rect class="cls-2" x="65.149998426" y="52.450001478" width="3.199996948" height="3.200000763"/>
  <rect class="cls-2" x="65.149998426" y="49.250000715" width="3.199996948" height="3.200000763"/>
  <rect class="cls-2" x="65.149998426" y="46.150002241" width="3.199996948" height="3.200000763"/>
  <rect class="cls-2" x="65.149998426" y="42.950001478" width="3.199996948" height="3.200000763"/>
  <rect class="cls-2" x="65.149998426" y="39.750000715" width="3.199996948" height="3.200000763"/>
  <rect class="cls-2" x="65.149998426" y="36.549999952" width="3.199996948" height="3.200000763"/>
  <rect class="cls-2" x="65.149998426" y="33.350001097" width="3.199996948" height="3.200000763"/>
  <rect class="cls-2" x="65.149998426" y="30.250000715" width="3.199996948" height="3.200000763"/>
  <rect class="cls-2" x="65.149998426" y="27.049999952" width="3.199996948" height="3.200000763"/>
  <rect class="cls-2" x="65.149998426" y="23.850001097" width="3.199996948" height="3.200000763"/>
  <rect class="cls-2" x="65.149998426" y="20.650000334" width="3.199996948" height="3.200000763"/>
  <rect class="cls-2" x="65.149998426" y="17.450000525" width="3.199996948" height="3.199999809"/>
  <rect class="cls-3" x="62.049999952" y="77.949997663" width="3.200000763" height="3.199996948"/>
  <rect class="cls-3" x="62.049999952" y="74.750000715" width="3.200000763" height="3.199996948"/>
  <rect class="cls-3" x="62.049999952" y="71.550003767" width="3.200000763" height="3.199996948"/>
  <rect class="cls-3" x="62.049999952" y="68.349999189" width="3.200000763" height="3.199996948"/>
  <rect class="cls-2" x="62.049999952" y="65.250000715" width="3.200000763" height="3.200000763"/>
  <rect class="cls-2" x="62.049999952" y="62.049999952" width="3.200000763" height="3.200000763"/>
  <rect class="cls-2" x="62.049999952" y="58.849999189" width="3.200000763" height="3.200000763"/>
  <rect class="cls-2" x="62.049999952" y="55.650002241" width="3.200000763" height="3.200000763"/>
  <rect class="cls-2" x="62.049999952" y="52.450001478" width="3.200000763" height="3.200000763"/>
  <rect class="cls-2" x="62.049999952" y="49.250000715" width="3.200000763" height="3.200000763"/>
  <rect class="cls-2" x="62.049999952" y="46.150002241" width="3.200000763" height="3.200000763"/>
  <rect class="cls-2" x="62.049999952" y="39.750000715" width="3.200000763" height="3.200000763"/>
  <rect class="cls-2" x="62.049999952" y="36.549999952" width="3.200000763" height="3.200000763"/>
  <rect class="cls-2" x="62.049999952" y="33.350001097" width="3.200000763" height="3.200000763"/>
  <rect class="cls-2" x="62.049999952" y="30.250000715" width="3.200000763" height="3.200000763"/>
  <rect class="cls-2" x="62.049999952" y="27.049999952" width="3.200000763" height="3.200000763"/>
  <rect class="cls-2" x="62.049999952" y="17.450000525" width="3.200000763" height="3.199999809"/>
  <rect class="cls-2" x="62.049999952" y="20.650000334" width="3.200000763" height="3.200000763"/>
  <rect class="cls-2" x="62.049999952" y="23.850001097" width="3.200000763" height="3.200000763"/>
  <rect class="cls-3" x="58.849999189" y="77.949997663" width="3.200000763" height="3.199996948"/>
  <rect class="cls-3" x="58.849999189" y="74.750000715" width="3.200000763" height="3.199996948"/>
  <rect class="cls-2" x="58.849999189" y="71.550003767" width="3.200000763" height="3.199996948"/>
  <rect class="cls-2" x="58.849999189" y="68.349999189" width="3.200000763" height="3.199996948"/>
  <rect class="cls-2" x="58.849999189" y="65.250000715" width="3.200000763" height="3.200000763"/>
  <rect class="cls-2" x="58.849999189" y="62.049999952" width="3.200000763" height="3.200000763"/>
  <rect class="cls-2" x="58.849999189" y="58.849999189" width="3.200000763" height="3.200000763"/>
  <rect class="cls-2" x="58.849999189" y="55.650002241" width="3.200000763" height="3.200000763"/>
  <rect class="cls-2" x="58.849999189" y="52.450001478" width="3.200000763" height="3.200000763"/>
  <rect class="cls-2" x="58.849999189" y="49.250000715" width="3.200000763" height="3.200000763"/>
  <rect class="cls-2" x="58.849999189" y="46.150002241" width="3.200000763" height="3.200000763"/>
  <rect class="cls-2" x="58.849999189" y="39.750000715" width="3.200000763" height="3.200000763"/>
  <rect class="cls-2" x="58.849999189" y="36.549999952" width="3.200000763" height="3.200000763"/>
  <rect class="cls-2" x="58.849999189" y="33.350001097" width="3.200000763" height="3.200000763"/>
  <rect class="cls-2" x="58.849999189" y="30.250000715" width="3.200000763" height="3.200000763"/>
  <rect class="cls-2" x="58.849999189" y="27.049999952" width="3.200000763" height="3.200000763"/>
  <rect class="cls-2" x="58.849999189" y="23.850001097" width="3.200000763" height="3.200000763"/>
  <rect class="cls-3" x="55.649998426" y="84.250000715" width="3.200000763" height="3.199996948"/>
  <rect class="cls-3" x="55.649998426" y="81.150002241" width="3.200000763" height="3.199996948"/>
  <rect class="cls-3" x="55.649998426" y="77.949997663" width="3.200000763" height="3.199996948"/>
  <rect class="cls-3" x="55.649998426" y="74.750000715" width="3.200000763" height="3.199996948"/>
  <rect class="cls-2" x="55.649998426" y="71.550003767" width="3.200000763" height="3.199996948"/>
  <rect class="cls-2" x="55.649998426" y="68.349999189" width="3.200000763" height="3.199996948"/>
  <rect class="cls-2" x="55.649998426" y="65.250000715" width="3.200000763" height="3.200000763"/>
  <rect class="cls-2" x="55.649998426" y="62.049999952" width="3.200000763" height="3.200000763"/>
  <rect class="cls-2" x="55.649998426" y="58.849999189" width="3.200000763" height="3.200000763"/>
  <rect class="cls-2" x="55.649998426" y="55.650002241" width="3.200000763" height="3.200000763"/>
  <rect class="cls-2" x="55.649998426" y="52.450001478" width="3.200000763" height="3.200000763"/>
  <rect class="cls-2" x="55.649998426" y="49.250000715" width="3.200000763" height="3.200000763"/>
  <rect class="cls-2" x="55.649998426" y="46.150002241" width="3.200000763" height="3.200000763"/>
  <rect class="cls-2" x="55.649998426" y="23.850001097" width="3.200000763" height="3.200000763"/>
  <rect class="cls-2" x="55.649998426" y="27.049999952" width="3.200000763" height="3.200000763"/>
  <rect class="cls-2" x="55.649998426" y="30.250000715" width="3.200000763" height="3.200000763"/>
  <rect class="cls-2" x="55.649998426" y="33.350001097" width="3.200000763" height="3.200000763"/>
  <rect class="cls-2" x="55.649998426" y="36.549999952" width="3.200000763" height="3.200000763"/>
  <rect class="cls-2" x="55.649998426" y="39.750000715" width="3.200000763" height="3.200000763"/>
  <rect class="cls-2" x="55.649998426" y="42.950001478" width="3.200000763" height="3.200000763"/>
  <rect class="cls-2" x="58.849999189" y="42.950001478" width="3.200000763" height="3.200000763"/>
  <rect class="cls-2" x="62.049999952" y="42.950001478" width="3.200000763" height="3.200000763"/>
  <rect class="cls-1" x="30.150000334" y="27.049999952" width="3.200000763" height="3.200000763"/>
  <rect class="cls-1" x="30.150000334" y="33.350001097" width="3.200000763" height="3.200000763"/>
  <rect class="cls-1" x="27.049999952" y="33.350001097" width="3.200000763" height="3.200000763"/>
  <rect class="cls-1" x="27.049999952" y="30.250000715" width="3.200000763" height="3.200000763"/>
  <rect x="93.850003004" y="49.250000715" width="3.199996948" height="3.200000763"/>
  <rect x="93.850003004" y="46.150002241" width="3.199996948" height="3.200000763"/>
  <rect x="93.850003004" y="42.950001478" width="3.199996948" height="3.200000763"/>
  <rect x="93.850003004" y="39.750000715" width="3.199996948" height="3.200000763"/>
  <rect x="93.850003004" y="36.549999952" width="3.199996948" height="3.200000763"/>
  <rect x="93.850003004" y="33.350001097" width="3.199996948" height="3.200000763"/>
  <rect x="93.850003004" y="30.250000715" width="3.199996948" height="3.200000763"/>
  <rect x="90.649998426" y="49.250000715" width="3.199996948" height="3.200000763"/>
  <rect x="90.649998426" y="46.150002241" width="3.199996948" height="3.200000763"/>
  <rect x="90.649998426" y="42.950001478" width="3.199996948" height="3.200000763"/>
  <rect x="90.649998426" y="39.750000715" width="3.199996948" height="3.200000763"/>
  <rect x="90.649998426" y="36.549999952" width="3.199996948" height="3.200000763"/>
  <rect x="90.649998426" y="33.350001097" width="3.199996948" height="3.200000763"/>
  <rect x="90.649998426" y="30.250000715" width="3.199996948" height="3.200000763"/>
  <rect x="87.450001478" y="58.849999189" width="3.199996948" height="3.200000763"/>
  <rect x="87.450001478" y="55.650002241" width="3.199996948" height="3.200000763"/>
  <rect x="87.450001478" y="52.450001478" width="3.199996948" height="3.200000763"/>
  <rect x="87.450001478" y="27.049999952" width="3.199996948" height="3.200000763"/>
  <rect x="87.450001478" y="23.850001097" width="3.199996948" height="3.200000763"/>
  <rect x="84.249996901" y="58.849999189" width="3.199996948" height="3.200000763"/>
  <rect x="84.249996901" y="55.650002241" width="3.199996948" height="3.200000763"/>
  <rect x="84.249996901" y="52.450001478" width="3.199996948" height="3.200000763"/>
  <rect x="84.249996901" y="27.049999952" width="3.199996948" height="3.200000763"/>
  <rect x="84.249996901" y="23.850001097" width="3.199996948" height="3.200000763"/>
  <rect x="81.049999952" y="65.250000715" width="3.199996948" height="3.200000763"/>
  <rect x="81.049999952" y="62.049999952" width="3.199996948" height="3.200000763"/>
  <rect x="81.049999952" y="20.650000334" width="3.199996948" height="3.200000763"/>
  <rect x="81.049999952" y="17.450000525" width="3.199996948" height="3.199999809"/>
  <rect x="77.950001478" y="65.250000715" width="3.199996948" height="3.200000763"/>
  <rect x="77.950001478" y="62.049999952" width="3.199996948" height="3.200000763"/>
  <rect x="77.950001478" y="20.650000334" width="3.199996948" height="3.200000763"/>
  <rect x="77.950001478" y="17.450000525" width="3.199996948" height="3.199999809"/>
  <rect x="74.749996901" y="71.550003767" width="3.199996948" height="3.199996948"/>
  <rect x="74.749996901" y="68.349999189" width="3.199996948" height="3.199996948"/>
  <rect x="74.749996901" y="14.250000715" width="3.199996948" height="3.199999809"/>
  <rect x="74.749996901" y="11.150000811" width="3.199996948" height="3.200000286"/>
  <rect x="71.549999952" y="71.550003767" width="3.199996948" height="3.199996948"/>
  <rect x="71.549999952" y="68.349999189" width="3.199996948" height="3.199996948"/>
  <rect x="71.549999952" y="14.250000715" width="3.199996948" height="3.199999809"/>
  <rect x="71.549999952" y="11.150000811" width="3.199996948" height="3.200000286"/>
  <rect x="68.350003004" y="77.949997663" width="3.199996948" height="3.199996948"/>
  <rect x="68.350003004" y="74.750000715" width="3.199996948" height="3.199996948"/>
  <rect x="68.350003004" y="14.250000715" width="3.199996948" height="3.199999809"/>
  <rect x="68.350003004" y="11.150000811" width="3.199996948" height="3.200000286"/>
  <rect x="65.149998426" y="77.949997663" width="3.199996948" height="3.199996948"/>
  <rect x="65.149998426" y="74.750000715" width="3.199996948" height="3.199996948"/>
  <rect x="65.149998426" y="14.250000715" width="3.199996948" height="3.199999809"/>
  <rect x="65.149998426" y="11.150000811" width="3.199996948" height="3.200000286"/>
  <rect x="62.049999952" y="84.250000715" width="3.200000763" height="3.199996948"/>
  <rect x="62.049999952" y="81.150002241" width="3.200000763" height="3.199996948"/>
  <rect x="62.049999952" y="14.250000715" width="3.200000763" height="3.199999809"/>
  <rect x="62.049999952" y="11.150000811" width="3.200000763" height="3.200000286"/>
  <rect x="58.849999189" y="84.250000715" width="3.200000763" height="3.199996948"/>
  <rect x="58.849999189" y="81.150002241" width="3.200000763" height="3.199996948"/>
  <rect x="58.849999189" y="20.650000334" width="3.200000763" height="3.200000763"/>
  <rect x="58.849999189" y="17.450000525" width="3.200000763" height="3.199999809"/>
  <rect x="55.649998426" y="90.650002241" width="3.200000763" height="3.199996948"/>
  <rect x="55.649998426" y="87.449997663" width="3.200000763" height="3.199996948"/>
  <rect x="55.649998426" y="20.650000334" width="3.200000763" height="3.200000763"/>
  <rect x="55.649998426" y="17.450000525" width="3.200000763" height="3.199999809"/>
  <rect x="52.450001478" y="90.650002241" width="3.200000763" height="3.199996948"/>
  <rect x="52.450001478" y="87.449997663" width="3.200000763" height="3.199996948"/>
  <rect x="52.450001478" y="27.049999952" width="3.200000763" height="3.200000763"/>
  <rect x="52.450001478" y="23.850001097" width="3.200000763" height="3.200000763"/>
  <rect x="49.250000715" y="90.650002241" width="3.200000763" height="3.199996948"/>
  <rect x="49.250000715" y="87.449997663" width="3.200000763" height="3.199996948"/>
  <rect x="49.250000715" y="27.049999952" width="3.200000763" height="3.200000763"/>
  <rect x="49.250000715" y="23.850001097" width="3.200000763" height="3.200000763"/>
  <rect x="46.049999952" y="90.650002241" width="3.200000763" height="3.199996948"/>
  <rect x="46.049999952" y="87.449997663" width="3.200000763" height="3.199996948"/>
  <rect x="46.049999952" y="27.049999952" width="3.200000763" height="3.200000763"/>
  <rect x="46.049999952" y="23.850001097" width="3.200000763" height="3.200000763"/>
  <rect x="42.950001478" y="84.250000715" width="3.200000763" height="3.199996948"/>
  <rect x="42.950001478" y="81.150002241" width="3.200000763" height="3.199996948"/>
  <rect x="42.950001478" y="20.650000334" width="3.200000763" height="3.200000763"/>
  <rect x="42.950001478" y="17.450000525" width="3.200000763" height="3.199999809"/>
  <rect x="39.750000715" y="84.250000715" width="3.200000763" height="3.199996948"/>
  <rect x="39.750000715" y="81.150002241" width="3.200000763" height="3.199996948"/>
  <rect x="39.750000715" y="20.650000334" width="3.200000763" height="3.200000763"/>
  <rect x="39.750000715" y="17.450000525" width="3.200000763" height="3.199999809"/>
  <rect x="36.549999952" y="77.949997663" width="3.200000763" height="3.199996948"/>
  <rect x="36.549999952" y="74.750000715" width="3.200000763" height="3.199996948"/>
  <rect x="36.549999952" y="14.250000715" width="3.200000763" height="3.199999809"/>
  <rect x="36.549999952" y="11.150000811" width="3.200000763" height="3.200000286"/>
  <rect x="33.349999189" y="77.949997663" width="3.200000763" height="3.199996948"/>
  <rect x="33.349999189" y="74.750000715" width="3.200000763" height="3.199996948"/>
  <rect x="33.349999189" y="14.250000715" width="3.200000763" height="3.199999809"/>
  <rect x="33.349999189" y="11.150000811" width="3.200000763" height="3.200000286"/>
  <rect x="30.150000334" y="71.550003767" width="3.200000763" height="3.199996948"/>
  <rect x="30.150000334" y="68.349999189" width="3.200000763" height="3.199996948"/>
  <rect x="30.150000334" y="14.250000715" width="3.200000763" height="3.199999809"/>
  <rect x="30.150000334" y="11.150000811" width="3.200000763" height="3.200000286"/>
  <rect x="27.049999952" y="71.550003767" width="3.200000763" height="3.199996948"/>
  <rect x="27.049999952" y="68.349999189" width="3.200000763" height="3.199996948"/>
  <rect x="27.049999952" y="14.250000715" width="3.200000763" height="3.199999809"/>
  <rect x="27.049999952" y="11.150000811" width="3.200000763" height="3.200000286"/>
  <rect x="23.849999189" y="65.250000715" width="3.200000763" height="3.200000763"/>
  <rect x="23.849999189" y="62.049999952" width="3.200000763" height="3.200000763"/>
  <rect class="cls-1" x="23.849999189" y="39.750000715" width="3.200000763" height="3.200000763"/>
  <rect class="cls-1" x="23.849999189" y="36.549999952" width="3.200000763" height="3.200000763"/>
  <rect x="23.849999189" y="20.650000334" width="3.200000763" height="3.200000763"/>
  <rect x="23.849999189" y="17.450000525" width="3.200000763" height="3.199999809"/>
  <rect x="20.650000334" y="65.250000715" width="3.200000763" height="3.200000763"/>
  <rect x="20.650000334" y="62.049999952" width="3.200000763" height="3.200000763"/>
  <rect class="cls-1" x="20.650000334" y="39.750000715" width="3.200000763" height="3.200000763"/>
  <rect class="cls-1" x="20.650000334" y="36.549999952" width="3.200000763" height="3.200000763"/>
  <rect x="20.650000334" y="20.650000334" width="3.200000763" height="3.200000763"/>
  <rect x="20.650000334" y="17.450000525" width="3.200000763" height="3.199999809"/>
  <rect x="17.449999571" y="58.849999189" width="3.200000763" height="3.200000763"/>
  <rect x="17.449999571" y="55.650002241" width="3.200000763" height="3.200000763"/>
  <rect x="17.449999571" y="52.450001478" width="3.200000763" height="3.200000763"/>
  <rect x="17.449999571" y="27.049999952" width="3.200000763" height="3.200000763"/>
  <rect x="17.449999571" y="23.850001097" width="3.200000763" height="3.200000763"/>
  <rect x="14.249999762" y="58.849999189" width="3.199999809" height="3.200000763"/>
  <rect x="14.249999762" y="55.650002241" width="3.199999809" height="3.200000763"/>
  <rect x="14.249999762" y="52.450001478" width="3.199999809" height="3.200000763"/>
  <rect x="14.249999762" y="27.049999952" width="3.199999809" height="3.200000763"/>
  <rect x="14.249999762" y="23.850001097" width="3.199999809" height="3.200000763"/>
  <rect x="11.049999952" y="49.250000715" width="3.199999809" height="3.200000763"/>
  <rect x="11.049999952" y="46.150002241" width="3.199999809" height="3.200000763"/>
  <rect x="11.049999952" y="42.950001478" width="3.199999809" height="3.200000763"/>
  <rect x="11.049999952" y="39.750000715" width="3.199999809" height="3.200000763"/>
  <rect x="11.049999952" y="36.549999952" width="3.199999809" height="3.200000763"/>
  <rect x="11.049999952" y="33.350001097" width="3.199999809" height="3.200000763"/>
  <rect x="11.049999952" y="30.250000715" width="3.199999809" height="3.200000763"/>
  <rect x="7.950000048" y="49.250000715" width="3.200000286" height="3.200000763"/>
  <rect x="7.950000048" y="46.150002241" width="3.200000286" height="3.200000763"/>
  <rect x="7.950000048" y="42.950001478" width="3.200000286" height="3.200000763"/>
  <rect x="7.950000048" y="39.750000715" width="3.200000286" height="3.200000763"/>
  <rect x="7.950000048" y="36.549999952" width="3.200000286" height="3.200000763"/>
  <rect x="7.950000048" y="33.350001097" width="3.200000286" height="3.200000763"/>
  <rect x="7.950000048" y="30.250000715" width="3.200000286" height="3.200000763"/>
</svg>