<?xml version="1.0" encoding="UTF-8"?>
<svg id="Ebene_1" data-name="Ebene 1" xmlns="http://www.w3.org/2000/svg" width="100" height="100" viewBox="0 0 100 100">
  <rect x="93.9" y="57.6" width="3" height="3" style="fill: #c18c22;"/>
  <rect x="93.9" y="54.5" width="3" height="3" style="fill: #c18c22;"/>
  <rect x="93.9" y="51.5" width="3" height="3" style="fill: #c18c22;"/>
  <rect x="93.9" y="48.5" width="3" height="3" style="fill: #c18c22;"/>
  <rect x="93.9" y="45.5" width="3" height="3" style="fill: #c18c22;"/>
  <rect x="93.9" y="42.4" width="3" height="3" style="fill: #c18c22;"/>
  <rect x="93.9" y="39.4" width="3" height="3" style="fill: #c18c22;"/>
  <rect x="90.9" y="66.7" width="3" height="3" style="fill: #c18c22;"/>
  <rect x="90.9" y="63.6" width="3" height="3" style="fill: #c18c22;"/>
  <rect x="90.9" y="60.6" width="3" height="3" style="fill: #c18c22;"/>
  <rect x="90.9" y="57.6" width="3" height="3" style="fill: #854091;"/>
  <rect x="90.9" y="54.5" width="3" height="3" style="fill: #854091;"/>
  <rect x="90.9" y="51.5" width="3" height="3" style="fill: #854091;"/>
  <rect x="90.9" y="48.5" width="3" height="3" style="fill: #854091;"/>
  <rect x="90.9" y="45.5" width="3" height="3" style="fill: #854091;"/>
  <rect x="90.9" y="42.4" width="3" height="3" style="fill: #854091;"/>
  <rect x="90.9" y="39.4" width="3" height="3" style="fill: #854091;"/>
  <rect x="90.9" y="36.4" width="3" height="3" style="fill: #c18c22;"/>
  <rect x="90.9" y="33.3" width="3" height="3" style="fill: #c18c22;"/>
  <rect x="90.9" y="30.3" width="3" height="3" style="fill: #c18c22;"/>
  <rect x="87.9" y="72.7" width="3" height="3" style="fill: #c18c22;"/>
  <rect x="87.9" y="69.7" width="3" height="3" style="fill: #c18c22;"/>
  <rect x="87.9" y="66.7" width="3" height="3" style="fill: #854091;"/>
  <rect x="87.9" y="63.6" width="3" height="3" style="fill: #854091;"/>
  <rect x="87.9" y="60.6" width="3" height="3" style="fill: #854091;"/>
  <rect x="87.9" y="57.6" width="3" height="3" style="fill: #6f317c;"/>
  <rect x="87.9" y="54.5" width="3" height="3" style="fill: #6f317c;"/>
  <rect x="87.9" y="51.5" width="3" height="3" style="fill: #6f317c;"/>
  <rect x="87.9" y="48.5" width="3" height="3" style="fill: #6f317c;"/>
  <rect x="87.9" y="45.5" width="3" height="3" style="fill: #6f317c;"/>
  <rect x="87.9" y="42.4" width="3" height="3" style="fill: #6f317c;"/>
  <rect x="87.9" y="39.4" width="3" height="3" style="fill: #6f317c;"/>
  <rect x="87.9" y="36.4" width="3" height="3" style="fill: #854091;"/>
  <rect x="87.9" y="33.3" width="3" height="3" style="fill: #854091;"/>
  <rect x="87.9" y="30.3" width="3" height="3" style="fill: #854091;"/>
  <rect x="87.9" y="27.3" width="3" height="3" style="fill: #c18c22;"/>
  <rect x="87.9" y="24.2" width="3" height="3" style="fill: #c18c22;"/>
  <rect x="84.8" y="78.8" width="3" height="3" style="fill: #c18c22;"/>
  <rect x="84.8" y="75.8" width="3" height="3" style="fill: #c18c22;"/>
  <rect x="84.8" y="72.7" width="3" height="3" style="fill: #854091;"/>
  <rect x="84.8" y="69.7" width="3" height="3" style="fill: #854091;"/>
  <rect x="84.8" y="66.7" width="3" height="3" style="fill: #6f317c;"/>
  <rect x="84.8" y="63.6" width="3" height="3" style="fill: #6f317c;"/>
  <rect x="84.8" y="60.6" width="3" height="3" style="fill: #6f317c;"/>
  <rect x="84.8" y="57.6" width="3" height="3" style="fill: #c99a31;"/>
  <rect x="84.8" y="54.5" width="3" height="3" style="fill: #c99a31;"/>
  <rect x="84.8" y="51.5" width="3" height="3" style="fill: #c99a31;"/>
  <rect x="84.8" y="48.5" width="3" height="3" style="fill: #c99a31;"/>
  <rect x="84.8" y="45.5" width="3" height="3" style="fill: #c99a31;"/>
  <rect x="84.8" y="42.4" width="3" height="3" style="fill: #c99a31;"/>
  <rect x="84.8" y="39.4" width="3" height="3" style="fill: #c99a31;"/>
  <rect x="84.8" y="36.4" width="3" height="3" style="fill: #6f317c;"/>
  <rect x="84.8" y="33.3" width="3" height="3" style="fill: #6f317c;"/>
  <rect x="84.8" y="30.3" width="3" height="3" style="fill: #6f317c;"/>
  <rect x="84.8" y="27.3" width="3" height="3" style="fill: #854091;"/>
  <rect x="84.8" y="24.2" width="3" height="3" style="fill: #854091;"/>
  <rect x="84.8" y="21.2" width="3" height="3" style="fill: #c18c22;"/>
  <rect x="84.8" y="18.2" width="3" height="3" style="fill: #c18c22;"/>
  <rect x="81.8" y="81.8" width="3" height="3" style="fill: #c18c22;"/>
  <rect x="81.8" y="78.8" width="3" height="3" style="fill: #854091;"/>
  <rect x="81.8" y="75.8" width="3" height="3" style="fill: #854091;"/>
  <rect x="81.8" y="72.7" width="3" height="3" style="fill: #6f317c;"/>
  <rect x="81.8" y="69.7" width="3" height="3" style="fill: #6f317c;"/>
  <rect x="81.8" y="66.7" width="3" height="3" style="fill: #c99a31;"/>
  <rect x="81.8" y="63.6" width="3" height="3" style="fill: #c99a31;"/>
  <rect x="81.8" y="60.6" width="3" height="3" style="fill: #c99a31;"/>
  <rect x="81.8" y="57.6" width="3" height="3" style="fill: #91539c;"/>
  <rect x="81.8" y="54.5" width="3" height="3" style="fill: #91539c;"/>
  <rect x="81.8" y="51.5" width="3" height="3" style="fill: #91539c;"/>
  <rect x="81.8" y="48.5" width="3" height="3" style="fill: #91539c;"/>
  <rect x="81.8" y="45.5" width="3" height="3" style="fill: #91539c;"/>
  <rect x="81.8" y="42.4" width="3" height="3" style="fill: #91539c;"/>
  <rect x="81.8" y="39.4" width="3" height="3" style="fill: #91539c;"/>
  <rect x="81.8" y="36.4" width="3" height="3" style="fill: #c99a31;"/>
  <rect x="81.8" y="33.3" width="3" height="3" style="fill: #c99a31;"/>
  <rect x="81.8" y="30.3" width="3" height="3" style="fill: #c99a31;"/>
  <rect x="81.8" y="27.3" width="3" height="3" style="fill: #6f317c;"/>
  <rect x="81.8" y="24.2" width="3" height="3" style="fill: #6f317c;"/>
  <rect x="81.8" y="21.2" width="3" height="3" style="fill: #854091;"/>
  <rect x="81.8" y="18.2" width="3" height="3" style="fill: #854091;"/>
  <rect x="81.8" y="15.2" width="3" height="3" style="fill: #c18c22;"/>
  <rect x="78.8" y="81.8" width="3" height="3" style="fill: #c18c22;"/>
  <rect x="78.8" y="78.8" width="3" height="3" style="fill: #854091;"/>
  <rect x="78.8" y="75.8" width="3" height="3" style="fill: #6f317c;"/>
  <rect x="78.8" y="72.7" width="3" height="3" style="fill: #c99a31;"/>
  <rect x="78.8" y="69.7" width="3" height="3" style="fill: #c99a31;"/>
  <rect x="78.8" y="66.7" width="3" height="3" style="fill: #91539c;"/>
  <rect x="78.8" y="63.6" width="3" height="3" style="fill: #91539c;"/>
  <rect x="78.8" y="60.6" width="3" height="3" style="fill: #91539c;"/>
  <rect x="78.8" y="57.6" width="3" height="3" style="fill: #91539c;"/>
  <rect x="78.8" y="54.5" width="3" height="3" style="fill: #91539c;"/>
  <rect x="78.8" y="51.5" width="3" height="3" style="fill: #91539c;"/>
  <rect x="78.8" y="48.5" width="3" height="3" style="fill: #91539c;"/>
  <rect x="78.8" y="45.5" width="3" height="3" style="fill: #91539c;"/>
  <rect x="78.8" y="42.4" width="3" height="3" style="fill: #91539c;"/>
  <rect x="78.8" y="39.4" width="3" height="3" style="fill: #91539c;"/>
  <rect x="78.8" y="36.4" width="3" height="3" style="fill: #91539c;"/>
  <rect x="78.8" y="33.3" width="3" height="3" style="fill: #91539c;"/>
  <rect x="78.8" y="30.3" width="3" height="3" style="fill: #91539c;"/>
  <rect x="78.8" y="27.3" width="3" height="3" style="fill: #c99a31;"/>
  <rect x="78.8" y="24.2" width="3" height="3" style="fill: #c99a31;"/>
  <rect x="78.8" y="21.2" width="3" height="3" style="fill: #6f317c;"/>
  <rect x="78.8" y="18.2" width="3" height="3" style="fill: #854091;"/>
  <rect x="78.8" y="15.2" width="3" height="3" style="fill: #c18c22;"/>
  <rect x="75.8" y="84.8" width="3" height="3" style="fill: #c18c22;"/>
  <rect x="75.8" y="81.8" width="3" height="3" style="fill: #854091;"/>
  <rect x="75.8" y="78.8" width="3" height="3" style="fill: #6f317c;"/>
  <rect x="75.8" y="75.8" width="3" height="3" style="fill: #c99a31;"/>
  <rect x="75.8" y="72.7" width="3" height="3" style="fill: #91539c;"/>
  <rect x="75.8" y="69.7" width="3" height="3" style="fill: #91539c;"/>
  <rect x="75.8" y="66.7" width="3" height="3" style="fill: #91539c;"/>
  <rect x="75.8" y="63.6" width="3" height="3" style="fill: #91539c;"/>
  <rect x="75.8" y="60.6" width="3" height="3" style="fill: #91539c;"/>
  <rect x="75.8" y="57.6" width="3" height="3" style="fill: #91539c;"/>
  <rect x="75.8" y="54.5" width="3" height="3" style="fill: #91539c;"/>
  <rect x="75.8" y="51.5" width="3" height="3" style="fill: #91539c;"/>
  <rect x="75.8" y="48.5" width="3" height="3" style="fill: #c99a31;"/>
  <rect x="75.8" y="45.5" width="3" height="3" style="fill: #91539c;"/>
  <rect x="75.8" y="42.4" width="3" height="3" style="fill: #91539c;"/>
  <rect x="75.8" y="39.4" width="3" height="3" style="fill: #91539c;"/>
  <rect x="75.8" y="36.4" width="3" height="3" style="fill: #91539c;"/>
  <rect x="75.8" y="33.3" width="3" height="3" style="fill: #91539c;"/>
  <rect x="75.8" y="30.3" width="3" height="3" style="fill: #91539c;"/>
  <rect x="75.8" y="27.3" width="3" height="3" style="fill: #91539c;"/>
  <rect x="75.8" y="24.2" width="3" height="3" style="fill: #91539c;"/>
  <rect x="75.8" y="21.2" width="3" height="3" style="fill: #c99a31;"/>
  <rect x="75.8" y="18.2" width="3" height="3" style="fill: #6f317c;"/>
  <rect x="75.8" y="15.2" width="3" height="3" style="fill: #854091;"/>
  <rect x="75.8" y="12.1" width="3" height="3" style="fill: #c18c22;"/>
  <rect x="72.7" y="87.9" width="3" height="3" style="fill: #c18c22;"/>
  <rect x="72.7" y="84.8" width="3" height="3" style="fill: #854091;"/>
  <rect x="72.7" y="81.8" width="3" height="3" style="fill: #6f317c;"/>
  <rect x="72.7" y="78.8" width="3" height="3" style="fill: #c99a31;"/>
  <rect x="72.7" y="75.8" width="3" height="3" style="fill: #91539c;"/>
  <rect x="72.7" y="72.7" width="3" height="3" style="fill: #91539c;"/>
  <rect x="72.7" y="69.7" width="3" height="3" style="fill: #91539c;"/>
  <rect x="72.7" y="66.7" width="3" height="3" style="fill: #c99a31;"/>
  <rect x="72.7" y="63.6" width="3" height="3" style="fill: #91539c;"/>
  <rect x="72.7" y="60.6" width="3" height="3" style="fill: #91539c;"/>
  <rect x="72.7" y="57.6" width="3" height="3" style="fill: #91539c;"/>
  <rect x="72.7" y="54.5" width="3" height="3" style="fill: #91539c;"/>
  <rect x="72.7" y="51.5" width="3" height="3" style="fill: #91539c;"/>
  <rect x="72.7" y="48.5" width="3" height="3" style="fill: #c99a31;"/>
  <rect x="72.7" y="45.5" width="3" height="3" style="fill: #91539c;"/>
  <rect x="72.7" y="42.4" width="3" height="3" style="fill: #91539c;"/>
  <rect x="72.7" y="39.4" width="3" height="3" style="fill: #91539c;"/>
  <rect x="72.7" y="36.4" width="3" height="3" style="fill: #91539c;"/>
  <rect x="72.7" y="33.3" width="3" height="3" style="fill: #91539c;"/>
  <rect x="72.7" y="30.3" width="3" height="3" style="fill: #c99a31;"/>
  <rect x="72.7" y="27.3" width="3" height="3" style="fill: #91539c;"/>
  <rect x="72.7" y="24.2" width="3" height="3" style="fill: #91539c;"/>
  <rect x="72.7" y="21.2" width="3" height="3" style="fill: #91539c;"/>
  <rect x="72.7" y="18.2" width="3" height="3" style="fill: #c99a31;"/>
  <rect x="72.7" y="15.2" width="3" height="3" style="fill: #6f317c;"/>
  <rect x="72.7" y="12.1" width="3" height="3" style="fill: #854091;"/>
  <rect x="72.7" y="9.1" width="3" height="3" style="fill: #c18c22;"/>
  <rect x="69.7" y="87.9" width="3" height="3" style="fill: #c18c22;"/>
  <rect x="69.7" y="84.8" width="3" height="3" style="fill: #6f317c;"/>
  <rect x="69.7" y="81.8" width="3" height="3" style="fill: #c99a31;"/>
  <rect x="69.7" y="78.8" width="3" height="3" style="fill: #91539c;"/>
  <rect x="69.7" y="75.8" width="3" height="3" style="fill: #91539c;"/>
  <rect x="69.7" y="72.7" width="3" height="3" style="fill: #91539c;"/>
  <rect x="69.7" y="69.7" width="3" height="3" style="fill: #91539c;"/>
  <rect x="69.7" y="66.7" width="3" height="3" style="fill: #91539c;"/>
  <rect x="69.7" y="63.6" width="3" height="3" style="fill: #c99a31;"/>
  <rect x="69.7" y="60.6" width="3" height="3" style="fill: #91539c;"/>
  <rect x="69.7" y="57.6" width="3" height="3" style="fill: #91539c;"/>
  <rect x="69.7" y="54.5" width="3" height="3" style="fill: #91539c;"/>
  <rect x="69.7" y="51.5" width="3" height="3" style="fill: #91539c;"/>
  <rect x="69.7" y="48.5" width="3" height="3" style="fill: #c99a31;"/>
  <rect x="69.7" y="45.5" width="3" height="3" style="fill: #91539c;"/>
  <rect x="69.7" y="42.4" width="3" height="3" style="fill: #91539c;"/>
  <rect x="69.7" y="39.4" width="3" height="3" style="fill: #91539c;"/>
  <rect x="69.7" y="36.4" width="3" height="3" style="fill: #91539c;"/>
  <rect x="69.7" y="33.3" width="3" height="3" style="fill: #c99a31;"/>
  <rect x="69.7" y="30.3" width="3" height="3" style="fill: #91539c;"/>
  <rect x="69.7" y="27.3" width="3" height="3" style="fill: #91539c;"/>
  <rect x="69.7" y="24.2" width="3" height="3" style="fill: #91539c;"/>
  <rect x="69.7" y="21.2" width="3" height="3" style="fill: #91539c;"/>
  <rect x="69.7" y="18.2" width="3" height="3" style="fill: #91539c;"/>
  <rect x="69.7" y="15.2" width="3" height="3" style="fill: #c99a31;"/>
  <rect x="69.7" y="12.1" width="3" height="3" style="fill: #6f317c;"/>
  <rect x="69.7" y="9.1" width="3" height="3" style="fill: #c18c22;"/>
  <rect x="66.7" y="87.9" width="3" height="3" style="fill: #c18c22;"/>
  <rect x="66.7" y="84.8" width="3" height="3" style="fill: #c99a31;"/>
  <rect x="66.7" y="81.8" width="3" height="3" style="fill: #91539c;"/>
  <rect x="66.7" y="78.8" width="3" height="3" style="fill: #91539c;"/>
  <rect x="66.7" y="75.8" width="3" height="3" style="fill: #91539c;"/>
  <rect x="66.7" y="72.7" width="3" height="3" style="fill: #91539c;"/>
  <rect x="66.7" y="69.7" width="3" height="3" style="fill: #91539c;"/>
  <rect x="66.7" y="66.7" width="3" height="3" style="fill: #91539c;"/>
  <rect x="66.7" y="63.6" width="3" height="3" style="fill: #91539c;"/>
  <rect x="66.7" y="60.6" width="3" height="3" style="fill: #854091;"/>
  <rect x="66.7" y="57.6" width="3" height="3" style="fill: #854091;"/>
  <rect x="66.7" y="54.5" width="3" height="3" style="fill: #91539c;"/>
  <rect x="66.7" y="51.5" width="3" height="3" style="fill: #91539c;"/>
  <rect x="66.7" y="48.5" width="3" height="3" style="fill: #91539c;"/>
  <rect x="66.7" y="45.5" width="3" height="3" style="fill: #91539c;"/>
  <rect x="66.7" y="42.4" width="3" height="3" style="fill: #91539c;"/>
  <rect x="66.7" y="39.4" width="3" height="3" style="fill: #91539c;"/>
  <rect x="66.7" y="36.4" width="3" height="3" style="fill: #91539c;"/>
  <rect x="66.7" y="33.3" width="3" height="3" style="fill: #91539c;"/>
  <rect x="66.7" y="30.3" width="3" height="3" style="fill: #91539c;"/>
  <rect x="66.7" y="27.3" width="3" height="3" style="fill: #91539c;"/>
  <rect x="66.7" y="24.2" width="3" height="3" style="fill: #91539c;"/>
  <rect x="66.7" y="21.2" width="3" height="3" style="fill: #91539c;"/>
  <rect x="66.7" y="18.2" width="3" height="3" style="fill: #91539c;"/>
  <rect x="66.7" y="15.2" width="3" height="3" style="fill: #91539c;"/>
  <rect x="66.7" y="12.1" width="3" height="3" style="fill: #c99a31;"/>
  <rect x="66.7" y="9.1" width="3" height="3" style="fill: #c18c22;"/>
  <rect x="63.6" y="90.9" width="3" height="3" style="fill: #c18c22;"/>
  <rect x="63.6" y="87.9" width="3" height="3" style="fill: #6f317c;"/>
  <rect x="63.6" y="84.8" width="3" height="3" style="fill: #c99a31;"/>
  <rect x="63.6" y="81.8" width="3" height="3" style="fill: #91539c;"/>
  <rect x="63.6" y="78.8" width="3" height="3" style="fill: #91539c;"/>
  <rect x="63.6" y="75.8" width="3" height="3" style="fill: #c99a31;"/>
  <rect x="63.6" y="72.7" width="3" height="3" style="fill: #91539c;"/>
  <rect x="63.6" y="69.7" width="3" height="3" style="fill: #91539c;"/>
  <rect x="63.6" y="66.7" width="3" height="3" style="fill: #91539c;"/>
  <rect x="63.6" y="63.6" width="3" height="3" style="fill: #854091;"/>
  <rect x="63.6" y="60.6" width="3" height="3" style="fill: #c99a31;"/>
  <rect x="63.6" y="57.6" width="3" height="3" style="fill: #c99a31;"/>
  <rect x="63.6" y="54.5" width="3" height="3" style="fill: #91539c;"/>
  <rect x="63.6" y="51.5" width="3" height="3" style="fill: #91539c;"/>
  <rect x="63.6" y="48.5" width="3" height="3" style="fill: #91539c;"/>
  <rect x="63.6" y="45.5" width="3" height="3" style="fill: #91539c;"/>
  <rect x="63.6" y="42.4" width="3" height="3" style="fill: #854091;"/>
  <rect x="63.6" y="39.4" width="3" height="3" style="fill: #c99a31;"/>
  <rect x="63.6" y="36.4" width="3" height="3" style="fill: #c99a31;"/>
  <rect x="63.6" y="33.3" width="3" height="3" style="fill: #91539c;"/>
  <rect x="63.6" y="30.3" width="3" height="3" style="fill: #91539c;"/>
  <rect x="63.6" y="27.3" width="3" height="3" style="fill: #91539c;"/>
  <rect x="63.6" y="24.2" width="3" height="3" style="fill: #91539c;"/>
  <rect x="63.6" y="21.2" width="3" height="3" style="fill: #c99a31;"/>
  <rect x="63.6" y="18.2" width="3" height="3" style="fill: #91539c;"/>
  <rect x="63.6" y="15.2" width="3" height="3" style="fill: #91539c;"/>
  <rect x="63.6" y="12.1" width="3" height="3" style="fill: #c99a31;"/>
  <rect x="63.6" y="9.1" width="3" height="3" style="fill: #6f317c;"/>
  <rect x="63.6" y="6.1" width="3" height="3" style="fill: #c18c22;"/>
  <rect x="60.6" y="90.9" width="3" height="3" style="fill: #c18c22;"/>
  <rect x="60.6" y="87.9" width="3" height="3" style="fill: #c99a31;"/>
  <rect x="60.6" y="84.8" width="3" height="3" style="fill: #91539c;"/>
  <rect x="60.6" y="81.8" width="3" height="3" style="fill: #91539c;"/>
  <rect x="60.6" y="78.8" width="3" height="3" style="fill: #91539c;"/>
  <rect x="60.6" y="75.8" width="3" height="3" style="fill: #91539c;"/>
  <rect x="60.6" y="72.7" width="3" height="3" style="fill: #c99a31;"/>
  <rect x="60.6" y="69.7" width="3" height="3" style="fill: #91539c;"/>
  <rect x="60.6" y="66.7" width="3" height="3" style="fill: #854091;"/>
  <rect x="60.6" y="63.6" width="3" height="3" style="fill: #c99a31;"/>
  <rect x="60.6" y="60.6" width="3" height="3" style="fill: #c99a31;"/>
  <rect x="60.6" y="57.6" width="3" height="3" style="fill: #c99a31;"/>
  <rect x="60.6" y="54.5" width="3" height="3" style="fill: #91539c;"/>
  <rect x="60.6" y="51.5" width="3" height="3" style="fill: #91539c;"/>
  <rect x="60.6" y="48.5" width="3" height="3" style="fill: #91539c;"/>
  <rect x="60.6" y="45.5" width="3" height="3" style="fill: #91539c;"/>
  <rect x="60.6" y="42.4" width="3" height="3" style="fill: #854091;"/>
  <rect x="60.6" y="39.4" width="3" height="3" style="fill: #c99a31;"/>
  <rect x="60.6" y="36.4" width="3" height="3" style="fill: #c99a31;"/>
  <rect x="60.6" y="33.3" width="3" height="3" style="fill: #c99a31;"/>
  <rect x="60.6" y="30.3" width="3" height="3" style="fill: #91539c;"/>
  <rect x="60.6" y="27.3" width="3" height="3" style="fill: #91539c;"/>
  <rect x="60.6" y="24.2" width="3" height="3" style="fill: #c99a31;"/>
  <rect x="60.6" y="21.2" width="3" height="3" style="fill: #91539c;"/>
  <rect x="60.6" y="18.2" width="3" height="3" style="fill: #91539c;"/>
  <rect x="60.6" y="15.2" width="3" height="3" style="fill: #91539c;"/>
  <rect x="60.6" y="12.1" width="3" height="3" style="fill: #91539c;"/>
  <rect x="60.6" y="9.1" width="3" height="3" style="fill: #c99a31;"/>
  <rect x="60.6" y="6.1" width="3" height="3" style="fill: #c18c22;"/>
  <rect x="57.6" y="90.9" width="3" height="3" style="fill: #c99a31;"/>
  <rect x="57.6" y="87.9" width="3" height="3" style="fill: #854091;"/>
  <rect x="57.6" y="84.8" width="3" height="3" style="fill: #91539c;"/>
  <rect x="57.6" y="81.8" width="3" height="3" style="fill: #91539c;"/>
  <rect x="57.6" y="78.8" width="3" height="3" style="fill: #91539c;"/>
  <rect x="57.6" y="75.8" width="3" height="3" style="fill: #91539c;"/>
  <rect x="57.6" y="72.7" width="3" height="3" style="fill: #91539c;"/>
  <rect x="57.6" y="69.7" width="3" height="3" style="fill: #854091;"/>
  <rect x="57.6" y="66.7" width="3" height="3" style="fill: #c99a31;"/>
  <rect x="57.6" y="63.6" width="3" height="3" style="fill: #c99a31;"/>
  <rect x="57.6" y="60.6" width="3" height="3" style="fill: #c99a31;"/>
  <rect x="57.6" y="57.6" width="3" height="3" style="fill: #c99a31;"/>
  <rect x="57.6" y="54.5" width="3" height="3" style="fill: #91539c;"/>
  <rect x="57.6" y="51.5" width="3" height="3" style="fill: #91539c;"/>
  <rect x="57.6" y="48.5" width="3" height="3" style="fill: #91539c;"/>
  <rect x="57.6" y="45.5" width="3" height="3" style="fill: #91539c;"/>
  <rect x="57.6" y="42.4" width="3" height="3" style="fill: #854091;"/>
  <rect x="57.6" y="39.4" width="3" height="3" style="fill: #c99a31;"/>
  <rect x="57.6" y="36.4" width="3" height="3" style="fill: #c99a31;"/>
  <rect x="57.6" y="33.3" width="3" height="3" style="fill: #c99a31;"/>
  <rect x="57.6" y="30.3" width="3" height="3" style="fill: #c99a31;"/>
  <rect x="57.6" y="27.3" width="3" height="3" style="fill: #91539c;"/>
  <rect x="57.6" y="24.2" width="3" height="3" style="fill: #91539c;"/>
  <rect x="57.6" y="21.2" width="3" height="3" style="fill: #91539c;"/>
  <rect x="57.6" y="18.2" width="3" height="3" style="fill: #91539c;"/>
  <rect x="57.6" y="15.2" width="3" height="3" style="fill: #91539c;"/>
  <rect x="57.6" y="12.1" width="3" height="3" style="fill: #91539c;"/>
  <rect x="57.6" y="9.1" width="3" height="3" style="fill: #854091;"/>
  <rect x="57.6" y="6.1" width="3" height="3" style="fill: #c99a31;"/>
  <rect x="54.5" y="90.9" width="3" height="3" style="fill: #c99a31;"/>
  <rect x="54.5" y="87.9" width="3" height="3" style="fill: #854091;"/>
  <rect x="54.5" y="84.8" width="3" height="3" style="fill: #91539c;"/>
  <rect x="54.5" y="81.8" width="3" height="3" style="fill: #91539c;"/>
  <rect x="54.5" y="78.8" width="3" height="3" style="fill: #91539c;"/>
  <rect x="54.5" y="75.8" width="3" height="3" style="fill: #91539c;"/>
  <rect x="54.5" y="72.7" width="3" height="3" style="fill: #91539c;"/>
  <rect x="54.5" y="69.7" width="3" height="3" style="fill: #854091;"/>
  <rect x="54.5" y="66.7" width="3" height="3" style="fill: #c99a31;"/>
  <rect x="54.5" y="63.6" width="3" height="3" style="fill: #c99a31;"/>
  <rect x="54.5" y="60.6" width="3" height="3" style="fill: #c99a31;"/>
  <rect x="54.5" y="57.6" width="3" height="3" style="fill: #91539c;"/>
  <rect x="54.5" y="54.5" width="3" height="3" style="fill: #91539c;"/>
  <rect x="54.5" y="51.5" width="3" height="3" style="fill: #91539c;"/>
  <rect x="54.5" y="48.5" width="3" height="3" style="fill: #91539c;"/>
  <rect x="54.5" y="45.5" width="3" height="3" style="fill: #91539c;"/>
  <rect x="54.5" y="42.4" width="3" height="3" style="fill: #91539c;"/>
  <rect x="54.5" y="39.4" width="3" height="3" style="fill: #854091;"/>
  <rect x="54.5" y="36.4" width="3" height="3" style="fill: #c99a31;"/>
  <rect x="54.5" y="33.3" width="3" height="3" style="fill: #c99a31;"/>
  <rect x="54.5" y="30.3" width="3" height="3" style="fill: #c99a31;"/>
  <rect x="54.5" y="27.3" width="3" height="3" style="fill: #91539c;"/>
  <rect x="54.5" y="24.2" width="3" height="3" style="fill: #91539c;"/>
  <rect x="54.5" y="21.2" width="3" height="3" style="fill: #91539c;"/>
  <rect x="54.5" y="18.2" width="3" height="3" style="fill: #91539c;"/>
  <rect x="54.5" y="15.2" width="3" height="3" style="fill: #91539c;"/>
  <rect x="54.5" y="12.1" width="3" height="3" style="fill: #91539c;"/>
  <rect x="54.5" y="9.1" width="3" height="3" style="fill: #854091;"/>
  <rect x="54.5" y="6.1" width="3" height="3" style="fill: #c99a31;"/>
  <rect x="51.5" y="90.9" width="3" height="3" style="fill: #e2bb6d;"/>
  <rect x="51.5" y="87.9" width="3" height="3" style="fill: #854091;"/>
  <rect x="51.5" y="84.8" width="3" height="3" style="fill: #91539c;"/>
  <rect x="51.5" y="81.8" width="3" height="3" style="fill: #91539c;"/>
  <rect x="51.5" y="78.8" width="3" height="3" style="fill: #91539c;"/>
  <rect x="51.5" y="75.8" width="3" height="3" style="fill: #91539c;"/>
  <rect x="51.5" y="72.7" width="3" height="3" style="fill: #854091;"/>
  <rect x="51.5" y="69.7" width="3" height="3" style="fill: #c99a31;"/>
  <rect x="51.5" y="66.7" width="3" height="3" style="fill: #c99a31;"/>
  <rect x="51.5" y="63.6" width="3" height="3" style="fill: #c99a31;"/>
  <rect x="51.5" y="60.6" width="3" height="3" style="fill: #91539c;"/>
  <rect x="51.5" y="57.6" width="3" height="3" style="fill: #91539c;"/>
  <rect x="51.5" y="54.5" width="3" height="3" style="fill: #91539c;"/>
  <rect x="51.5" y="51.5" width="3" height="3" style="fill: #91539c;"/>
  <rect x="51.5" y="48.5" width="3" height="3" style="fill: #91539c;"/>
  <rect x="51.5" y="45.5" width="3" height="3" style="fill: #91539c;"/>
  <rect x="51.5" y="42.4" width="3" height="3" style="fill: #91539c;"/>
  <rect x="51.5" y="39.4" width="3" height="3" style="fill: #91539c;"/>
  <rect x="51.5" y="36.4" width="3" height="3" style="fill: #854091;"/>
  <rect x="51.5" y="33.3" width="3" height="3" style="fill: #c99a31;"/>
  <rect x="51.5" y="30.3" width="3" height="3" style="fill: #c99a31;"/>
  <rect x="51.5" y="27.3" width="3" height="3" style="fill: #c99a31;"/>
  <rect x="51.5" y="24.2" width="3" height="3" style="fill: #91539c;"/>
  <rect x="51.5" y="21.2" width="3" height="3" style="fill: #91539c;"/>
  <rect x="51.5" y="18.2" width="3" height="3" style="fill: #91539c;"/>
  <rect x="51.5" y="15.2" width="3" height="3" style="fill: #91539c;"/>
  <rect x="51.5" y="12.1" width="3" height="3" style="fill: #91539c;"/>
  <rect x="51.5" y="9.1" width="3" height="3" style="fill: #854091;"/>
  <rect x="51.5" y="6.1" width="3" height="3" style="fill: #e2bb6d;"/>
  <rect x="48.5" y="90.9" width="3" height="3" style="fill: #e2bb6d;"/>
  <rect x="48.5" y="87.9" width="3" height="3" style="fill: #854091;"/>
  <rect x="48.5" y="84.8" width="3" height="3" style="fill: #91539c;"/>
  <rect x="48.5" y="81.8" width="3" height="3" style="fill: #91539c;"/>
  <rect x="48.5" y="78.8" width="3" height="3" style="fill: #91539c;"/>
  <rect x="48.5" y="75.8" width="3" height="3" style="fill: #91539c;"/>
  <rect x="48.5" y="72.7" width="3" height="3" style="fill: #854091;"/>
  <rect x="48.5" y="69.7" width="3" height="3" style="fill: #c99a31;"/>
  <rect x="48.5" y="66.7" width="3" height="3" style="fill: #c99a31;"/>
  <rect x="48.5" y="63.6" width="3" height="3" style="fill: #c99a31;"/>
  <rect x="48.5" y="60.6" width="3" height="3" style="fill: #91539c;"/>
  <rect x="48.5" y="57.6" width="3" height="3" style="fill: #91539c;"/>
  <rect x="48.5" y="54.5" width="3" height="3" style="fill: #91539c;"/>
  <rect x="48.5" y="51.5" width="3" height="3" style="fill: #91539c;"/>
  <rect x="48.5" y="48.5" width="3" height="3" style="fill: #91539c;"/>
  <rect x="48.5" y="45.5" width="3" height="3" style="fill: #91539c;"/>
  <rect x="48.5" y="42.4" width="3" height="3" style="fill: #91539c;"/>
  <rect x="48.5" y="39.4" width="3" height="3" style="fill: #91539c;"/>
  <rect x="48.5" y="36.4" width="3" height="3" style="fill: #854091;"/>
  <rect x="48.5" y="33.3" width="3" height="3" style="fill: #c99a31;"/>
  <rect x="48.5" y="30.3" width="3" height="3" style="fill: #c99a31;"/>
  <rect x="48.5" y="27.3" width="3" height="3" style="fill: #c99a31;"/>
  <rect x="48.5" y="24.2" width="3" height="3" style="fill: #91539c;"/>
  <rect x="48.5" y="21.2" width="3" height="3" style="fill: #91539c;"/>
  <rect x="48.5" y="18.2" width="3" height="3" style="fill: #91539c;"/>
  <rect x="48.5" y="15.2" width="3" height="3" style="fill: #91539c;"/>
  <rect x="48.5" y="12.1" width="3" height="3" style="fill: #91539c;"/>
  <rect x="48.5" y="9.1" width="3" height="3" style="fill: #854091;"/>
  <rect x="48.5" y="6.1" width="3" height="3" style="fill: #e2bb6d;"/>
  <rect x="45.5" y="90.9" width="3" height="3" style="fill: #e2bb6d;"/>
  <rect x="45.5" y="87.9" width="3" height="3" style="fill: #854091;"/>
  <rect x="45.5" y="84.8" width="3" height="3" style="fill: #91539c;"/>
  <rect x="45.5" y="81.8" width="3" height="3" style="fill: #c99a31;"/>
  <rect x="45.5" y="78.8" width="3" height="3" style="fill: #c99a31;"/>
  <rect x="45.5" y="75.8" width="3" height="3" style="fill: #c99a31;"/>
  <rect x="45.5" y="72.7" width="3" height="3" style="fill: #854091;"/>
  <rect x="45.5" y="69.7" width="3" height="3" style="fill: #c99a31;"/>
  <rect x="45.5" y="66.7" width="3" height="3" style="fill: #c99a31;"/>
  <rect x="45.5" y="63.6" width="3" height="3" style="fill: #c99a31;"/>
  <rect x="45.5" y="60.6" width="3" height="3" style="fill: #91539c;"/>
  <rect x="45.5" y="57.6" width="3" height="3" style="fill: #91539c;"/>
  <rect x="45.5" y="54.5" width="3" height="3" style="fill: #91539c;"/>
  <rect x="45.5" y="51.5" width="3" height="3" style="fill: #91539c;"/>
  <rect x="45.5" y="48.5" width="3" height="3" style="fill: #91539c;"/>
  <rect x="45.5" y="45.5" width="3" height="3" style="fill: #91539c;"/>
  <rect x="45.5" y="42.4" width="3" height="3" style="fill: #91539c;"/>
  <rect x="45.5" y="39.4" width="3" height="3" style="fill: #91539c;"/>
  <rect x="45.5" y="36.4" width="3" height="3" style="fill: #854091;"/>
  <rect x="45.5" y="33.3" width="3" height="3" style="fill: #c99a31;"/>
  <rect x="45.5" y="30.3" width="3" height="3" style="fill: #c99a31;"/>
  <rect x="45.5" y="27.3" width="3" height="3" style="fill: #c99a31;"/>
  <rect x="45.5" y="24.2" width="3" height="3" style="fill: #91539c;"/>
  <rect x="45.5" y="21.2" width="3" height="3" style="fill: #c99a31;"/>
  <rect x="45.5" y="18.2" width="3" height="3" style="fill: #c99a31;"/>
  <rect x="45.5" y="15.2" width="3" height="3" style="fill: #c99a31;"/>
  <rect x="45.5" y="12.1" width="3" height="3" style="fill: #91539c;"/>
  <rect x="45.5" y="9.1" width="3" height="3" style="fill: #854091;"/>
  <rect x="45.5" y="6.1" width="3" height="3" style="fill: #e2bb6d;"/>
  <rect x="42.4" y="90.9" width="3" height="3" style="fill: #e2bb6d;"/>
  <rect x="42.4" y="87.9" width="3" height="3" style="fill: #854091;"/>
  <rect x="42.4" y="84.8" width="3" height="3" style="fill: #854091;"/>
  <rect x="42.4" y="81.8" width="3" height="3" style="fill: #91539c;"/>
  <rect x="42.4" y="78.8" width="3" height="3" style="fill: #91539c;"/>
  <rect x="42.4" y="75.8" width="3" height="3" style="fill: #91539c;"/>
  <rect x="42.4" y="72.7" width="3" height="3" style="fill: #854091;"/>
  <rect x="42.4" y="69.7" width="3" height="3" style="fill: #c99a31;"/>
  <rect x="42.4" y="66.7" width="3" height="3" style="fill: #c99a31;"/>
  <rect x="42.4" y="63.6" width="3" height="3" style="fill: #c99a31;"/>
  <rect x="42.4" y="60.6" width="3" height="3" style="fill: #91539c;"/>
  <rect x="42.4" y="57.6" width="3" height="3" style="fill: #91539c;"/>
  <rect x="42.4" y="54.5" width="3" height="3" style="fill: #91539c;"/>
  <rect x="42.4" y="51.5" width="3" height="3" style="fill: #91539c;"/>
  <rect x="42.4" y="48.5" width="3" height="3" style="fill: #91539c;"/>
  <rect x="42.4" y="45.5" width="3" height="3" style="fill: #91539c;"/>
  <rect x="42.4" y="42.4" width="3" height="3" style="fill: #91539c;"/>
  <rect x="42.4" y="39.4" width="3" height="3" style="fill: #91539c;"/>
  <rect x="42.4" y="36.4" width="3" height="3" style="fill: #854091;"/>
  <rect x="42.4" y="33.3" width="3" height="3" style="fill: #c99a31;"/>
  <rect x="42.4" y="30.3" width="3" height="3" style="fill: #c99a31;"/>
  <rect x="42.4" y="27.3" width="3" height="3" style="fill: #e2bb6d;"/>
  <rect x="42.4" y="24.2" width="3" height="3" style="fill: #91539c;"/>
  <rect x="42.4" y="21.2" width="3" height="3" style="fill: #91539c;"/>
  <rect x="42.4" y="18.2" width="3" height="3" style="fill: #91539c;"/>
  <rect x="42.4" y="15.2" width="3" height="3" style="fill: #91539c;"/>
  <rect x="42.4" y="12.1" width="3" height="3" style="fill: #854091;"/>
  <rect x="42.4" y="9.1" width="3" height="3" style="fill: #854091;"/>
  <rect x="42.4" y="6.1" width="3" height="3" style="fill: #e2bb6d;"/>
  <rect x="39.4" y="87.9" width="3" height="3" style="fill: #e2bb6d;"/>
  <rect x="39.4" y="84.8" width="3" height="3" style="fill: #854091;"/>
  <rect x="39.4" y="81.8" width="3" height="3" style="fill: #91539c;"/>
  <rect x="39.4" y="78.8" width="3" height="3" style="fill: #91539c;"/>
  <rect x="39.4" y="75.8" width="3" height="3" style="fill: #91539c;"/>
  <rect x="39.4" y="72.7" width="3" height="3" style="fill: #91539c;"/>
  <rect x="39.4" y="69.7" width="3" height="3" style="fill: #854091;"/>
  <rect x="39.4" y="66.7" width="3" height="3" style="fill: #c99a31;"/>
  <rect x="39.4" y="63.6" width="3" height="3" style="fill: #c99a31;"/>
  <rect x="39.4" y="60.6" width="3" height="3" style="fill: #c99a31;"/>
  <rect x="39.4" y="57.6" width="3" height="3" style="fill: #91539c;"/>
  <rect x="39.4" y="54.5" width="3" height="3" style="fill: #91539c;"/>
  <rect x="39.4" y="51.5" width="3" height="3" style="fill: #91539c;"/>
  <rect x="39.4" y="48.5" width="3" height="3" style="fill: #91539c;"/>
  <rect x="39.4" y="45.5" width="3" height="3" style="fill: #91539c;"/>
  <rect x="39.4" y="42.4" width="3" height="3" style="fill: #91539c;"/>
  <rect x="39.4" y="39.4" width="3" height="3" style="fill: #854091;"/>
  <rect x="39.4" y="36.4" width="3" height="3" style="fill: #c99a31;"/>
  <rect x="39.4" y="33.3" width="3" height="3" style="fill: #c99a31;"/>
  <rect x="39.4" y="30.3" width="3" height="3" style="fill: #e2bb6d;"/>
  <rect x="39.4" y="27.3" width="3" height="3" style="fill: #91539c;"/>
  <rect x="39.4" y="24.2" width="3" height="3" style="fill: #91539c;"/>
  <rect x="39.4" y="21.2" width="3" height="3" style="fill: #91539c;"/>
  <rect x="39.4" y="18.2" width="3" height="3" style="fill: #91539c;"/>
  <rect x="39.4" y="15.2" width="3" height="3" style="fill: #91539c;"/>
  <rect x="39.4" y="12.1" width="3" height="3" style="fill: #854091;"/>
  <rect x="39.4" y="9.1" width="3" height="3" style="fill: #e2bb6d;"/>
  <rect x="36.4" y="87.9" width="3" height="3" style="fill: #e2bb6d;"/>
  <rect x="36.4" y="84.8" width="3" height="3" style="fill: #854091;"/>
  <rect x="36.4" y="81.8" width="3" height="3" style="fill: #854091;"/>
  <rect x="36.4" y="78.8" width="3" height="3" style="fill: #91539c;"/>
  <rect x="36.4" y="75.8" width="3" height="3" style="fill: #91539c;"/>
  <rect x="36.4" y="72.7" width="3" height="3" style="fill: #91539c;"/>
  <rect x="36.4" y="69.7" width="3" height="3" style="fill: #854091;"/>
  <rect x="36.4" y="66.7" width="3" height="3" style="fill: #c99a31;"/>
  <rect x="36.4" y="63.6" width="3" height="3" style="fill: #c99a31;"/>
  <rect x="36.4" y="60.6" width="3" height="3" style="fill: #c99a31;"/>
  <rect x="36.4" y="57.6" width="3" height="3" style="fill: #c99a31;"/>
  <rect x="36.4" y="54.5" width="3" height="3" style="fill: #c99a31;"/>
  <rect x="36.4" y="51.5" width="3" height="3" style="fill: #c99a31;"/>
  <rect x="36.4" y="48.5" width="3" height="3" style="fill: #c99a31;"/>
  <rect x="36.4" y="45.5" width="3" height="3" style="fill: #c99a31;"/>
  <rect x="36.4" y="42.4" width="3" height="3" style="fill: #c99a31;"/>
  <rect x="36.4" y="39.4" width="3" height="3" style="fill: #c99a31;"/>
  <rect x="36.4" y="36.4" width="3" height="3" style="fill: #c99a31;"/>
  <rect x="36.4" y="33.3" width="3" height="3" style="fill: #c99a31;"/>
  <rect x="36.4" y="30.3" width="3" height="3" style="fill: #e2bb6d;"/>
  <rect x="36.4" y="27.3" width="3" height="3" style="fill: #91539c;"/>
  <rect x="36.4" y="24.2" width="3" height="3" style="fill: #91539c;"/>
  <rect x="36.4" y="21.2" width="3" height="3" style="fill: #91539c;"/>
  <rect x="36.4" y="18.2" width="3" height="3" style="fill: #91539c;"/>
  <rect x="36.4" y="15.2" width="3" height="3" style="fill: #854091;"/>
  <rect x="36.4" y="12.1" width="3" height="3" style="fill: #854091;"/>
  <rect x="36.4" y="9.1" width="3" height="3" style="fill: #e2bb6d;"/>
  <rect x="33.3" y="84.8" width="3" height="3" style="fill: #e2bb6d;"/>
  <rect x="33.3" y="81.8" width="3" height="3" style="fill: #854091;"/>
  <rect x="33.3" y="78.8" width="3" height="3" style="fill: #91539c;"/>
  <rect x="33.3" y="75.8" width="3" height="3" style="fill: #91539c;"/>
  <rect x="33.3" y="72.7" width="3" height="3" style="fill: #c99a31;"/>
  <rect x="33.3" y="69.7" width="3" height="3" style="fill: #91539c;"/>
  <rect x="33.3" y="66.7" width="3" height="3" style="fill: #854091;"/>
  <rect x="33.3" y="63.6" width="3" height="3" style="fill: #e2bb6d;"/>
  <rect x="33.3" y="60.6" width="3" height="3" style="fill: #c99a31;"/>
  <rect x="33.3" y="57.6" width="3" height="3" style="fill: #c99a31;"/>
  <rect x="33.3" y="54.5" width="3" height="3" style="fill: #c99a31;"/>
  <rect x="33.3" y="51.5" width="3" height="3" style="fill: #c99a31;"/>
  <rect x="33.3" y="48.5" width="3" height="3" style="fill: #c99a31;"/>
  <rect x="33.3" y="45.5" width="3" height="3" style="fill: #c99a31;"/>
  <rect x="33.3" y="42.4" width="3" height="3" style="fill: #c99a31;"/>
  <rect x="33.3" y="39.4" width="3" height="3" style="fill: #c99a31;"/>
  <rect x="33.3" y="36.4" width="3" height="3" style="fill: #c99a31;"/>
  <rect x="33.3" y="33.3" width="3" height="3" style="fill: #e2bb6d;"/>
  <rect x="33.3" y="30.3" width="3" height="3" style="fill: #91539c;"/>
  <rect x="33.3" y="27.3" width="3" height="3" style="fill: #91539c;"/>
  <rect x="33.3" y="24.2" width="3" height="3" style="fill: #c99a31;"/>
  <rect x="33.3" y="21.2" width="3" height="3" style="fill: #91539c;"/>
  <rect x="33.3" y="18.2" width="3" height="3" style="fill: #91539c;"/>
  <rect x="33.3" y="15.2" width="3" height="3" style="fill: #854091;"/>
  <rect x="33.3" y="12.1" width="3" height="3" style="fill: #e2bb6d;"/>
  <rect x="30.3" y="84.8" width="3" height="3" style="fill: #e2bb6d;"/>
  <rect x="30.3" y="81.8" width="3" height="3" style="fill: #854091;"/>
  <rect x="30.3" y="78.8" width="3" height="3" style="fill: #854091;"/>
  <rect x="30.3" y="75.8" width="3" height="3" style="fill: #c99a31;"/>
  <rect x="30.3" y="72.7" width="3" height="3" style="fill: #91539c;"/>
  <rect x="30.3" y="69.7" width="3" height="3" style="fill: #91539c;"/>
  <rect x="30.3" y="66.7" width="3" height="3" style="fill: #91539c;"/>
  <rect x="30.3" y="63.6" width="3" height="3" style="fill: #91539c;"/>
  <rect x="30.3" y="60.6" width="3" height="3" style="fill: #91539c;"/>
  <rect x="30.3" y="57.6" width="3" height="3" style="fill: #e2bb6d;"/>
  <rect x="30.3" y="54.5" width="3" height="3" style="fill: #e2bb6d;"/>
  <rect x="30.3" y="51.5" width="3" height="3" style="fill: #e2bb6d;"/>
  <rect x="30.3" y="48.5" width="3" height="3" style="fill: #e2bb6d;"/>
  <rect x="30.3" y="45.5" width="3" height="3" style="fill: #e2bb6d;"/>
  <rect x="30.3" y="42.4" width="3" height="3" style="fill: #e2bb6d;"/>
  <rect x="30.3" y="39.4" width="3" height="3" style="fill: #e2bb6d;"/>
  <rect x="30.3" y="36.4" width="3" height="3" style="fill: #91539c;"/>
  <rect x="30.3" y="33.3" width="3" height="3" style="fill: #91539c;"/>
  <rect x="30.3" y="30.3" width="3" height="3" style="fill: #91539c;"/>
  <rect x="30.3" y="27.3" width="3" height="3" style="fill: #91539c;"/>
  <rect x="30.3" y="24.2" width="3" height="3" style="fill: #91539c;"/>
  <rect x="30.3" y="21.2" width="3" height="3" style="fill: #e2bb6d;"/>
  <rect x="30.3" y="18.2" width="3" height="3" style="fill: #854091;"/>
  <rect x="30.3" y="15.2" width="3" height="3" style="fill: #854091;"/>
  <rect x="30.3" y="12.1" width="3" height="3" style="fill: #e2bb6d;"/>
  <rect x="27.3" y="81.8" width="3" height="3" style="fill: #e2bb6d;"/>
  <rect x="27.3" y="78.8" width="3" height="3" style="fill: #854091;"/>
  <rect x="27.3" y="75.8" width="3" height="3" style="fill: #854091;"/>
  <rect x="27.3" y="72.7" width="3" height="3" style="fill: #91539c;"/>
  <rect x="27.3" y="69.7" width="3" height="3" style="fill: #91539c;"/>
  <rect x="27.3" y="66.7" width="3" height="3" style="fill: #91539c;"/>
  <rect x="27.3" y="63.6" width="3" height="3" style="fill: #c99a31;"/>
  <rect x="27.3" y="60.6" width="3" height="3" style="fill: #91539c;"/>
  <rect x="27.3" y="57.6" width="3" height="3" style="fill: #91539c;"/>
  <rect x="27.3" y="54.5" width="3" height="3" style="fill: #91539c;"/>
  <rect x="27.3" y="51.5" width="3" height="3" style="fill: #91539c;"/>
  <rect x="27.3" y="48.5" width="3" height="3" style="fill: #91539c;"/>
  <rect x="27.3" y="45.5" width="3" height="3" style="fill: #91539c;"/>
  <rect x="27.3" y="42.4" width="3" height="3" style="fill: #91539c;"/>
  <rect x="27.3" y="39.4" width="3" height="3" style="fill: #91539c;"/>
  <rect x="27.3" y="36.4" width="3" height="3" style="fill: #91539c;"/>
  <rect x="27.3" y="33.3" width="3" height="3" style="fill: #c99a31;"/>
  <rect x="27.3" y="30.3" width="3" height="3" style="fill: #91539c;"/>
  <rect x="27.3" y="27.3" width="3" height="3" style="fill: #91539c;"/>
  <rect x="27.3" y="24.2" width="3" height="3" style="fill: #91539c;"/>
  <rect x="27.3" y="21.2" width="3" height="3" style="fill: #854091;"/>
  <rect x="27.3" y="18.2" width="3" height="3" style="fill: #854091;"/>
  <rect x="27.3" y="15.2" width="3" height="3" style="fill: #e2bb6d;"/>
  <rect x="24.2" y="78.8" width="3" height="3" style="fill: #e2bb6d;"/>
  <rect x="24.2" y="75.8" width="3" height="3" style="fill: #854091;"/>
  <rect x="24.2" y="72.7" width="3" height="3" style="fill: #854091;"/>
  <rect x="24.2" y="69.7" width="3" height="3" style="fill: #91539c;"/>
  <rect x="24.2" y="66.7" width="3" height="3" style="fill: #e2bb6d;"/>
  <rect x="24.2" y="63.6" width="3" height="3" style="fill: #91539c;"/>
  <rect x="24.2" y="60.6" width="3" height="3" style="fill: #91539c;"/>
  <rect x="24.2" y="57.6" width="3" height="3" style="fill: #91539c;"/>
  <rect x="24.2" y="54.5" width="3" height="3" style="fill: #91539c;"/>
  <rect x="24.2" y="51.5" width="3" height="3" style="fill: #91539c;"/>
  <rect x="24.2" y="48.5" width="3" height="3" style="fill: #c99a31;"/>
  <rect x="24.2" y="45.5" width="3" height="3" style="fill: #91539c;"/>
  <rect x="24.2" y="42.4" width="3" height="3" style="fill: #91539c;"/>
  <rect x="24.2" y="39.4" width="3" height="3" style="fill: #91539c;"/>
  <rect x="24.2" y="36.4" width="3" height="3" style="fill: #91539c;"/>
  <rect x="24.2" y="33.3" width="3" height="3" style="fill: #91539c;"/>
  <rect x="24.2" y="30.3" width="3" height="3" style="fill: #e2bb6d;"/>
  <rect x="24.2" y="27.3" width="3" height="3" style="fill: #91539c;"/>
  <rect x="24.2" y="24.2" width="3" height="3" style="fill: #854091;"/>
  <rect x="24.2" y="21.2" width="3" height="3" style="fill: #854091;"/>
  <rect x="24.2" y="18.2" width="3" height="3" style="fill: #e2bb6d;"/>
  <rect x="21.2" y="75.8" width="3" height="3" style="fill: #e2bb6d;"/>
  <rect x="21.2" y="72.7" width="3" height="3" style="fill: #854091;"/>
  <rect x="21.2" y="69.7" width="3" height="3" style="fill: #854091;"/>
  <rect x="21.2" y="66.7" width="3" height="3" style="fill: #854091;"/>
  <rect x="21.2" y="63.6" width="3" height="3" style="fill: #91539c;"/>
  <rect x="21.2" y="60.6" width="3" height="3" style="fill: #91539c;"/>
  <rect x="21.2" y="57.6" width="3" height="3" style="fill: #91539c;"/>
  <rect x="21.2" y="54.5" width="3" height="3" style="fill: #91539c;"/>
  <rect x="21.2" y="51.5" width="3" height="3" style="fill: #91539c;"/>
  <rect x="21.2" y="48.5" width="3" height="3" style="fill: #e2bb6d;"/>
  <rect x="21.2" y="45.5" width="3" height="3" style="fill: #91539c;"/>
  <rect x="21.2" y="42.4" width="3" height="3" style="fill: #91539c;"/>
  <rect x="21.2" y="39.4" width="3" height="3" style="fill: #91539c;"/>
  <rect x="21.2" y="36.4" width="3" height="3" style="fill: #91539c;"/>
  <rect x="21.2" y="33.3" width="3" height="3" style="fill: #91539c;"/>
  <rect x="21.2" y="30.3" width="3" height="3" style="fill: #854091;"/>
  <rect x="21.2" y="27.3" width="3" height="3" style="fill: #854091;"/>
  <rect x="21.2" y="24.2" width="3" height="3" style="fill: #854091;"/>
  <rect x="21.2" y="21.2" width="3" height="3" style="fill: #e2bb6d;"/>
  <rect x="18.2" y="72.7" width="3" height="3" style="fill: #e2bb6d;"/>
  <rect x="18.2" y="69.7" width="3" height="3" style="fill: #e2bb6d;"/>
  <rect x="18.2" y="66.7" width="3" height="3" style="fill: #854091;"/>
  <rect x="18.2" y="63.6" width="3" height="3" style="fill: #854091;"/>
  <rect x="18.2" y="60.6" width="3" height="3" style="fill: #854091;"/>
  <rect x="18.2" y="57.6" width="3" height="3" style="fill: #854091;"/>
  <rect x="18.2" y="54.5" width="3" height="3" style="fill: #91539c;"/>
  <rect x="18.2" y="51.5" width="3" height="3" style="fill: #91539c;"/>
  <rect x="18.2" y="48.5" width="3" height="3" style="fill: #e2bb6d;"/>
  <rect x="18.2" y="45.5" width="3" height="3" style="fill: #91539c;"/>
  <rect x="18.2" y="42.4" width="3" height="3" style="fill: #91539c;"/>
  <rect x="18.2" y="39.4" width="3" height="3" style="fill: #854091;"/>
  <rect x="18.2" y="36.4" width="3" height="3" style="fill: #854091;"/>
  <rect x="18.2" y="33.3" width="3" height="3" style="fill: #854091;"/>
  <rect x="18.2" y="30.3" width="3" height="3" style="fill: #854091;"/>
  <rect x="18.2" y="27.3" width="3" height="3" style="fill: #e2bb6d;"/>
  <rect x="18.2" y="24.2" width="3" height="3" style="fill: #e2bb6d;"/>
  <rect x="15.2" y="66.7" width="3" height="3" style="fill: #e2bb6d;"/>
  <rect x="15.2" y="63.6" width="3" height="3" style="fill: #e2bb6d;"/>
  <rect x="15.2" y="60.6" width="3" height="3" style="fill: #e2bb6d;"/>
  <rect x="15.2" y="57.6" width="3" height="3" style="fill: #854091;"/>
  <rect x="15.2" y="54.5" width="3" height="3" style="fill: #854091;"/>
  <rect x="15.2" y="51.5" width="3" height="3" style="fill: #854091;"/>
  <rect x="15.2" y="48.5" width="3" height="3" style="fill: #854091;"/>
  <rect x="15.2" y="45.5" width="3" height="3" style="fill: #854091;"/>
  <rect x="15.2" y="42.4" width="3" height="3" style="fill: #854091;"/>
  <rect x="15.2" y="39.4" width="3" height="3" style="fill: #854091;"/>
  <rect x="15.2" y="36.4" width="3" height="3" style="fill: #e2bb6d;"/>
  <rect x="15.2" y="33.3" width="3" height="3" style="fill: #e2bb6d;"/>
  <rect x="15.2" y="30.3" width="3" height="3" style="fill: #e2bb6d;"/>
  <rect x="12.1" y="57.6" width="3" height="3" style="fill: #e2bb6d;"/>
  <rect x="12.1" y="54.5" width="3" height="3" style="fill: #e2bb6d;"/>
  <rect x="12.1" y="51.5" width="3" height="3" style="fill: #e2bb6d;"/>
  <rect x="12.1" y="48.5" width="3" height="3" style="fill: #e2bb6d;"/>
  <rect x="12.1" y="45.5" width="3" height="3" style="fill: #e2bb6d;"/>
  <rect x="12.1" y="42.4" width="3" height="3" style="fill: #e2bb6d;"/>
  <rect x="12.1" y="39.4" width="3" height="3" style="fill: #e2bb6d;"/>
</svg>