<?xml version="1.0" encoding="UTF-8"?>
<svg id="Ebene_6" data-name="Ebene 6" xmlns="http://www.w3.org/2000/svg" viewBox="0 0 105 105">
  <defs>
    <style>
      .cls-1 {
        fill: #383131;
      }

      .cls-2 {
        fill: #231e1e;
      }
    </style>
  </defs>
  <rect x="93.850002289" y="49.250000715" width="3.199996948" height="3.200000763"/>
  <rect x="93.850002289" y="46.150002241" width="3.199996948" height="3.200000763"/>
  <rect x="93.850002289" y="42.950001478" width="3.199996948" height="3.200000763"/>
  <rect x="93.850002289" y="39.750000715" width="3.199996948" height="3.200000763"/>
  <rect x="93.850002289" y="36.549999952" width="3.199996948" height="3.200000763"/>
  <rect x="93.850002289" y="33.350001097" width="3.199996948" height="3.200000763"/>
  <rect x="93.850002289" y="30.250000715" width="3.199996948" height="3.200000763"/>
  <rect x="90.650005341" y="49.250000715" width="3.199996948" height="3.200000763"/>
  <rect x="90.650005341" y="46.150002241" width="3.199996948" height="3.200000763"/>
  <rect x="90.650005341" y="42.950001478" width="3.199996948" height="3.200000763"/>
  <rect x="90.650005341" y="39.750000715" width="3.199996948" height="3.200000763"/>
  <rect x="90.650005341" y="36.549999952" width="3.199996948" height="3.200000763"/>
  <rect x="90.650005341" y="33.350001097" width="3.199996948" height="3.200000763"/>
  <rect x="90.650005341" y="30.250000715" width="3.199996948" height="3.200000763"/>
  <rect x="87.449993134" y="58.849999189" width="3.199996948" height="3.200000763"/>
  <rect x="87.449993134" y="55.650002241" width="3.199996948" height="3.200000763"/>
  <rect x="87.449993134" y="52.450001478" width="3.199996948" height="3.200000763"/>
  <rect class="cls-2" x="87.449993134" y="49.250000715" width="3.199996948" height="3.200000763"/>
  <rect class="cls-2" x="87.449993134" y="46.150002241" width="3.199996948" height="3.200000763"/>
  <rect class="cls-2" x="87.449993134" y="42.950001478" width="3.199996948" height="3.200000763"/>
  <rect class="cls-2" x="87.449993134" y="39.750000715" width="3.199996948" height="3.200000763"/>
  <rect class="cls-2" x="87.449993134" y="36.549999952" width="3.199996948" height="3.200000763"/>
  <rect class="cls-2" x="87.449993134" y="33.350001097" width="3.199996948" height="3.200000763"/>
  <rect class="cls-2" x="87.449993134" y="30.250000715" width="3.199996948" height="3.200000763"/>
  <rect x="87.449993134" y="27.049999952" width="3.199996948" height="3.200000763"/>
  <rect x="87.449993134" y="23.850001097" width="3.199996948" height="3.200000763"/>
  <rect x="84.249996185" y="58.849999189" width="3.199996948" height="3.200000763"/>
  <rect x="84.249996185" y="55.650002241" width="3.199996948" height="3.200000763"/>
  <rect x="84.249996185" y="52.450001478" width="3.199996948" height="3.200000763"/>
  <rect class="cls-2" x="84.249996185" y="49.250000715" width="3.199996948" height="3.200000763"/>
  <rect class="cls-2" x="84.249996185" y="46.150002241" width="3.199996948" height="3.200000763"/>
  <rect class="cls-2" x="84.249996185" y="42.950001478" width="3.199996948" height="3.200000763"/>
  <rect class="cls-2" x="84.249996185" y="39.750000715" width="3.199996948" height="3.200000763"/>
  <rect class="cls-2" x="84.249996185" y="36.549999952" width="3.199996948" height="3.200000763"/>
  <rect class="cls-2" x="84.249996185" y="33.350001097" width="3.199996948" height="3.200000763"/>
  <rect class="cls-2" x="84.249996185" y="30.250000715" width="3.199996948" height="3.200000763"/>
  <rect x="84.249996185" y="27.049999952" width="3.199996948" height="3.200000763"/>
  <rect x="84.249996185" y="23.850001097" width="3.199996948" height="3.200000763"/>
  <rect x="81.049999237" y="65.250000715" width="3.199996948" height="3.200000763"/>
  <rect x="81.049999237" y="62.049999952" width="3.199996948" height="3.200000763"/>
  <rect class="cls-2" x="81.049999237" y="58.849999189" width="3.199996948" height="3.200000763"/>
  <rect class="cls-2" x="81.049999237" y="55.650002241" width="3.199996948" height="3.200000763"/>
  <rect class="cls-2" x="81.049999237" y="52.450001478" width="3.199996948" height="3.200000763"/>
  <rect class="cls-2" x="81.049999237" y="49.250000715" width="3.199996948" height="3.200000763"/>
  <rect class="cls-1" x="81.049999237" y="46.150002241" width="3.199996948" height="3.200000763"/>
  <rect class="cls-1" x="81.049999237" y="42.950001478" width="3.199996948" height="3.200000763"/>
  <rect class="cls-1" x="81.049999237" y="39.750000715" width="3.199996948" height="3.200000763"/>
  <rect class="cls-1" x="81.049999237" y="36.549999952" width="3.199996948" height="3.200000763"/>
  <rect class="cls-1" x="81.049999237" y="33.350001097" width="3.199996948" height="3.200000763"/>
  <rect class="cls-1" x="81.049999237" y="30.250000715" width="3.199996948" height="3.200000763"/>
  <rect class="cls-1" x="81.049999237" y="27.049999952" width="3.199996948" height="3.200000763"/>
  <rect class="cls-1" x="81.049999237" y="23.850001097" width="3.199996948" height="3.200000763"/>
  <rect x="81.049999237" y="20.650000334" width="3.199996948" height="3.200000763"/>
  <rect x="81.049999237" y="17.450000525" width="3.199996948" height="3.199999809"/>
  <rect x="77.949993134" y="65.250000715" width="3.199996948" height="3.200000763"/>
  <rect x="77.949993134" y="62.049999952" width="3.199996948" height="3.200000763"/>
  <rect class="cls-2" x="77.949993134" y="58.849999189" width="3.199996948" height="3.200000763"/>
  <rect class="cls-2" x="77.949993134" y="55.650002241" width="3.199996948" height="3.200000763"/>
  <rect class="cls-2" x="77.949993134" y="52.450001478" width="3.199996948" height="3.200000763"/>
  <rect class="cls-2" x="77.949993134" y="49.250000715" width="3.199996948" height="3.200000763"/>
  <rect class="cls-1" x="77.949993134" y="46.150002241" width="3.199996948" height="3.200000763"/>
  <rect class="cls-1" x="77.949993134" y="42.950001478" width="3.199996948" height="3.200000763"/>
  <rect class="cls-1" x="77.949993134" y="39.750000715" width="3.199996948" height="3.200000763"/>
  <rect class="cls-1" x="77.949993134" y="36.549999952" width="3.199996948" height="3.200000763"/>
  <rect class="cls-1" x="77.949993134" y="33.350001097" width="3.199996948" height="3.200000763"/>
  <rect class="cls-1" x="77.949993134" y="30.250000715" width="3.199996948" height="3.200000763"/>
  <rect class="cls-1" x="77.949993134" y="27.049999952" width="3.199996948" height="3.200000763"/>
  <rect class="cls-1" x="77.949993134" y="23.850001097" width="3.199996948" height="3.200000763"/>
  <rect x="77.949993134" y="20.650000334" width="3.199996948" height="3.200000763"/>
  <rect x="77.949993134" y="17.450000525" width="3.199996948" height="3.199999809"/>
  <rect x="74.749996185" y="71.550003767" width="3.199996948" height="3.199996948"/>
  <rect x="74.749996185" y="68.349999189" width="3.199996948" height="3.199996948"/>
  <rect class="cls-2" x="74.749996185" y="65.250000715" width="3.199996948" height="3.200000763"/>
  <rect class="cls-2" x="74.749996185" y="62.049999952" width="3.199996948" height="3.200000763"/>
  <rect class="cls-2" x="74.749996185" y="58.849999189" width="3.199996948" height="3.200000763"/>
  <rect class="cls-2" x="74.749996185" y="55.650002241" width="3.199996948" height="3.200000763"/>
  <rect class="cls-1" x="74.749996185" y="52.450001478" width="3.199996948" height="3.200000763"/>
  <rect class="cls-1" x="74.749996185" y="49.250000715" width="3.199996948" height="3.200000763"/>
  <rect class="cls-1" x="74.749996185" y="46.150002241" width="3.199996948" height="3.200000763"/>
  <rect class="cls-1" x="74.749996185" y="42.950001478" width="3.199996948" height="3.200000763"/>
  <rect class="cls-1" x="74.749996185" y="39.750000715" width="3.199996948" height="3.200000763"/>
  <rect class="cls-1" x="74.749996185" y="36.549999952" width="3.199996948" height="3.200000763"/>
  <rect class="cls-1" x="74.749996185" y="33.350001097" width="3.199996948" height="3.200000763"/>
  <rect class="cls-1" x="74.749996185" y="30.250000715" width="3.199996948" height="3.200000763"/>
  <rect class="cls-1" x="74.749996185" y="27.049999952" width="3.199996948" height="3.200000763"/>
  <rect class="cls-1" x="74.749996185" y="23.850001097" width="3.199996948" height="3.200000763"/>
  <rect class="cls-1" x="74.749996185" y="20.650000334" width="3.199996948" height="3.200000763"/>
  <rect class="cls-1" x="74.749996185" y="17.450000525" width="3.199996948" height="3.199999809"/>
  <rect x="74.749996185" y="14.250000715" width="3.199996948" height="3.199999809"/>
  <rect x="74.749996185" y="11.150000811" width="3.199996948" height="3.200000286"/>
  <rect x="71.549999237" y="71.550003767" width="3.199996948" height="3.199996948"/>
  <rect x="71.549999237" y="68.349999189" width="3.199996948" height="3.199996948"/>
  <rect class="cls-2" x="71.549999237" y="65.250000715" width="3.199996948" height="3.200000763"/>
  <rect class="cls-2" x="71.549999237" y="62.049999952" width="3.199996948" height="3.200000763"/>
  <rect class="cls-1" x="71.549999237" y="58.849999189" width="3.199996948" height="3.200000763"/>
  <rect class="cls-1" x="71.549999237" y="55.650002241" width="3.199996948" height="3.200000763"/>
  <rect class="cls-1" x="71.549999237" y="52.450001478" width="3.199996948" height="3.200000763"/>
  <rect class="cls-1" x="71.549999237" y="49.250000715" width="3.199996948" height="3.200000763"/>
  <rect class="cls-1" x="71.549999237" y="46.150002241" width="3.199996948" height="3.200000763"/>
  <rect class="cls-1" x="71.549999237" y="42.950001478" width="3.199996948" height="3.200000763"/>
  <rect class="cls-1" x="71.549999237" y="39.750000715" width="3.199996948" height="3.200000763"/>
  <rect class="cls-1" x="71.549999237" y="36.549999952" width="3.199996948" height="3.200000763"/>
  <rect class="cls-1" x="71.549999237" y="33.350001097" width="3.199996948" height="3.200000763"/>
  <rect class="cls-1" x="71.549999237" y="30.250000715" width="3.199996948" height="3.200000763"/>
  <rect class="cls-1" x="71.549999237" y="27.049999952" width="3.199996948" height="3.200000763"/>
  <rect class="cls-1" x="71.549999237" y="23.850001097" width="3.199996948" height="3.200000763"/>
  <rect class="cls-1" x="71.549999237" y="20.650000334" width="3.199996948" height="3.200000763"/>
  <rect class="cls-1" x="71.549999237" y="17.450000525" width="3.199996948" height="3.199999809"/>
  <rect x="71.549999237" y="14.250000715" width="3.199996948" height="3.199999809"/>
  <rect x="71.549999237" y="11.150000811" width="3.199996948" height="3.200000286"/>
  <rect x="68.350002289" y="77.949997663" width="3.199996948" height="3.199996948"/>
  <rect x="68.350002289" y="74.750000715" width="3.199996948" height="3.199996948"/>
  <rect class="cls-2" x="68.350002289" y="71.550003767" width="3.199996948" height="3.199996948"/>
  <rect class="cls-2" x="68.350002289" y="68.349999189" width="3.199996948" height="3.199996948"/>
  <rect class="cls-2" x="68.350002289" y="65.250000715" width="3.199996948" height="3.200000763"/>
  <rect class="cls-2" x="68.350002289" y="62.049999952" width="3.199996948" height="3.200000763"/>
  <rect class="cls-2" x="68.350002289" y="58.849999189" width="3.199996948" height="3.200000763"/>
  <rect class="cls-2" x="68.350002289" y="55.650002241" width="3.199996948" height="3.200000763"/>
  <rect class="cls-1" x="68.350002289" y="52.450001478" width="3.199996948" height="3.200000763"/>
  <rect class="cls-1" x="68.350002289" y="49.250000715" width="3.199996948" height="3.200000763"/>
  <rect class="cls-1" x="68.350002289" y="46.150002241" width="3.199996948" height="3.200000763"/>
  <rect class="cls-1" x="68.350002289" y="42.950001478" width="3.199996948" height="3.200000763"/>
  <rect class="cls-1" x="68.350002289" y="39.750000715" width="3.199996948" height="3.200000763"/>
  <rect class="cls-1" x="68.350002289" y="36.549999952" width="3.199996948" height="3.200000763"/>
  <rect class="cls-1" x="68.350002289" y="33.350001097" width="3.199996948" height="3.200000763"/>
  <rect class="cls-1" x="68.350002289" y="30.250000715" width="3.199996948" height="3.200000763"/>
  <rect class="cls-2" x="68.350002289" y="27.049999952" width="3.199996948" height="3.200000763"/>
  <rect class="cls-2" x="68.350002289" y="23.850001097" width="3.199996948" height="3.200000763"/>
  <rect class="cls-2" x="68.350002289" y="20.650000334" width="3.199996948" height="3.200000763"/>
  <rect class="cls-2" x="68.350002289" y="17.450000525" width="3.199996948" height="3.199999809"/>
  <rect x="68.350002289" y="14.250000715" width="3.199996948" height="3.199999809"/>
  <rect x="68.350002289" y="11.150000811" width="3.199996948" height="3.200000286"/>
  <rect x="65.150005341" y="77.949997663" width="3.199996948" height="3.199996948"/>
  <rect x="65.150005341" y="74.750000715" width="3.199996948" height="3.199996948"/>
  <rect class="cls-2" x="65.150005341" y="71.550003767" width="3.199996948" height="3.199996948"/>
  <rect class="cls-2" x="65.150005341" y="68.349999189" width="3.199996948" height="3.199996948"/>
  <rect class="cls-1" x="65.150005341" y="65.250000715" width="3.199996948" height="3.200000763"/>
  <rect class="cls-1" x="65.150005341" y="62.049999952" width="3.199996948" height="3.200000763"/>
  <rect class="cls-2" x="65.150005341" y="58.849999189" width="3.199996948" height="3.200000763"/>
  <rect class="cls-2" x="65.150005341" y="55.650002241" width="3.199996948" height="3.200000763"/>
  <rect class="cls-1" x="65.150005341" y="52.450001478" width="3.199996948" height="3.200000763"/>
  <rect class="cls-1" x="65.150005341" y="49.250000715" width="3.199996948" height="3.200000763"/>
  <rect class="cls-1" x="65.150005341" y="46.150002241" width="3.199996948" height="3.200000763"/>
  <rect class="cls-1" x="65.150005341" y="42.950001478" width="3.199996948" height="3.200000763"/>
  <rect class="cls-1" x="65.150005341" y="39.750000715" width="3.199996948" height="3.200000763"/>
  <rect class="cls-1" x="65.150005341" y="36.549999952" width="3.199996948" height="3.200000763"/>
  <rect class="cls-2" x="65.150005341" y="33.350001097" width="3.199996948" height="3.200000763"/>
  <rect class="cls-2" x="65.150005341" y="30.250000715" width="3.199996948" height="3.200000763"/>
  <rect class="cls-2" x="65.150005341" y="27.049999952" width="3.199996948" height="3.200000763"/>
  <rect class="cls-2" x="65.150005341" y="23.850001097" width="3.199996948" height="3.200000763"/>
  <rect class="cls-2" x="65.150005341" y="20.650000334" width="3.199996948" height="3.200000763"/>
  <rect class="cls-2" x="65.150005341" y="17.450000525" width="3.199996948" height="3.199999809"/>
  <rect x="65.150005341" y="14.250000715" width="3.199996948" height="3.199999809"/>
  <rect x="65.150005341" y="11.150000811" width="3.199996948" height="3.200000286"/>
  <rect x="62.049999237" y="84.250000715" width="3.199996948" height="3.199996948"/>
  <rect x="62.049999237" y="81.150002241" width="3.199996948" height="3.199996948"/>
  <rect class="cls-2" x="62.049999237" y="77.949997663" width="3.199996948" height="3.199996948"/>
  <rect class="cls-2" x="62.049999237" y="74.750000715" width="3.199996948" height="3.199996948"/>
  <rect class="cls-2" x="62.049999237" y="71.550003767" width="3.199996948" height="3.199996948"/>
  <rect class="cls-2" x="62.049999237" y="68.349999189" width="3.199996948" height="3.199996948"/>
  <rect class="cls-1" x="62.049999237" y="65.250000715" width="3.199996948" height="3.200000763"/>
  <rect class="cls-1" x="62.049999237" y="62.049999952" width="3.199996948" height="3.200000763"/>
  <rect class="cls-2" x="62.049999237" y="58.849999189" width="3.199996948" height="3.200000763"/>
  <rect class="cls-2" x="62.049999237" y="55.650002241" width="3.199996948" height="3.200000763"/>
  <rect class="cls-1" x="62.049999237" y="52.450001478" width="3.199996948" height="3.200000763"/>
  <rect class="cls-1" x="62.049999237" y="49.250000715" width="3.199996948" height="3.200000763"/>
  <rect class="cls-1" x="62.049999237" y="46.150002241" width="3.199996948" height="3.200000763"/>
  <rect class="cls-2" x="62.049999237" y="42.950001478" width="3.199996948" height="3.200000763"/>
  <rect class="cls-2" x="62.049999237" y="39.750000715" width="3.199996948" height="3.200000763"/>
  <rect class="cls-2" x="62.049999237" y="36.549999952" width="3.199996948" height="3.200000763"/>
  <rect class="cls-2" x="62.049999237" y="33.350001097" width="3.199996948" height="3.200000763"/>
  <rect class="cls-2" x="62.049999237" y="30.250000715" width="3.199996948" height="3.200000763"/>
  <rect class="cls-1" x="62.049999237" y="27.049999952" width="3.199996948" height="3.200000763"/>
  <rect class="cls-1" x="62.049999237" y="23.850001097" width="3.199996948" height="3.200000763"/>
  <rect class="cls-1" x="62.049999237" y="20.650000334" width="3.199996948" height="3.200000763"/>
  <rect class="cls-1" x="62.049999237" y="17.450000525" width="3.199996948" height="3.199999809"/>
  <rect x="62.049999237" y="14.250000715" width="3.199996948" height="3.199999809"/>
  <rect x="62.049999237" y="11.150000811" width="3.199996948" height="3.200000286"/>
  <rect x="58.850002289" y="84.250000715" width="3.199996948" height="3.199996948"/>
  <rect x="58.850002289" y="81.150002241" width="3.199996948" height="3.199996948"/>
  <rect class="cls-2" x="58.850002289" y="77.949997663" width="3.199996948" height="3.199996948"/>
  <rect class="cls-2" x="58.850002289" y="74.750000715" width="3.199996948" height="3.199996948"/>
  <rect class="cls-1" x="58.850002289" y="71.550003767" width="3.199996948" height="3.199996948"/>
  <rect class="cls-1" x="58.850002289" y="68.349999189" width="3.199996948" height="3.199996948"/>
  <rect class="cls-1" x="58.850002289" y="65.250000715" width="3.199996948" height="3.200000763"/>
  <rect class="cls-1" x="58.850002289" y="62.049999952" width="3.199996948" height="3.200000763"/>
  <rect class="cls-2" x="58.850002289" y="58.849999189" width="3.199996948" height="3.200000763"/>
  <rect class="cls-2" x="58.850002289" y="55.650002241" width="3.199996948" height="3.200000763"/>
  <rect class="cls-1" x="58.850002289" y="52.450001478" width="3.199996948" height="3.200000763"/>
  <rect class="cls-1" x="58.850002289" y="49.250000715" width="3.199996948" height="3.200000763"/>
  <rect class="cls-1" x="58.850002289" y="46.150002241" width="3.199996948" height="3.200000763"/>
  <rect class="cls-1" x="58.850002289" y="42.950001478" width="3.199996948" height="3.200000763"/>
  <rect class="cls-1" x="58.850002289" y="39.750000715" width="3.199996948" height="3.200000763"/>
  <rect class="cls-2" x="58.850002289" y="36.549999952" width="3.199996948" height="3.200000763"/>
  <rect class="cls-2" x="58.850002289" y="33.350001097" width="3.199996948" height="3.200000763"/>
  <rect class="cls-2" x="58.850002289" y="30.250000715" width="3.199996948" height="3.200000763"/>
  <rect class="cls-1" x="58.850002289" y="27.049999952" width="3.199996948" height="3.200000763"/>
  <rect class="cls-1" x="58.850002289" y="23.850001097" width="3.199996948" height="3.200000763"/>
  <rect x="58.850002289" y="20.650000334" width="3.199996948" height="3.200000763"/>
  <rect x="58.850002289" y="17.450000525" width="3.199996948" height="3.199999809"/>
  <rect x="55.650005341" y="90.650002241" width="3.199996948" height="3.199996948"/>
  <rect x="55.650005341" y="87.449997663" width="3.199996948" height="3.199996948"/>
  <rect class="cls-2" x="55.650005341" y="84.250000715" width="3.199996948" height="3.199996948"/>
  <rect class="cls-2" x="55.650005341" y="81.150002241" width="3.199996948" height="3.199996948"/>
  <rect class="cls-2" x="55.650005341" y="77.949997663" width="3.199996948" height="3.199996948"/>
  <rect class="cls-2" x="55.650005341" y="74.750000715" width="3.199996948" height="3.199996948"/>
  <rect class="cls-1" x="55.650005341" y="71.550003767" width="3.199996948" height="3.199996948"/>
  <rect class="cls-1" x="55.650005341" y="68.349999189" width="3.199996948" height="3.199996948"/>
  <rect class="cls-1" x="55.650005341" y="65.250000715" width="3.199996948" height="3.200000763"/>
  <rect class="cls-1" x="55.650005341" y="62.049999952" width="3.199996948" height="3.200000763"/>
  <rect class="cls-2" x="55.650005341" y="58.849999189" width="3.199996948" height="3.200000763"/>
  <rect class="cls-2" x="55.650005341" y="55.650002241" width="3.199996948" height="3.200000763"/>
  <rect class="cls-1" x="55.650005341" y="52.450001478" width="3.199996948" height="3.200000763"/>
  <rect class="cls-1" x="55.650005341" y="49.250000715" width="3.199996948" height="3.200000763"/>
  <rect class="cls-1" x="55.650005341" y="46.150002241" width="3.199996948" height="3.200000763"/>
  <rect class="cls-1" x="55.650005341" y="42.950001478" width="3.199996948" height="3.200000763"/>
  <rect class="cls-1" x="55.650005341" y="39.750000715" width="3.199996948" height="3.200000763"/>
  <rect class="cls-1" x="55.650005341" y="36.549999952" width="3.199996948" height="3.200000763"/>
  <rect class="cls-1" x="55.650005341" y="33.350001097" width="3.199996948" height="3.200000763"/>
  <rect class="cls-1" x="55.650005341" y="30.250000715" width="3.199996948" height="3.200000763"/>
  <rect class="cls-1" x="55.650005341" y="27.049999952" width="3.199996948" height="3.200000763"/>
  <rect class="cls-1" x="55.650005341" y="23.850001097" width="3.199996948" height="3.200000763"/>
  <rect x="55.650005341" y="20.650000334" width="3.199996948" height="3.200000763"/>
  <rect x="55.650005341" y="17.450000525" width="3.199996948" height="3.199999809"/>
  <rect x="52.449993134" y="90.650002241" width="3.199996948" height="3.199996948"/>
  <rect x="52.449993134" y="87.449997663" width="3.199996948" height="3.199996948"/>
  <rect class="cls-2" x="52.449993134" y="84.250000715" width="3.199996948" height="3.199996948"/>
  <rect class="cls-2" x="52.449993134" y="81.150002241" width="3.199996948" height="3.199996948"/>
  <rect class="cls-1" x="52.449993134" y="77.949997663" width="3.199996948" height="3.199996948"/>
  <rect class="cls-1" x="52.449993134" y="74.750000715" width="3.199996948" height="3.199996948"/>
  <rect class="cls-1" x="52.449993134" y="71.550003767" width="3.199996948" height="3.199996948"/>
  <rect class="cls-1" x="52.449993134" y="68.349999189" width="3.199996948" height="3.199996948"/>
  <rect class="cls-1" x="52.449993134" y="65.250000715" width="3.199996948" height="3.200000763"/>
  <rect class="cls-1" x="52.449993134" y="62.049999952" width="3.199996948" height="3.200000763"/>
  <rect class="cls-2" x="52.449993134" y="58.849999189" width="3.199996948" height="3.200000763"/>
  <rect class="cls-2" x="52.449993134" y="55.650002241" width="3.199996948" height="3.200000763"/>
  <rect class="cls-2" x="52.449993134" y="52.450001478" width="3.199996948" height="3.200000763"/>
  <rect class="cls-1" x="52.449993134" y="49.250000715" width="3.199996948" height="3.200000763"/>
  <rect class="cls-1" x="52.449993134" y="46.150002241" width="3.199996948" height="3.200000763"/>
  <rect class="cls-1" x="52.449993134" y="42.950001478" width="3.199996948" height="3.200000763"/>
  <rect class="cls-1" x="52.449993134" y="39.750000715" width="3.199996948" height="3.200000763"/>
  <rect class="cls-1" x="52.449993134" y="36.549999952" width="3.199996948" height="3.200000763"/>
  <rect class="cls-1" x="52.449993134" y="33.350001097" width="3.199996948" height="3.200000763"/>
  <rect class="cls-1" x="52.449993134" y="30.250000715" width="3.199996948" height="3.200000763"/>
  <rect x="52.449993134" y="27.049999952" width="3.199996948" height="3.200000763"/>
  <rect x="52.449993134" y="23.850001097" width="3.199996948" height="3.200000763"/>
  <rect x="49.249996185" y="90.650002241" width="3.199996948" height="3.199996948"/>
  <rect x="49.249996185" y="87.449997663" width="3.199996948" height="3.199996948"/>
  <rect class="cls-2" x="49.249996185" y="84.250000715" width="3.199996948" height="3.199996948"/>
  <rect class="cls-2" x="49.249996185" y="81.150002241" width="3.199996948" height="3.199996948"/>
  <rect class="cls-1" x="49.249996185" y="77.949997663" width="3.199996948" height="3.199996948"/>
  <rect class="cls-1" x="49.249996185" y="74.750000715" width="3.199996948" height="3.199996948"/>
  <rect class="cls-1" x="49.249996185" y="71.550003767" width="3.199996948" height="3.199996948"/>
  <rect class="cls-1" x="49.249996185" y="68.349999189" width="3.199996948" height="3.199996948"/>
  <rect class="cls-1" x="49.249996185" y="65.250000715" width="3.199996948" height="3.200000763"/>
  <rect class="cls-1" x="49.249996185" y="62.049999952" width="3.199996948" height="3.200000763"/>
  <rect class="cls-2" x="49.249996185" y="58.849999189" width="3.199996948" height="3.200000763"/>
  <rect class="cls-2" x="49.249996185" y="55.650002241" width="3.199996948" height="3.200000763"/>
  <rect class="cls-2" x="49.249996185" y="52.450001478" width="3.199996948" height="3.200000763"/>
  <rect class="cls-1" x="49.249996185" y="49.250000715" width="3.199996948" height="3.200000763"/>
  <rect class="cls-1" x="49.249996185" y="46.150002241" width="3.199996948" height="3.200000763"/>
  <rect class="cls-1" x="49.249996185" y="42.950001478" width="3.199996948" height="3.200000763"/>
  <rect class="cls-1" x="49.249996185" y="39.750000715" width="3.199996948" height="3.200000763"/>
  <rect class="cls-1" x="49.249996185" y="36.549999952" width="3.199996948" height="3.200000763"/>
  <rect class="cls-1" x="49.249996185" y="33.350001097" width="3.199996948" height="3.200000763"/>
  <rect class="cls-1" x="49.249996185" y="30.250000715" width="3.199996948" height="3.200000763"/>
  <rect x="49.249996185" y="27.049999952" width="3.199996948" height="3.200000763"/>
  <rect x="49.249996185" y="23.850001097" width="3.199996948" height="3.200000763"/>
  <rect x="46.049999237" y="90.650002241" width="3.199996948" height="3.199996948"/>
  <rect x="46.049999237" y="87.449997663" width="3.199996948" height="3.199996948"/>
  <rect class="cls-2" x="46.049999237" y="84.250000715" width="3.199996948" height="3.199996948"/>
  <rect class="cls-2" x="46.049999237" y="81.150002241" width="3.199996948" height="3.199996948"/>
  <rect class="cls-2" x="46.049999237" y="77.949997663" width="3.199996948" height="3.199996948"/>
  <rect class="cls-2" x="46.049999237" y="74.750000715" width="3.199996948" height="3.199996948"/>
  <rect class="cls-2" x="46.049999237" y="71.550003767" width="3.199996948" height="3.199996948"/>
  <rect class="cls-1" x="46.049999237" y="68.349999189" width="3.199996948" height="3.199996948"/>
  <rect class="cls-1" x="46.049999237" y="65.250000715" width="3.199996948" height="3.200000763"/>
  <rect class="cls-1" x="46.049999237" y="62.049999952" width="3.199996948" height="3.200000763"/>
  <rect class="cls-1" x="46.049999237" y="58.849999189" width="3.199996948" height="3.200000763"/>
  <rect class="cls-2" x="46.049999237" y="55.650002241" width="3.199996948" height="3.200000763"/>
  <rect class="cls-2" x="46.049999237" y="52.450001478" width="3.199996948" height="3.200000763"/>
  <rect class="cls-1" x="46.049999237" y="49.250000715" width="3.199996948" height="3.200000763"/>
  <rect class="cls-1" x="46.049999237" y="46.150002241" width="3.199996948" height="3.200000763"/>
  <rect class="cls-1" x="46.049999237" y="42.950001478" width="3.199996948" height="3.200000763"/>
  <rect class="cls-1" x="46.049999237" y="39.750000715" width="3.199996948" height="3.200000763"/>
  <rect class="cls-1" x="46.049999237" y="36.549999952" width="3.199996948" height="3.200000763"/>
  <rect class="cls-1" x="46.049999237" y="33.350001097" width="3.199996948" height="3.200000763"/>
  <rect class="cls-1" x="46.049999237" y="30.250000715" width="3.199996948" height="3.200000763"/>
  <rect x="46.049999237" y="27.049999952" width="3.199996948" height="3.200000763"/>
  <rect x="46.049999237" y="23.850001097" width="3.199996948" height="3.200000763"/>
  <rect x="42.949993134" y="84.250000715" width="3.199996948" height="3.199996948"/>
  <rect x="42.949993134" y="81.150002241" width="3.199996948" height="3.199996948"/>
  <rect class="cls-2" x="42.949993134" y="77.949997663" width="3.199996948" height="3.199996948"/>
  <rect class="cls-2" x="42.949993134" y="74.750000715" width="3.199996948" height="3.199996948"/>
  <rect class="cls-2" x="42.949993134" y="71.550003767" width="3.199996948" height="3.199996948"/>
  <rect class="cls-1" x="42.949993134" y="68.349999189" width="3.199996948" height="3.199996948"/>
  <rect class="cls-1" x="42.949993134" y="65.250000715" width="3.199996948" height="3.200000763"/>
  <rect class="cls-1" x="42.949993134" y="62.049999952" width="3.199996948" height="3.200000763"/>
  <rect class="cls-1" x="42.949993134" y="58.849999189" width="3.199996948" height="3.200000763"/>
  <rect class="cls-2" x="42.949993134" y="55.650002241" width="3.199996948" height="3.200000763"/>
  <rect class="cls-2" x="42.949993134" y="52.450001478" width="3.199996948" height="3.200000763"/>
  <rect class="cls-1" x="42.949993134" y="49.250000715" width="3.199996948" height="3.200000763"/>
  <rect class="cls-1" x="42.949993134" y="46.150002241" width="3.199996948" height="3.200000763"/>
  <rect class="cls-1" x="42.949993134" y="42.950001478" width="3.199996948" height="3.200000763"/>
  <rect class="cls-1" x="42.949993134" y="39.750000715" width="3.199996948" height="3.200000763"/>
  <rect class="cls-1" x="42.949993134" y="36.549999952" width="3.199996948" height="3.200000763"/>
  <rect class="cls-1" x="42.949993134" y="33.350001097" width="3.199996948" height="3.200000763"/>
  <rect class="cls-1" x="42.949993134" y="30.250000715" width="3.199996948" height="3.200000763"/>
  <rect class="cls-1" x="42.949993134" y="27.049999952" width="3.199996948" height="3.200000763"/>
  <rect class="cls-1" x="42.949993134" y="23.850001097" width="3.199996948" height="3.200000763"/>
  <rect x="42.949993134" y="20.650000334" width="3.199996948" height="3.200000763"/>
  <rect x="42.949993134" y="17.450000525" width="3.199996948" height="3.199999809"/>
  <rect x="39.749996185" y="84.250000715" width="3.199996948" height="3.199996948"/>
  <rect x="39.749996185" y="81.150002241" width="3.199996948" height="3.199996948"/>
  <rect class="cls-1" x="39.749996185" y="77.949997663" width="3.199996948" height="3.199996948"/>
  <rect class="cls-1" x="39.749996185" y="74.750000715" width="3.199996948" height="3.199996948"/>
  <rect class="cls-1" x="39.749996185" y="71.550003767" width="3.199996948" height="3.199996948"/>
  <rect class="cls-2" x="39.749996185" y="68.349999189" width="3.199996948" height="3.199996948"/>
  <rect class="cls-1" x="39.749996185" y="65.250000715" width="3.199996948" height="3.200000763"/>
  <rect class="cls-1" x="39.749996185" y="62.049999952" width="3.199996948" height="3.200000763"/>
  <rect class="cls-2" x="39.749996185" y="58.849999189" width="3.199996948" height="3.200000763"/>
  <rect class="cls-2" x="39.749996185" y="55.650002241" width="3.199996948" height="3.200000763"/>
  <rect class="cls-2" x="39.749996185" y="52.450001478" width="3.199996948" height="3.200000763"/>
  <rect class="cls-2" x="39.749996185" y="49.250000715" width="3.199996948" height="3.200000763"/>
  <rect class="cls-2" x="39.749996185" y="46.150002241" width="3.199996948" height="3.200000763"/>
  <rect class="cls-2" x="39.749996185" y="42.950001478" width="3.199996948" height="3.200000763"/>
  <rect class="cls-1" x="39.749996185" y="39.750000715" width="3.199996948" height="3.200000763"/>
  <rect class="cls-1" x="39.749996185" y="36.549999952" width="3.199996948" height="3.200000763"/>
  <rect class="cls-1" x="39.749996185" y="33.350001097" width="3.199996948" height="3.200000763"/>
  <rect class="cls-1" x="39.749996185" y="30.250000715" width="3.199996948" height="3.200000763"/>
  <rect class="cls-1" x="39.749996185" y="27.049999952" width="3.199996948" height="3.200000763"/>
  <rect class="cls-1" x="39.749996185" y="23.850001097" width="3.199996948" height="3.200000763"/>
  <rect x="39.749996185" y="20.650000334" width="3.199996948" height="3.200000763"/>
  <rect x="39.749996185" y="17.450000525" width="3.199996948" height="3.199999809"/>
  <rect x="36.549999237" y="77.949997663" width="3.199996948" height="3.199996948"/>
  <rect x="36.549999237" y="74.750000715" width="3.199996948" height="3.199996948"/>
  <rect class="cls-1" x="36.549999237" y="71.550003767" width="3.199996948" height="3.199996948"/>
  <rect class="cls-1" x="36.549999237" y="68.349999189" width="3.199996948" height="3.199996948"/>
  <rect class="cls-2" x="36.549999237" y="65.250000715" width="3.199996948" height="3.200000763"/>
  <rect class="cls-1" x="36.549999237" y="62.049999952" width="3.199996948" height="3.200000763"/>
  <rect class="cls-1" x="36.549999237" y="58.849999189" width="3.199996948" height="3.200000763"/>
  <rect class="cls-1" x="36.549999237" y="55.650002241" width="3.199996948" height="3.200000763"/>
  <rect class="cls-2" x="36.549999237" y="52.450001478" width="3.199996948" height="3.200000763"/>
  <rect class="cls-2" x="36.549999237" y="49.250000715" width="3.199996948" height="3.200000763"/>
  <rect class="cls-2" x="36.549999237" y="46.150002241" width="3.199996948" height="3.200000763"/>
  <rect class="cls-2" x="36.549999237" y="42.950001478" width="3.199996948" height="3.200000763"/>
  <rect class="cls-1" x="36.549999237" y="39.750000715" width="3.199996948" height="3.200000763"/>
  <rect class="cls-1" x="36.549999237" y="36.549999952" width="3.199996948" height="3.200000763"/>
  <rect class="cls-1" x="36.549999237" y="33.350001097" width="3.199996948" height="3.200000763"/>
  <rect class="cls-1" x="36.549999237" y="30.250000715" width="3.199996948" height="3.200000763"/>
  <rect class="cls-1" x="36.549999237" y="27.049999952" width="3.199996948" height="3.200000763"/>
  <rect class="cls-1" x="36.549999237" y="23.850001097" width="3.199996948" height="3.200000763"/>
  <rect class="cls-1" x="36.549999237" y="20.650000334" width="3.199996948" height="3.200000763"/>
  <rect class="cls-1" x="36.549999237" y="17.450000525" width="3.199996948" height="3.199999809"/>
  <rect x="36.549999237" y="14.250000715" width="3.199996948" height="3.199999809"/>
  <rect x="36.549999237" y="11.150000811" width="3.199996948" height="3.200000286"/>
  <rect x="33.350002289" y="77.949997663" width="3.199996948" height="3.199996948"/>
  <rect x="33.350002289" y="74.750000715" width="3.199996948" height="3.199996948"/>
  <rect class="cls-1" x="33.350002289" y="71.550003767" width="3.199996948" height="3.199996948"/>
  <rect class="cls-1" x="33.350002289" y="68.349999189" width="3.199996948" height="3.199996948"/>
  <rect class="cls-1" x="33.350002289" y="65.250000715" width="3.199996948" height="3.200000763"/>
  <rect class="cls-1" x="33.350002289" y="62.049999952" width="3.199996948" height="3.200000763"/>
  <rect class="cls-1" x="33.350002289" y="58.849999189" width="3.199996948" height="3.200000763"/>
  <rect class="cls-1" x="33.350002289" y="55.650002241" width="3.199996948" height="3.200000763"/>
  <rect class="cls-1" x="33.350002289" y="52.450001478" width="3.199996948" height="3.200000763"/>
  <rect class="cls-1" x="33.350002289" y="49.250000715" width="3.199996948" height="3.200000763"/>
  <rect class="cls-1" x="33.350002289" y="46.150002241" width="3.199996948" height="3.200000763"/>
  <rect class="cls-1" x="33.350002289" y="42.950001478" width="3.199996948" height="3.200000763"/>
  <rect class="cls-2" x="33.350002289" y="39.750000715" width="3.199996948" height="3.200000763"/>
  <rect class="cls-2" x="33.350002289" y="36.549999952" width="3.199996948" height="3.200000763"/>
  <rect class="cls-1" x="33.350002289" y="33.350001097" width="3.199996948" height="3.200000763"/>
  <rect class="cls-1" x="33.350002289" y="30.250000715" width="3.199996948" height="3.200000763"/>
  <rect class="cls-1" x="33.350002289" y="27.049999952" width="3.199996948" height="3.200000763"/>
  <rect class="cls-1" x="33.350002289" y="23.850001097" width="3.199996948" height="3.200000763"/>
  <rect class="cls-1" x="33.350002289" y="20.650000334" width="3.199996948" height="3.200000763"/>
  <rect class="cls-1" x="33.350002289" y="17.450000525" width="3.199996948" height="3.199999809"/>
  <rect x="33.350002289" y="14.250000715" width="3.199996948" height="3.199999809"/>
  <rect x="33.350002289" y="11.150000811" width="3.199996948" height="3.200000286"/>
  <rect x="30.150005341" y="71.550003767" width="3.199996948" height="3.199996948"/>
  <rect x="30.150005341" y="68.349999189" width="3.199996948" height="3.199996948"/>
  <rect class="cls-1" x="30.150005341" y="65.250000715" width="3.199996948" height="3.200000763"/>
  <rect class="cls-1" x="30.150005341" y="62.049999952" width="3.199996948" height="3.200000763"/>
  <rect class="cls-1" x="30.150005341" y="58.849999189" width="3.199996948" height="3.200000763"/>
  <rect class="cls-1" x="30.150005341" y="55.650002241" width="3.199996948" height="3.200000763"/>
  <rect class="cls-1" x="30.150005341" y="52.450001478" width="3.199996948" height="3.200000763"/>
  <rect class="cls-1" x="30.150005341" y="49.250000715" width="3.199996948" height="3.200000763"/>
  <rect class="cls-1" x="30.150005341" y="46.150002241" width="3.199996948" height="3.200000763"/>
  <rect class="cls-1" x="30.150005341" y="42.950001478" width="3.199996948" height="3.200000763"/>
  <rect class="cls-2" x="30.150005341" y="39.750000715" width="3.199996948" height="3.200000763"/>
  <rect class="cls-2" x="30.150005341" y="36.549999952" width="3.199996948" height="3.200000763"/>
  <rect class="cls-2" x="30.150005341" y="33.350001097" width="3.199996948" height="3.200000763"/>
  <rect class="cls-2" x="30.150005341" y="30.250000715" width="3.199996948" height="3.200000763"/>
  <rect class="cls-1" x="30.150005341" y="27.049999952" width="3.199996948" height="3.200000763"/>
  <rect class="cls-1" x="30.150005341" y="23.850001097" width="3.199996948" height="3.200000763"/>
  <rect class="cls-1" x="30.150005341" y="20.650000334" width="3.199996948" height="3.200000763"/>
  <rect class="cls-1" x="30.150005341" y="17.450000525" width="3.199996948" height="3.199999809"/>
  <rect x="30.150005341" y="14.250000715" width="3.199996948" height="3.199999809"/>
  <rect x="30.150005341" y="11.150000811" width="3.199996948" height="3.200000286"/>
  <rect x="26.949993134" y="71.550003767" width="3.199996948" height="3.199996948"/>
  <rect x="26.949993134" y="68.349999189" width="3.199996948" height="3.199996948"/>
  <rect class="cls-1" x="26.949993134" y="65.250000715" width="3.199996948" height="3.200000763"/>
  <rect class="cls-1" x="26.949993134" y="62.049999952" width="3.199996948" height="3.200000763"/>
  <rect class="cls-1" x="26.949993134" y="58.849999189" width="3.199996948" height="3.200000763"/>
  <rect class="cls-1" x="26.949993134" y="55.650002241" width="3.199996948" height="3.200000763"/>
  <rect class="cls-1" x="26.949993134" y="52.450001478" width="3.199996948" height="3.200000763"/>
  <rect class="cls-1" x="26.949993134" y="49.250000715" width="3.199996948" height="3.200000763"/>
  <rect class="cls-1" x="26.949993134" y="46.150002241" width="3.199996948" height="3.200000763"/>
  <rect class="cls-1" x="26.949993134" y="42.950001478" width="3.199996948" height="3.200000763"/>
  <rect class="cls-1" x="26.949993134" y="39.750000715" width="3.199996948" height="3.200000763"/>
  <rect class="cls-2" x="26.949993134" y="36.549999952" width="3.199996948" height="3.200000763"/>
  <rect class="cls-2" x="26.949993134" y="33.350001097" width="3.199996948" height="3.200000763"/>
  <rect class="cls-2" x="26.949993134" y="30.250000715" width="3.199996948" height="3.200000763"/>
  <rect class="cls-1" x="26.949993134" y="27.049999952" width="3.199996948" height="3.200000763"/>
  <rect class="cls-1" x="26.949993134" y="23.850001097" width="3.199996948" height="3.200000763"/>
  <rect class="cls-1" x="26.949993134" y="20.650000334" width="3.199996948" height="3.200000763"/>
  <rect class="cls-1" x="26.949993134" y="17.450000525" width="3.199996948" height="3.199999809"/>
  <rect x="26.949993134" y="14.250000715" width="3.199996948" height="3.199999809"/>
  <rect x="26.949993134" y="11.150000811" width="3.199996948" height="3.200000286"/>
  <rect x="23.850002289" y="65.250000715" width="3.199996948" height="3.200000763"/>
  <rect x="23.850002289" y="62.049999952" width="3.199996948" height="3.200000763"/>
  <rect class="cls-1" x="23.850002289" y="58.849999189" width="3.199996948" height="3.200000763"/>
  <rect class="cls-1" x="23.850002289" y="55.650002241" width="3.199996948" height="3.200000763"/>
  <rect class="cls-1" x="23.850002289" y="52.450001478" width="3.199996948" height="3.200000763"/>
  <rect class="cls-1" x="23.850002289" y="49.250000715" width="3.199996948" height="3.200000763"/>
  <rect class="cls-1" x="23.850002289" y="46.150002241" width="3.199996948" height="3.200000763"/>
  <rect class="cls-1" x="23.850002289" y="42.950001478" width="3.199996948" height="3.200000763"/>
  <rect class="cls-1" x="23.850002289" y="39.750000715" width="3.199996948" height="3.200000763"/>
  <rect class="cls-1" x="23.850002289" y="36.549999952" width="3.199996948" height="3.200000763"/>
  <rect class="cls-2" x="23.850002289" y="33.350001097" width="3.199996948" height="3.200000763"/>
  <rect class="cls-2" x="23.850002289" y="30.250000715" width="3.199996948" height="3.200000763"/>
  <rect class="cls-1" x="23.850002289" y="27.049999952" width="3.199996948" height="3.200000763"/>
  <rect class="cls-1" x="23.850002289" y="23.850001097" width="3.199996948" height="3.200000763"/>
  <rect x="23.850002289" y="20.650000334" width="3.199996948" height="3.200000763"/>
  <rect x="23.850002289" y="17.450000525" width="3.199996948" height="3.199999809"/>
  <rect x="20.649997711" y="65.250000715" width="3.199996948" height="3.200000763"/>
  <rect x="20.649997711" y="62.049999952" width="3.199996948" height="3.200000763"/>
  <rect class="cls-1" x="20.649997711" y="58.849999189" width="3.199996948" height="3.200000763"/>
  <rect class="cls-1" x="20.649997711" y="55.650002241" width="3.199996948" height="3.200000763"/>
  <rect class="cls-1" x="20.649997711" y="52.450001478" width="3.199996948" height="3.200000763"/>
  <rect class="cls-1" x="20.649997711" y="49.250000715" width="3.199996948" height="3.200000763"/>
  <rect class="cls-1" x="20.649997711" y="46.150002241" width="3.199996948" height="3.200000763"/>
  <rect class="cls-1" x="20.649997711" y="42.950001478" width="3.199996948" height="3.200000763"/>
  <rect class="cls-1" x="20.649997711" y="39.750000715" width="3.199996948" height="3.200000763"/>
  <rect class="cls-1" x="20.649997711" y="36.549999952" width="3.199996948" height="3.200000763"/>
  <rect class="cls-2" x="20.649997711" y="33.350001097" width="3.199996948" height="3.200000763"/>
  <rect class="cls-2" x="20.649997711" y="30.250000715" width="3.199996948" height="3.200000763"/>
  <rect class="cls-1" x="20.649997711" y="27.049999952" width="3.199996948" height="3.200000763"/>
  <rect class="cls-1" x="20.649997711" y="23.850001097" width="3.199996948" height="3.200000763"/>
  <rect x="20.649997711" y="20.650000334" width="3.199996948" height="3.200000763"/>
  <rect x="20.649997711" y="17.450000525" width="3.199996948" height="3.199999809"/>
  <rect x="17.450000763" y="58.849999189" width="3.199996948" height="3.200000763"/>
  <rect x="17.450000763" y="55.650002241" width="3.199996948" height="3.200000763"/>
  <rect x="17.450000763" y="52.450001478" width="3.199996948" height="3.200000763"/>
  <rect class="cls-1" x="17.450000763" y="49.250000715" width="3.199996948" height="3.200000763"/>
  <rect class="cls-1" x="17.450000763" y="46.150002241" width="3.199996948" height="3.200000763"/>
  <rect class="cls-1" x="17.450000763" y="42.950001478" width="3.199996948" height="3.200000763"/>
  <rect class="cls-1" x="17.450000763" y="39.750000715" width="3.199996948" height="3.200000763"/>
  <rect class="cls-1" x="17.450000763" y="36.549999952" width="3.199996948" height="3.200000763"/>
  <rect class="cls-1" x="17.450000763" y="33.350001097" width="3.199996948" height="3.200000763"/>
  <rect class="cls-1" x="17.450000763" y="30.250000715" width="3.199996948" height="3.200000763"/>
  <rect x="17.450000763" y="27.049999952" width="3.199996948" height="3.200000763"/>
  <rect x="17.450000763" y="23.850001097" width="3.199996948" height="3.200000763"/>
  <rect x="14.249996185" y="58.849999189" width="3.199996948" height="3.200000763"/>
  <rect x="14.249996185" y="55.650002241" width="3.199996948" height="3.200000763"/>
  <rect x="14.249996185" y="52.450001478" width="3.199996948" height="3.200000763"/>
  <rect class="cls-1" x="14.249996185" y="49.250000715" width="3.199996948" height="3.200000763"/>
  <rect class="cls-1" x="14.249996185" y="46.150002241" width="3.199996948" height="3.200000763"/>
  <rect class="cls-1" x="14.249996185" y="42.950001478" width="3.199996948" height="3.200000763"/>
  <rect class="cls-1" x="14.249996185" y="39.750000715" width="3.199996948" height="3.200000763"/>
  <rect class="cls-1" x="14.249996185" y="36.549999952" width="3.199996948" height="3.200000763"/>
  <rect class="cls-1" x="14.249996185" y="33.350001097" width="3.199996948" height="3.200000763"/>
  <rect class="cls-1" x="14.249996185" y="30.250000715" width="3.199996948" height="3.200000763"/>
  <rect x="14.249996185" y="27.049999952" width="3.199996948" height="3.200000763"/>
  <rect x="14.249996185" y="23.850001097" width="3.199996948" height="3.200000763"/>
  <rect x="11.049999237" y="49.250000715" width="3.199996948" height="3.200000763"/>
  <rect x="11.049999237" y="46.150002241" width="3.199996948" height="3.200000763"/>
  <rect x="11.049999237" y="42.950001478" width="3.199996948" height="3.200000763"/>
  <rect x="11.049999237" y="39.750000715" width="3.199996948" height="3.200000763"/>
  <rect x="11.049999237" y="36.549999952" width="3.199996948" height="3.200000763"/>
  <rect x="11.049999237" y="33.350001097" width="3.199996948" height="3.200000763"/>
  <rect x="11.049999237" y="30.250000715" width="3.199996948" height="3.200000763"/>
  <rect x="7.950000763" y="49.250000715" width="3.199996948" height="3.200000763"/>
  <rect x="7.950000763" y="46.150002241" width="3.199996948" height="3.200000763"/>
  <rect x="7.950000763" y="42.950001478" width="3.199996948" height="3.200000763"/>
  <rect x="7.950000763" y="39.750000715" width="3.199996948" height="3.200000763"/>
  <rect x="7.950000763" y="36.549999952" width="3.199996948" height="3.200000763"/>
  <rect x="7.950000763" y="33.350001097" width="3.199996948" height="3.200000763"/>
  <rect x="7.950000763" y="30.250000715" width="3.199996948" height="3.200000763"/>
</svg>