<?xml version="1.0" encoding="UTF-8"?>
<svg id="Ebene_1" data-name="Ebene 1" xmlns="http://www.w3.org/2000/svg" viewBox="0 0 100 100">
  <defs>
    <style>
      .cls-1 {
        fill: #91539c;
      }

      .cls-2 {
        fill: #c18c22;
      }

      .cls-3 {
        fill: #6f317c;
      }

      .cls-4 {
        fill: #e2bb6d;
      }

      .cls-5 {
        fill: #854091;
      }

      .cls-6 {
        fill: #c99a31;
      }
    </style>
  </defs>
  <rect class="cls-2" x="89.392999649" y="57.575998306" width="3.029998779" height="3.029998779"/>
  <rect class="cls-2" x="89.392999649" y="54.545999527" width="3.029998779" height="3.029998779"/>
  <rect class="cls-2" x="89.392999649" y="51.514997482" width="3.029998779" height="3.029998779"/>
  <rect class="cls-2" x="89.392999649" y="48.484998703" width="3.029998779" height="3.029998779"/>
  <rect class="cls-2" x="89.392999649" y="45.454999924" width="3.029998779" height="3.029998779"/>
  <rect class="cls-2" x="89.392999649" y="42.423997879" width="3.029998779" height="3.029998779"/>
  <rect class="cls-2" x="89.392999649" y="39.3939991" width="3.029998779" height="3.029998779"/>
  <rect class="cls-2" x="86.36300087" y="66.66699791" width="3.029998779" height="3.029998779"/>
  <rect class="cls-2" x="86.36300087" y="63.63599968" width="3.029998779" height="3.029998779"/>
  <rect class="cls-2" x="86.36300087" y="60.6060009" width="3.029998779" height="3.029998779"/>
  <rect class="cls-5" x="86.36300087" y="57.575998306" width="3.029998779" height="3.029998779"/>
  <rect class="cls-5" x="86.36300087" y="54.545999527" width="3.029998779" height="3.029998779"/>
  <rect class="cls-5" x="86.36300087" y="51.514997482" width="3.029998779" height="3.029998779"/>
  <rect class="cls-5" x="86.36300087" y="48.484998703" width="3.029998779" height="3.029998779"/>
  <rect class="cls-5" x="86.36300087" y="45.454999924" width="3.029998779" height="3.029998779"/>
  <rect class="cls-5" x="86.36300087" y="42.423997879" width="3.029998779" height="3.029998779"/>
  <rect class="cls-5" x="86.36300087" y="39.3939991" width="3.029998779" height="3.029998779"/>
  <rect class="cls-2" x="86.36300087" y="36.36400032" width="3.029998779" height="3.029998779"/>
  <rect class="cls-2" x="86.36300087" y="33.332998276" width="3.029998779" height="3.029998779"/>
  <rect class="cls-2" x="86.36300087" y="30.302999496" width="3.029998779" height="3.029998779"/>
  <rect class="cls-2" x="83.33300209" y="72.726995468" width="3.029998779" height="3.029998779"/>
  <rect class="cls-2" x="83.33300209" y="69.696996689" width="3.029998779" height="3.029998779"/>
  <rect class="cls-5" x="83.33300209" y="66.66699791" width="3.029998779" height="3.029998779"/>
  <rect class="cls-5" x="83.33300209" y="63.63599968" width="3.029998779" height="3.029998779"/>
  <rect class="cls-5" x="83.33300209" y="60.6060009" width="3.029998779" height="3.029998779"/>
  <rect class="cls-3" x="83.33300209" y="57.575998306" width="3.029998779" height="3.029998779"/>
  <rect class="cls-3" x="83.33300209" y="54.545999527" width="3.029998779" height="3.029998779"/>
  <rect class="cls-3" x="83.33300209" y="51.514997482" width="3.029998779" height="3.029998779"/>
  <rect class="cls-3" x="83.33300209" y="48.484998703" width="3.029998779" height="3.029998779"/>
  <rect class="cls-3" x="83.33300209" y="45.454999924" width="3.029998779" height="3.029998779"/>
  <rect class="cls-3" x="83.33300209" y="42.423997879" width="3.029998779" height="3.029998779"/>
  <rect class="cls-3" x="83.33300209" y="39.3939991" width="3.029998779" height="3.029998779"/>
  <rect class="cls-5" x="83.33300209" y="36.36400032" width="3.029998779" height="3.029998779"/>
  <rect class="cls-5" x="83.33300209" y="33.332998276" width="3.029998779" height="3.029998779"/>
  <rect class="cls-5" x="83.33300209" y="30.302999496" width="3.029998779" height="3.029998779"/>
  <rect class="cls-2" x="83.33300209" y="27.27299881" width="3.029998779" height="3.030000687"/>
  <rect class="cls-2" x="83.33300209" y="24.243000031" width="3.029998779" height="3.030000687"/>
  <rect class="cls-2" x="80.303003311" y="78.788000107" width="3.029998779" height="3.029998779"/>
  <rect class="cls-2" x="80.303003311" y="75.758001328" width="3.029998779" height="3.029998779"/>
  <rect class="cls-5" x="80.303003311" y="72.726995468" width="3.029998779" height="3.029998779"/>
  <rect class="cls-5" x="80.303003311" y="69.696996689" width="3.029998779" height="3.029998779"/>
  <rect class="cls-3" x="80.303003311" y="66.66699791" width="3.029998779" height="3.029998779"/>
  <rect class="cls-3" x="80.303003311" y="63.63599968" width="3.029998779" height="3.029998779"/>
  <rect class="cls-3" x="80.303003311" y="60.6060009" width="3.029998779" height="3.029998779"/>
  <rect class="cls-6" x="80.303003311" y="57.575998306" width="3.029998779" height="3.029998779"/>
  <rect class="cls-6" x="80.303003311" y="54.545999527" width="3.029998779" height="3.029998779"/>
  <rect class="cls-6" x="80.303003311" y="51.514997482" width="3.029998779" height="3.029998779"/>
  <rect class="cls-6" x="80.303003311" y="48.484998703" width="3.029998779" height="3.029998779"/>
  <rect class="cls-6" x="80.303003311" y="45.454999924" width="3.029998779" height="3.029998779"/>
  <rect class="cls-6" x="80.303003311" y="42.423997879" width="3.029998779" height="3.029998779"/>
  <rect class="cls-6" x="80.303003311" y="39.3939991" width="3.029998779" height="3.029998779"/>
  <rect class="cls-3" x="80.303003311" y="36.36400032" width="3.029998779" height="3.029998779"/>
  <rect class="cls-3" x="80.303003311" y="33.332998276" width="3.029998779" height="3.029998779"/>
  <rect class="cls-3" x="80.303003311" y="30.302999496" width="3.029998779" height="3.029998779"/>
  <rect class="cls-5" x="80.303003311" y="27.27299881" width="3.029998779" height="3.030000687"/>
  <rect class="cls-5" x="80.303003311" y="24.243000031" width="3.029998779" height="3.030000687"/>
  <rect class="cls-2" x="80.303003311" y="21.211999893" width="3.029998779" height="3.030000687"/>
  <rect class="cls-2" x="80.303003311" y="18.181999207" width="3.029998779" height="3.030000687"/>
  <rect class="cls-2" x="77.272005081" y="81.817998886" width="3.029998779" height="3.029998779"/>
  <rect class="cls-5" x="77.272005081" y="78.788000107" width="3.029998779" height="3.029998779"/>
  <rect class="cls-5" x="77.272005081" y="75.758001328" width="3.029998779" height="3.029998779"/>
  <rect class="cls-3" x="77.272005081" y="72.726995468" width="3.029998779" height="3.029998779"/>
  <rect class="cls-3" x="77.272005081" y="69.696996689" width="3.029998779" height="3.029998779"/>
  <rect class="cls-6" x="77.272005081" y="66.66699791" width="3.029998779" height="3.029998779"/>
  <rect class="cls-6" x="77.272005081" y="63.63599968" width="3.029998779" height="3.029998779"/>
  <rect class="cls-6" x="77.272005081" y="60.6060009" width="3.029998779" height="3.029998779"/>
  <rect class="cls-1" x="77.272005081" y="57.575998306" width="3.029998779" height="3.029998779"/>
  <rect class="cls-1" x="77.272005081" y="54.545999527" width="3.029998779" height="3.029998779"/>
  <rect class="cls-1" x="77.272005081" y="51.514997482" width="3.029998779" height="3.029998779"/>
  <rect class="cls-1" x="77.272005081" y="48.484998703" width="3.029998779" height="3.029998779"/>
  <rect class="cls-1" x="77.272005081" y="45.454999924" width="3.029998779" height="3.029998779"/>
  <rect class="cls-1" x="77.272005081" y="42.423997879" width="3.029998779" height="3.029998779"/>
  <rect class="cls-1" x="77.272005081" y="39.3939991" width="3.029998779" height="3.029998779"/>
  <rect class="cls-6" x="77.272005081" y="36.36400032" width="3.029998779" height="3.029998779"/>
  <rect class="cls-6" x="77.272005081" y="33.332998276" width="3.029998779" height="3.029998779"/>
  <rect class="cls-6" x="77.272005081" y="30.302999496" width="3.029998779" height="3.029998779"/>
  <rect class="cls-3" x="77.272005081" y="27.27299881" width="3.029998779" height="3.030000687"/>
  <rect class="cls-3" x="77.272005081" y="24.243000031" width="3.029998779" height="3.030000687"/>
  <rect class="cls-5" x="77.272005081" y="21.211999893" width="3.029998779" height="3.030000687"/>
  <rect class="cls-5" x="77.272005081" y="18.181999207" width="3.029998779" height="3.030000687"/>
  <rect class="cls-2" x="77.272005081" y="15.151999474" width="3.029998779" height="3.029999733"/>
  <rect class="cls-2" x="74.241998672" y="81.817998886" width="3.029998779" height="3.029998779"/>
  <rect class="cls-5" x="74.241998672" y="78.788000107" width="3.029998779" height="3.029998779"/>
  <rect class="cls-3" x="74.241998672" y="75.758001328" width="3.029998779" height="3.029998779"/>
  <rect class="cls-6" x="74.241998672" y="72.726995468" width="3.029998779" height="3.029998779"/>
  <rect class="cls-6" x="74.241998672" y="69.696996689" width="3.029998779" height="3.029998779"/>
  <rect class="cls-1" x="74.241998672" y="66.66699791" width="3.029998779" height="3.029998779"/>
  <rect class="cls-1" x="74.241998672" y="63.63599968" width="3.029998779" height="3.029998779"/>
  <rect class="cls-1" x="74.241998672" y="60.6060009" width="3.029998779" height="3.029998779"/>
  <rect class="cls-1" x="74.241998672" y="57.575998306" width="3.029998779" height="3.029998779"/>
  <rect class="cls-1" x="74.241998672" y="54.545999527" width="3.029998779" height="3.029998779"/>
  <rect class="cls-1" x="74.241998672" y="51.514997482" width="3.029998779" height="3.029998779"/>
  <rect class="cls-1" x="74.241998672" y="48.484998703" width="3.029998779" height="3.029998779"/>
  <rect class="cls-1" x="74.241998672" y="45.454999924" width="3.029998779" height="3.029998779"/>
  <rect class="cls-1" x="74.241998672" y="42.423997879" width="3.029998779" height="3.029998779"/>
  <rect class="cls-1" x="74.241998672" y="39.3939991" width="3.029998779" height="3.029998779"/>
  <rect class="cls-1" x="74.241998672" y="36.36400032" width="3.029998779" height="3.029998779"/>
  <rect class="cls-1" x="74.241998672" y="33.332998276" width="3.029998779" height="3.029998779"/>
  <rect class="cls-1" x="74.241998672" y="30.302999496" width="3.029998779" height="3.029998779"/>
  <rect class="cls-6" x="74.241998672" y="27.27299881" width="3.029998779" height="3.030000687"/>
  <rect class="cls-6" x="74.241998672" y="24.243000031" width="3.029998779" height="3.030000687"/>
  <rect class="cls-3" x="74.241998672" y="21.211999893" width="3.029998779" height="3.030000687"/>
  <rect class="cls-5" x="74.241998672" y="18.181999207" width="3.029998779" height="3.030000687"/>
  <rect class="cls-2" x="74.241998672" y="15.151999474" width="3.029998779" height="3.029999733"/>
  <rect class="cls-2" x="71.211999893" y="84.848997116" width="3.029998779" height="3.029998779"/>
  <rect class="cls-5" x="71.211999893" y="81.817998886" width="3.029998779" height="3.029998779"/>
  <rect class="cls-3" x="71.211999893" y="78.788000107" width="3.029998779" height="3.029998779"/>
  <rect class="cls-6" x="71.211999893" y="75.758001328" width="3.029998779" height="3.029998779"/>
  <rect class="cls-1" x="71.211999893" y="72.726995468" width="3.029998779" height="3.029998779"/>
  <rect class="cls-1" x="71.211999893" y="69.696996689" width="3.029998779" height="3.029998779"/>
  <rect class="cls-1" x="71.211999893" y="66.66699791" width="3.029998779" height="3.029998779"/>
  <rect class="cls-1" x="71.211999893" y="63.63599968" width="3.029998779" height="3.029998779"/>
  <rect class="cls-1" x="71.211999893" y="60.6060009" width="3.029998779" height="3.029998779"/>
  <rect class="cls-1" x="71.211999893" y="57.575998306" width="3.029998779" height="3.029998779"/>
  <rect class="cls-1" x="71.211999893" y="54.545999527" width="3.029998779" height="3.029998779"/>
  <rect class="cls-1" x="71.211999893" y="51.514997482" width="3.029998779" height="3.029998779"/>
  <rect class="cls-6" x="71.211999893" y="48.484998703" width="3.029998779" height="3.029998779"/>
  <rect class="cls-1" x="71.211999893" y="45.454999924" width="3.029998779" height="3.029998779"/>
  <rect class="cls-1" x="71.211999893" y="42.423997879" width="3.029998779" height="3.029998779"/>
  <rect class="cls-1" x="71.211999893" y="39.3939991" width="3.029998779" height="3.029998779"/>
  <rect class="cls-1" x="71.211999893" y="36.36400032" width="3.029998779" height="3.029998779"/>
  <rect class="cls-1" x="71.211999893" y="33.332998276" width="3.029998779" height="3.029998779"/>
  <rect class="cls-1" x="71.211999893" y="30.302999496" width="3.029998779" height="3.029998779"/>
  <rect class="cls-1" x="71.211999893" y="27.27299881" width="3.029998779" height="3.030000687"/>
  <rect class="cls-1" x="71.211999893" y="24.243000031" width="3.029998779" height="3.030000687"/>
  <rect class="cls-6" x="71.211999893" y="21.211999893" width="3.029998779" height="3.030000687"/>
  <rect class="cls-3" x="71.211999893" y="18.181999207" width="3.029998779" height="3.030000687"/>
  <rect class="cls-5" x="71.211999893" y="15.151999474" width="3.029998779" height="3.029999733"/>
  <rect class="cls-2" x="71.211999893" y="12.120999336" width="3.029998779" height="3.029999733"/>
  <rect class="cls-2" x="68.182001114" y="87.878995895" width="3.029998779" height="3.029998779"/>
  <rect class="cls-5" x="68.182001114" y="84.848997116" width="3.029998779" height="3.029998779"/>
  <rect class="cls-3" x="68.182001114" y="81.817998886" width="3.029998779" height="3.029998779"/>
  <rect class="cls-6" x="68.182001114" y="78.788000107" width="3.029998779" height="3.029998779"/>
  <rect class="cls-1" x="68.182001114" y="75.758001328" width="3.029998779" height="3.029998779"/>
  <rect class="cls-1" x="68.182001114" y="72.726995468" width="3.029998779" height="3.029998779"/>
  <rect class="cls-1" x="68.182001114" y="69.696996689" width="3.029998779" height="3.029998779"/>
  <rect class="cls-6" x="68.182001114" y="66.66699791" width="3.029998779" height="3.029998779"/>
  <rect class="cls-1" x="68.182001114" y="63.63599968" width="3.029998779" height="3.029998779"/>
  <rect class="cls-1" x="68.182001114" y="60.6060009" width="3.029998779" height="3.029998779"/>
  <rect class="cls-1" x="68.182001114" y="57.575998306" width="3.029998779" height="3.029998779"/>
  <rect class="cls-1" x="68.182001114" y="54.545999527" width="3.029998779" height="3.029998779"/>
  <rect class="cls-1" x="68.182001114" y="51.514997482" width="3.029998779" height="3.029998779"/>
  <rect class="cls-6" x="68.182001114" y="48.484998703" width="3.029998779" height="3.029998779"/>
  <rect class="cls-1" x="68.182001114" y="45.454999924" width="3.029998779" height="3.029998779"/>
  <rect class="cls-1" x="68.182001114" y="42.423997879" width="3.029998779" height="3.029998779"/>
  <rect class="cls-1" x="68.182001114" y="39.3939991" width="3.029998779" height="3.029998779"/>
  <rect class="cls-1" x="68.182001114" y="36.36400032" width="3.029998779" height="3.029998779"/>
  <rect class="cls-1" x="68.182001114" y="33.332998276" width="3.029998779" height="3.029998779"/>
  <rect class="cls-6" x="68.182001114" y="30.302999496" width="3.029998779" height="3.029998779"/>
  <rect class="cls-1" x="68.182001114" y="27.27299881" width="3.029998779" height="3.030000687"/>
  <rect class="cls-1" x="68.182001114" y="24.243000031" width="3.029998779" height="3.030000687"/>
  <rect class="cls-1" x="68.182001114" y="21.211999893" width="3.029998779" height="3.030000687"/>
  <rect class="cls-6" x="68.182001114" y="18.181999207" width="3.029998779" height="3.030000687"/>
  <rect class="cls-3" x="68.182001114" y="15.151999474" width="3.029998779" height="3.029999733"/>
  <rect class="cls-5" x="68.182001114" y="12.120999336" width="3.029998779" height="3.029999733"/>
  <rect class="cls-2" x="68.182001114" y="9.090999603" width="3.029998779" height="3.029999733"/>
  <rect class="cls-2" x="65.152002335" y="87.878995895" width="3.029998779" height="3.029998779"/>
  <rect class="cls-3" x="65.152002335" y="84.848997116" width="3.029998779" height="3.029998779"/>
  <rect class="cls-6" x="65.152002335" y="81.817998886" width="3.029998779" height="3.029998779"/>
  <rect class="cls-1" x="65.152002335" y="78.788000107" width="3.029998779" height="3.029998779"/>
  <rect class="cls-1" x="65.152002335" y="75.758001328" width="3.029998779" height="3.029998779"/>
  <rect class="cls-1" x="65.152002335" y="72.726995468" width="3.029998779" height="3.029998779"/>
  <rect class="cls-1" x="65.152002335" y="69.696996689" width="3.029998779" height="3.029998779"/>
  <rect class="cls-1" x="65.152002335" y="66.66699791" width="3.029998779" height="3.029998779"/>
  <rect class="cls-6" x="65.152002335" y="63.63599968" width="3.029998779" height="3.029998779"/>
  <rect class="cls-1" x="65.152002335" y="60.6060009" width="3.029998779" height="3.029998779"/>
  <rect class="cls-1" x="65.152002335" y="57.575998306" width="3.029998779" height="3.029998779"/>
  <rect class="cls-1" x="65.152002335" y="54.545999527" width="3.029998779" height="3.029998779"/>
  <rect class="cls-1" x="65.152002335" y="51.514997482" width="3.029998779" height="3.029998779"/>
  <rect class="cls-6" x="65.152002335" y="48.484998703" width="3.029998779" height="3.029998779"/>
  <rect class="cls-1" x="65.152002335" y="45.454999924" width="3.029998779" height="3.029998779"/>
  <rect class="cls-1" x="65.152002335" y="42.423997879" width="3.029998779" height="3.029998779"/>
  <rect class="cls-1" x="65.152002335" y="39.3939991" width="3.029998779" height="3.029998779"/>
  <rect class="cls-1" x="65.152002335" y="36.36400032" width="3.029998779" height="3.029998779"/>
  <rect class="cls-6" x="65.152002335" y="33.332998276" width="3.029998779" height="3.029998779"/>
  <rect class="cls-1" x="65.152002335" y="30.302999496" width="3.029998779" height="3.029998779"/>
  <rect class="cls-1" x="65.152002335" y="27.27299881" width="3.029998779" height="3.030000687"/>
  <rect class="cls-1" x="65.152002335" y="24.243000031" width="3.029998779" height="3.030000687"/>
  <rect class="cls-1" x="65.152002335" y="21.211999893" width="3.029998779" height="3.030000687"/>
  <rect class="cls-1" x="65.152002335" y="18.181999207" width="3.029998779" height="3.030000687"/>
  <rect class="cls-6" x="65.152002335" y="15.151999474" width="3.029998779" height="3.029999733"/>
  <rect class="cls-3" x="65.152002335" y="12.120999336" width="3.029998779" height="3.029999733"/>
  <rect class="cls-2" x="65.152002335" y="9.090999603" width="3.029998779" height="3.029999733"/>
  <rect class="cls-2" x="62.121004105" y="87.878995895" width="3.029998779" height="3.029998779"/>
  <rect class="cls-6" x="62.121004105" y="84.848997116" width="3.029998779" height="3.029998779"/>
  <rect class="cls-1" x="62.121004105" y="81.817998886" width="3.029998779" height="3.029998779"/>
  <rect class="cls-1" x="62.121004105" y="78.788000107" width="3.029998779" height="3.029998779"/>
  <rect class="cls-1" x="62.121004105" y="75.758001328" width="3.029998779" height="3.029998779"/>
  <rect class="cls-1" x="62.121004105" y="72.726995468" width="3.029998779" height="3.029998779"/>
  <rect class="cls-1" x="62.121004105" y="69.696996689" width="3.029998779" height="3.029998779"/>
  <rect class="cls-1" x="62.121004105" y="66.66699791" width="3.029998779" height="3.029998779"/>
  <rect class="cls-1" x="62.121004105" y="63.63599968" width="3.029998779" height="3.029998779"/>
  <rect class="cls-5" x="62.121004105" y="60.6060009" width="3.029998779" height="3.029998779"/>
  <rect class="cls-5" x="62.121004105" y="57.575998306" width="3.029998779" height="3.029998779"/>
  <rect class="cls-1" x="62.121004105" y="54.545999527" width="3.029998779" height="3.029998779"/>
  <rect class="cls-1" x="62.121004105" y="51.514997482" width="3.029998779" height="3.029998779"/>
  <rect class="cls-1" x="62.121004105" y="48.484998703" width="3.029998779" height="3.029998779"/>
  <rect class="cls-1" x="62.121004105" y="45.454999924" width="3.029998779" height="3.029998779"/>
  <rect class="cls-1" x="62.121004105" y="42.423997879" width="3.029998779" height="3.029998779"/>
  <rect class="cls-1" x="62.121004105" y="39.3939991" width="3.029998779" height="3.029998779"/>
  <rect class="cls-1" x="62.121004105" y="36.36400032" width="3.029998779" height="3.029998779"/>
  <rect class="cls-1" x="62.121004105" y="33.332998276" width="3.029998779" height="3.029998779"/>
  <rect class="cls-1" x="62.121004105" y="30.302999496" width="3.029998779" height="3.029998779"/>
  <rect class="cls-1" x="62.121004105" y="27.27299881" width="3.029998779" height="3.030000687"/>
  <rect class="cls-1" x="62.121004105" y="24.243000031" width="3.029998779" height="3.030000687"/>
  <rect class="cls-1" x="62.121004105" y="21.211999893" width="3.029998779" height="3.030000687"/>
  <rect class="cls-1" x="62.121004105" y="18.181999207" width="3.029998779" height="3.030000687"/>
  <rect class="cls-1" x="62.121004105" y="15.151999474" width="3.029998779" height="3.029999733"/>
  <rect class="cls-6" x="62.121004105" y="12.120999336" width="3.029998779" height="3.029999733"/>
  <rect class="cls-2" x="62.121004105" y="9.090999603" width="3.029998779" height="3.029999733"/>
  <rect class="cls-2" x="59.091001511" y="90.909002304" width="3.030002594" height="3.029998779"/>
  <rect class="cls-3" x="59.091001511" y="87.878995895" width="3.030002594" height="3.029998779"/>
  <rect class="cls-6" x="59.091001511" y="84.848997116" width="3.030002594" height="3.029998779"/>
  <rect class="cls-1" x="59.091001511" y="81.817998886" width="3.030002594" height="3.029998779"/>
  <rect class="cls-1" x="59.091001511" y="78.788000107" width="3.030002594" height="3.029998779"/>
  <rect class="cls-6" x="59.091001511" y="75.758001328" width="3.030002594" height="3.029998779"/>
  <rect class="cls-1" x="59.091001511" y="72.726995468" width="3.030002594" height="3.029998779"/>
  <rect class="cls-1" x="59.091001511" y="69.696996689" width="3.030002594" height="3.029998779"/>
  <rect class="cls-1" x="59.091001511" y="66.66699791" width="3.030002594" height="3.029998779"/>
  <rect class="cls-5" x="59.091001511" y="63.63599968" width="3.030002594" height="3.029998779"/>
  <rect class="cls-6" x="59.091001511" y="60.6060009" width="3.030002594" height="3.029998779"/>
  <rect class="cls-6" x="59.091001511" y="57.575998306" width="3.030002594" height="3.029998779"/>
  <rect class="cls-1" x="59.091001511" y="54.545999527" width="3.030002594" height="3.029998779"/>
  <rect class="cls-1" x="59.091001511" y="51.514997482" width="3.030002594" height="3.029998779"/>
  <rect class="cls-1" x="59.091001511" y="48.484998703" width="3.030002594" height="3.029998779"/>
  <rect class="cls-1" x="59.091001511" y="45.454999924" width="3.030002594" height="3.029998779"/>
  <rect class="cls-5" x="59.091001511" y="42.423997879" width="3.030002594" height="3.029998779"/>
  <rect class="cls-6" x="59.091001511" y="39.3939991" width="3.030002594" height="3.029998779"/>
  <rect class="cls-6" x="59.091001511" y="36.36400032" width="3.030002594" height="3.029998779"/>
  <rect class="cls-1" x="59.091001511" y="33.332998276" width="3.030002594" height="3.029998779"/>
  <rect class="cls-1" x="59.091001511" y="30.302999496" width="3.030002594" height="3.029998779"/>
  <rect class="cls-1" x="59.091001511" y="27.27299881" width="3.030002594" height="3.030000687"/>
  <rect class="cls-1" x="59.091001511" y="24.243000031" width="3.030002594" height="3.030000687"/>
  <rect class="cls-6" x="59.091001511" y="21.211999893" width="3.030002594" height="3.030000687"/>
  <rect class="cls-1" x="59.091001511" y="18.181999207" width="3.030002594" height="3.030000687"/>
  <rect class="cls-1" x="59.091001511" y="15.151999474" width="3.030002594" height="3.029999733"/>
  <rect class="cls-6" x="59.091001511" y="12.120999336" width="3.030002594" height="3.029999733"/>
  <rect class="cls-3" x="59.091001511" y="9.090999603" width="3.030002594" height="3.029999733"/>
  <rect class="cls-2" x="59.091001511" y="6.060998917" width="3.030002594" height="3.029999733"/>
  <rect class="cls-2" x="56.061002731" y="90.909002304" width="3.029998779" height="3.029998779"/>
  <rect class="cls-6" x="56.061002731" y="87.878995895" width="3.029998779" height="3.029998779"/>
  <rect class="cls-1" x="56.061002731" y="84.848997116" width="3.029998779" height="3.029998779"/>
  <rect class="cls-1" x="56.061002731" y="81.817998886" width="3.029998779" height="3.029998779"/>
  <rect class="cls-1" x="56.061002731" y="78.788000107" width="3.029998779" height="3.029998779"/>
  <rect class="cls-1" x="56.061002731" y="75.758001328" width="3.029998779" height="3.029998779"/>
  <rect class="cls-6" x="56.061002731" y="72.726995468" width="3.029998779" height="3.029998779"/>
  <rect class="cls-1" x="56.061002731" y="69.696996689" width="3.029998779" height="3.029998779"/>
  <rect class="cls-5" x="56.061002731" y="66.66699791" width="3.029998779" height="3.029998779"/>
  <rect class="cls-6" x="56.061002731" y="63.63599968" width="3.029998779" height="3.029998779"/>
  <rect class="cls-6" x="56.061002731" y="60.6060009" width="3.029998779" height="3.029998779"/>
  <rect class="cls-6" x="56.061002731" y="57.575998306" width="3.029998779" height="3.029998779"/>
  <rect class="cls-1" x="56.061002731" y="54.545999527" width="3.029998779" height="3.029998779"/>
  <rect class="cls-1" x="56.061002731" y="51.514997482" width="3.029998779" height="3.029998779"/>
  <rect class="cls-1" x="56.061002731" y="48.484998703" width="3.029998779" height="3.029998779"/>
  <rect class="cls-1" x="56.061002731" y="45.454999924" width="3.029998779" height="3.029998779"/>
  <rect class="cls-5" x="56.061002731" y="42.423997879" width="3.029998779" height="3.029998779"/>
  <rect class="cls-6" x="56.061002731" y="39.3939991" width="3.029998779" height="3.029998779"/>
  <rect class="cls-6" x="56.061002731" y="36.36400032" width="3.029998779" height="3.029998779"/>
  <rect class="cls-6" x="56.061002731" y="33.332998276" width="3.029998779" height="3.029998779"/>
  <rect class="cls-1" x="56.061002731" y="30.302999496" width="3.029998779" height="3.029998779"/>
  <rect class="cls-1" x="56.061002731" y="27.27299881" width="3.029998779" height="3.030000687"/>
  <rect class="cls-6" x="56.061002731" y="24.243000031" width="3.029998779" height="3.030000687"/>
  <rect class="cls-1" x="56.061002731" y="21.211999893" width="3.029998779" height="3.030000687"/>
  <rect class="cls-1" x="56.061002731" y="18.181999207" width="3.029998779" height="3.030000687"/>
  <rect class="cls-1" x="56.061002731" y="15.151999474" width="3.029998779" height="3.029999733"/>
  <rect class="cls-1" x="56.061002731" y="12.120999336" width="3.029998779" height="3.029999733"/>
  <rect class="cls-6" x="56.061002731" y="9.090999603" width="3.029998779" height="3.029999733"/>
  <rect class="cls-2" x="56.061002731" y="6.060998917" width="3.029998779" height="3.029999733"/>
  <rect class="cls-6" x="53.031000137" y="90.909002304" width="3.029998779" height="3.029998779"/>
  <rect class="cls-5" x="53.031000137" y="87.878995895" width="3.029998779" height="3.029998779"/>
  <rect class="cls-1" x="53.031000137" y="84.848997116" width="3.029998779" height="3.029998779"/>
  <rect class="cls-1" x="53.031000137" y="81.817998886" width="3.029998779" height="3.029998779"/>
  <rect class="cls-1" x="53.031000137" y="78.788000107" width="3.029998779" height="3.029998779"/>
  <rect class="cls-1" x="53.031000137" y="75.758001328" width="3.029998779" height="3.029998779"/>
  <rect class="cls-1" x="53.031000137" y="72.726995468" width="3.029998779" height="3.029998779"/>
  <rect class="cls-5" x="53.031000137" y="69.696996689" width="3.029998779" height="3.029998779"/>
  <rect class="cls-6" x="53.031000137" y="66.66699791" width="3.029998779" height="3.029998779"/>
  <rect class="cls-6" x="53.031000137" y="63.63599968" width="3.029998779" height="3.029998779"/>
  <rect class="cls-6" x="53.031000137" y="60.6060009" width="3.029998779" height="3.029998779"/>
  <rect class="cls-4" x="53.031000137" y="57.575998306" width="3.029998779" height="3.029998779"/>
  <rect class="cls-1" x="53.031000137" y="54.545999527" width="3.029998779" height="3.029998779"/>
  <rect class="cls-1" x="53.031000137" y="51.514997482" width="3.029998779" height="3.029998779"/>
  <rect class="cls-1" x="53.031000137" y="48.484998703" width="3.029998779" height="3.029998779"/>
  <rect class="cls-1" x="53.031000137" y="45.454999924" width="3.029998779" height="3.029998779"/>
  <rect class="cls-5" x="53.031000137" y="42.423997879" width="3.029998779" height="3.029998779"/>
  <rect class="cls-4" x="53.031000137" y="39.3939991" width="3.029998779" height="3.029998779"/>
  <rect class="cls-6" x="53.031000137" y="36.36400032" width="3.029998779" height="3.029998779"/>
  <rect class="cls-6" x="53.031000137" y="33.332998276" width="3.029998779" height="3.029998779"/>
  <rect class="cls-6" x="53.031000137" y="30.302999496" width="3.029998779" height="3.029998779"/>
  <rect class="cls-1" x="53.031000137" y="27.27299881" width="3.029998779" height="3.030000687"/>
  <rect class="cls-1" x="53.031000137" y="24.243000031" width="3.029998779" height="3.030000687"/>
  <rect class="cls-1" x="53.031000137" y="21.211999893" width="3.029998779" height="3.030000687"/>
  <rect class="cls-1" x="53.031000137" y="18.181999207" width="3.029998779" height="3.030000687"/>
  <rect class="cls-1" x="53.031000137" y="15.151999474" width="3.029998779" height="3.029999733"/>
  <rect class="cls-1" x="53.031000137" y="12.120999336" width="3.029998779" height="3.029999733"/>
  <rect class="cls-5" x="53.031000137" y="9.090999603" width="3.029998779" height="3.029999733"/>
  <rect class="cls-6" x="53.031000137" y="6.060998917" width="3.029998779" height="3.029999733"/>
  <rect class="cls-6" x="50.001001358" y="90.909002304" width="3.029998779" height="3.029998779"/>
  <rect class="cls-5" x="50.001001358" y="87.878995895" width="3.029998779" height="3.029998779"/>
  <rect class="cls-1" x="50.001001358" y="84.848997116" width="3.029998779" height="3.029998779"/>
  <rect class="cls-1" x="50.001001358" y="81.817998886" width="3.029998779" height="3.029998779"/>
  <rect class="cls-1" x="50.001001358" y="78.788000107" width="3.029998779" height="3.029998779"/>
  <rect class="cls-1" x="50.001001358" y="75.758001328" width="3.029998779" height="3.029998779"/>
  <rect class="cls-1" x="50.001001358" y="72.726995468" width="3.029998779" height="3.029998779"/>
  <rect class="cls-5" x="50.001001358" y="69.696996689" width="3.029998779" height="3.029998779"/>
  <rect class="cls-6" x="50.001001358" y="66.66699791" width="3.029998779" height="3.029998779"/>
  <rect class="cls-6" x="50.001001358" y="63.63599968" width="3.029998779" height="3.029998779"/>
  <rect class="cls-4" x="50.001001358" y="60.6060009" width="3.029998779" height="3.029998779"/>
  <rect class="cls-1" x="50.001001358" y="57.575998306" width="3.029998779" height="3.029998779"/>
  <rect class="cls-1" x="50.001001358" y="54.545999527" width="3.029998779" height="3.029998779"/>
  <rect class="cls-1" x="50.001001358" y="51.514997482" width="3.029998779" height="3.029998779"/>
  <rect class="cls-1" x="50.001001358" y="48.484998703" width="3.029998779" height="3.029998779"/>
  <rect class="cls-1" x="50.001001358" y="45.454999924" width="3.029998779" height="3.029998779"/>
  <rect class="cls-1" x="50.001001358" y="42.423997879" width="3.029998779" height="3.029998779"/>
  <rect class="cls-5" x="50.001001358" y="39.3939991" width="3.029998779" height="3.029998779"/>
  <rect class="cls-4" x="50.001001358" y="36.36400032" width="3.029998779" height="3.029998779"/>
  <rect class="cls-6" x="50.001001358" y="33.332998276" width="3.029998779" height="3.029998779"/>
  <rect class="cls-6" x="50.001001358" y="30.302999496" width="3.029998779" height="3.029998779"/>
  <rect class="cls-1" x="50.001001358" y="27.27299881" width="3.029998779" height="3.030000687"/>
  <rect class="cls-1" x="50.001001358" y="24.243000031" width="3.029998779" height="3.030000687"/>
  <rect class="cls-1" x="50.001001358" y="21.211999893" width="3.029998779" height="3.030000687"/>
  <rect class="cls-1" x="50.001001358" y="18.181999207" width="3.029998779" height="3.030000687"/>
  <rect class="cls-1" x="50.001001358" y="15.151999474" width="3.029998779" height="3.029999733"/>
  <rect class="cls-1" x="50.001001358" y="12.120999336" width="3.029998779" height="3.029999733"/>
  <rect class="cls-5" x="50.001001358" y="9.090999603" width="3.029998779" height="3.029999733"/>
  <rect class="cls-6" x="50.001001358" y="6.060998917" width="3.029998779" height="3.029999733"/>
  <rect class="cls-4" x="46.970003128" y="90.909002304" width="3.029998779" height="3.029998779"/>
  <rect class="cls-5" x="46.970003128" y="87.878995895" width="3.029998779" height="3.029998779"/>
  <rect class="cls-1" x="46.970003128" y="84.848997116" width="3.029998779" height="3.029998779"/>
  <rect class="cls-1" x="46.970003128" y="81.817998886" width="3.029998779" height="3.029998779"/>
  <rect class="cls-1" x="46.970003128" y="78.788000107" width="3.029998779" height="3.029998779"/>
  <rect class="cls-1" x="46.970003128" y="75.758001328" width="3.029998779" height="3.029998779"/>
  <rect class="cls-5" x="46.970003128" y="72.726995468" width="3.029998779" height="3.029998779"/>
  <rect class="cls-6" x="46.970003128" y="69.696996689" width="3.029998779" height="3.029998779"/>
  <rect class="cls-6" x="46.970003128" y="66.66699791" width="3.029998779" height="3.029998779"/>
  <rect class="cls-6" x="46.970003128" y="63.63599968" width="3.029998779" height="3.029998779"/>
  <rect class="cls-1" x="46.970003128" y="60.6060009" width="3.029998779" height="3.029998779"/>
  <rect class="cls-1" x="46.970003128" y="57.575998306" width="3.029998779" height="3.029998779"/>
  <rect class="cls-1" x="46.970003128" y="54.545999527" width="3.029998779" height="3.029998779"/>
  <rect class="cls-1" x="46.970003128" y="51.514997482" width="3.029998779" height="3.029998779"/>
  <rect class="cls-1" x="46.970003128" y="48.484998703" width="3.029998779" height="3.029998779"/>
  <rect class="cls-1" x="46.970003128" y="45.454999924" width="3.029998779" height="3.029998779"/>
  <rect class="cls-1" x="46.970003128" y="42.423997879" width="3.029998779" height="3.029998779"/>
  <rect class="cls-1" x="46.970003128" y="39.3939991" width="3.029998779" height="3.029998779"/>
  <rect class="cls-5" x="46.970003128" y="36.36400032" width="3.029998779" height="3.029998779"/>
  <rect class="cls-6" x="46.970003128" y="33.332998276" width="3.029998779" height="3.029998779"/>
  <rect class="cls-6" x="46.970003128" y="30.302999496" width="3.029998779" height="3.029998779"/>
  <rect class="cls-6" x="46.970003128" y="27.27299881" width="3.029998779" height="3.030000687"/>
  <rect class="cls-1" x="46.970003128" y="24.243000031" width="3.029998779" height="3.030000687"/>
  <rect class="cls-1" x="46.970003128" y="21.211999893" width="3.029998779" height="3.030000687"/>
  <rect class="cls-1" x="46.970003128" y="18.181999207" width="3.029998779" height="3.030000687"/>
  <rect class="cls-1" x="46.970003128" y="15.151999474" width="3.029998779" height="3.029999733"/>
  <rect class="cls-1" x="46.970003128" y="12.120999336" width="3.029998779" height="3.029999733"/>
  <rect class="cls-5" x="46.970003128" y="9.090999603" width="3.029998779" height="3.029999733"/>
  <rect class="cls-4" x="46.970003128" y="6.060998917" width="3.029998779" height="3.029999733"/>
  <rect class="cls-4" x="43.940000534" y="90.909002304" width="3.029998779" height="3.029998779"/>
  <rect class="cls-5" x="43.940000534" y="87.878995895" width="3.029998779" height="3.029998779"/>
  <rect class="cls-1" x="43.940000534" y="84.848997116" width="3.029998779" height="3.029998779"/>
  <rect class="cls-1" x="43.940000534" y="81.817998886" width="3.029998779" height="3.029998779"/>
  <rect class="cls-1" x="43.940000534" y="78.788000107" width="3.029998779" height="3.029998779"/>
  <rect class="cls-1" x="43.940000534" y="75.758001328" width="3.029998779" height="3.029998779"/>
  <rect class="cls-5" x="43.940000534" y="72.726995468" width="3.029998779" height="3.029998779"/>
  <rect class="cls-6" x="43.940000534" y="69.696996689" width="3.029998779" height="3.029998779"/>
  <rect class="cls-6" x="43.940000534" y="66.66699791" width="3.029998779" height="3.029998779"/>
  <rect class="cls-6" x="43.940000534" y="63.63599968" width="3.029998779" height="3.029998779"/>
  <rect class="cls-1" x="43.940000534" y="60.6060009" width="3.029998779" height="3.029998779"/>
  <rect class="cls-1" x="43.940000534" y="57.575998306" width="3.029998779" height="3.029998779"/>
  <rect class="cls-1" x="43.940000534" y="54.545999527" width="3.029998779" height="3.029998779"/>
  <rect class="cls-1" x="43.940000534" y="51.514997482" width="3.029998779" height="3.029998779"/>
  <rect class="cls-1" x="43.940000534" y="48.484998703" width="3.029998779" height="3.029998779"/>
  <rect class="cls-1" x="43.940000534" y="45.454999924" width="3.029998779" height="3.029998779"/>
  <rect class="cls-1" x="43.940000534" y="42.423997879" width="3.029998779" height="3.029998779"/>
  <rect class="cls-1" x="43.940000534" y="39.3939991" width="3.029998779" height="3.029998779"/>
  <rect class="cls-5" x="43.940000534" y="36.36400032" width="3.029998779" height="3.029998779"/>
  <rect class="cls-6" x="43.940000534" y="33.332998276" width="3.029998779" height="3.029998779"/>
  <rect class="cls-6" x="43.940000534" y="30.302999496" width="3.029998779" height="3.029998779"/>
  <rect class="cls-6" x="43.940000534" y="27.27299881" width="3.029998779" height="3.030000687"/>
  <rect class="cls-1" x="43.940000534" y="24.243000031" width="3.029998779" height="3.030000687"/>
  <rect class="cls-1" x="43.940000534" y="21.211999893" width="3.029998779" height="3.030000687"/>
  <rect class="cls-1" x="43.940000534" y="18.181999207" width="3.029998779" height="3.030000687"/>
  <rect class="cls-1" x="43.940000534" y="15.151999474" width="3.029998779" height="3.029999733"/>
  <rect class="cls-1" x="43.940000534" y="12.120999336" width="3.029998779" height="3.029999733"/>
  <rect class="cls-5" x="43.940000534" y="9.090999603" width="3.029998779" height="3.029999733"/>
  <rect class="cls-4" x="43.940000534" y="6.060998917" width="3.029998779" height="3.029999733"/>
  <rect class="cls-4" x="40.910001755" y="90.909002304" width="3.029998779" height="3.029998779"/>
  <rect class="cls-5" x="40.910001755" y="87.878995895" width="3.029998779" height="3.029998779"/>
  <rect class="cls-1" x="40.910001755" y="84.848997116" width="3.029998779" height="3.029998779"/>
  <rect class="cls-6" x="40.910001755" y="81.817998886" width="3.029998779" height="3.029998779"/>
  <rect class="cls-6" x="40.910001755" y="78.788000107" width="3.029998779" height="3.029998779"/>
  <rect class="cls-6" x="40.910001755" y="75.758001328" width="3.029998779" height="3.029998779"/>
  <rect class="cls-5" x="40.910001755" y="72.726995468" width="3.029998779" height="3.029998779"/>
  <rect class="cls-6" x="40.910001755" y="69.696996689" width="3.029998779" height="3.029998779"/>
  <rect class="cls-6" x="40.910001755" y="66.66699791" width="3.029998779" height="3.029998779"/>
  <rect class="cls-6" x="40.910001755" y="63.63599968" width="3.029998779" height="3.029998779"/>
  <rect class="cls-1" x="40.910001755" y="60.6060009" width="3.029998779" height="3.029998779"/>
  <rect class="cls-1" x="40.910001755" y="57.575998306" width="3.029998779" height="3.029998779"/>
  <rect class="cls-1" x="40.910001755" y="54.545999527" width="3.029998779" height="3.029998779"/>
  <rect class="cls-1" x="40.910001755" y="51.514997482" width="3.029998779" height="3.029998779"/>
  <rect class="cls-1" x="40.910001755" y="48.484998703" width="3.029998779" height="3.029998779"/>
  <rect class="cls-1" x="40.910001755" y="45.454999924" width="3.029998779" height="3.029998779"/>
  <rect class="cls-1" x="40.910001755" y="42.423997879" width="3.029998779" height="3.029998779"/>
  <rect class="cls-1" x="40.910001755" y="39.3939991" width="3.029998779" height="3.029998779"/>
  <rect class="cls-5" x="40.910001755" y="36.36400032" width="3.029998779" height="3.029998779"/>
  <rect class="cls-6" x="40.910001755" y="33.332998276" width="3.029998779" height="3.029998779"/>
  <rect class="cls-6" x="40.910001755" y="30.302999496" width="3.029998779" height="3.029998779"/>
  <rect class="cls-6" x="40.910001755" y="27.27299881" width="3.029998779" height="3.030000687"/>
  <rect class="cls-1" x="40.910001755" y="24.243000031" width="3.029998779" height="3.030000687"/>
  <rect class="cls-6" x="40.910001755" y="21.211999893" width="3.029998779" height="3.030000687"/>
  <rect class="cls-6" x="40.910001755" y="18.181999207" width="3.029998779" height="3.030000687"/>
  <rect class="cls-6" x="40.910001755" y="15.151999474" width="3.029998779" height="3.029999733"/>
  <rect class="cls-1" x="40.910001755" y="12.120999336" width="3.029998779" height="3.029999733"/>
  <rect class="cls-5" x="40.910001755" y="9.090999603" width="3.029998779" height="3.029999733"/>
  <rect class="cls-4" x="40.910001755" y="6.060998917" width="3.029998779" height="3.029999733"/>
  <rect class="cls-4" x="37.880002975" y="90.909002304" width="3.029998779" height="3.029998779"/>
  <rect class="cls-5" x="37.880002975" y="87.878995895" width="3.029998779" height="3.029998779"/>
  <rect class="cls-5" x="37.880002975" y="84.848997116" width="3.029998779" height="3.029998779"/>
  <rect class="cls-1" x="37.880002975" y="81.817998886" width="3.029998779" height="3.029998779"/>
  <rect class="cls-1" x="37.880002975" y="78.788000107" width="3.029998779" height="3.029998779"/>
  <rect class="cls-1" x="37.880002975" y="75.758001328" width="3.029998779" height="3.029998779"/>
  <rect class="cls-5" x="37.880002975" y="72.726995468" width="3.029998779" height="3.029998779"/>
  <rect class="cls-6" x="37.880002975" y="69.696996689" width="3.029998779" height="3.029998779"/>
  <rect class="cls-6" x="37.880002975" y="66.66699791" width="3.029998779" height="3.029998779"/>
  <rect class="cls-6" x="37.880002975" y="63.63599968" width="3.029998779" height="3.029998779"/>
  <rect class="cls-1" x="37.880002975" y="60.6060009" width="3.029998779" height="3.029998779"/>
  <rect class="cls-1" x="37.880002975" y="57.575998306" width="3.029998779" height="3.029998779"/>
  <rect class="cls-1" x="37.880002975" y="54.545999527" width="3.029998779" height="3.029998779"/>
  <rect class="cls-1" x="37.880002975" y="51.514997482" width="3.029998779" height="3.029998779"/>
  <rect class="cls-1" x="37.880002975" y="48.484998703" width="3.029998779" height="3.029998779"/>
  <rect class="cls-1" x="37.880002975" y="45.454999924" width="3.029998779" height="3.029998779"/>
  <rect class="cls-1" x="37.880002975" y="42.423997879" width="3.029998779" height="3.029998779"/>
  <rect class="cls-1" x="37.880002975" y="39.3939991" width="3.029998779" height="3.029998779"/>
  <rect class="cls-5" x="37.880002975" y="36.36400032" width="3.029998779" height="3.029998779"/>
  <rect class="cls-6" x="37.880002975" y="33.332998276" width="3.029998779" height="3.029998779"/>
  <rect class="cls-6" x="37.880002975" y="30.302999496" width="3.029998779" height="3.029998779"/>
  <rect class="cls-4" x="37.880002975" y="27.27299881" width="3.029998779" height="3.030000687"/>
  <rect class="cls-1" x="37.880002975" y="24.243000031" width="3.029998779" height="3.030000687"/>
  <rect class="cls-1" x="37.880002975" y="21.211999893" width="3.029998779" height="3.030000687"/>
  <rect class="cls-1" x="37.880002975" y="18.181999207" width="3.029998779" height="3.030000687"/>
  <rect class="cls-1" x="37.880002975" y="15.151999474" width="3.029998779" height="3.029999733"/>
  <rect class="cls-5" x="37.880002975" y="12.120999336" width="3.029998779" height="3.029999733"/>
  <rect class="cls-5" x="37.880002975" y="9.090999603" width="3.029998779" height="3.029999733"/>
  <rect class="cls-4" x="37.880002975" y="6.060998917" width="3.029998779" height="3.029999733"/>
  <rect class="cls-4" x="34.849000931" y="87.878995895" width="3.029998779" height="3.029998779"/>
  <rect class="cls-5" x="34.849000931" y="84.848997116" width="3.029998779" height="3.029998779"/>
  <rect class="cls-1" x="34.849000931" y="81.817998886" width="3.029998779" height="3.029998779"/>
  <rect class="cls-1" x="34.849000931" y="78.788000107" width="3.029998779" height="3.029998779"/>
  <rect class="cls-1" x="34.849000931" y="75.758001328" width="3.029998779" height="3.029998779"/>
  <rect class="cls-1" x="34.849000931" y="72.726995468" width="3.029998779" height="3.029998779"/>
  <rect class="cls-5" x="34.849000931" y="69.696996689" width="3.029998779" height="3.029998779"/>
  <rect class="cls-6" x="34.849000931" y="66.66699791" width="3.029998779" height="3.029998779"/>
  <rect class="cls-6" x="34.849000931" y="63.63599968" width="3.029998779" height="3.029998779"/>
  <rect class="cls-6" x="34.849000931" y="60.6060009" width="3.029998779" height="3.029998779"/>
  <rect class="cls-1" x="34.849000931" y="57.575998306" width="3.029998779" height="3.029998779"/>
  <rect class="cls-1" x="34.849000931" y="54.545999527" width="3.029998779" height="3.029998779"/>
  <rect class="cls-1" x="34.849000931" y="51.514997482" width="3.029998779" height="3.029998779"/>
  <rect class="cls-1" x="34.849000931" y="48.484998703" width="3.029998779" height="3.029998779"/>
  <rect class="cls-1" x="34.849000931" y="45.454999924" width="3.029998779" height="3.029998779"/>
  <rect class="cls-1" x="34.849000931" y="42.423997879" width="3.029998779" height="3.029998779"/>
  <rect class="cls-5" x="34.849000931" y="39.3939991" width="3.029998779" height="3.029998779"/>
  <rect class="cls-6" x="34.849000931" y="36.36400032" width="3.029998779" height="3.029998779"/>
  <rect class="cls-6" x="34.849000931" y="33.332998276" width="3.029998779" height="3.029998779"/>
  <rect class="cls-4" x="34.849000931" y="30.302999496" width="3.029998779" height="3.029998779"/>
  <rect class="cls-1" x="34.849000931" y="27.27299881" width="3.029998779" height="3.030000687"/>
  <rect class="cls-1" x="34.849000931" y="24.243000031" width="3.029998779" height="3.030000687"/>
  <rect class="cls-1" x="34.849000931" y="21.211999893" width="3.029998779" height="3.030000687"/>
  <rect class="cls-1" x="34.849000931" y="18.181999207" width="3.029998779" height="3.030000687"/>
  <rect class="cls-1" x="34.849000931" y="15.151999474" width="3.029998779" height="3.029999733"/>
  <rect class="cls-5" x="34.849000931" y="12.120999336" width="3.029998779" height="3.029999733"/>
  <rect class="cls-4" x="34.849000931" y="9.090999603" width="3.029998779" height="3.029999733"/>
  <rect class="cls-4" x="31.819002151" y="87.878995895" width="3.029998779" height="3.029998779"/>
  <rect class="cls-5" x="31.819002151" y="84.848997116" width="3.029998779" height="3.029998779"/>
  <rect class="cls-5" x="31.819002151" y="81.817998886" width="3.029998779" height="3.029998779"/>
  <rect class="cls-1" x="31.819002151" y="78.788000107" width="3.029998779" height="3.029998779"/>
  <rect class="cls-1" x="31.819002151" y="75.758001328" width="3.029998779" height="3.029998779"/>
  <rect class="cls-1" x="31.819002151" y="72.726995468" width="3.029998779" height="3.029998779"/>
  <rect class="cls-5" x="31.819002151" y="69.696996689" width="3.029998779" height="3.029998779"/>
  <rect class="cls-4" x="31.819002151" y="66.66699791" width="3.029998779" height="3.029998779"/>
  <rect class="cls-6" x="31.819002151" y="63.63599968" width="3.029998779" height="3.029998779"/>
  <rect class="cls-6" x="31.819002151" y="60.6060009" width="3.029998779" height="3.029998779"/>
  <rect class="cls-6" x="31.819002151" y="57.575998306" width="3.029998779" height="3.029998779"/>
  <rect class="cls-6" x="31.819002151" y="54.545999527" width="3.029998779" height="3.029998779"/>
  <rect class="cls-6" x="31.819002151" y="51.514997482" width="3.029998779" height="3.029998779"/>
  <rect class="cls-6" x="31.819002151" y="48.484998703" width="3.029998779" height="3.029998779"/>
  <rect class="cls-6" x="31.819002151" y="45.454999924" width="3.029998779" height="3.029998779"/>
  <rect class="cls-6" x="31.819002151" y="42.423997879" width="3.029998779" height="3.029998779"/>
  <rect class="cls-6" x="31.819002151" y="39.3939991" width="3.029998779" height="3.029998779"/>
  <rect class="cls-6" x="31.819002151" y="36.36400032" width="3.029998779" height="3.029998779"/>
  <rect class="cls-6" x="31.819002151" y="33.332998276" width="3.029998779" height="3.029998779"/>
  <rect class="cls-4" x="31.819002151" y="30.302999496" width="3.029998779" height="3.029998779"/>
  <rect class="cls-1" x="31.819002151" y="27.27299881" width="3.029998779" height="3.030000687"/>
  <rect class="cls-1" x="31.819002151" y="24.243000031" width="3.029998779" height="3.030000687"/>
  <rect class="cls-1" x="31.819002151" y="21.211999893" width="3.029998779" height="3.030000687"/>
  <rect class="cls-1" x="31.819002151" y="18.181999207" width="3.029998779" height="3.030000687"/>
  <rect class="cls-5" x="31.819002151" y="15.151999474" width="3.029998779" height="3.029999733"/>
  <rect class="cls-5" x="31.819002151" y="12.120999336" width="3.029998779" height="3.029999733"/>
  <rect class="cls-4" x="31.819002151" y="9.090999603" width="3.029998779" height="3.029999733"/>
  <rect class="cls-4" x="28.789003372" y="84.848997116" width="3.029998779" height="3.029998779"/>
  <rect class="cls-5" x="28.789003372" y="81.817998886" width="3.029998779" height="3.029998779"/>
  <rect class="cls-1" x="28.789003372" y="78.788000107" width="3.029998779" height="3.029998779"/>
  <rect class="cls-1" x="28.789003372" y="75.758001328" width="3.029998779" height="3.029998779"/>
  <rect class="cls-6" x="28.789003372" y="72.726995468" width="3.029998779" height="3.029998779"/>
  <rect class="cls-1" x="28.789003372" y="69.696996689" width="3.029998779" height="3.029998779"/>
  <rect class="cls-5" x="28.789003372" y="66.66699791" width="3.029998779" height="3.029998779"/>
  <rect class="cls-4" x="28.789003372" y="63.63599968" width="3.029998779" height="3.029998779"/>
  <rect class="cls-4" x="28.789003372" y="60.6060009" width="3.029998779" height="3.029998779"/>
  <rect class="cls-6" x="28.789003372" y="57.575998306" width="3.029998779" height="3.029998779"/>
  <rect class="cls-6" x="28.789003372" y="54.545999527" width="3.029998779" height="3.029998779"/>
  <rect class="cls-6" x="28.789003372" y="51.514997482" width="3.029998779" height="3.029998779"/>
  <rect class="cls-6" x="28.789003372" y="48.484998703" width="3.029998779" height="3.029998779"/>
  <rect class="cls-6" x="28.789003372" y="45.454999924" width="3.029998779" height="3.029998779"/>
  <rect class="cls-6" x="28.789003372" y="42.423997879" width="3.029998779" height="3.029998779"/>
  <rect class="cls-6" x="28.789003372" y="39.3939991" width="3.029998779" height="3.029998779"/>
  <rect class="cls-4" x="28.789003372" y="36.36400032" width="3.029998779" height="3.029998779"/>
  <rect class="cls-4" x="28.789003372" y="33.332998276" width="3.029998779" height="3.029998779"/>
  <rect class="cls-1" x="28.789003372" y="30.302999496" width="3.029998779" height="3.029998779"/>
  <rect class="cls-1" x="28.789003372" y="27.27299881" width="3.029998779" height="3.030000687"/>
  <rect class="cls-6" x="28.789003372" y="24.243000031" width="3.029998779" height="3.030000687"/>
  <rect class="cls-1" x="28.789003372" y="21.211999893" width="3.029998779" height="3.030000687"/>
  <rect class="cls-1" x="28.789003372" y="18.181999207" width="3.029998779" height="3.030000687"/>
  <rect class="cls-5" x="28.789003372" y="15.151999474" width="3.029998779" height="3.029999733"/>
  <rect class="cls-4" x="28.789003372" y="12.120999336" width="3.029998779" height="3.029999733"/>
  <rect class="cls-4" x="25.759000778" y="84.848997116" width="3.029998779" height="3.029998779"/>
  <rect class="cls-5" x="25.759000778" y="81.817998886" width="3.029998779" height="3.029998779"/>
  <rect class="cls-5" x="25.759000778" y="78.788000107" width="3.029998779" height="3.029998779"/>
  <rect class="cls-6" x="25.759000778" y="75.758001328" width="3.029998779" height="3.029998779"/>
  <rect class="cls-1" x="25.759000778" y="72.726995468" width="3.029998779" height="3.029998779"/>
  <rect class="cls-1" x="25.759000778" y="69.696996689" width="3.029998779" height="3.029998779"/>
  <rect class="cls-1" x="25.759000778" y="66.66699791" width="3.029998779" height="3.029998779"/>
  <rect class="cls-1" x="25.759000778" y="63.63599968" width="3.029998779" height="3.029998779"/>
  <rect class="cls-1" x="25.759000778" y="60.6060009" width="3.029998779" height="3.029998779"/>
  <rect class="cls-4" x="25.759000778" y="57.575998306" width="3.029998779" height="3.029998779"/>
  <rect class="cls-4" x="25.759000778" y="54.545999527" width="3.029998779" height="3.029998779"/>
  <rect class="cls-4" x="25.759000778" y="51.514997482" width="3.029998779" height="3.029998779"/>
  <rect class="cls-4" x="25.759000778" y="48.484998703" width="3.029998779" height="3.029998779"/>
  <rect class="cls-4" x="25.759000778" y="45.454999924" width="3.029998779" height="3.029998779"/>
  <rect class="cls-4" x="25.759000778" y="42.423997879" width="3.029998779" height="3.029998779"/>
  <rect class="cls-4" x="25.759000778" y="39.3939991" width="3.029998779" height="3.029998779"/>
  <rect class="cls-1" x="25.759000778" y="36.36400032" width="3.029998779" height="3.029998779"/>
  <rect class="cls-1" x="25.759000778" y="33.332998276" width="3.029998779" height="3.029998779"/>
  <rect class="cls-1" x="25.759000778" y="30.302999496" width="3.029998779" height="3.029998779"/>
  <rect class="cls-1" x="25.759000778" y="27.27299881" width="3.029998779" height="3.030000687"/>
  <rect class="cls-1" x="25.759000778" y="24.243000031" width="3.029998779" height="3.030000687"/>
  <rect class="cls-4" x="25.759000778" y="21.211999893" width="3.029998779" height="3.030000687"/>
  <rect class="cls-5" x="25.759000778" y="18.181999207" width="3.029998779" height="3.030000687"/>
  <rect class="cls-5" x="25.759000778" y="15.151999474" width="3.029998779" height="3.029999733"/>
  <rect class="cls-4" x="25.759000778" y="12.120999336" width="3.029998779" height="3.029999733"/>
  <rect class="cls-4" x="22.729001999" y="81.817998886" width="3.030000687" height="3.029998779"/>
  <rect class="cls-5" x="22.729001999" y="78.788000107" width="3.030000687" height="3.029998779"/>
  <rect class="cls-5" x="22.729001999" y="75.758001328" width="3.030000687" height="3.029998779"/>
  <rect class="cls-1" x="22.729001999" y="72.726995468" width="3.030000687" height="3.029998779"/>
  <rect class="cls-1" x="22.729001999" y="69.696996689" width="3.030000687" height="3.029998779"/>
  <rect class="cls-1" x="22.729001999" y="66.66699791" width="3.030000687" height="3.029998779"/>
  <rect class="cls-6" x="22.729001999" y="63.63599968" width="3.030000687" height="3.029998779"/>
  <rect class="cls-1" x="22.729001999" y="60.6060009" width="3.030000687" height="3.029998779"/>
  <rect class="cls-1" x="22.729001999" y="57.575998306" width="3.030000687" height="3.029998779"/>
  <rect class="cls-1" x="22.729001999" y="54.545999527" width="3.030000687" height="3.029998779"/>
  <rect class="cls-1" x="22.729001999" y="51.514997482" width="3.030000687" height="3.029998779"/>
  <rect class="cls-1" x="22.729001999" y="48.484998703" width="3.030000687" height="3.029998779"/>
  <rect class="cls-1" x="22.729001999" y="45.454999924" width="3.030000687" height="3.029998779"/>
  <rect class="cls-1" x="22.729001999" y="42.423997879" width="3.030000687" height="3.029998779"/>
  <rect class="cls-1" x="22.729001999" y="39.3939991" width="3.030000687" height="3.029998779"/>
  <rect class="cls-1" x="22.729001999" y="36.36400032" width="3.030000687" height="3.029998779"/>
  <rect class="cls-6" x="22.729001999" y="33.332998276" width="3.030000687" height="3.029998779"/>
  <rect class="cls-1" x="22.729001999" y="30.302999496" width="3.030000687" height="3.029998779"/>
  <rect class="cls-1" x="22.729001999" y="27.27299881" width="3.030000687" height="3.030000687"/>
  <rect class="cls-1" x="22.729001999" y="24.243000031" width="3.030000687" height="3.030000687"/>
  <rect class="cls-5" x="22.729001999" y="21.211999893" width="3.030000687" height="3.030000687"/>
  <rect class="cls-5" x="22.729001999" y="18.181999207" width="3.030000687" height="3.030000687"/>
  <rect class="cls-4" x="22.729001999" y="15.151999474" width="3.030000687" height="3.029999733"/>
  <rect class="cls-4" x="19.698001862" y="78.788000107" width="3.030000687" height="3.029998779"/>
  <rect class="cls-5" x="19.698001862" y="75.758001328" width="3.030000687" height="3.029998779"/>
  <rect class="cls-5" x="19.698001862" y="72.726995468" width="3.030000687" height="3.029998779"/>
  <rect class="cls-1" x="19.698001862" y="69.696996689" width="3.030000687" height="3.029998779"/>
  <rect class="cls-4" x="19.698001862" y="66.66699791" width="3.030000687" height="3.029998779"/>
  <rect class="cls-1" x="19.698001862" y="63.63599968" width="3.030000687" height="3.029998779"/>
  <rect class="cls-1" x="19.698001862" y="60.6060009" width="3.030000687" height="3.029998779"/>
  <rect class="cls-1" x="19.698001862" y="57.575998306" width="3.030000687" height="3.029998779"/>
  <rect class="cls-1" x="19.698001862" y="54.545999527" width="3.030000687" height="3.029998779"/>
  <rect class="cls-1" x="19.698001862" y="51.514997482" width="3.030000687" height="3.029998779"/>
  <rect class="cls-6" x="19.698001862" y="48.484998703" width="3.030000687" height="3.029998779"/>
  <rect class="cls-1" x="19.698001862" y="45.454999924" width="3.030000687" height="3.029998779"/>
  <rect class="cls-1" x="19.698001862" y="42.423997879" width="3.030000687" height="3.029998779"/>
  <rect class="cls-1" x="19.698001862" y="39.3939991" width="3.030000687" height="3.029998779"/>
  <rect class="cls-1" x="19.698001862" y="36.36400032" width="3.030000687" height="3.029998779"/>
  <rect class="cls-1" x="19.698001862" y="33.332998276" width="3.030000687" height="3.029998779"/>
  <rect class="cls-4" x="19.698001862" y="30.302999496" width="3.030000687" height="3.029998779"/>
  <rect class="cls-1" x="19.698001862" y="27.27299881" width="3.030000687" height="3.030000687"/>
  <rect class="cls-5" x="19.698001862" y="24.243000031" width="3.030000687" height="3.030000687"/>
  <rect class="cls-5" x="19.698001862" y="21.211999893" width="3.030000687" height="3.030000687"/>
  <rect class="cls-4" x="19.698001862" y="18.181999207" width="3.030000687" height="3.030000687"/>
  <rect class="cls-4" x="16.668001175" y="75.758001328" width="3.030000687" height="3.029998779"/>
  <rect class="cls-5" x="16.668001175" y="72.726995468" width="3.030000687" height="3.029998779"/>
  <rect class="cls-5" x="16.668001175" y="69.696996689" width="3.030000687" height="3.029998779"/>
  <rect class="cls-5" x="16.668001175" y="66.66699791" width="3.030000687" height="3.029998779"/>
  <rect class="cls-1" x="16.668001175" y="63.63599968" width="3.030000687" height="3.029998779"/>
  <rect class="cls-1" x="16.668001175" y="60.6060009" width="3.030000687" height="3.029998779"/>
  <rect class="cls-1" x="16.668001175" y="57.575998306" width="3.030000687" height="3.029998779"/>
  <rect class="cls-1" x="16.668001175" y="54.545999527" width="3.030000687" height="3.029998779"/>
  <rect class="cls-1" x="16.668001175" y="51.514997482" width="3.030000687" height="3.029998779"/>
  <rect class="cls-4" x="16.668001175" y="48.484998703" width="3.030000687" height="3.029998779"/>
  <rect class="cls-1" x="16.668001175" y="45.454999924" width="3.030000687" height="3.029998779"/>
  <rect class="cls-1" x="16.668001175" y="42.423997879" width="3.030000687" height="3.029998779"/>
  <rect class="cls-1" x="16.668001175" y="39.3939991" width="3.030000687" height="3.029998779"/>
  <rect class="cls-1" x="16.668001175" y="36.36400032" width="3.030000687" height="3.029998779"/>
  <rect class="cls-1" x="16.668001175" y="33.332998276" width="3.030000687" height="3.029998779"/>
  <rect class="cls-5" x="16.668001175" y="30.302999496" width="3.030000687" height="3.029998779"/>
  <rect class="cls-5" x="16.668001175" y="27.27299881" width="3.030000687" height="3.030000687"/>
  <rect class="cls-5" x="16.668001175" y="24.243000031" width="3.030000687" height="3.030000687"/>
  <rect class="cls-4" x="16.668001175" y="21.211999893" width="3.030000687" height="3.030000687"/>
  <rect class="cls-4" x="13.638002396" y="72.726995468" width="3.030000687" height="3.029998779"/>
  <rect class="cls-4" x="13.638002396" y="69.696996689" width="3.030000687" height="3.029998779"/>
  <rect class="cls-5" x="13.638002396" y="66.66699791" width="3.030000687" height="3.029998779"/>
  <rect class="cls-5" x="13.638002396" y="63.63599968" width="3.030000687" height="3.029998779"/>
  <rect class="cls-5" x="13.638002396" y="60.6060009" width="3.030000687" height="3.029998779"/>
  <rect class="cls-5" x="13.638002396" y="57.575998306" width="3.030000687" height="3.029998779"/>
  <rect class="cls-1" x="13.638002396" y="54.545999527" width="3.030000687" height="3.029998779"/>
  <rect class="cls-1" x="13.638002396" y="51.514997482" width="3.030000687" height="3.029998779"/>
  <rect class="cls-4" x="13.638002396" y="48.484998703" width="3.030000687" height="3.029998779"/>
  <rect class="cls-1" x="13.638002396" y="45.454999924" width="3.030000687" height="3.029998779"/>
  <rect class="cls-1" x="13.638002396" y="42.423997879" width="3.030000687" height="3.029998779"/>
  <rect class="cls-5" x="13.638002396" y="39.3939991" width="3.030000687" height="3.029998779"/>
  <rect class="cls-5" x="13.638002396" y="36.36400032" width="3.030000687" height="3.029998779"/>
  <rect class="cls-5" x="13.638002396" y="33.332998276" width="3.030000687" height="3.029998779"/>
  <rect class="cls-5" x="13.638002396" y="30.302999496" width="3.030000687" height="3.029998779"/>
  <rect class="cls-4" x="13.638002396" y="27.27299881" width="3.030000687" height="3.030000687"/>
  <rect class="cls-4" x="13.638002396" y="24.243000031" width="3.030000687" height="3.030000687"/>
  <rect class="cls-4" x="10.608001709" y="66.66699791" width="3.030000687" height="3.029998779"/>
  <rect class="cls-4" x="10.608001709" y="63.63599968" width="3.030000687" height="3.029998779"/>
  <rect class="cls-4" x="10.608001709" y="60.6060009" width="3.030000687" height="3.029998779"/>
  <rect class="cls-5" x="10.608001709" y="57.575998306" width="3.030000687" height="3.029998779"/>
  <rect class="cls-5" x="10.608001709" y="54.545999527" width="3.030000687" height="3.029998779"/>
  <rect class="cls-5" x="10.608001709" y="51.514997482" width="3.030000687" height="3.029998779"/>
  <rect class="cls-5" x="10.608001709" y="48.484998703" width="3.030000687" height="3.029998779"/>
  <rect class="cls-5" x="10.608001709" y="45.454999924" width="3.030000687" height="3.029998779"/>
  <rect class="cls-5" x="10.608001709" y="42.423997879" width="3.030000687" height="3.029998779"/>
  <rect class="cls-5" x="10.608001709" y="39.3939991" width="3.030000687" height="3.029998779"/>
  <rect class="cls-4" x="10.608001709" y="36.36400032" width="3.030000687" height="3.029998779"/>
  <rect class="cls-4" x="10.608001709" y="33.332998276" width="3.030000687" height="3.029998779"/>
  <rect class="cls-4" x="10.608001709" y="30.302999496" width="3.030000687" height="3.029998779"/>
  <rect class="cls-4" x="7.577001572" y="57.575998306" width="3.029999733" height="3.029998779"/>
  <rect class="cls-4" x="7.577001572" y="54.545999527" width="3.029999733" height="3.029998779"/>
  <rect class="cls-4" x="7.577001572" y="51.514997482" width="3.029999733" height="3.029998779"/>
  <rect class="cls-4" x="7.577001572" y="48.484998703" width="3.029999733" height="3.029998779"/>
  <rect class="cls-4" x="7.577001572" y="45.454999924" width="3.029999733" height="3.029998779"/>
  <rect class="cls-4" x="7.577001572" y="42.423997879" width="3.029999733" height="3.029998779"/>
  <rect class="cls-4" x="7.577001572" y="39.3939991" width="3.029999733" height="3.029998779"/>
</svg>