<?xml version="1.0" encoding="UTF-8"?>
<svg id="Ebene_1" data-name="Ebene 1" xmlns="http://www.w3.org/2000/svg" width="200" height="200" viewBox="0 0 200 200">
  <rect x="169.7" y="36.4" width="6.1" height="6.1" style="fill: #76612f;"/>
  <rect x="163.6" y="42.4" width="6.1" height="6.1" style="fill: #76612f;"/>
  <rect x="163.6" y="36.4" width="6.1" height="6.1" style="fill: #939687;"/>
  <rect x="163.6" y="30.3" width="6.1" height="6.1" style="fill: #76612f;"/>
  <rect x="157.6" y="54.5" width="6.1" height="6.1" style="fill: #76612f;"/>
  <rect x="157.6" y="48.5" width="6.1" height="6.1" style="fill: #76612f;"/>
  <rect x="157.6" y="42.4" width="6.1" height="6.1" style="fill: #b9bcad;"/>
  <rect x="157.6" y="36.4" width="6.1" height="6.1" style="fill: #939687;"/>
  <rect x="157.6" y="30.3" width="6.1" height="6.1" style="fill: #939687;"/>
  <rect x="157.6" y="24.2" width="6.1" height="6.1" style="fill: #76612f;"/>
  <rect x="151.5" y="127.3" width="6.1" height="6.1" style="fill: #b9bcad;"/>
  <rect x="151.5" y="54.5" width="6.1" height="6.1" style="fill: #76612f;"/>
  <rect x="151.5" y="48.5" width="6.1" height="6.1" style="fill: #939687;"/>
  <rect x="151.5" y="42.4" width="6.1" height="6.1" style="fill: #b9bcad;"/>
  <rect x="151.5" y="36.4" width="6.1" height="6.1" style="fill: #b9bcad;"/>
  <rect x="151.5" y="30.3" width="6.1" height="6.1" style="fill: #b9bcad;"/>
  <rect x="151.5" y="24.2" width="6.1" height="6.1" style="fill: #939687;"/>
  <rect x="151.5" y="18.2" width="6.1" height="6.1" style="fill: #76612f;"/>
  <rect x="145.5" y="127.3" width="6.1" height="6.1" style="fill: #b9bcad;"/>
  <rect x="145.5" y="121.2" width="6.1" height="6.1" style="fill: #b9bcad;"/>
  <rect x="145.5" y="115.1" width="6.1" height="6.1" style="fill: #6980af;"/>
  <rect x="145.5" y="60.6" width="6.1" height="6.1" style="fill: #76612f;"/>
  <rect x="145.5" y="54.5" width="6.1" height="6.1" style="fill: #b9bcad;"/>
  <rect x="145.5" y="48.5" width="6.1" height="6.1" style="fill: #b9bcad;"/>
  <rect x="145.5" y="42.4" width="6.1" height="6.1" style="fill: #939687;"/>
  <rect x="145.5" y="36.4" width="6.1" height="6.1" style="fill: #b9bcad;"/>
  <rect x="145.5" y="30.3" width="6.1" height="6.1" style="fill: #707167;"/>
  <rect x="145.5" y="24.2" width="6.1" height="6.1" style="fill: #b9bcad;"/>
  <rect x="145.5" y="18.2" width="6.1" height="6.1" style="fill: #939687;"/>
  <rect x="145.5" y="12.1" width="6.1" height="6.1" style="fill: #76612f;"/>
  <rect x="139.4" y="133.3" width="6.1" height="6.1" style="fill: #b9bcad;"/>
  <rect x="139.4" y="127.3" width="6.1" height="6.1" style="fill: #b9bcad;"/>
  <rect x="139.4" y="121.2" width="6.1" height="6.1" style="fill: #6980af;"/>
  <rect x="139.4" y="115.1" width="6.1" height="6.1" style="fill: #6980af;"/>
  <rect x="139.4" y="109.1" width="6.1" height="6.1" style="fill: #6980af;"/>
  <rect x="139.4" y="66.7" width="6.1" height="6.1" style="fill: #76612f;"/>
  <rect x="139.4" y="60.6" width="6.1" height="6.1" style="fill: #b9bcad;"/>
  <rect x="139.4" y="54.5" width="6.1" height="6.1" style="fill: #b9bcad;"/>
  <rect x="139.4" y="48.5" width="6.1" height="6.1" style="fill: #b9bcad;"/>
  <rect x="139.4" y="42.4" width="6.1" height="6.1" style="fill: #707167;"/>
  <rect x="139.4" y="36.4" width="6.1" height="6.1" style="fill: #939687;"/>
  <rect x="139.4" y="30.3" width="6.1" height="6.1" style="fill: #b9bcad;"/>
  <rect x="139.4" y="24.2" width="6.1" height="6.1" style="fill: #b9bcad;"/>
  <rect x="139.4" y="18.2" width="6.1" height="6.1" style="fill: #b9bcad;"/>
  <rect x="133.3" y="139.4" width="6.1" height="6.1" style="fill: #b9bcad;"/>
  <rect x="133.3" y="133.3" width="6.1" height="6.1" style="fill: #b9bcad;"/>
  <rect x="133.3" y="127.3" width="6.1" height="6.1" style="fill: #6980af;"/>
  <rect x="133.3" y="121.2" width="6.1" height="6.1" style="fill: #6980af;"/>
  <rect x="133.3" y="115.1" width="6.1" height="6.1" style="fill: #6980af;"/>
  <rect x="133.3" y="109.1" width="6.1" height="6.1" style="fill: #6980af;"/>
  <rect x="133.3" y="103" width="6.1" height="6.1" style="fill: #6980af;"/>
  <rect x="133.3" y="72.7" width="6.1" height="6.1" style="fill: #76612f;"/>
  <rect x="133.3" y="66.7" width="6.1" height="6.1" style="fill: #b9bcad;"/>
  <rect x="133.3" y="60.6" width="6.1" height="6.1" style="fill: #b9bcad;"/>
  <rect x="133.3" y="54.5" width="6.1" height="6.1" style="fill: #b9bcad;"/>
  <rect x="133.3" y="48.5" width="6.1" height="6.1" style="fill: #707167;"/>
  <rect x="133.3" y="42.4" width="6.1" height="6.1" style="fill: #b9bcad;"/>
  <rect x="133.3" y="36.4" width="6.1" height="6.1" style="fill: #b9bcad;"/>
  <rect x="133.3" y="30.3" width="6.1" height="6.1" style="fill: #939687;"/>
  <rect x="133.3" y="24.2" width="6.1" height="6.1" style="fill: #707167;"/>
  <rect x="133.3" y="18.2" width="6.1" height="6.1" style="fill: #b9bcad;"/>
  <rect x="133.3" y="12.1" width="6.1" height="6.1" style="fill: #b9bcad;"/>
  <rect x="127.3" y="139.4" width="6.1" height="6.1" style="fill: #b9bcad;"/>
  <rect x="127.3" y="133.3" width="6.1" height="6.1" style="fill: #6980af;"/>
  <rect x="127.3" y="127.3" width="6.1" height="6.1" style="fill: #6980af;"/>
  <rect x="127.3" y="121.2" width="6.1" height="6.1" style="fill: #6980af;"/>
  <rect x="127.3" y="115.1" width="6.1" height="6.1" style="fill: #6980af;"/>
  <rect x="127.3" y="109.1" width="6.1" height="6.1" style="fill: #b9c5d8;"/>
  <rect x="127.3" y="103" width="6.1" height="6.1" style="fill: #6980af;"/>
  <rect x="127.3" y="97" width="6.1" height="6.1" style="fill: #6980af;"/>
  <rect x="127.3" y="66.7" width="6.1" height="6.1" style="fill: #76612f;"/>
  <rect x="127.3" y="60.6" width="6.1" height="6.1" style="fill: #b9bcad;"/>
  <rect x="127.3" y="54.5" width="6.1" height="6.1" style="fill: #707167;"/>
  <rect x="127.3" y="48.5" width="6.1" height="6.1" style="fill: #b9bcad;"/>
  <rect x="127.3" y="42.4" width="6.1" height="6.1" style="fill: #b9bcad;"/>
  <rect x="127.3" y="36.4" width="6.1" height="6.1" style="fill: #707167;"/>
  <rect x="127.3" y="30.3" width="6.1" height="6.1" style="fill: #b9bcad;"/>
  <rect x="127.3" y="18.2" width="6.1" height="6.1" style="fill: #b9bcad;"/>
  <rect x="127.3" y="12.1" width="6.1" height="6.1" style="fill: #b9bcad;"/>
  <rect x="127.3" y="6.1" width="6.1" height="6.1" style="fill: #b9bcad;"/>
  <rect x="121.2" y="139.4" width="6.1" height="6.1" style="fill: #1c3f8c;"/>
  <rect x="121.2" y="133.3" width="6.1" height="6.1" style="fill: #1c3f8c;"/>
  <rect x="121.2" y="127.3" width="6.1" height="6.1" style="fill: #6980af;"/>
  <rect x="121.2" y="121.2" width="6.1" height="6.1" style="fill: #6980af;"/>
  <rect x="121.2" y="115.1" width="6.1" height="6.1" style="fill: #b9c5d8;"/>
  <rect x="121.2" y="109.1" width="6.1" height="6.1" style="fill: #6980af;"/>
  <rect x="121.2" y="103" width="6.1" height="6.1" style="fill: #b9c5d8;"/>
  <rect x="121.2" y="97" width="6.1" height="6.1" style="fill: #6980af;"/>
  <rect x="121.2" y="90.9" width="6.1" height="6.1" style="fill: #6980af;"/>
  <rect x="121.2" y="60.6" width="6.1" height="6.1" style="fill: #76612f;"/>
  <rect x="121.2" y="54.5" width="6.1" height="6.1" style="fill: #b9bcad;"/>
  <rect x="121.2" y="48.5" width="6.1" height="6.1" style="fill: #b9bcad;"/>
  <rect x="121.2" y="42.4" width="6.1" height="6.1" style="fill: #707167;"/>
  <rect x="121.2" y="36.4" width="6.1" height="6.1" style="fill: #b9bcad;"/>
  <rect x="121.2" y="30.3" width="6.1" height="6.1" style="fill: #b9bcad;"/>
  <rect x="115.1" y="169.7" width="6.1" height="6.1" style="fill: #939687;"/>
  <rect x="115.1" y="163.6" width="6.1" height="6.1" style="fill: #b9bcad;"/>
  <rect x="115.1" y="133.3" width="6.1" height="6.1" style="fill: #1c3f8c;"/>
  <rect x="115.1" y="127.3" width="6.1" height="6.1" style="fill: #1c3f8c;"/>
  <rect x="115.1" y="121.2" width="6.1" height="6.1" style="fill: #6980af;"/>
  <rect x="115.1" y="115.1" width="6.1" height="6.1" style="fill: #6980af;"/>
  <rect x="115.1" y="109.1" width="6.1" height="6.1" style="fill: #b9c5d8;"/>
  <rect x="115.1" y="103" width="6.1" height="6.1" style="fill: #6980af;"/>
  <rect x="115.1" y="97" width="6.1" height="6.1" style="fill: #6980af;"/>
  <rect x="115.1" y="90.9" width="6.1" height="6.1" style="fill: #6980af;"/>
  <rect x="115.1" y="54.5" width="6.1" height="6.1" style="fill: #76612f;"/>
  <rect x="115.1" y="48.5" width="6.1" height="6.1" style="fill: #b9bcad;"/>
  <rect x="115.1" y="42.4" width="6.1" height="6.1" style="fill: #b9bcad;"/>
  <rect x="115.1" y="36.4" width="6.1" height="6.1" style="fill: #b9bcad;"/>
  <rect x="115.1" y="30.3" width="6.1" height="6.1" style="fill: #b9bcad;"/>
  <rect x="109.1" y="175.8" width="6.1" height="6.1" style="fill: #939687;"/>
  <rect x="109.1" y="169.7" width="6.1" height="6.1" style="fill: #b9bcad;"/>
  <rect x="109.1" y="163.6" width="6.1" height="6.1" style="fill: #b9bcad;"/>
  <rect x="109.1" y="157.6" width="6.1" height="6.1" style="fill: #76612f;"/>
  <rect x="109.1" y="127.3" width="6.1" height="6.1" style="fill: #1c3f8c;"/>
  <rect x="109.1" y="121.2" width="6.1" height="6.1" style="fill: #1c3f8c;"/>
  <rect x="109.1" y="115.1" width="6.1" height="6.1" style="fill: #6980af;"/>
  <rect x="109.1" y="109.1" width="6.1" height="6.1" style="fill: #6980af;"/>
  <rect x="109.1" y="103" width="6.1" height="6.1" style="fill: #6980af;"/>
  <rect x="109.1" y="97" width="6.1" height="6.1" style="fill: #6980af;"/>
  <rect x="109.1" y="48.5" width="6.1" height="6.1" style="fill: #76612f;"/>
  <rect x="109.1" y="42.4" width="6.1" height="6.1" style="fill: #b9bcad;"/>
  <rect x="109.1" y="36.4" width="6.1" height="6.1" style="fill: #b9bcad;"/>
  <rect x="103" y="175.8" width="6.1" height="6.1" style="fill: #939687;"/>
  <rect x="103" y="169.7" width="6.1" height="6.1" style="fill: #b9bcad;"/>
  <rect x="103" y="163.6" width="6.1" height="6.1" style="fill: #76612f;"/>
  <rect x="103" y="157.6" width="6.1" height="6.1" style="fill: #76612f;"/>
  <rect x="103" y="121.2" width="6.1" height="6.1" style="fill: #1c3f8c;"/>
  <rect x="103" y="115.1" width="6.1" height="6.1" style="fill: #1c3f8c;"/>
  <rect x="103" y="109.1" width="6.1" height="6.1" style="fill: #6980af;"/>
  <rect x="103" y="103" width="6.1" height="6.1" style="fill: #6980af;"/>
  <rect x="103" y="42.4" width="6.1" height="6.1" style="fill: #76612f;"/>
  <rect x="97" y="181.8" width="6.1" height="6.1" style="fill: #b9bcad;"/>
  <rect x="97" y="175.8" width="6.1" height="6.1" style="fill: #b9bcad;"/>
  <rect x="97" y="169.7" width="6.1" height="6.1" style="fill: #76612f;"/>
  <rect x="97" y="163.6" width="6.1" height="6.1" style="fill: #76612f;"/>
  <rect x="97" y="157.6" width="6.1" height="6.1" style="fill: #76612f;"/>
  <rect x="97" y="115.1" width="6.1" height="6.1" style="fill: #1c3f8c;"/>
  <rect x="97" y="109.1" width="6.1" height="6.1" style="fill: #1c3f8c;"/>
  <rect x="90.9" y="181.8" width="6.1" height="6.1" style="fill: #b9bcad;"/>
  <rect x="90.9" y="175.8" width="6.1" height="6.1" style="fill: #76612f;"/>
  <rect x="90.9" y="169.7" width="6.1" height="6.1" style="fill: #76612f;"/>
  <rect x="90.9" y="163.6" width="6.1" height="6.1" style="fill: #76612f;"/>
  <rect x="90.9" y="157.6" width="6.1" height="6.1" style="fill: #76612f;"/>
  <rect x="84.8" y="181.8" width="6.1" height="6.1" style="fill: #564421;"/>
  <rect x="84.8" y="175.8" width="6.1" height="6.1" style="fill: #76612f;"/>
  <rect x="84.8" y="169.7" width="6.1" height="6.1" style="fill: #76612f;"/>
  <rect x="84.8" y="163.6" width="6.1" height="6.1" style="fill: #76612f;"/>
  <rect x="84.8" y="157.6" width="6.1" height="6.1" style="fill: #564421;"/>
  <rect x="78.8" y="181.8" width="6.1" height="6.1" style="fill: #564421;"/>
  <rect x="78.8" y="175.8" width="6.1" height="6.1" style="fill: #76612f;"/>
  <rect x="78.8" y="169.7" width="6.1" height="6.1" style="fill: #76612f;"/>
  <rect x="78.8" y="163.6" width="6.1" height="6.1" style="fill: #564421;"/>
  <rect x="78.8" y="157.6" width="6.1" height="6.1" style="fill: #76612f;"/>
  <rect x="72.7" y="181.8" width="6.1" height="6.1" style="fill: #564421;"/>
  <rect x="72.7" y="175.8" width="6.1" height="6.1" style="fill: #76612f;"/>
  <rect x="72.7" y="169.7" width="6.1" height="6.1" style="fill: #564421;"/>
  <rect x="72.7" y="163.6" width="6.1" height="6.1" style="fill: #76612f;"/>
  <rect x="72.7" y="157.6" width="6.1" height="6.1" style="fill: #564421;"/>
  <rect x="72.7" y="66.7" width="6.1" height="6.1" style="fill: #939687;"/>
  <rect x="66.7" y="181.8" width="6.1" height="6.1" style="fill: #564421;"/>
  <rect x="66.7" y="175.8" width="6.1" height="6.1" style="fill: #76612f;"/>
  <rect x="66.7" y="169.7" width="6.1" height="6.1" style="fill: #76612f;"/>
  <rect x="66.7" y="163.6" width="6.1" height="6.1" style="fill: #564421;"/>
  <rect x="66.7" y="157.6" width="6.1" height="6.1" style="fill: #76612f;"/>
  <rect x="66.7" y="72.7" width="6.1" height="6.1" style="fill: #939687;"/>
  <rect x="66.7" y="66.7" width="6.1" height="6.1" style="fill: #b9bcad;"/>
  <rect x="66.7" y="60.6" width="6.1" height="6.1" style="fill: #b9bcad;"/>
  <rect x="60.6" y="181.8" width="6.1" height="6.1" style="fill: #564421;"/>
  <rect x="60.6" y="175.8" width="6.1" height="6.1" style="fill: #76612f;"/>
  <rect x="60.6" y="169.7" width="6.1" height="6.1" style="fill: #564421;"/>
  <rect x="60.6" y="163.6" width="6.1" height="6.1" style="fill: #76612f;"/>
  <rect x="60.6" y="157.6" width="6.1" height="6.1" style="fill: #76612f;"/>
  <rect x="60.6" y="78.8" width="6.1" height="6.1" style="fill: #939687;"/>
  <rect x="60.6" y="72.7" width="6.1" height="6.1" style="fill: #b9bcad;"/>
  <rect x="60.6" y="66.7" width="6.1" height="6.1" style="fill: #b9bcad;"/>
  <rect x="60.6" y="60.6" width="6.1" height="6.1" style="fill: #718e5e;"/>
  <rect x="60.6" y="54.5" width="6.1" height="6.1" style="fill: #718e5e;"/>
  <rect x="54.5" y="181.8" width="6.1" height="6.1" style="fill: #564421;"/>
  <rect x="54.5" y="175.8" width="6.1" height="6.1" style="fill: #76612f;"/>
  <rect x="54.5" y="169.7" width="6.1" height="6.1" style="fill: #76612f;"/>
  <rect x="54.5" y="163.6" width="6.1" height="6.1" style="fill: #76612f;"/>
  <rect x="54.5" y="84.8" width="6.1" height="6.1" style="fill: #939687;"/>
  <rect x="54.5" y="78.8" width="6.1" height="6.1" style="fill: #b9bcad;"/>
  <rect x="54.5" y="72.7" width="6.1" height="6.1" style="fill: #b9bcad;"/>
  <rect x="54.5" y="66.7" width="6.1" height="6.1" style="fill: #718e5e;"/>
  <rect x="54.5" y="60.6" width="6.1" height="6.1" style="fill: #718e5e;"/>
  <rect x="54.5" y="54.5" width="6.1" height="6.1" style="fill: #718e5e;"/>
  <rect x="54.5" y="48.5" width="6.1" height="6.1" style="fill: #718e5e;"/>
  <rect x="48.5" y="181.8" width="6.1" height="6.1" style="fill: #564421;"/>
  <rect x="48.5" y="175.8" width="6.1" height="6.1" style="fill: #76612f;"/>
  <rect x="48.5" y="169.7" width="6.1" height="6.1" style="fill: #76612f;"/>
  <rect x="48.5" y="90.9" width="6.1" height="6.1" style="fill: #939687;"/>
  <rect x="48.5" y="84.8" width="6.1" height="6.1" style="fill: #b9bcad;"/>
  <rect x="48.5" y="78.8" width="6.1" height="6.1" style="fill: #b9bcad;"/>
  <rect x="48.5" y="72.7" width="6.1" height="6.1" style="fill: #718e5e;"/>
  <rect x="48.5" y="66.7" width="6.1" height="6.1" style="fill: #ad9c24;"/>
  <rect x="48.5" y="60.6" width="6.1" height="6.1" style="fill: #718e5e;"/>
  <rect x="48.5" y="54.5" width="6.1" height="6.1" style="fill: #718e5e;"/>
  <rect x="48.5" y="48.5" width="6.1" height="6.1" style="fill: #718e5e;"/>
  <rect x="48.5" y="42.4" width="6.1" height="6.1" style="fill: #597f42;"/>
  <rect x="42.4" y="181.8" width="6.1" height="6.1" style="fill: #564421;"/>
  <rect x="42.4" y="175.8" width="6.1" height="6.1" style="fill: #76612f;"/>
  <rect x="42.4" y="97" width="6.1" height="6.1" style="fill: #939687;"/>
  <rect x="42.4" y="90.9" width="6.1" height="6.1" style="fill: #b9bcad;"/>
  <rect x="42.4" y="84.8" width="6.1" height="6.1" style="fill: #b9bcad;"/>
  <rect x="42.4" y="78.8" width="6.1" height="6.1" style="fill: #718e5e;"/>
  <rect x="42.4" y="72.7" width="6.1" height="6.1" style="fill: #718e5e;"/>
  <rect x="42.4" y="66.7" width="6.1" height="6.1" style="fill: #718e5e;"/>
  <rect x="42.4" y="60.6" width="6.1" height="6.1" style="fill: #ad9c24;"/>
  <rect x="42.4" y="54.5" width="6.1" height="6.1" style="fill: #718e5e;"/>
  <rect x="42.4" y="48.5" width="6.1" height="6.1" style="fill: #597f42;"/>
  <rect x="36.4" y="90.9" width="6.1" height="6.1" style="fill: #b9bcad;"/>
  <rect x="36.4" y="84.8" width="6.1" height="6.1" style="fill: #718e5e;"/>
  <rect x="36.4" y="78.8" width="6.1" height="6.1" style="fill: #718e5e;"/>
  <rect x="36.4" y="72.7" width="6.1" height="6.1" style="fill: #718e5e;"/>
  <rect x="36.4" y="66.7" width="6.1" height="6.1" style="fill: #718e5e;"/>
  <rect x="36.4" y="60.6" width="6.1" height="6.1" style="fill: #718e5e;"/>
  <rect x="36.4" y="54.5" width="6.1" height="6.1" style="fill: #597f42;"/>
  <rect x="30.3" y="84.8" width="6.1" height="6.1" style="fill: #718e5e;"/>
  <rect x="30.3" y="78.8" width="6.1" height="6.1" style="fill: #718e5e;"/>
  <rect x="30.3" y="72.7" width="6.1" height="6.1" style="fill: #718e5e;"/>
  <rect x="30.3" y="66.7" width="6.1" height="6.1" style="fill: #718e5e;"/>
  <rect x="30.3" y="60.6" width="6.1" height="6.1" style="fill: #597f42;"/>
  <rect x="24.2" y="78.8" width="6.1" height="6.1" style="fill: #718e5e;"/>
  <rect x="24.2" y="72.7" width="6.1" height="6.1" style="fill: #718e5e;"/>
  <rect x="24.2" y="66.7" width="6.1" height="6.1" style="fill: #597f42;"/>
  <rect x="18.2" y="72.7" width="6.1" height="6.1" style="fill: #597f42;"/>
</svg>