<?xml version="1.0" encoding="UTF-8"?>
<svg id="Ebene_1" data-name="Ebene 1" xmlns="http://www.w3.org/2000/svg" width="210" height="105" viewBox="0 0 210 105">
  <rect x="142.2" y="79.5" width="3.2" height="3.2" style="fill: #634723;"/>
  <rect x="142.2" y="76.4" width="3.2" height="3.2" style="fill: #634723;"/>
  <rect x="142.2" y="73.2" width="3.2" height="3.2" style="fill: #634723;"/>
  <rect x="142.2" y="70" width="3.2" height="3.2" style="fill: #634723;"/>
  <rect x="142.2" y="66.8" width="3.2" height="3.2" style="fill: #634723;"/>
  <rect x="142.2" y="63.6" width="3.2" height="3.2" style="fill: #634723;"/>
  <rect x="142.2" y="60.5" width="3.2" height="3.2" style="fill: #634723;"/>
  <rect x="142.2" y="57.3" width="3.2" height="3.2" style="fill: #634723;"/>
  <rect x="142.2" y="54.1" width="3.2" height="3.2" style="fill: #634723;"/>
  <rect x="142.2" y="50.9" width="3.2" height="3.2" style="fill: #634723;"/>
  <rect x="142.2" y="47.7" width="3.2" height="3.2" style="fill: #634723;"/>
  <rect x="142.2" y="44.5" width="3.2" height="3.2" style="fill: #634723;"/>
  <rect x="142.2" y="41.4" width="3.2" height="3.2" style="fill: #997759;"/>
  <rect x="138.9" y="85.9" width="3.2" height="3.2" style="fill: #997759;"/>
  <rect x="138.9" y="82.7" width="3.2" height="3.2" style="fill: #634723;"/>
  <rect x="138.9" y="79.5" width="3.2" height="3.2" style="fill: #634723;"/>
  <rect x="138.9" y="76.4" width="3.2" height="3.2" style="fill: #634723;"/>
  <rect x="138.9" y="73.2" width="3.2" height="3.2" style="fill: #634723;"/>
  <rect x="138.9" y="70" width="3.2" height="3.2" style="fill: #634723;"/>
  <rect x="138.9" y="66.8" width="3.2" height="3.2" style="fill: #634723;"/>
  <rect x="138.9" y="63.6" width="3.2" height="3.2" style="fill: #634723;"/>
  <rect x="138.9" y="60.5" width="3.2" height="3.2" style="fill: #634723;"/>
  <rect x="138.9" y="57.3" width="3.2" height="3.2" style="fill: #634723;"/>
  <rect x="138.9" y="54.1" width="3.2" height="3.2" style="fill: #634723;"/>
  <rect x="138.9" y="50.9" width="3.2" height="3.2" style="fill: #634723;"/>
  <rect x="138.9" y="47.7" width="3.2" height="3.2" style="fill: #634723;"/>
  <rect x="138.9" y="44.5" width="3.2" height="3.2" style="fill: #997759;"/>
  <rect x="135.7" y="98.6" width="3.2" height="3.2" style="fill: #997759;"/>
  <rect x="135.7" y="95.5" width="3.2" height="3.2" style="fill: #634723;"/>
  <rect x="135.7" y="92.3" width="3.2" height="3.2" style="fill: #634723;"/>
  <rect x="135.7" y="89.1" width="3.2" height="3.2" style="fill: #634723;"/>
  <rect x="135.7" y="85.9" width="3.2" height="3.2" style="fill: #997759;"/>
  <rect x="135.7" y="82.7" width="3.2" height="3.2" style="fill: #634723;"/>
  <rect x="135.7" y="79.5" width="3.2" height="3.2" style="fill: #634723;"/>
  <rect x="135.7" y="76.4" width="3.2" height="3.2" style="fill: #efeeed;"/>
  <rect x="135.7" y="73.2" width="3.2" height="3.2" style="fill: #efeeed;"/>
  <rect x="135.7" y="70" width="3.2" height="3.2" style="fill: #efeeed;"/>
  <rect x="135.7" y="66.8" width="3.2" height="3.2" style="fill: #eac0db;"/>
  <rect x="135.7" y="63.6" width="3.2" height="3.2" style="fill: #c24793;"/>
  <rect x="135.7" y="60.5" width="3.2" height="3.2" style="fill: #c24793;"/>
  <rect x="135.7" y="57.3" width="3.2" height="3.2" style="fill: #c24793;"/>
  <rect x="135.7" y="54.1" width="3.2" height="3.2" style="fill: #c24793;"/>
  <rect x="135.7" y="50.9" width="3.2" height="3.2" style="fill: #c24793;"/>
  <rect x="132.5" y="98.6" width="3.2" height="3.2" style="fill: #634723;"/>
  <rect x="132.5" y="95.5" width="3.2" height="3.2" style="fill: #997759;"/>
  <rect x="132.5" y="92.3" width="3.2" height="3.2" style="fill: #634723;"/>
  <rect x="132.5" y="89.1" width="3.2" height="3.2" style="fill: #634723;"/>
  <rect x="132.5" y="85.9" width="3.2" height="3.2" style="fill: #997759;"/>
  <rect x="132.5" y="82.7" width="3.2" height="3.2" style="fill: #634723;"/>
  <rect x="132.5" y="79.5" width="3.2" height="3.2" style="fill: #634723;"/>
  <rect x="132.5" y="76.4" width="3.2" height="3.2" style="fill: #efeeed;"/>
  <rect x="132.5" y="73.2" width="3.2" height="3.2" style="fill: #efeeed;"/>
  <rect x="132.5" y="70" width="3.2" height="3.2" style="fill: #efeeed;"/>
  <rect x="132.5" y="66.8" width="3.2" height="3.2" style="fill: #c24793;"/>
  <rect x="132.5" y="63.6" width="3.2" height="3.2" style="fill: #c24793;"/>
  <rect x="132.5" y="60.5" width="3.2" height="3.2" style="fill: #c24793;"/>
  <rect x="132.5" y="57.3" width="3.2" height="3.2" style="fill: #eac0db;"/>
  <rect x="132.5" y="54.1" width="3.2" height="3.2" style="fill: #c24793;"/>
  <rect x="132.5" y="50.9" width="3.2" height="3.2" style="fill: #c24793;"/>
  <rect x="129.2" y="98.6" width="3.2" height="3.2" style="fill: #997759;"/>
  <rect x="129.2" y="95.5" width="3.2" height="3.2" style="fill: #634723;"/>
  <rect x="129.2" y="92.3" width="3.2" height="3.2" style="fill: #634723;"/>
  <rect x="129.2" y="89.1" width="3.2" height="3.2" style="fill: #634723;"/>
  <rect x="129.2" y="85.9" width="3.2" height="3.2" style="fill: #997759;"/>
  <rect x="129.2" y="82.7" width="3.2" height="3.2" style="fill: #634723;"/>
  <rect x="129.2" y="79.5" width="3.2" height="3.2" style="fill: #634723;"/>
  <rect x="129.2" y="76.4" width="3.2" height="3.2" style="fill: #efeeed;"/>
  <rect x="129.2" y="73.2" width="3.2" height="3.2" style="fill: #efeeed;"/>
  <rect x="129.2" y="70" width="3.2" height="3.2" style="fill: #efeeed;"/>
  <rect x="129.2" y="66.8" width="3.2" height="3.2" style="fill: #c24793;"/>
  <rect x="129.2" y="63.6" width="3.2" height="3.2" style="fill: #c24793;"/>
  <rect x="129.2" y="60.5" width="3.2" height="3.2" style="fill: #c24793;"/>
  <rect x="129.2" y="57.3" width="3.2" height="3.2" style="fill: #c24793;"/>
  <rect x="129.2" y="54.1" width="3.2" height="3.2" style="fill: #c24793;"/>
  <rect x="126" y="85.9" width="3.2" height="3.2" style="fill: #997759;"/>
  <rect x="126" y="82.7" width="3.2" height="3.2" style="fill: #634723;"/>
  <rect x="126" y="79.5" width="3.2" height="3.2" style="fill: #634723;"/>
  <rect x="126" y="76.4" width="3.2" height="3.2" style="fill: #efeeed;"/>
  <rect x="126" y="73.2" width="3.2" height="3.2" style="fill: #efeeed;"/>
  <rect x="126" y="70" width="3.2" height="3.2" style="fill: #efeeed;"/>
  <rect x="126" y="66.8" width="3.2" height="3.2" style="fill: #c24793;"/>
  <rect x="126" y="63.6" width="3.2" height="3.2" style="fill: #c24793;"/>
  <rect x="126" y="60.5" width="3.2" height="3.2" style="fill: #c24793;"/>
  <rect x="126" y="57.3" width="3.2" height="3.2" style="fill: #c24793;"/>
  <rect x="126" y="54.1" width="3.2" height="3.2" style="fill: #c24793;"/>
  <rect x="122.8" y="82.7" width="3.2" height="3.2" style="fill: #634723;"/>
  <rect x="122.8" y="79.5" width="3.2" height="3.2" style="fill: #634723;"/>
  <rect x="122.8" y="76.4" width="3.2" height="3.2" style="fill: #efeeed;"/>
  <rect x="122.8" y="73.2" width="3.2" height="3.2" style="fill: #efeeed;"/>
  <rect x="122.8" y="70" width="3.2" height="3.2" style="fill: #efeeed;"/>
  <rect x="122.8" y="66.8" width="3.2" height="3.2" style="fill: #c24793;"/>
  <rect x="122.8" y="63.6" width="3.2" height="3.2" style="fill: #eac0db;"/>
  <rect x="122.8" y="60.5" width="3.2" height="3.2" style="fill: #c24793;"/>
  <rect x="122.8" y="57.3" width="3.2" height="3.2" style="fill: #c24793;"/>
  <rect x="119.5" y="82.7" width="3.2" height="3.2" style="fill: #634723;"/>
  <rect x="119.5" y="79.5" width="3.2" height="3.2" style="fill: #634723;"/>
  <rect x="119.5" y="76.4" width="3.2" height="3.2" style="fill: #efeeed;"/>
  <rect x="119.5" y="73.2" width="3.2" height="3.2" style="fill: #efeeed;"/>
  <rect x="119.5" y="70" width="3.2" height="3.2" style="fill: #efeeed;"/>
  <rect x="119.5" y="66.8" width="3.2" height="3.2" style="fill: #c24793;"/>
  <rect x="119.5" y="63.6" width="3.2" height="3.2" style="fill: #c24793;"/>
  <rect x="119.5" y="60.5" width="3.2" height="3.2" style="fill: #c24793;"/>
  <rect x="116.3" y="82.7" width="3.2" height="3.2" style="fill: #634723;"/>
  <rect x="116.3" y="79.5" width="3.2" height="3.2" style="fill: #634723;"/>
  <rect x="116.3" y="76.4" width="3.2" height="3.2" style="fill: #efeeed;"/>
  <rect x="116.3" y="73.2" width="3.2" height="3.2" style="fill: #efeeed;"/>
  <rect x="116.3" y="70" width="3.2" height="3.2" style="fill: #efeeed;"/>
  <rect x="113.1" y="82.7" width="3.2" height="3.2" style="fill: #634723;"/>
  <rect x="113.1" y="79.5" width="3.2" height="3.2" style="fill: #634723;"/>
  <rect x="113.1" y="76.4" width="3.2" height="3.2" style="fill: #efeeed;"/>
  <rect x="113.1" y="73.2" width="3.2" height="3.2" style="fill: #efeeed;"/>
  <rect x="113.1" y="70" width="3.2" height="3.2" style="fill: #efeeed;"/>
  <rect x="109.8" y="82.7" width="3.2" height="3.2" style="fill: #634723;"/>
  <rect x="109.8" y="79.5" width="3.2" height="3.2" style="fill: #634723;"/>
  <rect x="109.8" y="76.4" width="3.2" height="3.2" style="fill: #efeeed;"/>
  <rect x="109.8" y="73.2" width="3.2" height="3.2" style="fill: #efeeed;"/>
  <rect x="109.8" y="70" width="3.2" height="3.2" style="fill: #efeeed;"/>
  <rect x="106.6" y="82.7" width="3.2" height="3.2" style="fill: #634723;"/>
  <rect x="106.6" y="79.5" width="3.2" height="3.2" style="fill: #634723;"/>
  <rect x="106.6" y="76.4" width="3.2" height="3.2" style="fill: #efeeed;"/>
  <rect x="106.6" y="73.2" width="3.2" height="3.2" style="fill: #efeeed;"/>
  <rect x="106.6" y="70" width="3.2" height="3.2" style="fill: #efeeed;"/>
  <rect x="106.6" y="66.8" width="3.2" height="3.2" style="fill: #c24793;"/>
  <rect x="106.6" y="63.6" width="3.2" height="3.2" style="fill: #c24793;"/>
  <rect x="103.4" y="82.7" width="3.2" height="3.2" style="fill: #634723;"/>
  <rect x="103.4" y="79.5" width="3.2" height="3.2" style="fill: #634723;"/>
  <rect x="103.4" y="76.4" width="3.2" height="3.2" style="fill: #efeeed;"/>
  <rect x="103.4" y="73.2" width="3.2" height="3.2" style="fill: #efeeed;"/>
  <rect x="103.4" y="70" width="3.2" height="3.2" style="fill: #c24793;"/>
  <rect x="103.4" y="66.8" width="3.2" height="3.2" style="fill: #c24793;"/>
  <rect x="103.4" y="63.6" width="3.2" height="3.2" style="fill: #eac0db;"/>
  <rect x="100.2" y="82.7" width="3.2" height="3.2" style="fill: #634723;"/>
  <rect x="100.2" y="79.5" width="3.2" height="3.2" style="fill: #634723;"/>
  <rect x="100.2" y="76.4" width="3.2" height="3.2" style="fill: #efeeed;"/>
  <rect x="100.2" y="73.2" width="3.2" height="3.2" style="fill: #eac0db;"/>
  <rect x="100.2" y="70" width="3.2" height="3.2" style="fill: #c24793;"/>
  <rect x="100.2" y="66.8" width="3.2" height="3.2" style="fill: #c24793;"/>
  <rect x="100.2" y="63.6" width="3.2" height="3.2" style="fill: #c24793;"/>
  <rect x="96.9" y="82.7" width="3.2" height="3.2" style="fill: #634723;"/>
  <rect x="96.9" y="79.5" width="3.2" height="3.2" style="fill: #634723;"/>
  <rect x="96.9" y="76.4" width="3.2" height="3.2" style="fill: #efeeed;"/>
  <rect x="96.9" y="73.2" width="3.2" height="3.2" style="fill: #c24793;"/>
  <rect x="96.9" y="70" width="3.2" height="3.2" style="fill: #c24793;"/>
  <rect x="96.9" y="66.8" width="3.2" height="3.2" style="fill: #c24793;"/>
  <rect x="96.9" y="63.6" width="3.2" height="3.2" style="fill: #c24793;"/>
  <rect x="96.9" y="60.5" width="3.2" height="3.2" style="fill: #c24793;"/>
  <rect x="93.7" y="82.7" width="3.2" height="3.2" style="fill: #634723;"/>
  <rect x="93.7" y="79.5" width="3.2" height="3.2" style="fill: #634723;"/>
  <rect x="93.7" y="76.4" width="3.2" height="3.2" style="fill: #efeeed;"/>
  <rect x="93.7" y="73.2" width="3.2" height="3.2" style="fill: #c24793;"/>
  <rect x="93.7" y="70" width="3.2" height="3.2" style="fill: #c24793;"/>
  <rect x="93.7" y="66.8" width="3.2" height="3.2" style="fill: #c24793;"/>
  <rect x="93.7" y="63.6" width="3.2" height="3.2" style="fill: #c24793;"/>
  <rect x="93.7" y="60.5" width="3.2" height="3.2" style="fill: #c24793;"/>
  <rect x="90.5" y="82.7" width="3.2" height="3.2" style="fill: #634723;"/>
  <rect x="90.5" y="79.5" width="3.2" height="3.2" style="fill: #634723;"/>
  <rect x="90.5" y="76.4" width="3.2" height="3.2" style="fill: #efeeed;"/>
  <rect x="90.5" y="73.2" width="3.2" height="3.2" style="fill: #c24793;"/>
  <rect x="90.5" y="70" width="3.2" height="3.2" style="fill: #c24793;"/>
  <rect x="90.5" y="66.8" width="3.2" height="3.2" style="fill: #eac0db;"/>
  <rect x="90.5" y="63.6" width="3.2" height="3.2" style="fill: #c24793;"/>
  <rect x="90.5" y="60.5" width="3.2" height="3.2" style="fill: #c24793;"/>
  <rect x="87.2" y="82.7" width="3.2" height="3.2" style="fill: #634723;"/>
  <rect x="87.2" y="79.5" width="3.2" height="3.2" style="fill: #634723;"/>
  <rect x="87.2" y="76.4" width="3.2" height="3.2" style="fill: #efeeed;"/>
  <rect x="87.2" y="73.2" width="3.2" height="3.2" style="fill: #efeeed;"/>
  <rect x="87.2" y="70" width="3.2" height="3.2" style="fill: #c24793;"/>
  <rect x="87.2" y="66.8" width="3.2" height="3.2" style="fill: #c24793;"/>
  <rect x="87.2" y="63.6" width="3.2" height="3.2" style="fill: #c24793;"/>
  <rect x="87.2" y="60.5" width="3.2" height="3.2" style="fill: #c24793;"/>
  <rect x="84" y="82.7" width="3.2" height="3.2" style="fill: #634723;"/>
  <rect x="84" y="79.5" width="3.2" height="3.2" style="fill: #634723;"/>
  <rect x="84" y="76.4" width="3.2" height="3.2" style="fill: #efeeed;"/>
  <rect x="84" y="73.2" width="3.2" height="3.2" style="fill: #efeeed;"/>
  <rect x="84" y="70" width="3.2" height="3.2" style="fill: #c24793;"/>
  <rect x="84" y="66.8" width="3.2" height="3.2" style="fill: #c24793;"/>
  <rect x="84" y="63.6" width="3.2" height="3.2" style="fill: #c24793;"/>
  <rect x="80.8" y="82.7" width="3.2" height="3.2" style="fill: #634723;"/>
  <rect x="80.8" y="79.5" width="3.2" height="3.2" style="fill: #634723;"/>
  <rect x="80.8" y="76.4" width="3.2" height="3.2" style="fill: #efeeed;"/>
  <rect x="80.8" y="73.2" width="3.2" height="3.2" style="fill: #efeeed;"/>
  <rect x="80.8" y="70" width="3.2" height="3.2" style="fill: #c24793;"/>
  <rect x="80.8" y="66.8" width="3.2" height="3.2" style="fill: #eac0db;"/>
  <rect x="80.8" y="63.6" width="3.2" height="3.2" style="fill: #c24793;"/>
  <rect x="77.5" y="82.7" width="3.2" height="3.2" style="fill: #634723;"/>
  <rect x="77.5" y="79.5" width="3.2" height="3.2" style="fill: #c24793;"/>
  <rect x="77.5" y="76.4" width="3.2" height="3.2" style="fill: #c24793;"/>
  <rect x="77.5" y="73.2" width="3.2" height="3.2" style="fill: #c24793;"/>
  <rect x="77.5" y="70" width="3.2" height="3.2" style="fill: #c24793;"/>
  <rect x="77.5" y="66.8" width="3.2" height="3.2" style="fill: #c24793;"/>
  <rect x="77.5" y="63.6" width="3.2" height="3.2" style="fill: #c24793;"/>
  <rect x="74.3" y="82.7" width="3.2" height="3.2" style="fill: #c24793;"/>
  <rect x="74.3" y="79.5" width="3.2" height="3.2" style="fill: #c24793;"/>
  <rect x="74.3" y="76.4" width="3.2" height="3.2" style="fill: #eac0db;"/>
  <rect x="74.3" y="73.2" width="3.2" height="3.2" style="fill: #c24793;"/>
  <rect x="74.3" y="70" width="3.2" height="3.2" style="fill: #c24793;"/>
  <rect x="74.3" y="66.8" width="3.2" height="3.2" style="fill: #c24793;"/>
  <rect x="74.3" y="63.6" width="3.2" height="3.2" style="fill: #c24793;"/>
  <rect x="71.1" y="82.7" width="3.2" height="3.2" style="fill: #c24793;"/>
  <rect x="71.1" y="79.5" width="3.2" height="3.2" style="fill: #c24793;"/>
  <rect x="71.1" y="76.4" width="3.2" height="3.2" style="fill: #c24793;"/>
  <rect x="71.1" y="73.2" width="3.2" height="3.2" style="fill: #c24793;"/>
  <rect x="71.1" y="70" width="3.2" height="3.2" style="fill: #c24793;"/>
  <rect x="71.1" y="66.8" width="3.2" height="3.2" style="fill: #c24793;"/>
  <rect x="71.1" y="63.6" width="3.2" height="3.2" style="fill: #c24793;"/>
  <rect x="71.1" y="60.5" width="3.2" height="3.2" style="fill: #eac0db;"/>
  <rect x="67.8" y="82.7" width="3.2" height="3.2" style="fill: #c24793;"/>
  <rect x="67.8" y="79.5" width="3.2" height="3.2" style="fill: #c24793;"/>
  <rect x="67.8" y="76.4" width="3.2" height="3.2" style="fill: #c24793;"/>
  <rect x="67.8" y="73.2" width="3.2" height="3.2" style="fill: #c24793;"/>
  <rect x="67.8" y="70" width="3.2" height="3.2" style="fill: #eac0db;"/>
  <rect x="67.8" y="66.8" width="3.2" height="3.2" style="fill: #c24793;"/>
  <rect x="67.8" y="63.6" width="3.2" height="3.2" style="fill: #c24793;"/>
  <rect x="67.8" y="60.5" width="3.2" height="3.2" style="fill: #c24793;"/>
  <rect x="64.6" y="85.9" width="3.2" height="3.2" style="fill: #eac0db;"/>
  <rect x="64.6" y="82.7" width="3.2" height="3.2" style="fill: #c24793;"/>
  <rect x="64.6" y="79.5" width="3.2" height="3.2" style="fill: #c24793;"/>
  <rect x="64.6" y="76.4" width="3.2" height="3.2" style="fill: #eac0db;"/>
  <rect x="64.6" y="73.2" width="3.2" height="3.2" style="fill: #c24793;"/>
  <rect x="64.6" y="70" width="3.2" height="3.2" style="fill: #c24793;"/>
  <rect x="64.6" y="66.8" width="3.2" height="3.2" style="fill: #c24793;"/>
  <rect x="64.6" y="63.6" width="3.2" height="3.2" style="fill: #c24793;"/>
  <rect x="64.6" y="60.5" width="3.2" height="3.2" style="fill: #c24793;"/>
  <rect x="61.4" y="85.9" width="3.2" height="3.2" style="fill: #c24793;"/>
  <rect x="61.4" y="82.7" width="3.2" height="3.2" style="fill: #c24793;"/>
  <rect x="61.4" y="79.5" width="3.2" height="3.2" style="fill: #c24793;"/>
  <rect x="61.4" y="76.4" width="3.2" height="3.2" style="fill: #c24793;"/>
  <rect x="61.4" y="73.2" width="3.2" height="3.2" style="fill: #c24793;"/>
  <rect x="61.4" y="70" width="3.2" height="3.2" style="fill: #c24793;"/>
  <rect x="61.4" y="66.8" width="3.2" height="3.2" style="fill: #c24793;"/>
  <rect x="61.4" y="63.6" width="3.2" height="3.2" style="fill: #c24793;"/>
  <rect x="61.4" y="60.5" width="3.2" height="3.2" style="fill: #c24793;"/>
  <rect x="61.4" y="57.3" width="3.2" height="3.2" style="fill: #c24793;"/>
  <rect x="58.2" y="85.9" width="3.2" height="3.2" style="fill: #c24793;"/>
  <rect x="58.2" y="82.7" width="3.2" height="3.2" style="fill: #c24793;"/>
  <rect x="58.2" y="79.5" width="3.2" height="3.2" style="fill: #c24793;"/>
  <rect x="58.2" y="76.4" width="3.2" height="3.2" style="fill: #c24793;"/>
  <rect x="58.2" y="73.2" width="3.2" height="3.2" style="fill: #c24793;"/>
  <rect x="58.2" y="70" width="3.2" height="3.2" style="fill: #c24793;"/>
  <rect x="58.2" y="66.8" width="3.2" height="3.2" style="fill: #c24793;"/>
  <rect x="58.2" y="63.6" width="3.2" height="3.2" style="fill: #eac0db;"/>
  <rect x="58.2" y="60.5" width="3.2" height="3.2" style="fill: #c24793;"/>
  <rect x="58.2" y="57.3" width="3.2" height="3.2" style="fill: #c24793;"/>
  <rect x="54.9" y="85.9" width="3.2" height="3.2" style="fill: #c24793;"/>
  <rect x="54.9" y="82.7" width="3.2" height="3.2" style="fill: #eac0db;"/>
  <rect x="54.9" y="79.5" width="3.2" height="3.2" style="fill: #c24793;"/>
  <rect x="54.9" y="76.4" width="3.2" height="3.2" style="fill: #c24793;"/>
  <rect x="54.9" y="73.2" width="3.2" height="3.2" style="fill: #eac0db;"/>
  <rect x="54.9" y="70" width="3.2" height="3.2" style="fill: #c24793;"/>
  <rect x="54.9" y="66.8" width="3.2" height="3.2" style="fill: #c24793;"/>
  <rect x="54.9" y="63.6" width="3.2" height="3.2" style="fill: #c24793;"/>
  <rect x="54.9" y="60.5" width="3.2" height="3.2" style="fill: #c24793;"/>
  <rect x="54.9" y="57.3" width="3.2" height="3.2" style="fill: #c24793;"/>
  <rect x="51.7" y="85.9" width="3.2" height="3.2" style="fill: #c24793;"/>
  <rect x="51.7" y="82.7" width="3.2" height="3.2" style="fill: #c24793;"/>
  <rect x="51.7" y="79.5" width="3.2" height="3.2" style="fill: #c24793;"/>
  <rect x="51.7" y="76.4" width="3.2" height="3.2" style="fill: #c24793;"/>
  <rect x="51.7" y="73.2" width="3.2" height="3.2" style="fill: #c24793;"/>
  <rect x="51.7" y="70" width="3.2" height="3.2" style="fill: #c24793;"/>
  <rect x="51.7" y="66.8" width="3.2" height="3.2" style="fill: #c24793;"/>
  <rect x="51.7" y="63.6" width="3.2" height="3.2" style="fill: #c24793;"/>
  <rect x="51.7" y="60.5" width="3.2" height="3.2" style="fill: #c24793;"/>
  <rect x="51.7" y="57.3" width="3.2" height="3.2" style="fill: #eac0db;"/>
  <rect x="48.5" y="98.6" width="3.2" height="3.2" style="fill: #997759;"/>
  <rect x="48.5" y="95.5" width="3.2" height="3.2" style="fill: #634723;"/>
  <rect x="48.5" y="92.3" width="3.2" height="3.2" style="fill: #634723;"/>
  <rect x="48.5" y="89.1" width="3.2" height="3.2" style="fill: #634723;"/>
  <rect x="48.5" y="85.9" width="3.2" height="3.2" style="fill: #997759;"/>
  <rect x="48.5" y="82.7" width="3.2" height="3.2" style="fill: #634723;"/>
  <rect x="48.5" y="79.5" width="3.2" height="3.2" style="fill: #c24793;"/>
  <rect x="48.5" y="76.4" width="3.2" height="3.2" style="fill: #c24793;"/>
  <rect x="48.5" y="73.2" width="3.2" height="3.2" style="fill: #c24793;"/>
  <rect x="48.5" y="70" width="3.2" height="3.2" style="fill: #c24793;"/>
  <rect x="48.5" y="66.8" width="3.2" height="3.2" style="fill: #c24793;"/>
  <rect x="48.5" y="63.6" width="3.2" height="3.2" style="fill: #c24793;"/>
  <rect x="48.5" y="60.5" width="3.2" height="3.2" style="fill: #c24793;"/>
  <rect x="45.2" y="98.6" width="3.2" height="3.2" style="fill: #634723;"/>
  <rect x="45.2" y="95.5" width="3.2" height="3.2" style="fill: #997759;"/>
  <rect x="45.2" y="92.3" width="3.2" height="3.2" style="fill: #634723;"/>
  <rect x="45.2" y="89.1" width="3.2" height="3.2" style="fill: #634723;"/>
  <rect x="45.2" y="85.9" width="3.2" height="3.2" style="fill: #997759;"/>
  <rect x="45.2" y="82.7" width="3.2" height="3.2" style="fill: #634723;"/>
  <rect x="45.2" y="79.5" width="3.2" height="3.2" style="fill: #634723;"/>
  <rect x="45.2" y="76.4" width="3.2" height="3.2" style="fill: #efeeed;"/>
  <rect x="45.2" y="73.2" width="3.2" height="3.2" style="fill: #c24793;"/>
  <rect x="45.2" y="70" width="3.2" height="3.2" style="fill: #eac0db;"/>
  <rect x="45.2" y="66.8" width="3.2" height="3.2" style="fill: #c24793;"/>
  <rect x="45.2" y="63.6" width="3.2" height="3.2" style="fill: #c24793;"/>
  <rect x="45.2" y="60.5" width="3.2" height="3.2" style="fill: #c24793;"/>
  <rect x="42" y="98.6" width="3.2" height="3.2" style="fill: #997759;"/>
  <rect x="42" y="95.5" width="3.2" height="3.2" style="fill: #634723;"/>
  <rect x="42" y="92.3" width="3.2" height="3.2" style="fill: #634723;"/>
  <rect x="42" y="89.1" width="3.2" height="3.2" style="fill: #634723;"/>
  <rect x="42" y="85.9" width="3.2" height="3.2" style="fill: #997759;"/>
  <rect x="42" y="82.7" width="3.2" height="3.2" style="fill: #634723;"/>
  <rect x="42" y="79.5" width="3.2" height="3.2" style="fill: #634723;"/>
  <rect x="42" y="76.4" width="3.2" height="3.2" style="fill: #efeeed;"/>
  <rect x="42" y="73.2" width="3.2" height="3.2" style="fill: #efeeed;"/>
  <rect x="42" y="70" width="3.2" height="3.2" style="fill: #c24793;"/>
  <rect x="42" y="66.8" width="3.2" height="3.2" style="fill: #c24793;"/>
  <rect x="42" y="63.6" width="3.2" height="3.2" style="fill: #c24793;"/>
  <rect x="38.8" y="85.9" width="3.2" height="3.2" style="fill: #997759;"/>
  <rect x="38.8" y="82.7" width="3.2" height="3.2" style="fill: #634723;"/>
  <rect x="38.8" y="79.5" width="3.2" height="3.2" style="fill: #634723;"/>
  <rect x="38.8" y="76.4" width="3.2" height="3.2" style="fill: #efeeed;"/>
  <rect x="38.8" y="73.2" width="3.2" height="3.2" style="fill: #efeeed;"/>
  <rect x="38.8" y="70" width="3.2" height="3.2" style="fill: #c24793;"/>
  <rect x="38.8" y="66.8" width="3.2" height="3.2" style="fill: #c24793;"/>
  <rect x="35.5" y="82.7" width="3.2" height="3.2" style="fill: #634723;"/>
  <rect x="35.5" y="79.5" width="3.2" height="3.2" style="fill: #634723;"/>
  <rect x="35.5" y="76.4" width="3.2" height="3.2" style="fill: #efeeed;"/>
  <rect x="35.5" y="73.2" width="3.2" height="3.2" style="fill: #efeeed;"/>
  <rect x="35.5" y="70" width="3.2" height="3.2" style="fill: #efeeed;"/>
  <rect x="35.5" y="66.8" width="3.2" height="3.2" style="fill: #eac0db;"/>
  <rect x="32.3" y="82.7" width="3.2" height="3.2" style="fill: #634723;"/>
  <rect x="32.3" y="79.5" width="3.2" height="3.2" style="fill: #634723;"/>
  <rect x="32.3" y="76.4" width="3.2" height="3.2" style="fill: #efeeed;"/>
  <rect x="32.3" y="73.2" width="3.2" height="3.2" style="fill: #efeeed;"/>
</svg>