<?xml version="1.0" encoding="UTF-8"?>
<svg id="Ebene_1" data-name="Ebene 1" xmlns="http://www.w3.org/2000/svg" width="210" height="105" viewBox="0 0 210 105">
  <g>
    <rect x="9.5" y="92.3" width="3.2" height="3.2" style="fill: #3f3c3b;"/>
    <rect x="9.5" y="89.1" width="3.2" height="3.2" style="fill: #3f3c3b;"/>
    <rect x="9.5" y="85.9" width="3.2" height="3.2" style="fill: #304c20;"/>
    <rect x="12.7" y="92.3" width="3.2" height="3.2" style="fill: #3f3c3b;"/>
    <rect x="12.7" y="89.1" width="3.2" height="3.2" style="fill: #5e6069;"/>
    <rect x="12.7" y="85.9" width="3.2" height="3.2" style="fill: #4e4f57;"/>
    <rect x="12.7" y="70" width="3.2" height="3.2" style="fill: #4e4f57;"/>
    <rect x="12.7" y="66.8" width="3.2" height="3.2" style="fill: #4e4f57;"/>
    <rect x="12.7" y="63.6" width="3.2" height="3.2" style="fill: #8a8c99;"/>
    <rect x="15.9" y="92.3" width="3.2" height="3.2" style="fill: #304c20;"/>
    <rect x="15.9" y="89.1" width="3.2" height="3.2" style="fill: #5e6069;"/>
    <rect x="15.9" y="85.9" width="3.2" height="3.2" style="fill: #4c4a3f;"/>
    <rect x="15.9" y="73.2" width="3.2" height="3.2" style="fill: #4e4f57;"/>
    <rect x="15.9" y="70" width="3.2" height="3.2" style="fill: #4e4f57;"/>
    <rect x="15.9" y="66.8" width="3.2" height="3.2" style="fill: #4e4f57;"/>
    <rect x="15.9" y="63.6" width="3.2" height="3.2" style="fill: #4e4f57;"/>
    <rect x="15.9" y="60.5" width="3.2" height="3.2" style="fill: #c61a18;"/>
    <rect x="15.9" y="57.3" width="3.2" height="3.2" style="fill: #4e4f57;"/>
    <rect x="19.1" y="92.3" width="3.2" height="3.2" style="fill: #304c20;"/>
    <rect x="19.1" y="89.1" width="3.2" height="3.2" style="fill: #5e6069;"/>
    <rect x="19.1" y="85.9" width="3.2" height="3.2" style="fill: #4c4a3f;"/>
    <rect x="19.1" y="76.4" width="3.2" height="3.2" style="fill: #4e4f57;"/>
    <rect x="19.1" y="73.2" width="3.2" height="3.2" style="fill: #3f3c3b;"/>
    <rect x="19.1" y="70" width="3.2" height="3.2" style="fill: #3f3c3b;"/>
    <rect x="19.1" y="66.8" width="3.2" height="3.2" style="fill: #c61a18;"/>
    <rect x="19.1" y="63.6" width="3.2" height="3.2" style="fill: #4e4f57;"/>
    <rect x="19.1" y="60.5" width="3.2" height="3.2" style="fill: #4e4f57;"/>
    <rect x="19.1" y="57.3" width="3.2" height="3.2" style="fill: #c61a18;"/>
    <rect x="19.1" y="54.1" width="3.2" height="3.2" style="fill: #c61a18;"/>
    <rect x="22.3" y="92.3" width="3.2" height="3.2" style="fill: #3f3c3b;"/>
    <rect x="22.3" y="89.1" width="3.2" height="3.2" style="fill: #4b3c1a;"/>
    <rect x="22.3" y="85.9" width="3.2" height="3.2" style="fill: #304c20;"/>
    <rect x="22.3" y="79.5" width="3.2" height="3.2" style="fill: #4e4f57;"/>
    <rect x="22.3" y="76.4" width="3.2" height="3.2" style="fill: #304c20;"/>
    <rect x="22.3" y="73.2" width="3.2" height="3.2" style="fill: #3f3c3b;"/>
    <rect x="22.3" y="70" width="3.2" height="3.2" style="fill: #4e4f57;"/>
    <rect x="22.3" y="66.8" width="3.2" height="3.2" style="fill: #4e4f57;"/>
    <rect x="22.3" y="63.6" width="3.2" height="3.2" style="fill: #c61a18;"/>
    <rect x="25.5" y="92.3" width="3.2" height="3.2" style="fill: #4b3c1a;"/>
    <rect x="25.5" y="89.1" width="3.2" height="3.2" style="fill: #4b3c1a;"/>
    <rect x="25.5" y="85.9" width="3.2" height="3.2" style="fill: #304c20;"/>
    <rect x="25.5" y="79.5" width="3.2" height="3.2" style="fill: #304c20;"/>
    <rect x="25.5" y="76.4" width="3.2" height="3.2" style="fill: #3f3c3b;"/>
    <rect x="25.5" y="73.2" width="3.2" height="3.2" style="fill: #4e4f57;"/>
    <rect x="25.5" y="70" width="3.2" height="3.2" style="fill: #4e4f57;"/>
    <rect x="25.5" y="66.8" width="3.2" height="3.2" style="fill: #70727d;"/>
    <rect x="25.5" y="63.6" width="3.2" height="3.2" style="fill: #c61a18;"/>
    <rect x="25.5" y="60.5" width="3.2" height="3.2" style="fill: #70727d;"/>
    <rect x="28.6" y="92.3" width="3.2" height="3.2" style="fill: #3f3c3b;"/>
    <rect x="28.6" y="89.1" width="3.2" height="3.2" style="fill: #70727d;"/>
    <rect x="28.6" y="85.9" width="3.2" height="3.2" style="fill: #304c20;"/>
    <rect x="28.6" y="82.7" width="3.2" height="3.2" style="fill: #4e4f57;"/>
    <rect x="28.6" y="79.5" width="3.2" height="3.2" style="fill: #3f3c3b;"/>
    <rect x="28.6" y="76.4" width="3.2" height="3.2" style="fill: #304c20;"/>
    <rect x="28.6" y="73.2" width="3.2" height="3.2" style="fill: #70727d;"/>
    <rect x="31.8" y="92.3" width="3.2" height="3.2" style="fill: #4c4a3f;"/>
    <rect x="31.8" y="89.1" width="3.2" height="3.2" style="fill: #70727d;"/>
    <rect x="31.8" y="85.9" width="3.2" height="3.2" style="fill: #4e4f57;"/>
    <rect x="31.8" y="82.7" width="3.2" height="3.2" style="fill: #3f3c3b;"/>
    <rect x="31.8" y="79.5" width="3.2" height="3.2" style="fill: #4b3c1a;"/>
    <rect x="31.8" y="76.4" width="3.2" height="3.2" style="fill: #304c20;"/>
    <rect x="31.8" y="73.2" width="3.2" height="3.2" style="fill: #4e4f57;"/>
    <rect x="31.8" y="70" width="3.2" height="3.2" style="fill: #70727d;"/>
    <rect x="35" y="92.3" width="3.2" height="3.2" style="fill: #4c4a3f;"/>
    <rect x="35" y="89.1" width="3.2" height="3.2" style="fill: #70727d;"/>
    <rect x="35" y="85.9" width="3.2" height="3.2" style="fill: #3f3c3b;"/>
    <rect x="35" y="82.7" width="3.2" height="3.2" style="fill: #4b3c1a;"/>
    <rect x="35" y="79.5" width="3.2" height="3.2" style="fill: #4e4f57;"/>
    <rect x="35" y="76.4" width="3.2" height="3.2" style="fill: #4b3c1a;"/>
    <rect x="35" y="73.2" width="3.2" height="3.2" style="fill: #c61a18;"/>
    <rect x="35" y="70" width="3.2" height="3.2" style="fill: #c61a18;"/>
    <rect x="35" y="66.8" width="3.2" height="3.2" style="fill: #70727d;"/>
    <rect x="38.2" y="92.3" width="3.2" height="3.2" style="fill: #3f3c3b;"/>
    <rect x="38.2" y="89.1" width="3.2" height="3.2" style="fill: #70727d;"/>
    <rect x="38.2" y="85.9" width="3.2" height="3.2" style="fill: #3f3c3b;"/>
    <rect x="38.2" y="82.7" width="3.2" height="3.2" style="fill: #4b3c1a;"/>
    <rect x="38.2" y="79.5" width="3.2" height="3.2" style="fill: #c61a18;"/>
    <rect x="38.2" y="76.4" width="3.2" height="3.2" style="fill: #70727d;"/>
    <rect x="41.4" y="92.3" width="3.2" height="3.2" style="fill: #3f3c3b;"/>
    <rect x="41.4" y="89.1" width="3.2" height="3.2" style="fill: #70727d;"/>
    <rect x="41.4" y="85.9" width="3.2" height="3.2" style="fill: #3f3c3b;"/>
    <rect x="41.4" y="82.7" width="3.2" height="3.2" style="fill: #4e4f57;"/>
    <rect x="41.4" y="79.5" width="3.2" height="3.2" style="fill: #4e4f57;"/>
    <rect x="41.4" y="76.4" width="3.2" height="3.2" style="fill: #c61a18;"/>
    <rect x="41.4" y="73.2" width="3.2" height="3.2" style="fill: #c61a18;"/>
    <rect x="44.5" y="92.3" width="3.2" height="3.2" style="fill: #4e4f57;"/>
    <rect x="44.5" y="89.1" width="3.2" height="3.2" style="fill: #5e6069;"/>
    <rect x="44.5" y="85.9" width="3.2" height="3.2" style="fill: #5e6069;"/>
    <rect x="44.5" y="82.7" width="3.2" height="3.2" style="fill: #70727d;"/>
    <rect x="47.7" y="92.3" width="3.2" height="3.2" style="fill: #4e4f57;"/>
    <rect x="47.7" y="89.1" width="3.2" height="3.2" style="fill: #4e4f57;"/>
    <rect x="47.7" y="85.9" width="3.2" height="3.2" style="fill: #3f3c3b;"/>
    <rect x="47.7" y="82.7" width="3.2" height="3.2" style="fill: #3f3c3b;"/>
    <rect x="47.7" y="79.5" width="3.2" height="3.2" style="fill: #70727d;"/>
    <rect x="50.9" y="92.3" width="3.2" height="3.2" style="fill: #4e4f57;"/>
    <rect x="50.9" y="89.1" width="3.2" height="3.2" style="fill: #70727d;"/>
    <rect x="50.9" y="85.9" width="3.2" height="3.2" style="fill: #3f3c3b;"/>
    <rect x="50.9" y="82.7" width="3.2" height="3.2" style="fill: #3f3c3b;"/>
    <rect x="50.9" y="79.5" width="3.2" height="3.2" style="fill: #8a8c99;"/>
    <rect x="54.1" y="92.3" width="3.2" height="3.2" style="fill: #4e4f57;"/>
    <rect x="54.1" y="89.1" width="3.2" height="3.2" style="fill: #4e4f57;"/>
    <rect x="54.1" y="85.9" width="3.2" height="3.2" style="fill: #70727d;"/>
    <rect x="54.1" y="82.7" width="3.2" height="3.2" style="fill: #70727d;"/>
    <rect x="57.3" y="92.3" width="3.2" height="3.2" style="fill: #3f3c3b;"/>
    <rect x="57.3" y="89.1" width="3.2" height="3.2" style="fill: #4e4f57;"/>
    <rect x="57.3" y="85.9" width="3.2" height="3.2" style="fill: #3f3c3b;"/>
    <rect x="57.3" y="82.7" width="3.2" height="3.2" style="fill: #4e4f57;"/>
    <rect x="57.3" y="79.5" width="3.2" height="3.2" style="fill: #4e4f57;"/>
    <rect x="57.3" y="76.4" width="3.2" height="3.2" style="fill: #70727d;"/>
    <rect x="57.3" y="73.2" width="3.2" height="3.2" style="fill: #c61a18;"/>
    <rect x="60.5" y="92.3" width="3.2" height="3.2" style="fill: #304c20;"/>
    <rect x="60.5" y="89.1" width="3.2" height="3.2" style="fill: #5e6069;"/>
    <rect x="60.5" y="85.9" width="3.2" height="3.2" style="fill: #3f3c3b;"/>
    <rect x="60.5" y="82.7" width="3.2" height="3.2" style="fill: #c61a18;"/>
    <rect x="60.5" y="79.5" width="3.2" height="3.2" style="fill: #c61a18;"/>
    <rect x="60.5" y="76.4" width="3.2" height="3.2" style="fill: #c61a18;"/>
    <rect x="63.6" y="92.3" width="3.2" height="3.2" style="fill: #3f3c3b;"/>
    <rect x="63.6" y="89.1" width="3.2" height="3.2" style="fill: #4b3c1a;"/>
    <rect x="63.6" y="85.9" width="3.2" height="3.2" style="fill: #3f3c3b;"/>
    <rect x="63.6" y="82.7" width="3.2" height="3.2" style="fill: #304c20;"/>
    <rect x="63.6" y="79.5" width="3.2" height="3.2" style="fill: #4c4a3f;"/>
    <rect x="63.6" y="76.4" width="3.2" height="3.2" style="fill: #4e4f57;"/>
    <rect x="66.8" y="92.3" width="3.2" height="3.2" style="fill: #3f3c3b;"/>
    <rect x="66.8" y="89.1" width="3.2" height="3.2" style="fill: #4b3c1a;"/>
    <rect x="66.8" y="85.9" width="3.2" height="3.2" style="fill: #4e4f57;"/>
    <rect x="66.8" y="82.7" width="3.2" height="3.2" style="fill: #3f3c3b;"/>
    <rect x="66.8" y="79.5" width="3.2" height="3.2" style="fill: #304c20;"/>
    <rect x="66.8" y="76.4" width="3.2" height="3.2" style="fill: #70727d;"/>
    <rect x="66.8" y="73.2" width="3.2" height="3.2" style="fill: #4e4f57;"/>
    <rect x="66.8" y="70" width="3.2" height="3.2" style="fill: #70727d;"/>
    <rect x="66.8" y="66.8" width="3.2" height="3.2" style="fill: #c61a18;"/>
    <rect x="70" y="92.3" width="3.2" height="3.2" style="fill: #304c20;"/>
    <rect x="70" y="89.1" width="3.2" height="3.2" style="fill: #304c20;"/>
    <rect x="70" y="85.9" width="3.2" height="3.2" style="fill: #4e4f57;"/>
    <rect x="70" y="82.7" width="3.2" height="3.2" style="fill: #304c20;"/>
    <rect x="70" y="79.5" width="3.2" height="3.2" style="fill: #3f3c3b;"/>
    <rect x="70" y="76.4" width="3.2" height="3.2" style="fill: #4b3c1a;"/>
    <rect x="70" y="73.2" width="3.2" height="3.2" style="fill: #4c4a3f;"/>
    <rect x="70" y="70" width="3.2" height="3.2" style="fill: #c61a18;"/>
    <rect x="73.2" y="92.3" width="3.2" height="3.2" style="fill: #3f3c3b;"/>
    <rect x="73.2" y="89.1" width="3.2" height="3.2" style="fill: #304c20;"/>
    <rect x="73.2" y="85.9" width="3.2" height="3.2" style="fill: #4e4f57;"/>
    <rect x="73.2" y="79.5" width="3.2" height="3.2" style="fill: #4b3c1a;"/>
    <rect x="73.2" y="76.4" width="3.2" height="3.2" style="fill: #3f3c3b;"/>
    <rect x="73.2" y="73.2" width="3.2" height="3.2" style="fill: #4c4a3f;"/>
    <rect x="76.4" y="92.3" width="3.2" height="3.2" style="fill: #3f3c3b;"/>
    <rect x="76.4" y="89.1" width="3.2" height="3.2" style="fill: #5e6069;"/>
    <rect x="76.4" y="85.9" width="3.2" height="3.2" style="fill: #4e4f57;"/>
    <rect x="76.4" y="79.5" width="3.2" height="3.2" style="fill: #4b3c1a;"/>
    <rect x="76.4" y="76.4" width="3.2" height="3.2" style="fill: #4e4f57;"/>
    <rect x="76.4" y="73.2" width="3.2" height="3.2" style="fill: #3f3c3b;"/>
    <rect x="76.4" y="70" width="3.2" height="3.2" style="fill: #4e4f57;"/>
    <rect x="76.4" y="66.8" width="3.2" height="3.2" style="fill: #4e4f57;"/>
    <rect x="76.4" y="63.6" width="3.2" height="3.2" style="fill: #70727d;"/>
    <rect x="76.4" y="60.5" width="3.2" height="3.2" style="fill: #c61a18;"/>
    <rect x="79.5" y="92.3" width="3.2" height="3.2" style="fill: #3f3c3b;"/>
    <rect x="79.5" y="89.1" width="3.2" height="3.2" style="fill: #4b3c1a;"/>
    <rect x="79.5" y="85.9" width="3.2" height="3.2" style="fill: #4e4f57;"/>
    <rect x="79.5" y="76.4" width="3.2" height="3.2" style="fill: #c61a18;"/>
    <rect x="79.5" y="73.2" width="3.2" height="3.2" style="fill: #c61a18;"/>
    <rect x="79.5" y="70" width="3.2" height="3.2" style="fill: #c61a18;"/>
    <rect x="79.5" y="66.8" width="3.2" height="3.2" style="fill: #4e4f57;"/>
    <rect x="79.5" y="63.6" width="3.2" height="3.2" style="fill: #4e4f57;"/>
    <rect x="82.7" y="92.3" width="3.2" height="3.2" style="fill: #3f3c3b;"/>
    <rect x="82.7" y="89.1" width="3.2" height="3.2" style="fill: #4b3c1a;"/>
    <rect x="82.7" y="85.9" width="3.2" height="3.2" style="fill: #304c20;"/>
    <rect x="82.7" y="76.4" width="3.2" height="3.2" style="fill: #4e4f57;"/>
    <rect x="82.7" y="73.2" width="3.2" height="3.2" style="fill: #3f3c3b;"/>
    <rect x="82.7" y="70" width="3.2" height="3.2" style="fill: #3f3c3b;"/>
    <rect x="82.7" y="66.8" width="3.2" height="3.2" style="fill: #c61a18;"/>
    <rect x="82.7" y="63.6" width="3.2" height="3.2" style="fill: #c61a18;"/>
    <rect x="82.7" y="60.5" width="3.2" height="3.2" style="fill: #c61a18;"/>
    <rect x="82.7" y="57.3" width="3.2" height="3.2" style="fill: #c61a18;"/>
    <rect x="82.7" y="54.1" width="3.2" height="3.2" style="fill: #c61a18;"/>
    <rect x="85.9" y="92.3" width="3.2" height="3.2" style="fill: #4b3c1a;"/>
    <rect x="85.9" y="89.1" width="3.2" height="3.2" style="fill: #304c20;"/>
    <rect x="85.9" y="85.9" width="3.2" height="3.2" style="fill: #4e4f57;"/>
    <rect x="85.9" y="73.2" width="3.2" height="3.2" style="fill: #4e4f57;"/>
    <rect x="85.9" y="70" width="3.2" height="3.2" style="fill: #4c4a3f;"/>
    <rect x="85.9" y="66.8" width="3.2" height="3.2" style="fill: #4c4a3f;"/>
    <rect x="85.9" y="63.6" width="3.2" height="3.2" style="fill: #4c4a3f;"/>
    <rect x="85.9" y="60.5" width="3.2" height="3.2" style="fill: #4e4f57;"/>
    <rect x="85.9" y="57.3" width="3.2" height="3.2" style="fill: #70727d;"/>
    <rect x="89.1" y="70" width="3.2" height="3.2" style="fill: #4e4f57;"/>
    <rect x="89.1" y="66.8" width="3.2" height="3.2" style="fill: #4c4a3f;"/>
    <rect x="89.1" y="63.6" width="3.2" height="3.2" style="fill: #70727d;"/>
  </g>
  <g>
    <rect x="114.5" y="92.3" width="3.2" height="3.2" style="fill: #3f3c3b;"/>
    <rect x="114.5" y="89.1" width="3.2" height="3.2" style="fill: #3f3c3b;"/>
    <rect x="114.5" y="85.9" width="3.2" height="3.2" style="fill: #304c20;"/>
    <rect x="117.7" y="92.3" width="3.2" height="3.2" style="fill: #3f3c3b;"/>
    <rect x="117.7" y="89.1" width="3.2" height="3.2" style="fill: #5e6069;"/>
    <rect x="117.7" y="85.9" width="3.2" height="3.2" style="fill: #4e4f57;"/>
    <rect x="120.9" y="92.3" width="3.2" height="3.2" style="fill: #304c20;"/>
    <rect x="120.9" y="89.1" width="3.2" height="3.2" style="fill: #5e6069;"/>
    <rect x="120.9" y="85.9" width="3.2" height="3.2" style="fill: #4c4a3f;"/>
    <rect x="120.9" y="66.8" width="3.2" height="3.2" style="fill: #4e4f57;"/>
    <rect x="120.9" y="63.6" width="3.2" height="3.2" style="fill: #4e4f57;"/>
    <rect x="120.9" y="60.5" width="3.2" height="3.2" style="fill: #4e4f57;"/>
    <rect x="120.9" y="57.3" width="3.2" height="3.2" style="fill: #4e4f57;"/>
    <rect x="124.1" y="92.3" width="3.2" height="3.2" style="fill: #304c20;"/>
    <rect x="124.1" y="89.1" width="3.2" height="3.2" style="fill: #5e6069;"/>
    <rect x="124.1" y="85.9" width="3.2" height="3.2" style="fill: #4c4a3f;"/>
    <rect x="124.1" y="70" width="3.2" height="3.2" style="fill: #3f3c3b;"/>
    <rect x="124.1" y="66.8" width="3.2" height="3.2" style="fill: #c61a18;"/>
    <rect x="124.1" y="63.6" width="3.2" height="3.2" style="fill: #4e4f57;"/>
    <rect x="124.1" y="60.5" width="3.2" height="3.2" style="fill: #4e4f57;"/>
    <rect x="124.1" y="57.3" width="3.2" height="3.2" style="fill: #c61a18;"/>
    <rect x="124.1" y="54.1" width="3.2" height="3.2" style="fill: #c61a18;"/>
    <rect x="127.3" y="92.3" width="3.2" height="3.2" style="fill: #3f3c3b;"/>
    <rect x="127.3" y="89.1" width="3.2" height="3.2" style="fill: #4b3c1a;"/>
    <rect x="127.3" y="85.9" width="3.2" height="3.2" style="fill: #304c20;"/>
    <rect x="127.3" y="73.2" width="3.2" height="3.2" style="fill: #3f3c3b;"/>
    <rect x="127.3" y="70" width="3.2" height="3.2" style="fill: #4e4f57;"/>
    <rect x="127.3" y="66.8" width="3.2" height="3.2" style="fill: #4e4f57;"/>
    <rect x="127.3" y="63.6" width="3.2" height="3.2" style="fill: #c61a18;"/>
    <rect x="127.3" y="60.5" width="3.2" height="3.2" style="fill: #70727d;"/>
    <rect x="127.3" y="54.1" width="3.2" height="3.2" style="fill: #4e4f57;"/>
    <rect x="127.3" y="50.9" width="3.2" height="3.2" style="fill: #c61a18;"/>
    <rect x="130.5" y="92.3" width="3.2" height="3.2" style="fill: #4b3c1a;"/>
    <rect x="130.5" y="89.1" width="3.2" height="3.2" style="fill: #4b3c1a;"/>
    <rect x="130.5" y="85.9" width="3.2" height="3.2" style="fill: #304c20;"/>
    <rect x="130.5" y="76.4" width="3.2" height="3.2" style="fill: #3f3c3b;"/>
    <rect x="130.5" y="73.2" width="3.2" height="3.2" style="fill: #4e4f57;"/>
    <rect x="130.5" y="70" width="3.2" height="3.2" style="fill: #4e4f57;"/>
    <rect x="130.5" y="66.8" width="3.2" height="3.2" style="fill: #70727d;"/>
    <rect x="130.5" y="63.6" width="3.2" height="3.2" style="fill: #c61a18;"/>
    <rect x="130.5" y="60.5" width="3.2" height="3.2" style="fill: #70727d;"/>
    <rect x="133.6" y="92.3" width="3.2" height="3.2" style="fill: #3f3c3b;"/>
    <rect x="133.6" y="89.1" width="3.2" height="3.2" style="fill: #70727d;"/>
    <rect x="133.6" y="85.9" width="3.2" height="3.2" style="fill: #304c20;"/>
    <rect x="133.6" y="82.7" width="3.2" height="3.2" style="fill: #4e4f57;"/>
    <rect x="133.6" y="79.5" width="3.2" height="3.2" style="fill: #3f3c3b;"/>
    <rect x="133.6" y="76.4" width="3.2" height="3.2" style="fill: #304c20;"/>
    <rect x="133.6" y="73.2" width="3.2" height="3.2" style="fill: #70727d;"/>
    <rect x="133.6" y="70" width="3.2" height="3.2" style="fill: #4e4f57;"/>
    <rect x="133.6" y="66.8" width="3.2" height="3.2" style="fill: #4e4f57;"/>
    <rect x="133.6" y="57.3" width="3.2" height="3.2" style="fill: #70727d;"/>
    <rect x="136.8" y="92.3" width="3.2" height="3.2" style="fill: #4c4a3f;"/>
    <rect x="136.8" y="89.1" width="3.2" height="3.2" style="fill: #70727d;"/>
    <rect x="136.8" y="85.9" width="3.2" height="3.2" style="fill: #4e4f57;"/>
    <rect x="136.8" y="82.7" width="3.2" height="3.2" style="fill: #3f3c3b;"/>
    <rect x="136.8" y="79.5" width="3.2" height="3.2" style="fill: #4b3c1a;"/>
    <rect x="136.8" y="76.4" width="3.2" height="3.2" style="fill: #304c20;"/>
    <rect x="136.8" y="73.2" width="3.2" height="3.2" style="fill: #4e4f57;"/>
    <rect x="136.8" y="70" width="3.2" height="3.2" style="fill: #70727d;"/>
    <rect x="136.8" y="66.8" width="3.2" height="3.2" style="fill: #4e4f57;"/>
    <rect x="140" y="92.3" width="3.2" height="3.2" style="fill: #4c4a3f;"/>
    <rect x="140" y="89.1" width="3.2" height="3.2" style="fill: #70727d;"/>
    <rect x="140" y="85.9" width="3.2" height="3.2" style="fill: #3f3c3b;"/>
    <rect x="140" y="82.7" width="3.2" height="3.2" style="fill: #4b3c1a;"/>
    <rect x="140" y="79.5" width="3.2" height="3.2" style="fill: #4e4f57;"/>
    <rect x="140" y="76.4" width="3.2" height="3.2" style="fill: #4b3c1a;"/>
    <rect x="140" y="73.2" width="3.2" height="3.2" style="fill: #c61a18;"/>
    <rect x="140" y="70" width="3.2" height="3.2" style="fill: #c61a18;"/>
    <rect x="140" y="66.8" width="3.2" height="3.2" style="fill: #70727d;"/>
    <rect x="143.2" y="92.3" width="3.2" height="3.2" style="fill: #3f3c3b;"/>
    <rect x="143.2" y="89.1" width="3.2" height="3.2" style="fill: #70727d;"/>
    <rect x="143.2" y="85.9" width="3.2" height="3.2" style="fill: #3f3c3b;"/>
    <rect x="143.2" y="82.7" width="3.2" height="3.2" style="fill: #4b3c1a;"/>
    <rect x="143.2" y="79.5" width="3.2" height="3.2" style="fill: #c61a18;"/>
    <rect x="143.2" y="76.4" width="3.2" height="3.2" style="fill: #70727d;"/>
    <rect x="143.2" y="73.2" width="3.2" height="3.2" style="fill: #4e4f57;"/>
    <rect x="143.2" y="70" width="3.2" height="3.2" style="fill: #4e4f57;"/>
    <rect x="143.2" y="63.6" width="3.2" height="3.2" style="fill: #70727d;"/>
    <rect x="146.4" y="92.3" width="3.2" height="3.2" style="fill: #3f3c3b;"/>
    <rect x="146.4" y="89.1" width="3.2" height="3.2" style="fill: #70727d;"/>
    <rect x="146.4" y="85.9" width="3.2" height="3.2" style="fill: #3f3c3b;"/>
    <rect x="146.4" y="82.7" width="3.2" height="3.2" style="fill: #4e4f57;"/>
    <rect x="146.4" y="79.5" width="3.2" height="3.2" style="fill: #4e4f57;"/>
    <rect x="146.4" y="76.4" width="3.2" height="3.2" style="fill: #c61a18;"/>
    <rect x="146.4" y="73.2" width="3.2" height="3.2" style="fill: #c61a18;"/>
    <rect x="149.5" y="92.3" width="3.2" height="3.2" style="fill: #4e4f57;"/>
    <rect x="149.5" y="89.1" width="3.2" height="3.2" style="fill: #5e6069;"/>
    <rect x="149.5" y="85.9" width="3.2" height="3.2" style="fill: #5e6069;"/>
    <rect x="149.5" y="82.7" width="3.2" height="3.2" style="fill: #70727d;"/>
    <rect x="149.5" y="73.2" width="3.2" height="3.2" style="fill: #4e4f57;"/>
    <rect x="149.5" y="70" width="3.2" height="3.2" style="fill: #4e4f57;"/>
    <rect x="152.7" y="92.3" width="3.2" height="3.2" style="fill: #4e4f57;"/>
    <rect x="152.7" y="89.1" width="3.2" height="3.2" style="fill: #4e4f57;"/>
    <rect x="152.7" y="85.9" width="3.2" height="3.2" style="fill: #3f3c3b;"/>
    <rect x="152.7" y="82.7" width="3.2" height="3.2" style="fill: #3f3c3b;"/>
    <rect x="152.7" y="79.5" width="3.2" height="3.2" style="fill: #70727d;"/>
    <rect x="155.9" y="92.3" width="3.2" height="3.2" style="fill: #4e4f57;"/>
    <rect x="155.9" y="89.1" width="3.2" height="3.2" style="fill: #70727d;"/>
    <rect x="155.9" y="85.9" width="3.2" height="3.2" style="fill: #3f3c3b;"/>
    <rect x="155.9" y="82.7" width="3.2" height="3.2" style="fill: #3f3c3b;"/>
    <rect x="155.9" y="79.5" width="3.2" height="3.2" style="fill: #8a8c99;"/>
    <rect x="159.1" y="92.3" width="3.2" height="3.2" style="fill: #4e4f57;"/>
    <rect x="159.1" y="89.1" width="3.2" height="3.2" style="fill: #4e4f57;"/>
    <rect x="159.1" y="85.9" width="3.2" height="3.2" style="fill: #70727d;"/>
    <rect x="159.1" y="82.7" width="3.2" height="3.2" style="fill: #70727d;"/>
    <rect x="159.1" y="70" width="3.2" height="3.2" style="fill: #4e4f57;"/>
    <rect x="162.3" y="92.3" width="3.2" height="3.2" style="fill: #3f3c3b;"/>
    <rect x="162.3" y="89.1" width="3.2" height="3.2" style="fill: #4e4f57;"/>
    <rect x="162.3" y="85.9" width="3.2" height="3.2" style="fill: #3f3c3b;"/>
    <rect x="162.3" y="82.7" width="3.2" height="3.2" style="fill: #4e4f57;"/>
    <rect x="162.3" y="79.5" width="3.2" height="3.2" style="fill: #4e4f57;"/>
    <rect x="162.3" y="76.4" width="3.2" height="3.2" style="fill: #70727d;"/>
    <rect x="162.3" y="73.2" width="3.2" height="3.2" style="fill: #c61a18;"/>
    <rect x="165.5" y="92.3" width="3.2" height="3.2" style="fill: #304c20;"/>
    <rect x="165.5" y="89.1" width="3.2" height="3.2" style="fill: #5e6069;"/>
    <rect x="165.5" y="85.9" width="3.2" height="3.2" style="fill: #3f3c3b;"/>
    <rect x="165.5" y="82.7" width="3.2" height="3.2" style="fill: #c61a18;"/>
    <rect x="165.5" y="79.5" width="3.2" height="3.2" style="fill: #c61a18;"/>
    <rect x="165.5" y="76.4" width="3.2" height="3.2" style="fill: #c61a18;"/>
    <rect x="168.6" y="92.3" width="3.2" height="3.2" style="fill: #3f3c3b;"/>
    <rect x="168.6" y="89.1" width="3.2" height="3.2" style="fill: #4b3c1a;"/>
    <rect x="168.6" y="85.9" width="3.2" height="3.2" style="fill: #3f3c3b;"/>
    <rect x="168.6" y="82.7" width="3.2" height="3.2" style="fill: #304c20;"/>
    <rect x="168.6" y="79.5" width="3.2" height="3.2" style="fill: #4c4a3f;"/>
    <rect x="168.6" y="76.4" width="3.2" height="3.2" style="fill: #4e4f57;"/>
    <rect x="168.6" y="73.2" width="3.2" height="3.2" style="fill: #4c4a3f;"/>
    <rect x="168.6" y="63.6" width="3.2" height="3.2" style="fill: #c61a18;"/>
    <rect x="171.8" y="92.3" width="3.2" height="3.2" style="fill: #3f3c3b;"/>
    <rect x="171.8" y="89.1" width="3.2" height="3.2" style="fill: #4b3c1a;"/>
    <rect x="171.8" y="85.9" width="3.2" height="3.2" style="fill: #4e4f57;"/>
    <rect x="171.8" y="82.7" width="3.2" height="3.2" style="fill: #3f3c3b;"/>
    <rect x="171.8" y="79.5" width="3.2" height="3.2" style="fill: #304c20;"/>
    <rect x="171.8" y="76.4" width="3.2" height="3.2" style="fill: #70727d;"/>
    <rect x="171.8" y="73.2" width="3.2" height="3.2" style="fill: #4e4f57;"/>
    <rect x="171.8" y="70" width="3.2" height="3.2" style="fill: #70727d;"/>
    <rect x="171.8" y="66.8" width="3.2" height="3.2" style="fill: #c61a18;"/>
    <rect x="175" y="92.3" width="3.2" height="3.2" style="fill: #304c20;"/>
    <rect x="175" y="89.1" width="3.2" height="3.2" style="fill: #304c20;"/>
    <rect x="175" y="85.9" width="3.2" height="3.2" style="fill: #4e4f57;"/>
    <rect x="175" y="82.7" width="3.2" height="3.2" style="fill: #304c20;"/>
    <rect x="175" y="79.5" width="3.2" height="3.2" style="fill: #3f3c3b;"/>
    <rect x="175" y="76.4" width="3.2" height="3.2" style="fill: #4b3c1a;"/>
    <rect x="175" y="73.2" width="3.2" height="3.2" style="fill: #304c20;"/>
    <rect x="175" y="70" width="3.2" height="3.2" style="fill: #3f3c3b;"/>
    <rect x="178.2" y="92.3" width="3.2" height="3.2" style="fill: #3f3c3b;"/>
    <rect x="178.2" y="89.1" width="3.2" height="3.2" style="fill: #304c20;"/>
    <rect x="178.2" y="85.9" width="3.2" height="3.2" style="fill: #4e4f57;"/>
    <rect x="178.2" y="79.5" width="3.2" height="3.2" style="fill: #4b3c1a;"/>
    <rect x="178.2" y="76.4" width="3.2" height="3.2" style="fill: #3f3c3b;"/>
    <rect x="178.2" y="73.2" width="3.2" height="3.2" style="fill: #4c4a3f;"/>
    <rect x="178.2" y="70" width="3.2" height="3.2" style="fill: #4c4a3f;"/>
    <rect x="178.2" y="57.3" width="3.2" height="3.2" style="fill: #c61a18;"/>
    <rect x="181.4" y="92.3" width="3.2" height="3.2" style="fill: #3f3c3b;"/>
    <rect x="181.4" y="89.1" width="3.2" height="3.2" style="fill: #5e6069;"/>
    <rect x="181.4" y="85.9" width="3.2" height="3.2" style="fill: #4e4f57;"/>
    <rect x="181.4" y="76.4" width="3.2" height="3.2" style="fill: #4e4f57;"/>
    <rect x="181.4" y="73.2" width="3.2" height="3.2" style="fill: #3f3c3b;"/>
    <rect x="181.4" y="70" width="3.2" height="3.2" style="fill: #4e4f57;"/>
    <rect x="181.4" y="66.8" width="3.2" height="3.2" style="fill: #70727d;"/>
    <rect x="181.4" y="63.6" width="3.2" height="3.2" style="fill: #c61a18;"/>
    <rect x="181.4" y="60.5" width="3.2" height="3.2" style="fill: #c61a18;"/>
    <rect x="184.5" y="92.3" width="3.2" height="3.2" style="fill: #3f3c3b;"/>
    <rect x="184.5" y="89.1" width="3.2" height="3.2" style="fill: #4b3c1a;"/>
    <rect x="184.5" y="85.9" width="3.2" height="3.2" style="fill: #4e4f57;"/>
    <rect x="184.5" y="76.4" width="3.2" height="3.2" style="fill: #c61a18;"/>
    <rect x="184.5" y="73.2" width="3.2" height="3.2" style="fill: #c61a18;"/>
    <rect x="184.5" y="70" width="3.2" height="3.2" style="fill: #c61a18;"/>
    <rect x="184.5" y="66.8" width="3.2" height="3.2" style="fill: #4e4f57;"/>
    <rect x="184.5" y="63.6" width="3.2" height="3.2" style="fill: #4e4f57;"/>
    <rect x="184.5" y="60.5" width="3.2" height="3.2" style="fill: #70727d;"/>
    <rect x="184.5" y="54.1" width="3.2" height="3.2" style="fill: #70727d;"/>
    <rect x="184.5" y="50.9" width="3.2" height="3.2" style="fill: #c61a18;"/>
    <rect x="187.7" y="92.3" width="3.2" height="3.2" style="fill: #3f3c3b;"/>
    <rect x="187.7" y="89.1" width="3.2" height="3.2" style="fill: #4b3c1a;"/>
    <rect x="187.7" y="85.9" width="3.2" height="3.2" style="fill: #304c20;"/>
    <rect x="187.7" y="73.2" width="3.2" height="3.2" style="fill: #3f3c3b;"/>
    <rect x="187.7" y="70" width="3.2" height="3.2" style="fill: #3f3c3b;"/>
    <rect x="187.7" y="66.8" width="3.2" height="3.2" style="fill: #c61a18;"/>
    <rect x="187.7" y="63.6" width="3.2" height="3.2" style="fill: #c61a18;"/>
    <rect x="187.7" y="60.5" width="3.2" height="3.2" style="fill: #4e4f57;"/>
    <rect x="187.7" y="57.3" width="3.2" height="3.2" style="fill: #4e4f57;"/>
    <rect x="187.7" y="54.1" width="3.2" height="3.2" style="fill: #70727d;"/>
    <rect x="190.9" y="92.3" width="3.2" height="3.2" style="fill: #4b3c1a;"/>
    <rect x="190.9" y="89.1" width="3.2" height="3.2" style="fill: #304c20;"/>
    <rect x="190.9" y="85.9" width="3.2" height="3.2" style="fill: #4e4f57;"/>
    <rect x="190.9" y="70" width="3.2" height="3.2" style="fill: #4c4a3f;"/>
    <rect x="190.9" y="66.8" width="3.2" height="3.2" style="fill: #4c4a3f;"/>
    <rect x="190.9" y="63.6" width="3.2" height="3.2" style="fill: #4c4a3f;"/>
    <rect x="190.9" y="60.5" width="3.2" height="3.2" style="fill: #4e4f57;"/>
    <rect x="190.9" y="57.3" width="3.2" height="3.2" style="fill: #4e4f57;"/>
  </g>
</svg>