<?xml version="1.0" encoding="UTF-8"?>
<svg id="Ebene_2" data-name="Ebene 2" xmlns="http://www.w3.org/2000/svg" viewBox="0 0 50 50">
  <defs>
    <style>
      .cls-1 {
        fill: #f15a24;
      }

      .cls-2 {
        fill: #88b540;
      }

      .cls-3 {
        fill: #fcd515;
      }

      .cls-4 {
        fill: #9ec64f;
      }

      .cls-5 {
        fill: #0071bc;
      }

      .cls-6 {
        fill: #30477a;
      }

      .cls-7 {
        fill: #fff;
      }

      .cls-8 {
        fill: #f7931e;
      }

      .cls-9 {
        fill: #ffbc00;
      }

      .cls-10 {
        fill: #c1272d;
      }

      .cls-11 {
        fill: #f4f0ef;
      }

      .cls-12 {
        fill: #75161d;
      }
    </style>
  </defs>
  <rect class="cls-10" x="46.87" y="46.87" width="3.13" height="3.13"/>
  <rect class="cls-10" x="46.87" y="40.62" width="3.13" height="3.13"/>
  <rect class="cls-8" x="46.87" y="28.12" width="3.13" height="3.13"/>
  <rect class="cls-8" x="46.87" y="21.87" width="3.13" height="3.13"/>
  <rect class="cls-3" x="46.87" y="6.25" width="3.13" height="3.12"/>
  <rect class="cls-3" x="46.87" y="0" width="3.13" height="3.12"/>
  <rect class="cls-10" x="43.75" y="46.87" width="3.12" height="3.13"/>
  <rect class="cls-11" x="43.75" y="43.75" width="3.12" height="3.12"/>
  <rect class="cls-10" x="43.75" y="40.62" width="3.12" height="3.13"/>
  <rect class="cls-5" x="43.75" y="37.5" width="3.12" height="3.12"/>
  <rect class="cls-5" x="43.75" y="31.25" width="3.12" height="3.12"/>
  <rect class="cls-8" x="43.75" y="28.12" width="3.12" height="3.13"/>
  <rect class="cls-11" x="43.75" y="25" width="3.12" height="3.12"/>
  <rect class="cls-8" x="43.75" y="21.87" width="3.12" height="3.13"/>
  <rect class="cls-2" x="43.75" y="18.75" width="3.12" height="3.12"/>
  <rect class="cls-2" x="43.75" y="9.37" width="3.12" height="3.13"/>
  <rect class="cls-3" x="43.75" y="6.25" width="3.12" height="3.12"/>
  <rect class="cls-11" x="43.75" y="3.12" width="3.12" height="3.13"/>
  <rect class="cls-3" x="43.75" y="0" width="3.12" height="3.12"/>
  <rect class="cls-10" x="40.62" y="46.87" width="3.13" height="3.13"/>
  <rect class="cls-11" x="40.62" y="43.75" width="3.13" height="3.12"/>
  <rect class="cls-10" x="40.62" y="40.62" width="3.13" height="3.13"/>
  <rect class="cls-5" x="40.62" y="37.5" width="3.13" height="3.12"/>
  <rect class="cls-11" x="40.62" y="34.37" width="3.13" height="3.13"/>
  <rect class="cls-5" x="40.62" y="31.25" width="3.13" height="3.12"/>
  <rect class="cls-8" x="40.62" y="28.12" width="3.13" height="3.13"/>
  <rect class="cls-11" x="40.62" y="25" width="3.13" height="3.12"/>
  <rect class="cls-8" x="40.62" y="21.87" width="3.13" height="3.13"/>
  <rect class="cls-2" x="40.62" y="18.75" width="3.13" height="3.12"/>
  <rect class="cls-11" x="40.62" y="15.62" width="3.13" height="3.13"/>
  <rect class="cls-7" x="40.62" y="12.5" width="3.13" height="3.12"/>
  <rect class="cls-2" x="40.62" y="9.37" width="3.13" height="3.13"/>
  <rect class="cls-3" x="40.62" y="6.25" width="3.13" height="3.12"/>
  <rect class="cls-11" x="40.62" y="3.12" width="3.13" height="3.13"/>
  <rect class="cls-3" x="40.62" y="0" width="3.13" height="3.12"/>
  <rect class="cls-10" x="37.5" y="46.87" width="3.12" height="3.13"/>
  <rect class="cls-11" x="37.5" y="43.75" width="3.12" height="3.12"/>
  <rect class="cls-10" x="37.5" y="40.62" width="3.12" height="3.13"/>
  <rect class="cls-5" x="37.5" y="37.5" width="3.12" height="3.12"/>
  <rect class="cls-11" x="37.5" y="34.37" width="3.12" height="3.13"/>
  <rect class="cls-5" x="37.5" y="31.25" width="3.12" height="3.12"/>
  <rect class="cls-8" x="37.5" y="28.12" width="3.12" height="3.13"/>
  <rect class="cls-11" x="37.5" y="25" width="3.12" height="3.12"/>
  <rect class="cls-8" x="37.5" y="21.87" width="3.12" height="3.13"/>
  <rect class="cls-2" x="37.5" y="18.75" width="3.12" height="3.12"/>
  <rect class="cls-11" x="37.5" y="15.62" width="3.12" height="3.13"/>
  <rect class="cls-7" x="37.5" y="12.5" width="3.12" height="3.12"/>
  <rect class="cls-2" x="37.5" y="9.37" width="3.12" height="3.13"/>
  <rect class="cls-3" x="37.5" y="6.25" width="3.12" height="3.12"/>
  <rect class="cls-11" x="37.5" y="3.12" width="3.12" height="3.13"/>
  <rect class="cls-3" x="37.5" y="0" width="3.12" height="3.12"/>
  <rect class="cls-10" x="34.37" y="46.87" width="3.13" height="3.13"/>
  <rect class="cls-11" x="34.37" y="43.75" width="3.13" height="3.12"/>
  <rect class="cls-10" x="34.37" y="40.62" width="3.13" height="3.13"/>
  <rect class="cls-5" x="34.37" y="37.5" width="3.13" height="3.12"/>
  <rect class="cls-11" x="34.37" y="34.37" width="3.13" height="3.13"/>
  <rect class="cls-5" x="34.37" y="31.25" width="3.13" height="3.12"/>
  <rect class="cls-8" x="34.37" y="28.12" width="3.13" height="3.13"/>
  <rect class="cls-11" x="34.37" y="25" width="3.13" height="3.12"/>
  <rect class="cls-8" x="34.37" y="21.87" width="3.13" height="3.13"/>
  <rect class="cls-2" x="34.37" y="18.75" width="3.13" height="3.12"/>
  <rect class="cls-11" x="34.37" y="15.62" width="3.13" height="3.13"/>
  <rect class="cls-7" x="34.37" y="12.5" width="3.13" height="3.12"/>
  <rect class="cls-2" x="34.37" y="9.37" width="3.13" height="3.13"/>
  <rect class="cls-3" x="34.37" y="6.25" width="3.13" height="3.12"/>
  <rect class="cls-11" x="34.37" y="3.12" width="3.13" height="3.13"/>
  <rect class="cls-3" x="34.37" y="0" width="3.13" height="3.12"/>
  <rect class="cls-10" x="31.25" y="46.87" width="3.12" height="3.13"/>
  <rect class="cls-11" x="31.25" y="43.75" width="3.12" height="3.12"/>
  <rect class="cls-10" x="31.25" y="40.62" width="3.12" height="3.13"/>
  <rect class="cls-5" x="31.25" y="37.5" width="3.12" height="3.12"/>
  <rect class="cls-11" x="31.25" y="34.37" width="3.12" height="3.13"/>
  <rect class="cls-5" x="31.25" y="31.25" width="3.12" height="3.12"/>
  <rect class="cls-8" x="31.25" y="28.12" width="3.12" height="3.13"/>
  <rect class="cls-11" x="31.25" y="25" width="3.12" height="3.12"/>
  <rect class="cls-8" x="31.25" y="21.87" width="3.12" height="3.13"/>
  <rect class="cls-2" x="31.25" y="18.75" width="3.12" height="3.12"/>
  <rect class="cls-11" x="31.25" y="15.62" width="3.12" height="3.13"/>
  <rect class="cls-7" x="31.25" y="12.5" width="3.12" height="3.12"/>
  <rect class="cls-2" x="31.25" y="9.37" width="3.12" height="3.13"/>
  <rect class="cls-3" x="31.25" y="6.25" width="3.12" height="3.12"/>
  <rect class="cls-11" x="31.25" y="3.12" width="3.12" height="3.13"/>
  <rect class="cls-3" x="31.25" y="0" width="3.12" height="3.12"/>
  <rect class="cls-10" x="28.12" y="46.87" width="3.13" height="3.13"/>
  <rect class="cls-11" x="28.12" y="43.75" width="3.13" height="3.12"/>
  <rect class="cls-10" x="28.12" y="40.62" width="3.13" height="3.13"/>
  <rect class="cls-5" x="28.12" y="37.5" width="3.13" height="3.12"/>
  <rect class="cls-11" x="28.12" y="34.37" width="3.13" height="3.13"/>
  <rect class="cls-5" x="28.12" y="31.25" width="3.13" height="3.12"/>
  <rect class="cls-8" x="28.12" y="28.12" width="3.13" height="3.13"/>
  <rect class="cls-8" x="28.12" y="25" width="3.13" height="3.12"/>
  <rect class="cls-8" x="28.12" y="21.87" width="3.13" height="3.13"/>
  <rect class="cls-2" x="28.12" y="18.75" width="3.13" height="3.12"/>
  <rect class="cls-11" x="28.12" y="15.62" width="3.13" height="3.13"/>
  <rect class="cls-7" x="28.12" y="12.5" width="3.13" height="3.12"/>
  <rect class="cls-2" x="28.12" y="9.37" width="3.13" height="3.13"/>
  <rect class="cls-3" x="28.12" y="6.25" width="3.13" height="3.12"/>
  <rect class="cls-11" x="28.12" y="3.12" width="3.13" height="3.13"/>
  <rect class="cls-3" x="28.12" y="0" width="3.13" height="3.12"/>
  <rect class="cls-10" x="25" y="46.87" width="3.12" height="3.13"/>
  <rect class="cls-10" x="25" y="43.75" width="3.12" height="3.12"/>
  <rect class="cls-10" x="25" y="40.62" width="3.12" height="3.13"/>
  <rect class="cls-5" x="25" y="37.5" width="3.12" height="3.12"/>
  <rect class="cls-11" x="25" y="34.37" width="3.12" height="3.13"/>
  <rect class="cls-5" x="25" y="31.25" width="3.12" height="3.12"/>
  <rect class="cls-8" x="25" y="28.12" width="3.12" height="3.13"/>
  <rect class="cls-8" x="25" y="25" width="3.12" height="3.12"/>
  <rect class="cls-8" x="25" y="21.87" width="3.12" height="3.13"/>
  <rect class="cls-2" x="25" y="18.75" width="3.12" height="3.12"/>
  <rect class="cls-2" x="25" y="15.62" width="3.12" height="3.13"/>
  <rect class="cls-2" x="25" y="12.5" width="3.12" height="3.12"/>
  <rect class="cls-2" x="25" y="9.37" width="3.12" height="3.13"/>
  <rect class="cls-9" x="25" y="6.25" width="3.12" height="3.12"/>
  <rect class="cls-3" x="25" y="3.12" width="3.12" height="3.13"/>
  <rect class="cls-9" x="25" y="0" width="3.12" height="3.12"/>
  <rect class="cls-12" x="21.87" y="46.87" width="3.13" height="3.13"/>
  <rect class="cls-10" x="21.87" y="43.75" width="3.13" height="3.12"/>
  <rect class="cls-12" x="21.87" y="40.62" width="3.13" height="3.13"/>
  <rect class="cls-5" x="21.87" y="37.5" width="3.13" height="3.12"/>
  <rect class="cls-5" x="21.87" y="34.37" width="3.13" height="3.13"/>
  <rect class="cls-5" x="21.87" y="31.25" width="3.13" height="3.12"/>
  <rect class="cls-1" x="21.87" y="28.12" width="3.13" height="3.13"/>
  <rect class="cls-8" x="21.87" y="25" width="3.13" height="3.12"/>
  <rect class="cls-1" x="21.87" y="21.87" width="3.13" height="3.13"/>
  <rect class="cls-2" x="21.87" y="18.75" width="3.13" height="3.12"/>
  <rect class="cls-4" x="21.87" y="15.62" width="3.13" height="3.13"/>
  <rect class="cls-4" x="21.87" y="12.5" width="3.13" height="3.12"/>
  <rect class="cls-2" x="21.87" y="9.37" width="3.13" height="3.13"/>
  <rect class="cls-3" x="21.87" y="6.25" width="3.13" height="3.12"/>
  <rect class="cls-9" x="21.87" y="3.12" width="3.13" height="3.13"/>
  <rect class="cls-3" x="21.87" y="0" width="3.13" height="3.12"/>
  <rect class="cls-10" x="18.75" y="46.87" width="3.12" height="3.13"/>
  <rect class="cls-12" x="18.75" y="43.75" width="3.12" height="3.12"/>
  <rect class="cls-10" x="18.75" y="40.62" width="3.12" height="3.13"/>
  <rect class="cls-6" x="18.75" y="37.5" width="3.12" height="3.12"/>
  <rect class="cls-5" x="18.75" y="34.37" width="3.12" height="3.13"/>
  <rect class="cls-6" x="18.75" y="31.25" width="3.12" height="3.12"/>
  <rect class="cls-8" x="18.75" y="28.12" width="3.12" height="3.13"/>
  <rect class="cls-1" x="18.75" y="25" width="3.12" height="3.12"/>
  <rect class="cls-8" x="18.75" y="21.87" width="3.12" height="3.13"/>
  <rect class="cls-2" x="18.75" y="18.75" width="3.12" height="3.12"/>
  <rect class="cls-4" x="18.75" y="15.62" width="3.12" height="3.13"/>
  <rect class="cls-4" x="18.75" y="12.5" width="3.12" height="3.12"/>
  <rect class="cls-2" x="18.75" y="9.37" width="3.12" height="3.13"/>
  <rect class="cls-3" x="18.75" y="6.25" width="3.12" height="3.12"/>
  <rect class="cls-3" x="18.75" y="3.12" width="3.12" height="3.13"/>
  <rect class="cls-3" x="18.75" y="0" width="3.12" height="3.12"/>
  <rect class="cls-12" x="15.62" y="46.87" width="3.13" height="3.13"/>
  <rect class="cls-10" x="15.62" y="43.75" width="3.13" height="3.12"/>
  <rect class="cls-12" x="15.62" y="40.62" width="3.13" height="3.13"/>
  <rect class="cls-6" x="15.62" y="37.5" width="3.13" height="3.12"/>
  <rect class="cls-6" x="15.62" y="34.37" width="3.13" height="3.13"/>
  <rect class="cls-6" x="15.62" y="31.25" width="3.13" height="3.12"/>
  <rect class="cls-8" x="15.62" y="28.12" width="3.13" height="3.13"/>
  <rect class="cls-8" x="15.62" y="25" width="3.13" height="3.12"/>
  <rect class="cls-8" x="15.62" y="21.87" width="3.13" height="3.13"/>
  <rect class="cls-2" x="15.62" y="18.75" width="3.13" height="3.12"/>
  <rect class="cls-4" x="15.62" y="15.62" width="3.13" height="3.13"/>
  <rect class="cls-4" x="15.62" y="12.5" width="3.13" height="3.12"/>
  <rect class="cls-2" x="15.62" y="9.37" width="3.13" height="3.13"/>
  <rect class="cls-9" x="15.62" y="6.25" width="3.13" height="3.12"/>
  <rect class="cls-3" x="15.62" y="3.12" width="3.13" height="3.13"/>
  <rect class="cls-9" x="15.62" y="0" width="3.13" height="3.12"/>
  <rect class="cls-10" x="12.5" y="46.87" width="3.12" height="3.13"/>
  <rect class="cls-12" x="12.5" y="43.75" width="3.12" height="3.12"/>
  <rect class="cls-10" x="12.5" y="40.62" width="3.12" height="3.13"/>
  <rect class="cls-6" x="12.5" y="37.5" width="3.12" height="3.12"/>
  <rect class="cls-6" x="12.5" y="34.37" width="3.12" height="3.13"/>
  <rect class="cls-6" x="12.5" y="31.25" width="3.12" height="3.12"/>
  <rect class="cls-8" x="12.5" y="28.12" width="3.12" height="3.13"/>
  <rect class="cls-8" x="12.5" y="25" width="3.12" height="3.12"/>
  <rect class="cls-8" x="12.5" y="21.87" width="3.12" height="3.13"/>
  <rect class="cls-2" x="12.5" y="18.75" width="3.12" height="3.12"/>
  <rect class="cls-4" x="12.5" y="15.62" width="3.12" height="3.13"/>
  <rect class="cls-4" x="12.5" y="12.5" width="3.12" height="3.12"/>
  <rect class="cls-2" x="12.5" y="9.37" width="3.12" height="3.13"/>
  <rect class="cls-3" x="12.5" y="6.25" width="3.12" height="3.12"/>
  <rect class="cls-9" x="12.5" y="3.12" width="3.12" height="3.13"/>
  <rect class="cls-3" x="12.5" y="0" width="3.12" height="3.12"/>
  <rect class="cls-12" x="9.37" y="46.87" width="3.13" height="3.13"/>
  <rect class="cls-10" x="9.37" y="43.75" width="3.13" height="3.12"/>
  <rect class="cls-12" x="9.37" y="40.62" width="3.13" height="3.13"/>
  <rect class="cls-6" x="9.37" y="37.5" width="3.13" height="3.12"/>
  <rect class="cls-6" x="9.37" y="34.37" width="3.13" height="3.13"/>
  <rect class="cls-6" x="9.37" y="31.25" width="3.13" height="3.12"/>
  <rect class="cls-1" x="9.37" y="28.12" width="3.13" height="3.13"/>
  <rect class="cls-8" x="9.37" y="25" width="3.13" height="3.12"/>
  <rect class="cls-1" x="9.37" y="21.87" width="3.13" height="3.13"/>
  <rect class="cls-2" x="9.37" y="18.75" width="3.13" height="3.12"/>
  <rect class="cls-4" x="9.37" y="15.62" width="3.13" height="3.13"/>
  <rect class="cls-4" x="9.37" y="12.5" width="3.13" height="3.12"/>
  <rect class="cls-2" x="9.37" y="9.37" width="3.13" height="3.13"/>
  <rect class="cls-3" x="9.37" y="6.25" width="3.13" height="3.12"/>
  <rect class="cls-3" x="9.37" y="3.12" width="3.13" height="3.13"/>
  <rect class="cls-3" x="9.37" y="0" width="3.13" height="3.12"/>
  <rect class="cls-10" x="6.25" y="46.87" width="3.12" height="3.13"/>
  <rect class="cls-12" x="6.25" y="43.75" width="3.12" height="3.12"/>
  <rect class="cls-10" x="6.25" y="40.62" width="3.12" height="3.13"/>
  <rect class="cls-6" x="6.25" y="37.5" width="3.12" height="3.12"/>
  <rect class="cls-6" x="6.25" y="34.37" width="3.12" height="3.13"/>
  <rect class="cls-6" x="6.25" y="31.25" width="3.12" height="3.12"/>
  <rect class="cls-8" x="6.25" y="28.12" width="3.12" height="3.13"/>
  <rect class="cls-1" x="6.25" y="25" width="3.12" height="3.12"/>
  <rect class="cls-8" x="6.25" y="21.87" width="3.12" height="3.13"/>
  <rect class="cls-2" x="6.25" y="18.75" width="3.12" height="3.12"/>
  <rect class="cls-4" x="6.25" y="15.62" width="3.12" height="3.13"/>
  <rect class="cls-4" x="6.25" y="12.5" width="3.12" height="3.12"/>
  <rect class="cls-2" x="6.25" y="9.37" width="3.12" height="3.13"/>
  <rect class="cls-9" x="6.25" y="6.25" width="3.12" height="3.12"/>
  <rect class="cls-3" x="6.25" y="3.12" width="3.12" height="3.13"/>
  <rect class="cls-9" x="6.25" y="0" width="3.12" height="3.12"/>
  <rect class="cls-10" x="3.12" y="43.75" width="3.13" height="3.12"/>
  <rect class="cls-5" x="3.12" y="37.5" width="3.13" height="3.12"/>
  <rect class="cls-6" x="3.12" y="34.37" width="3.13" height="3.13"/>
  <rect class="cls-5" x="3.12" y="31.25" width="3.13" height="3.12"/>
  <rect class="cls-8" x="3.12" y="25" width="3.13" height="3.12"/>
  <rect class="cls-2" x="3.12" y="18.75" width="3.13" height="3.12"/>
  <rect class="cls-2" x="3.12" y="15.62" width="3.13" height="3.13"/>
  <rect class="cls-2" x="3.12" y="12.5" width="3.13" height="3.12"/>
  <rect class="cls-2" x="3.12" y="9.37" width="3.13" height="3.13"/>
  <rect class="cls-9" x="3.12" y="3.12" width="3.13" height="3.13"/>
  <rect class="cls-5" x="0" y="34.37" width="3.12" height="3.13"/>
  <rect class="cls-2" x="0" y="15.62" width="3.12" height="3.13"/>
  <rect class="cls-2" x="0" y="12.5" width="3.12" height="3.12"/>
</svg>