<?xml version="1.0" encoding="UTF-8"?>
<svg id="Ebene_2" data-name="Ebene 2" xmlns="http://www.w3.org/2000/svg" viewBox="0 0 50 50">
  <defs>
    <style>
      .cls-1 {
        fill: #8897a0;
      }

      .cls-2 {
        fill: #00a99d;
      }

      .cls-3 {
        fill: #009245;
      }

      .cls-4 {
        fill: #4d4d4d;
      }

      .cls-5 {
        fill: #fff;
      }

      .cls-6 {
        fill: #006837;
      }

      .cls-7 {
        fill: #f4f0ef;
      }

      .cls-8 {
        fill: #bdccd4;
      }

      .cls-9 {
        fill: #1a1a1a;
      }

      .cls-10 {
        fill: #009089;
      }
    </style>
  </defs>
  <rect class="cls-3" x="46.88" y="46.88" width="3.12" height="3.12"/>
  <rect class="cls-3" x="46.88" y="37.5" width="3.12" height="3.13"/>
  <rect class="cls-4" x="46.88" y="21.88" width="3.12" height="3.12"/>
  <rect class="cls-4" x="46.88" y="12.5" width="3.12" height="3.13"/>
  <rect class="cls-3" x="43.75" y="46.88" width="3.13" height="3.12"/>
  <rect class="cls-7" x="43.75" y="43.75" width="3.13" height="3.13"/>
  <rect class="cls-5" x="43.75" y="40.63" width="3.13" height="3.12"/>
  <rect class="cls-3" x="43.75" y="37.5" width="3.13" height="3.13"/>
  <rect class="cls-8" x="43.75" y="34.38" width="3.13" height="3.12"/>
  <rect class="cls-8" x="43.75" y="25" width="3.13" height="3.13"/>
  <rect class="cls-4" x="43.75" y="21.88" width="3.13" height="3.12"/>
  <rect class="cls-7" x="43.75" y="18.75" width="3.13" height="3.13"/>
  <rect class="cls-5" x="43.75" y="15.63" width="3.13" height="3.12"/>
  <rect class="cls-4" x="43.75" y="12.5" width="3.13" height="3.13"/>
  <rect class="cls-2" x="43.75" y="9.38" width="3.13" height="3.12"/>
  <rect class="cls-2" x="43.75" y="0" width="3.13" height="3.13"/>
  <rect class="cls-3" x="40.63" y="46.88" width="3.12" height="3.12"/>
  <rect class="cls-7" x="40.63" y="43.75" width="3.12" height="3.13"/>
  <rect class="cls-5" x="40.63" y="40.63" width="3.12" height="3.12"/>
  <rect class="cls-3" x="40.63" y="37.5" width="3.12" height="3.13"/>
  <rect class="cls-8" x="40.63" y="34.38" width="3.12" height="3.12"/>
  <rect class="cls-7" x="40.63" y="31.25" width="3.12" height="3.13"/>
  <rect class="cls-5" x="40.63" y="28.13" width="3.12" height="3.12"/>
  <rect class="cls-8" x="40.63" y="25" width="3.12" height="3.13"/>
  <rect class="cls-4" x="40.63" y="21.88" width="3.12" height="3.12"/>
  <rect class="cls-7" x="40.63" y="18.75" width="3.12" height="3.13"/>
  <rect class="cls-5" x="40.63" y="15.63" width="3.12" height="3.12"/>
  <rect class="cls-4" x="40.63" y="12.5" width="3.12" height="3.13"/>
  <rect class="cls-2" x="40.63" y="9.38" width="3.12" height="3.12"/>
  <rect class="cls-7" x="40.63" y="6.25" width="3.12" height="3.13"/>
  <rect class="cls-5" x="40.63" y="3.13" width="3.12" height="3.12"/>
  <rect class="cls-2" x="40.63" y="0" width="3.12" height="3.13"/>
  <rect class="cls-3" x="37.5" y="46.88" width="3.13" height="3.12"/>
  <rect class="cls-7" x="37.5" y="43.75" width="3.13" height="3.13"/>
  <rect class="cls-5" x="37.5" y="40.63" width="3.13" height="3.12"/>
  <rect class="cls-3" x="37.5" y="37.5" width="3.13" height="3.13"/>
  <rect class="cls-8" x="37.5" y="34.38" width="3.13" height="3.12"/>
  <rect class="cls-7" x="37.5" y="31.25" width="3.13" height="3.13"/>
  <rect class="cls-5" x="37.5" y="28.13" width="3.13" height="3.12"/>
  <rect class="cls-8" x="37.5" y="25" width="3.13" height="3.13"/>
  <rect class="cls-4" x="37.5" y="21.88" width="3.13" height="3.12"/>
  <rect class="cls-7" x="37.5" y="18.75" width="3.13" height="3.13"/>
  <rect class="cls-5" x="37.5" y="15.63" width="3.13" height="3.12"/>
  <rect class="cls-4" x="37.5" y="12.5" width="3.13" height="3.13"/>
  <rect class="cls-2" x="37.5" y="9.38" width="3.13" height="3.12"/>
  <rect class="cls-7" x="37.5" y="6.25" width="3.13" height="3.13"/>
  <rect class="cls-5" x="37.5" y="3.13" width="3.13" height="3.12"/>
  <rect class="cls-2" x="37.5" y="0" width="3.13" height="3.13"/>
  <rect class="cls-3" x="34.38" y="46.88" width="3.12" height="3.12"/>
  <rect class="cls-7" x="34.38" y="43.75" width="3.12" height="3.13"/>
  <rect class="cls-5" x="34.38" y="40.63" width="3.12" height="3.12"/>
  <rect class="cls-3" x="34.38" y="37.5" width="3.12" height="3.13"/>
  <rect class="cls-8" x="34.38" y="34.38" width="3.12" height="3.12"/>
  <rect class="cls-7" x="34.38" y="31.25" width="3.12" height="3.13"/>
  <rect class="cls-5" x="34.38" y="28.13" width="3.12" height="3.12"/>
  <rect class="cls-8" x="34.38" y="25" width="3.12" height="3.13"/>
  <rect class="cls-4" x="34.38" y="21.88" width="3.12" height="3.12"/>
  <rect class="cls-7" x="34.38" y="18.75" width="3.12" height="3.13"/>
  <rect class="cls-5" x="34.38" y="15.63" width="3.12" height="3.12"/>
  <rect class="cls-4" x="34.38" y="12.5" width="3.12" height="3.13"/>
  <rect class="cls-2" x="34.38" y="9.38" width="3.12" height="3.12"/>
  <rect class="cls-7" x="34.38" y="6.25" width="3.12" height="3.13"/>
  <rect class="cls-5" x="34.38" y="3.13" width="3.12" height="3.12"/>
  <rect class="cls-2" x="34.38" y="0" width="3.12" height="3.13"/>
  <rect class="cls-3" x="31.25" y="46.88" width="3.13" height="3.12"/>
  <rect class="cls-7" x="31.25" y="43.75" width="3.13" height="3.13"/>
  <rect class="cls-5" x="31.25" y="40.63" width="3.13" height="3.12"/>
  <rect class="cls-3" x="31.25" y="37.5" width="3.13" height="3.13"/>
  <rect class="cls-8" x="31.25" y="34.38" width="3.13" height="3.12"/>
  <rect class="cls-7" x="31.25" y="31.25" width="3.13" height="3.13"/>
  <rect class="cls-5" x="31.25" y="28.13" width="3.13" height="3.12"/>
  <rect class="cls-8" x="31.25" y="25" width="3.13" height="3.13"/>
  <rect class="cls-4" x="31.25" y="21.88" width="3.13" height="3.12"/>
  <rect class="cls-7" x="31.25" y="18.75" width="3.13" height="3.13"/>
  <rect class="cls-5" x="31.25" y="15.63" width="3.13" height="3.12"/>
  <rect class="cls-4" x="31.25" y="12.5" width="3.13" height="3.13"/>
  <rect class="cls-2" x="31.25" y="9.38" width="3.13" height="3.12"/>
  <rect class="cls-7" x="31.25" y="6.25" width="3.13" height="3.13"/>
  <rect class="cls-5" x="31.25" y="3.13" width="3.13" height="3.12"/>
  <rect class="cls-2" x="31.25" y="0" width="3.13" height="3.13"/>
  <rect class="cls-3" x="28.13" y="46.88" width="3.12" height="3.12"/>
  <rect class="cls-7" x="28.13" y="43.75" width="3.12" height="3.13"/>
  <rect class="cls-5" x="28.13" y="40.63" width="3.12" height="3.12"/>
  <rect class="cls-3" x="28.13" y="37.5" width="3.12" height="3.13"/>
  <rect class="cls-8" x="28.13" y="34.38" width="3.12" height="3.12"/>
  <rect class="cls-7" x="28.13" y="31.25" width="3.12" height="3.13"/>
  <rect class="cls-5" x="28.13" y="28.13" width="3.12" height="3.12"/>
  <rect class="cls-8" x="28.13" y="25" width="3.12" height="3.13"/>
  <rect class="cls-4" x="28.13" y="21.88" width="3.12" height="3.12"/>
  <rect class="cls-7" x="28.13" y="18.75" width="3.12" height="3.13"/>
  <rect class="cls-5" x="28.13" y="15.63" width="3.12" height="3.12"/>
  <rect class="cls-4" x="28.13" y="12.5" width="3.12" height="3.13"/>
  <rect class="cls-2" x="28.13" y="9.38" width="3.12" height="3.12"/>
  <rect class="cls-7" x="28.13" y="6.25" width="3.12" height="3.13"/>
  <rect class="cls-5" x="28.13" y="3.13" width="3.12" height="3.12"/>
  <rect class="cls-2" x="28.13" y="0" width="3.12" height="3.13"/>
  <rect class="cls-3" x="25" y="46.88" width="3.13" height="3.12"/>
  <rect class="cls-3" x="25" y="43.75" width="3.13" height="3.13"/>
  <rect class="cls-3" x="25" y="40.63" width="3.13" height="3.12"/>
  <rect class="cls-3" x="25" y="37.5" width="3.13" height="3.13"/>
  <rect class="cls-8" x="25" y="34.38" width="3.13" height="3.12"/>
  <rect class="cls-7" x="25" y="31.25" width="3.13" height="3.13"/>
  <rect class="cls-5" x="25" y="28.13" width="3.13" height="3.12"/>
  <rect class="cls-8" x="25" y="25" width="3.13" height="3.13"/>
  <rect class="cls-9" x="25" y="21.88" width="3.13" height="3.12"/>
  <rect class="cls-4" x="25" y="18.75" width="3.13" height="3.13"/>
  <rect class="cls-4" x="25" y="15.63" width="3.13" height="3.12"/>
  <rect class="cls-9" x="25" y="12.5" width="3.13" height="3.13"/>
  <rect class="cls-2" x="25" y="9.38" width="3.13" height="3.12"/>
  <rect class="cls-7" x="25" y="6.25" width="3.13" height="3.13"/>
  <rect class="cls-5" x="25" y="3.13" width="3.13" height="3.12"/>
  <rect class="cls-2" x="25" y="0" width="3.13" height="3.13"/>
  <rect class="cls-6" x="21.88" y="46.88" width="3.12" height="3.12"/>
  <rect class="cls-3" x="21.88" y="43.75" width="3.12" height="3.13"/>
  <rect class="cls-3" x="21.88" y="40.63" width="3.12" height="3.12"/>
  <rect class="cls-6" x="21.88" y="37.5" width="3.12" height="3.13"/>
  <rect class="cls-8" x="21.88" y="34.38" width="3.12" height="3.12"/>
  <rect class="cls-8" x="21.88" y="31.25" width="3.12" height="3.13"/>
  <rect class="cls-8" x="21.88" y="28.13" width="3.12" height="3.12"/>
  <rect class="cls-8" x="21.88" y="25" width="3.12" height="3.13"/>
  <rect class="cls-4" x="21.88" y="21.88" width="3.12" height="3.12"/>
  <rect class="cls-9" x="21.88" y="18.75" width="3.12" height="3.13"/>
  <rect class="cls-9" x="21.88" y="15.63" width="3.12" height="3.12"/>
  <rect class="cls-4" x="21.88" y="12.5" width="3.12" height="3.13"/>
  <rect class="cls-2" x="21.88" y="9.38" width="3.12" height="3.12"/>
  <rect class="cls-2" x="21.88" y="6.25" width="3.12" height="3.13"/>
  <rect class="cls-2" x="21.88" y="3.13" width="3.12" height="3.12"/>
  <rect class="cls-2" x="21.88" y="0" width="3.12" height="3.13"/>
  <rect class="cls-3" x="18.75" y="46.88" width="3.13" height="3.12"/>
  <rect class="cls-6" x="18.75" y="43.75" width="3.13" height="3.13"/>
  <rect class="cls-6" x="18.75" y="40.63" width="3.13" height="3.12"/>
  <rect class="cls-3" x="18.75" y="37.5" width="3.13" height="3.13"/>
  <rect class="cls-8" x="18.75" y="34.38" width="3.13" height="3.12"/>
  <rect class="cls-1" x="18.75" y="31.25" width="3.13" height="3.13"/>
  <rect class="cls-1" x="18.75" y="28.13" width="3.13" height="3.12"/>
  <rect class="cls-8" x="18.75" y="25" width="3.13" height="3.13"/>
  <rect class="cls-4" x="18.75" y="21.88" width="3.13" height="3.12"/>
  <rect class="cls-9" x="18.75" y="18.75" width="3.13" height="3.13"/>
  <rect class="cls-9" x="18.75" y="15.63" width="3.13" height="3.12"/>
  <rect class="cls-4" x="18.75" y="12.5" width="3.13" height="3.13"/>
  <rect class="cls-10" x="18.75" y="9.38" width="3.13" height="3.12"/>
  <rect class="cls-2" x="18.75" y="6.25" width="3.13" height="3.13"/>
  <rect class="cls-2" x="18.75" y="3.13" width="3.13" height="3.12"/>
  <rect class="cls-10" x="18.75" y="0" width="3.13" height="3.13"/>
  <rect class="cls-6" x="15.63" y="46.88" width="3.12" height="3.12"/>
  <rect class="cls-3" x="15.63" y="43.75" width="3.12" height="3.13"/>
  <rect class="cls-3" x="15.63" y="40.63" width="3.12" height="3.12"/>
  <rect class="cls-6" x="15.63" y="37.5" width="3.12" height="3.13"/>
  <rect class="cls-8" x="15.63" y="34.38" width="3.12" height="3.12"/>
  <rect class="cls-8" x="15.63" y="31.25" width="3.12" height="3.13"/>
  <rect class="cls-8" x="15.63" y="28.13" width="3.12" height="3.12"/>
  <rect class="cls-8" x="15.63" y="25" width="3.12" height="3.13"/>
  <rect class="cls-9" x="15.63" y="21.88" width="3.12" height="3.12"/>
  <rect class="cls-4" x="15.63" y="18.75" width="3.12" height="3.13"/>
  <rect class="cls-4" x="15.63" y="15.63" width="3.12" height="3.12"/>
  <rect class="cls-9" x="15.63" y="12.5" width="3.12" height="3.13"/>
  <rect class="cls-2" x="15.63" y="9.38" width="3.12" height="3.12"/>
  <rect class="cls-10" x="15.63" y="6.25" width="3.12" height="3.13"/>
  <rect class="cls-10" x="15.63" y="3.13" width="3.12" height="3.12"/>
  <rect class="cls-2" x="15.63" y="0" width="3.12" height="3.13"/>
  <rect class="cls-3" x="12.5" y="46.88" width="3.13" height="3.12"/>
  <rect class="cls-6" x="12.5" y="43.75" width="3.13" height="3.13"/>
  <rect class="cls-6" x="12.5" y="40.63" width="3.13" height="3.12"/>
  <rect class="cls-3" x="12.5" y="37.5" width="3.13" height="3.13"/>
  <rect class="cls-8" x="12.5" y="34.38" width="3.13" height="3.12"/>
  <rect class="cls-1" x="12.5" y="31.25" width="3.13" height="3.13"/>
  <rect class="cls-1" x="12.5" y="28.13" width="3.13" height="3.12"/>
  <rect class="cls-8" x="12.5" y="25" width="3.13" height="3.13"/>
  <rect class="cls-4" x="12.5" y="21.88" width="3.13" height="3.12"/>
  <rect class="cls-9" x="12.5" y="18.75" width="3.13" height="3.13"/>
  <rect class="cls-9" x="12.5" y="15.63" width="3.13" height="3.12"/>
  <rect class="cls-4" x="12.5" y="12.5" width="3.13" height="3.13"/>
  <rect class="cls-2" x="12.5" y="9.38" width="3.13" height="3.12"/>
  <rect class="cls-2" x="12.5" y="6.25" width="3.13" height="3.13"/>
  <rect class="cls-2" x="12.5" y="3.13" width="3.13" height="3.12"/>
  <rect class="cls-2" x="12.5" y="0" width="3.13" height="3.13"/>
  <rect class="cls-6" x="9.38" y="46.88" width="3.12" height="3.12"/>
  <rect class="cls-3" x="9.38" y="43.75" width="3.12" height="3.13"/>
  <rect class="cls-3" x="9.38" y="40.63" width="3.12" height="3.12"/>
  <rect class="cls-6" x="9.38" y="37.5" width="3.12" height="3.13"/>
  <rect class="cls-8" x="9.38" y="34.38" width="3.12" height="3.12"/>
  <rect class="cls-8" x="9.38" y="31.25" width="3.12" height="3.13"/>
  <rect class="cls-8" x="9.38" y="28.13" width="3.12" height="3.12"/>
  <rect class="cls-8" x="9.38" y="25" width="3.12" height="3.13"/>
  <rect class="cls-4" x="9.38" y="21.88" width="3.12" height="3.12"/>
  <rect class="cls-9" x="9.38" y="18.75" width="3.12" height="3.13"/>
  <rect class="cls-9" x="9.38" y="15.63" width="3.12" height="3.12"/>
  <rect class="cls-4" x="9.38" y="12.5" width="3.12" height="3.13"/>
  <rect class="cls-2" x="9.38" y="9.38" width="3.12" height="3.12"/>
  <rect class="cls-2" x="9.38" y="6.25" width="3.12" height="3.13"/>
  <rect class="cls-2" x="9.38" y="3.13" width="3.12" height="3.12"/>
  <rect class="cls-2" x="9.38" y="0" width="3.12" height="3.13"/>
  <rect class="cls-3" x="6.25" y="46.88" width="3.13" height="3.12"/>
  <rect class="cls-6" x="6.25" y="43.75" width="3.13" height="3.13"/>
  <rect class="cls-6" x="6.25" y="40.63" width="3.13" height="3.12"/>
  <rect class="cls-3" x="6.25" y="37.5" width="3.13" height="3.13"/>
  <rect class="cls-8" x="6.25" y="34.38" width="3.13" height="3.12"/>
  <rect class="cls-1" x="6.25" y="31.25" width="3.13" height="3.13"/>
  <rect class="cls-1" x="6.25" y="28.13" width="3.13" height="3.12"/>
  <rect class="cls-8" x="6.25" y="25" width="3.13" height="3.13"/>
  <rect class="cls-9" x="6.25" y="21.88" width="3.13" height="3.12"/>
  <rect class="cls-4" x="6.25" y="18.75" width="3.13" height="3.13"/>
  <rect class="cls-4" x="6.25" y="15.63" width="3.13" height="3.12"/>
  <rect class="cls-9" x="6.25" y="12.5" width="3.13" height="3.13"/>
  <rect class="cls-10" x="6.25" y="9.38" width="3.13" height="3.12"/>
  <rect class="cls-2" x="6.25" y="6.25" width="3.13" height="3.13"/>
  <rect class="cls-2" x="6.25" y="3.13" width="3.13" height="3.12"/>
  <rect class="cls-10" x="6.25" y="0" width="3.13" height="3.13"/>
  <rect class="cls-3" x="3.13" y="43.75" width="3.12" height="3.13"/>
  <rect class="cls-3" x="3.13" y="40.63" width="3.12" height="3.12"/>
  <rect class="cls-8" x="3.13" y="34.38" width="3.12" height="3.12"/>
  <rect class="cls-8" x="3.13" y="31.25" width="3.12" height="3.13"/>
  <rect class="cls-8" x="3.13" y="28.13" width="3.12" height="3.12"/>
  <rect class="cls-8" x="3.13" y="25" width="3.12" height="3.13"/>
  <rect class="cls-9" x="3.13" y="18.75" width="3.12" height="3.13"/>
  <rect class="cls-9" x="3.13" y="15.63" width="3.12" height="3.12"/>
  <rect class="cls-2" x="3.13" y="9.38" width="3.12" height="3.12"/>
  <rect class="cls-10" x="3.13" y="6.25" width="3.12" height="3.13"/>
  <rect class="cls-10" x="3.13" y="3.13" width="3.12" height="3.12"/>
  <rect class="cls-2" x="3.13" y="0" width="3.12" height="3.13"/>
  <rect class="cls-8" x="0" y="31.25" width="3.13" height="3.13"/>
  <rect class="cls-8" x="0" y="28.13" width="3.13" height="3.12"/>
  <rect class="cls-2" x="0" y="6.25" width="3.13" height="3.13"/>
  <rect class="cls-2" x="0" y="3.13" width="3.13" height="3.12"/>
</svg>