<?xml version="1.0" encoding="UTF-8"?>
<svg id="Ebene_2" data-name="Ebene 2" xmlns="http://www.w3.org/2000/svg" viewBox="0 0 50 50">
  <defs>
    <style>
      .cls-1 {
        fill: #f15a24;
      }

      .cls-2 {
        fill: #d60000;
      }

      .cls-3 {
        fill: #9f89db;
      }

      .cls-4 {
        fill: #fff;
      }

      .cls-5 {
        fill: #78a7ea;
      }

      .cls-6 {
        fill: #48669b;
      }

      .cls-7 {
        fill: #ffeb97;
      }

      .cls-8 {
        fill: #ffbc00;
      }

      .cls-9 {
        fill: #5b4c7c;
      }

      .cls-10 {
        fill: #ff4a4a;
      }

      .cls-11 {
        fill: #f4f0ef;
      }

      .cls-12 {
        fill: #fdada7;
      }
    </style>
  </defs>
  <rect class="cls-8" x="46.88" y="46.88" width="3.12" height="3.12"/>
  <rect class="cls-8" x="46.88" y="40.63" width="3.12" height="3.12"/>
  <rect class="cls-10" x="46.88" y="28.13" width="3.12" height="3.12"/>
  <rect class="cls-10" x="46.88" y="21.88" width="3.12" height="3.12"/>
  <rect class="cls-6" x="46.88" y="6.25" width="3.12" height="3.13"/>
  <rect class="cls-6" x="46.88" y="0" width="3.12" height="3.13"/>
  <rect class="cls-8" x="43.75" y="46.88" width="3.13" height="3.12"/>
  <rect class="cls-11" x="43.75" y="43.75" width="3.13" height="3.13"/>
  <rect class="cls-8" x="43.75" y="40.63" width="3.13" height="3.12"/>
  <rect class="cls-9" x="43.75" y="37.5" width="3.13" height="3.13"/>
  <rect class="cls-9" x="43.75" y="31.25" width="3.13" height="3.13"/>
  <rect class="cls-10" x="43.75" y="28.13" width="3.13" height="3.12"/>
  <rect class="cls-11" x="43.75" y="25" width="3.13" height="3.13"/>
  <rect class="cls-10" x="43.75" y="21.88" width="3.13" height="3.12"/>
  <rect class="cls-12" x="43.75" y="18.75" width="3.13" height="3.13"/>
  <rect class="cls-12" x="43.75" y="9.38" width="3.13" height="3.12"/>
  <rect class="cls-6" x="43.75" y="6.25" width="3.13" height="3.13"/>
  <rect class="cls-11" x="43.75" y="3.13" width="3.13" height="3.12"/>
  <rect class="cls-6" x="43.75" y="0" width="3.13" height="3.13"/>
  <rect class="cls-8" x="40.63" y="46.88" width="3.12" height="3.12"/>
  <rect class="cls-11" x="40.63" y="43.75" width="3.12" height="3.13"/>
  <rect class="cls-8" x="40.63" y="40.63" width="3.12" height="3.12"/>
  <rect class="cls-9" x="40.63" y="37.5" width="3.12" height="3.13"/>
  <rect class="cls-11" x="40.63" y="34.38" width="3.12" height="3.12"/>
  <rect class="cls-9" x="40.63" y="31.25" width="3.12" height="3.13"/>
  <rect class="cls-10" x="40.63" y="28.13" width="3.12" height="3.12"/>
  <rect class="cls-11" x="40.63" y="25" width="3.12" height="3.13"/>
  <rect class="cls-10" x="40.63" y="21.88" width="3.12" height="3.12"/>
  <rect class="cls-12" x="40.63" y="18.75" width="3.12" height="3.13"/>
  <rect class="cls-11" x="40.63" y="15.63" width="3.12" height="3.12"/>
  <rect class="cls-4" x="40.63" y="12.5" width="3.12" height="3.13"/>
  <rect class="cls-12" x="40.63" y="9.38" width="3.12" height="3.12"/>
  <rect class="cls-6" x="40.63" y="6.25" width="3.12" height="3.13"/>
  <rect class="cls-11" x="40.63" y="3.13" width="3.12" height="3.12"/>
  <rect class="cls-6" x="40.63" y="0" width="3.12" height="3.13"/>
  <rect class="cls-8" x="37.5" y="46.88" width="3.13" height="3.12"/>
  <rect class="cls-11" x="37.5" y="43.75" width="3.13" height="3.13"/>
  <rect class="cls-8" x="37.5" y="40.63" width="3.13" height="3.12"/>
  <rect class="cls-9" x="37.5" y="37.5" width="3.13" height="3.13"/>
  <rect class="cls-11" x="37.5" y="34.38" width="3.13" height="3.12"/>
  <rect class="cls-9" x="37.5" y="31.25" width="3.13" height="3.13"/>
  <rect class="cls-10" x="37.5" y="28.13" width="3.13" height="3.12"/>
  <rect class="cls-11" x="37.5" y="25" width="3.13" height="3.13"/>
  <rect class="cls-10" x="37.5" y="21.88" width="3.13" height="3.12"/>
  <rect class="cls-12" x="37.5" y="18.75" width="3.13" height="3.13"/>
  <rect class="cls-11" x="37.5" y="15.63" width="3.13" height="3.12"/>
  <rect class="cls-4" x="37.5" y="12.5" width="3.13" height="3.13"/>
  <rect class="cls-12" x="37.5" y="9.38" width="3.13" height="3.12"/>
  <rect class="cls-6" x="37.5" y="6.25" width="3.13" height="3.13"/>
  <rect class="cls-11" x="37.5" y="3.13" width="3.13" height="3.12"/>
  <rect class="cls-6" x="37.5" y="0" width="3.13" height="3.13"/>
  <rect class="cls-8" x="34.38" y="46.88" width="3.12" height="3.12"/>
  <rect class="cls-11" x="34.38" y="43.75" width="3.12" height="3.13"/>
  <rect class="cls-8" x="34.38" y="40.63" width="3.12" height="3.12"/>
  <rect class="cls-9" x="34.38" y="37.5" width="3.12" height="3.13"/>
  <rect class="cls-11" x="34.38" y="34.38" width="3.12" height="3.12"/>
  <rect class="cls-9" x="34.38" y="31.25" width="3.12" height="3.13"/>
  <rect class="cls-10" x="34.38" y="28.13" width="3.12" height="3.12"/>
  <rect class="cls-11" x="34.38" y="25" width="3.12" height="3.13"/>
  <rect class="cls-10" x="34.38" y="21.88" width="3.12" height="3.12"/>
  <rect class="cls-12" x="34.38" y="18.75" width="3.12" height="3.13"/>
  <rect class="cls-11" x="34.38" y="15.63" width="3.12" height="3.12"/>
  <rect class="cls-4" x="34.38" y="12.5" width="3.12" height="3.13"/>
  <rect class="cls-12" x="34.38" y="9.38" width="3.12" height="3.12"/>
  <rect class="cls-6" x="34.38" y="6.25" width="3.12" height="3.13"/>
  <rect class="cls-11" x="34.38" y="3.13" width="3.12" height="3.12"/>
  <rect class="cls-6" x="34.38" y="0" width="3.12" height="3.13"/>
  <rect class="cls-8" x="31.25" y="46.88" width="3.13" height="3.12"/>
  <rect class="cls-11" x="31.25" y="43.75" width="3.13" height="3.13"/>
  <rect class="cls-8" x="31.25" y="40.63" width="3.13" height="3.12"/>
  <rect class="cls-9" x="31.25" y="37.5" width="3.13" height="3.13"/>
  <rect class="cls-11" x="31.25" y="34.38" width="3.13" height="3.12"/>
  <rect class="cls-9" x="31.25" y="31.25" width="3.13" height="3.13"/>
  <rect class="cls-10" x="31.25" y="28.13" width="3.13" height="3.12"/>
  <rect class="cls-11" x="31.25" y="25" width="3.13" height="3.13"/>
  <rect class="cls-10" x="31.25" y="21.88" width="3.13" height="3.12"/>
  <rect class="cls-12" x="31.25" y="18.75" width="3.13" height="3.13"/>
  <rect class="cls-11" x="31.25" y="15.63" width="3.13" height="3.12"/>
  <rect class="cls-4" x="31.25" y="12.5" width="3.13" height="3.13"/>
  <rect class="cls-12" x="31.25" y="9.38" width="3.13" height="3.12"/>
  <rect class="cls-6" x="31.25" y="6.25" width="3.13" height="3.13"/>
  <rect class="cls-11" x="31.25" y="3.13" width="3.13" height="3.12"/>
  <rect class="cls-6" x="31.25" y="0" width="3.13" height="3.13"/>
  <rect class="cls-8" x="28.13" y="46.88" width="3.12" height="3.12"/>
  <rect class="cls-11" x="28.13" y="43.75" width="3.12" height="3.13"/>
  <rect class="cls-8" x="28.13" y="40.63" width="3.12" height="3.12"/>
  <rect class="cls-9" x="28.13" y="37.5" width="3.12" height="3.13"/>
  <rect class="cls-11" x="28.13" y="34.38" width="3.12" height="3.12"/>
  <rect class="cls-9" x="28.13" y="31.25" width="3.12" height="3.13"/>
  <rect class="cls-10" x="28.13" y="28.13" width="3.12" height="3.12"/>
  <rect class="cls-10" x="28.13" y="25" width="3.12" height="3.13"/>
  <rect class="cls-10" x="28.13" y="21.88" width="3.12" height="3.12"/>
  <rect class="cls-12" x="28.13" y="18.75" width="3.12" height="3.13"/>
  <rect class="cls-11" x="28.13" y="15.63" width="3.12" height="3.12"/>
  <rect class="cls-4" x="28.13" y="12.5" width="3.12" height="3.13"/>
  <rect class="cls-12" x="28.13" y="9.38" width="3.12" height="3.12"/>
  <rect class="cls-6" x="28.13" y="6.25" width="3.12" height="3.13"/>
  <rect class="cls-11" x="28.13" y="3.13" width="3.12" height="3.12"/>
  <rect class="cls-6" x="28.13" y="0" width="3.12" height="3.13"/>
  <rect class="cls-8" x="25" y="46.88" width="3.13" height="3.12"/>
  <rect class="cls-8" x="25" y="43.75" width="3.13" height="3.13"/>
  <rect class="cls-8" x="25" y="40.63" width="3.13" height="3.12"/>
  <rect class="cls-9" x="25" y="37.5" width="3.13" height="3.13"/>
  <rect class="cls-11" x="25" y="34.38" width="3.13" height="3.12"/>
  <rect class="cls-9" x="25" y="31.25" width="3.13" height="3.13"/>
  <rect class="cls-10" x="25" y="28.13" width="3.13" height="3.12"/>
  <rect class="cls-10" x="25" y="25" width="3.13" height="3.13"/>
  <rect class="cls-10" x="25" y="21.88" width="3.13" height="3.12"/>
  <rect class="cls-12" x="25" y="18.75" width="3.13" height="3.13"/>
  <rect class="cls-12" x="25" y="15.63" width="3.13" height="3.12"/>
  <rect class="cls-12" x="25" y="12.5" width="3.13" height="3.13"/>
  <rect class="cls-12" x="25" y="9.38" width="3.13" height="3.12"/>
  <rect class="cls-5" x="25" y="6.25" width="3.13" height="3.13"/>
  <rect class="cls-6" x="25" y="3.13" width="3.13" height="3.12"/>
  <rect class="cls-5" x="25" y="0" width="3.13" height="3.13"/>
  <rect class="cls-7" x="21.88" y="46.88" width="3.12" height="3.12"/>
  <rect class="cls-8" x="21.88" y="43.75" width="3.12" height="3.13"/>
  <rect class="cls-7" x="21.88" y="40.63" width="3.12" height="3.12"/>
  <rect class="cls-9" x="21.88" y="37.5" width="3.12" height="3.13"/>
  <rect class="cls-9" x="21.88" y="34.38" width="3.12" height="3.12"/>
  <rect class="cls-9" x="21.88" y="31.25" width="3.12" height="3.13"/>
  <rect class="cls-2" x="21.88" y="28.13" width="3.12" height="3.12"/>
  <rect class="cls-10" x="21.88" y="25" width="3.12" height="3.13"/>
  <rect class="cls-2" x="21.88" y="21.88" width="3.12" height="3.12"/>
  <rect class="cls-12" x="21.88" y="18.75" width="3.12" height="3.13"/>
  <rect class="cls-1" x="21.88" y="15.63" width="3.12" height="3.12"/>
  <rect class="cls-1" x="21.88" y="12.5" width="3.12" height="3.13"/>
  <rect class="cls-12" x="21.88" y="9.38" width="3.12" height="3.12"/>
  <rect class="cls-6" x="21.88" y="6.25" width="3.12" height="3.13"/>
  <rect class="cls-5" x="21.88" y="3.13" width="3.12" height="3.12"/>
  <rect class="cls-6" x="21.88" y="0" width="3.12" height="3.13"/>
  <rect class="cls-8" x="18.75" y="46.88" width="3.13" height="3.12"/>
  <rect class="cls-7" x="18.75" y="43.75" width="3.13" height="3.13"/>
  <rect class="cls-8" x="18.75" y="40.63" width="3.13" height="3.12"/>
  <rect class="cls-3" x="18.75" y="37.5" width="3.13" height="3.13"/>
  <rect class="cls-9" x="18.75" y="34.38" width="3.13" height="3.12"/>
  <rect class="cls-3" x="18.75" y="31.25" width="3.13" height="3.13"/>
  <rect class="cls-10" x="18.75" y="28.13" width="3.13" height="3.12"/>
  <rect class="cls-2" x="18.75" y="25" width="3.13" height="3.13"/>
  <rect class="cls-10" x="18.75" y="21.88" width="3.13" height="3.12"/>
  <rect class="cls-12" x="18.75" y="18.75" width="3.13" height="3.13"/>
  <rect class="cls-1" x="18.75" y="15.63" width="3.13" height="3.12"/>
  <rect class="cls-1" x="18.75" y="12.5" width="3.13" height="3.13"/>
  <rect class="cls-12" x="18.75" y="9.38" width="3.13" height="3.12"/>
  <rect class="cls-6" x="18.75" y="6.25" width="3.13" height="3.13"/>
  <rect class="cls-5" x="18.75" y="3.13" width="3.13" height="3.12"/>
  <rect class="cls-6" x="18.75" y="0" width="3.13" height="3.13"/>
  <rect class="cls-7" x="15.63" y="46.88" width="3.12" height="3.12"/>
  <rect class="cls-8" x="15.63" y="43.75" width="3.12" height="3.13"/>
  <rect class="cls-7" x="15.63" y="40.63" width="3.12" height="3.12"/>
  <rect class="cls-3" x="15.63" y="37.5" width="3.12" height="3.13"/>
  <rect class="cls-3" x="15.63" y="34.38" width="3.12" height="3.12"/>
  <rect class="cls-3" x="15.63" y="31.25" width="3.12" height="3.13"/>
  <rect class="cls-10" x="15.63" y="28.13" width="3.12" height="3.12"/>
  <rect class="cls-10" x="15.63" y="25" width="3.12" height="3.13"/>
  <rect class="cls-10" x="15.63" y="21.88" width="3.12" height="3.12"/>
  <rect class="cls-12" x="15.63" y="18.75" width="3.12" height="3.13"/>
  <rect class="cls-1" x="15.63" y="15.63" width="3.12" height="3.12"/>
  <rect class="cls-1" x="15.63" y="12.5" width="3.12" height="3.13"/>
  <rect class="cls-12" x="15.63" y="9.38" width="3.12" height="3.12"/>
  <rect class="cls-5" x="15.63" y="6.25" width="3.12" height="3.13"/>
  <rect class="cls-6" x="15.63" y="3.13" width="3.12" height="3.12"/>
  <rect class="cls-5" x="15.63" y="0" width="3.12" height="3.13"/>
  <rect class="cls-8" x="12.5" y="46.88" width="3.13" height="3.12"/>
  <rect class="cls-7" x="12.5" y="43.75" width="3.13" height="3.13"/>
  <rect class="cls-8" x="12.5" y="40.63" width="3.13" height="3.12"/>
  <rect class="cls-3" x="12.5" y="37.5" width="3.13" height="3.13"/>
  <rect class="cls-3" x="12.5" y="34.38" width="3.13" height="3.12"/>
  <rect class="cls-3" x="12.5" y="31.25" width="3.13" height="3.13"/>
  <rect class="cls-10" x="12.5" y="28.13" width="3.13" height="3.12"/>
  <rect class="cls-10" x="12.5" y="25" width="3.13" height="3.13"/>
  <rect class="cls-10" x="12.5" y="21.88" width="3.13" height="3.12"/>
  <rect class="cls-12" x="12.5" y="18.75" width="3.13" height="3.13"/>
  <rect class="cls-1" x="12.5" y="15.63" width="3.13" height="3.12"/>
  <rect class="cls-1" x="12.5" y="12.5" width="3.13" height="3.13"/>
  <rect class="cls-12" x="12.5" y="9.38" width="3.13" height="3.12"/>
  <rect class="cls-6" x="12.5" y="6.25" width="3.13" height="3.13"/>
  <rect class="cls-5" x="12.5" y="3.13" width="3.13" height="3.12"/>
  <rect class="cls-6" x="12.5" y="0" width="3.13" height="3.13"/>
  <rect class="cls-7" x="9.38" y="46.88" width="3.12" height="3.12"/>
  <rect class="cls-8" x="9.38" y="43.75" width="3.12" height="3.13"/>
  <rect class="cls-7" x="9.38" y="40.63" width="3.12" height="3.12"/>
  <rect class="cls-3" x="9.38" y="37.5" width="3.12" height="3.13"/>
  <rect class="cls-3" x="9.38" y="34.38" width="3.12" height="3.12"/>
  <rect class="cls-3" x="9.38" y="31.25" width="3.12" height="3.13"/>
  <rect class="cls-2" x="9.38" y="28.13" width="3.12" height="3.12"/>
  <rect class="cls-10" x="9.38" y="25" width="3.12" height="3.13"/>
  <rect class="cls-2" x="9.38" y="21.88" width="3.12" height="3.12"/>
  <rect class="cls-12" x="9.38" y="18.75" width="3.12" height="3.13"/>
  <rect class="cls-1" x="9.38" y="15.63" width="3.12" height="3.12"/>
  <rect class="cls-1" x="9.38" y="12.5" width="3.12" height="3.13"/>
  <rect class="cls-12" x="9.38" y="9.38" width="3.12" height="3.12"/>
  <rect class="cls-6" x="9.38" y="6.25" width="3.12" height="3.13"/>
  <rect class="cls-5" x="9.38" y="3.13" width="3.12" height="3.12"/>
  <rect class="cls-6" x="9.38" y="0" width="3.12" height="3.13"/>
  <rect class="cls-8" x="6.25" y="46.88" width="3.13" height="3.12"/>
  <rect class="cls-7" x="6.25" y="43.75" width="3.13" height="3.13"/>
  <rect class="cls-8" x="6.25" y="40.63" width="3.13" height="3.12"/>
  <rect class="cls-3" x="6.25" y="37.5" width="3.13" height="3.13"/>
  <rect class="cls-3" x="6.25" y="34.38" width="3.13" height="3.12"/>
  <rect class="cls-3" x="6.25" y="31.25" width="3.13" height="3.13"/>
  <rect class="cls-10" x="6.25" y="28.13" width="3.13" height="3.12"/>
  <rect class="cls-2" x="6.25" y="25" width="3.13" height="3.13"/>
  <rect class="cls-10" x="6.25" y="21.88" width="3.13" height="3.12"/>
  <rect class="cls-12" x="6.25" y="18.75" width="3.13" height="3.13"/>
  <rect class="cls-1" x="6.25" y="15.63" width="3.13" height="3.12"/>
  <rect class="cls-1" x="6.25" y="12.5" width="3.13" height="3.13"/>
  <rect class="cls-12" x="6.25" y="9.38" width="3.13" height="3.12"/>
  <rect class="cls-5" x="6.25" y="6.25" width="3.13" height="3.13"/>
  <rect class="cls-6" x="6.25" y="3.13" width="3.13" height="3.12"/>
  <rect class="cls-5" x="6.25" y="0" width="3.13" height="3.13"/>
  <rect class="cls-8" x="3.13" y="43.75" width="3.12" height="3.13"/>
  <rect class="cls-9" x="3.13" y="37.5" width="3.12" height="3.13"/>
  <rect class="cls-3" x="3.13" y="34.38" width="3.12" height="3.12"/>
  <rect class="cls-9" x="3.13" y="31.25" width="3.12" height="3.13"/>
  <rect class="cls-10" x="3.13" y="25" width="3.12" height="3.13"/>
  <rect class="cls-12" x="3.13" y="18.75" width="3.12" height="3.13"/>
  <rect class="cls-12" x="3.13" y="15.63" width="3.12" height="3.12"/>
  <rect class="cls-12" x="3.13" y="12.5" width="3.12" height="3.13"/>
  <rect class="cls-12" x="3.13" y="9.38" width="3.12" height="3.12"/>
  <rect class="cls-5" x="3.13" y="3.13" width="3.12" height="3.12"/>
  <rect class="cls-9" x="0" y="34.38" width="3.13" height="3.12"/>
  <rect class="cls-12" x="0" y="15.63" width="3.13" height="3.12"/>
  <rect class="cls-12" x="0" y="12.5" width="3.13" height="3.13"/>
</svg>