<?xml version="1.0" encoding="UTF-8"?>
<svg id="Ebene_2" data-name="Ebene 2" xmlns="http://www.w3.org/2000/svg" viewBox="0 0 50 50">
  <defs>
    <style>
      .cls-1 {
        fill: #333;
      }

      .cls-2 {
        fill: #d3d3d3;
      }
    </style>
  </defs>
  <rect class="cls-1" x="46.87" y="3.13" width="3.13" height="3.12"/>
  <rect class="cls-2" x="46.87" y="0" width="3.13" height="3.13"/>
  <rect class="cls-1" x="43.75" y="3.13" width="3.12" height="3.12"/>
  <rect class="cls-2" x="43.75" y="0" width="3.12" height="3.13"/>
  <rect class="cls-1" x="40.62" y="46.88" width="3.13" height="3.12"/>
  <rect class="cls-1" x="40.62" y="3.13" width="3.13" height="3.12"/>
  <rect class="cls-2" x="40.62" y="0" width="3.13" height="3.13"/>
  <rect class="cls-1" x="37.5" y="46.88" width="3.12" height="3.12"/>
  <rect class="cls-1" x="37.5" y="3.13" width="3.12" height="3.12"/>
  <rect class="cls-2" x="37.5" y="0" width="3.12" height="3.13"/>
  <rect class="cls-1" x="34.37" y="46.88" width="3.13" height="3.12"/>
  <rect class="cls-1" x="34.37" y="43.75" width="3.13" height="3.13"/>
  <rect class="cls-1" x="34.37" y="40.63" width="3.13" height="3.12"/>
  <rect class="cls-1" x="34.37" y="37.5" width="3.13" height="3.13"/>
  <rect class="cls-1" x="34.37" y="34.38" width="3.13" height="3.12"/>
  <rect class="cls-1" x="34.37" y="31.25" width="3.13" height="3.13"/>
  <rect class="cls-1" x="34.37" y="28.13" width="3.13" height="3.12"/>
  <rect class="cls-1" x="34.37" y="25" width="3.13" height="3.13"/>
  <rect class="cls-1" x="34.37" y="21.88" width="3.13" height="3.12"/>
  <rect class="cls-1" x="34.37" y="18.75" width="3.13" height="3.13"/>
  <rect class="cls-1" x="34.37" y="15.63" width="3.13" height="3.12"/>
  <rect class="cls-1" x="34.37" y="12.5" width="3.13" height="3.13"/>
  <rect class="cls-1" x="34.37" y="9.38" width="3.13" height="3.12"/>
  <rect class="cls-1" x="34.37" y="6.25" width="3.13" height="3.13"/>
  <rect class="cls-1" x="34.37" y="3.13" width="3.13" height="3.12"/>
  <rect class="cls-2" x="34.37" y="0" width="3.13" height="3.13"/>
  <rect class="cls-1" x="31.25" y="46.88" width="3.12" height="3.12"/>
  <rect class="cls-1" x="31.25" y="43.75" width="3.12" height="3.13"/>
  <rect class="cls-1" x="31.25" y="40.63" width="3.12" height="3.12"/>
  <rect class="cls-1" x="31.25" y="37.5" width="3.12" height="3.13"/>
  <rect class="cls-1" x="31.25" y="34.38" width="3.12" height="3.12"/>
  <rect class="cls-1" x="31.25" y="31.25" width="3.12" height="3.13"/>
  <rect class="cls-1" x="31.25" y="28.13" width="3.12" height="3.12"/>
  <rect class="cls-1" x="31.25" y="25" width="3.12" height="3.13"/>
  <rect class="cls-1" x="31.25" y="21.88" width="3.12" height="3.12"/>
  <rect class="cls-1" x="31.25" y="18.75" width="3.12" height="3.13"/>
  <rect class="cls-1" x="31.25" y="15.63" width="3.12" height="3.12"/>
  <rect class="cls-1" x="31.25" y="12.5" width="3.12" height="3.13"/>
  <rect class="cls-1" x="31.25" y="9.38" width="3.12" height="3.12"/>
  <rect class="cls-1" x="31.25" y="6.25" width="3.12" height="3.13"/>
  <rect class="cls-1" x="31.25" y="3.13" width="3.12" height="3.12"/>
  <rect class="cls-2" x="31.25" y="0" width="3.12" height="3.13"/>
  <rect class="cls-1" x="28.12" y="46.88" width="3.13" height="3.12"/>
  <rect class="cls-1" x="28.12" y="3.13" width="3.13" height="3.12"/>
  <rect class="cls-2" x="28.12" y="0" width="3.13" height="3.13"/>
  <rect class="cls-1" x="25" y="46.88" width="3.12" height="3.12"/>
  <rect class="cls-1" x="25" y="3.13" width="3.12" height="3.12"/>
  <rect class="cls-2" x="25" y="0" width="3.12" height="3.13"/>
  <rect class="cls-1" x="21.87" y="3.13" width="3.13" height="3.12"/>
  <rect class="cls-2" x="21.87" y="0" width="3.13" height="3.13"/>
  <rect class="cls-1" x="18.75" y="3.13" width="3.12" height="3.12"/>
  <rect class="cls-2" x="18.75" y="0" width="3.12" height="3.13"/>
  <rect class="cls-1" x="15.62" y="3.13" width="3.13" height="3.12"/>
  <rect class="cls-2" x="15.62" y="0" width="3.13" height="3.13"/>
  <rect class="cls-1" x="12.5" y="3.13" width="3.12" height="3.12"/>
  <rect class="cls-2" x="12.5" y="0" width="3.12" height="3.13"/>
  <rect class="cls-1" x="9.37" y="3.13" width="3.13" height="3.12"/>
  <rect class="cls-2" x="9.37" y="0" width="3.13" height="3.13"/>
  <rect class="cls-1" x="6.25" y="3.13" width="3.12" height="3.12"/>
  <rect class="cls-2" x="6.25" y="0" width="3.12" height="3.13"/>
  <rect class="cls-1" x="3.12" y="3.13" width="3.13" height="3.12"/>
  <rect class="cls-2" x="3.12" y="0" width="3.13" height="3.13"/>
  <rect class="cls-1" x="0" y="3.13" width="3.12" height="3.12"/>
  <rect class="cls-2" x="0" y="0" width="3.12" height="3.13"/>
</svg>