<?xml version="1.0" encoding="UTF-8"?>
<svg id="Ebene_2" data-name="Ebene 2" xmlns="http://www.w3.org/2000/svg" width="105.5" height="105.5" viewBox="0 0 105.5 105.5">
  <g id="Business">
    <g>
      <rect x="67.1" y="38.4" width="3.2" height="3.2" style="fill: #fcd3b2;"/>
      <rect x="67.1" y="35.2" width="3.2" height="3.2" style="fill: #fcd3b2;"/>
      <rect x="67.1" y="32" width="3.2" height="3.2" style="fill: #fcd3b2;"/>
      <rect x="67.1" y="28.9" width="3.2" height="3.2" style="fill: #c69c6d;"/>
      <rect x="67.1" y="25.7" width="3.2" height="3.2" style="fill: #c69c6d;"/>
      <rect x="67.1" y="22.5" width="3.2" height="3.2" style="fill: #c69c6d;"/>
      <rect x="67.1" y="19.3" width="3.2" height="3.2" style="fill: #c69c6d;"/>
      <rect x="63.9" y="41.6" width="3.2" height="3.2" style="fill: #fcd3b2;"/>
      <rect x="63.9" y="38.4" width="3.2" height="3.2" style="fill: #fcd3b2;"/>
      <rect x="63.9" y="35.2" width="3.2" height="3.2" style="fill: #fcd3b2;"/>
      <rect x="63.9" y="32" width="3.2" height="3.2" style="fill: #fcd3b2;"/>
      <rect x="63.9" y="28.9" width="3.2" height="3.2" style="fill: #fcd3b2;"/>
      <rect x="63.9" y="25.7" width="3.2" height="3.2" style="fill: #fcd3b2;"/>
      <rect x="63.9" y="22.5" width="3.2" height="3.2" style="fill: #c69c6d;"/>
      <rect x="63.9" y="19.3" width="3.2" height="3.2" style="fill: #c69c6d;"/>
      <rect x="63.9" y="16.1" width="3.2" height="3.2" style="fill: #c69c6d;"/>
      <rect x="63.9" y="13" width="3.2" height="3.1" style="fill: #c69c6d;"/>
      <rect x="60.7" y="95.7" width="3.2" height="3.2" style="fill: #303030;"/>
      <rect x="60.7" y="92.5" width="3.2" height="3.2" style="fill: #444342;"/>
      <rect x="60.7" y="73.4" width="3.2" height="3.2" style="fill: #ffcca9;"/>
      <rect x="60.7" y="70.2" width="3.2" height="3.2" style="fill: #ffcca9;"/>
      <rect x="60.7" y="67" width="3.2" height="3.2" style="fill: #ffcca9;"/>
      <rect x="60.7" y="63.9" width="3.2" height="3.2" style="fill: #ffcca9;"/>
      <rect x="60.7" y="60.7" width="3.2" height="3.2" style="fill: #ffcca9;"/>
      <rect x="60.7" y="57.5" width="3.2" height="3.2" style="fill: #ffcca9;"/>
      <rect x="60.7" y="54.3" width="3.2" height="3.2" style="fill: #e2e2e2;"/>
      <rect x="60.7" y="51.1" width="3.2" height="3.2" style="fill: #e2e2e2;"/>
      <rect x="60.7" y="41.6" width="3.2" height="3.2" style="fill: #fcd3b2;"/>
      <rect x="60.7" y="38.4" width="3.2" height="3.2" style="fill: #fcd3b2;"/>
      <rect x="60.7" y="35.2" width="3.2" height="3.2" style="fill: #fcd3b2;"/>
      <rect x="60.7" y="32" width="3.2" height="3.2" style="fill: #5a846b;"/>
      <rect x="60.7" y="28.9" width="3.2" height="3.2" style="fill: #427057;"/>
      <rect x="60.7" y="25.7" width="3.2" height="3.2" style="fill: #fcd3b2;"/>
      <rect x="60.7" y="22.5" width="3.2" height="3.2" style="fill: #c69c6d;"/>
      <rect x="60.7" y="19.3" width="3.2" height="3.2" style="fill: #c69c6d;"/>
      <rect x="60.7" y="16.1" width="3.2" height="3.2" style="fill: #c69c6d;"/>
      <rect x="60.7" y="13" width="3.2" height="3.1" style="fill: #c69c6d;"/>
      <rect x="60.7" y="9.8" width="3.2" height="3.2" style="fill: #c69c6d;"/>
      <rect x="57.5" y="95.7" width="3.2" height="3.2" style="fill: #303030;"/>
      <rect x="57.5" y="92.5" width="3.2" height="3.2" style="fill: #444342;"/>
      <rect x="57.5" y="89.3" width="3.2" height="3.2" style="fill: #444342;"/>
      <rect x="57.5" y="73.4" width="3.2" height="3.2" style="fill: #ffcca9;"/>
      <rect x="57.5" y="70.2" width="3.2" height="3.2" style="fill: #ffcca9;"/>
      <rect x="57.5" y="67" width="3.2" height="3.2" style="fill: #ffcca9;"/>
      <rect x="57.5" y="63.9" width="3.2" height="3.2" style="fill: #ffcca9;"/>
      <rect x="57.5" y="60.7" width="3.2" height="3.2" style="fill: #ffcca9;"/>
      <rect x="57.5" y="57.5" width="3.2" height="3.2" style="fill: #ffcca9;"/>
      <rect x="57.5" y="54.3" width="3.2" height="3.2" style="fill: #e2e2e2;"/>
      <rect x="57.5" y="51.1" width="3.2" height="3.2" style="fill: #e2e2e2;"/>
      <rect x="57.5" y="48" width="3.2" height="3.2" style="fill: #e2e2e2;"/>
      <rect x="57.5" y="41.6" width="3.2" height="3.2" style="fill: #fcd3b2;"/>
      <rect x="57.5" y="38.4" width="3.2" height="3.2" style="fill: #fcd3b2;"/>
      <rect x="57.5" y="35.2" width="3.2" height="3.2" style="fill: #fcd3b2;"/>
      <rect x="57.5" y="32" width="3.2" height="3.2" style="fill: #fcd3b2;"/>
      <rect x="57.5" y="28.9" width="3.2" height="3.2" style="fill: #fcd3b2;"/>
      <rect x="57.5" y="25.7" width="3.2" height="3.2" style="fill: #fcd3b2;"/>
      <rect x="57.5" y="22.5" width="3.2" height="3.2" style="fill: #fcd3b2;"/>
      <rect x="57.5" y="19.3" width="3.2" height="3.2" style="fill: #c69c6d;"/>
      <rect x="57.5" y="16.1" width="3.2" height="3.2" style="fill: #c69c6d;"/>
      <rect x="57.5" y="13" width="3.2" height="3.1" style="fill: #c69c6d;"/>
      <rect x="57.5" y="9.8" width="3.2" height="3.2" style="fill: #c69c6d;"/>
      <rect x="54.3" y="95.7" width="3.2" height="3.2" style="fill: #4e4e4e;"/>
      <rect x="54.3" y="92.5" width="3.2" height="3.2" style="fill: #666;"/>
      <rect x="54.3" y="89.3" width="3.2" height="3.2" style="fill: #444342;"/>
      <rect x="54.3" y="86.1" width="3.2" height="3.2" style="fill: #a09084;"/>
      <rect x="54.3" y="83" width="3.2" height="3.2" style="fill: #a09084;"/>
      <rect x="54.3" y="79.8" width="3.2" height="3.2" style="fill: #a09084;"/>
      <rect x="54.3" y="76.6" width="3.2" height="3.2" style="fill: #a09084;"/>
      <rect x="54.3" y="73.4" width="3.2" height="3.2" style="fill: #a09084;"/>
      <rect x="54.3" y="70.2" width="3.2" height="3.2" style="fill: #333;"/>
      <rect x="54.3" y="67" width="3.2" height="3.2" style="fill: #e2e2e2;"/>
      <rect x="54.3" y="63.9" width="3.2" height="3.2" style="fill: #e2e2e2;"/>
      <rect x="54.3" y="60.7" width="3.2" height="3.2" style="fill: #e2e2e2;"/>
      <rect x="54.3" y="57.5" width="3.2" height="3.2" style="fill: #e2e2e2;"/>
      <rect x="54.3" y="54.3" width="3.2" height="3.2" style="fill: #e2e2e2;"/>
      <rect x="54.3" y="51.1" width="3.2" height="3.2" style="fill: #e2e2e2;"/>
      <rect x="54.3" y="48" width="3.2" height="3.2" style="fill: #e2e2e2;"/>
      <rect x="54.3" y="41.6" width="3.2" height="3.2" style="fill: #fcd3b2;"/>
      <rect x="54.3" y="38.4" width="3.2" height="3.2" style="fill: #fdada7;"/>
      <rect x="54.3" y="35.2" width="3.2" height="3.2" style="fill: #fcd3b2;"/>
      <rect x="54.3" y="32" width="3.2" height="3.2" style="fill: #fcd3b2;"/>
      <rect x="54.3" y="28.9" width="3.2" height="3.2" style="fill: #fcd3b2;"/>
      <rect x="54.3" y="25.7" width="3.2" height="3.2" style="fill: #fcd3b2;"/>
      <rect x="54.3" y="22.5" width="3.2" height="3.2" style="fill: #c69c6d;"/>
      <rect x="54.3" y="19.3" width="3.2" height="3.2" style="fill: #c69c6d;"/>
      <rect x="54.3" y="16.1" width="3.2" height="3.2" style="fill: #c69c6d;"/>
      <rect x="54.3" y="13" width="3.2" height="3.1" style="fill: #c69c6d;"/>
      <rect x="54.3" y="9.8" width="3.2" height="3.2" style="fill: #c69c6d;"/>
      <rect x="51.1" y="95.7" width="3.2" height="3.2" style="fill: #4e4e4e;"/>
      <rect x="51.1" y="92.5" width="3.2" height="3.2" style="fill: #666;"/>
      <rect x="51.1" y="89.3" width="3.2" height="3.2" style="fill: #666;"/>
      <rect x="51.1" y="86.1" width="3.2" height="3.2" style="fill: #a09084;"/>
      <rect x="51.1" y="83" width="3.2" height="3.2" style="fill: #a09084;"/>
      <rect x="51.1" y="79.8" width="3.2" height="3.2" style="fill: #a09084;"/>
      <rect x="51.1" y="76.6" width="3.2" height="3.2" style="fill: #a09084;"/>
      <rect x="51.1" y="73.4" width="3.2" height="3.2" style="fill: #a09084;"/>
      <rect x="51.1" y="70.2" width="3.2" height="3.2" style="fill: #333;"/>
      <rect x="51.1" y="67" width="3.2" height="3.2" style="fill: #e2e2e2;"/>
      <rect x="51.1" y="63.9" width="3.2" height="3.2" style="fill: #333;"/>
      <rect x="51.1" y="60.7" width="3.2" height="3.2" style="fill: #333;"/>
      <rect x="51.1" y="57.5" width="3.2" height="3.2" style="fill: #333;"/>
      <rect x="51.1" y="54.3" width="3.2" height="3.2" style="fill: #333;"/>
      <rect x="51.1" y="51.1" width="3.2" height="3.2" style="fill: #333;"/>
      <rect x="51.1" y="48" width="3.2" height="3.2" style="fill: #333;"/>
      <rect x="51.1" y="44.8" width="3.2" height="3.2" style="fill: #fcd3b2;"/>
      <rect x="51.1" y="41.6" width="3.2" height="3.2" style="fill: #fcd3b2;"/>
      <rect x="51.1" y="38.4" width="3.2" height="3.2" style="fill: #fdada7;"/>
      <rect x="51.1" y="35.2" width="3.2" height="3.2" style="fill: #fcd3b2;"/>
      <rect x="51.1" y="32" width="3.2" height="3.2" style="fill: #fcd3b2;"/>
      <rect x="51.1" y="28.9" width="3.2" height="3.2" style="fill: #fcd3b2;"/>
      <rect x="51.1" y="25.7" width="3.2" height="3.2" style="fill: #fcd3b2;"/>
      <rect x="51.1" y="22.5" width="3.2" height="3.2" style="fill: #c69c6d;"/>
      <rect x="51.1" y="19.3" width="3.2" height="3.2" style="fill: #c69c6d;"/>
      <rect x="51.1" y="16.1" width="3.2" height="3.2" style="fill: #c69c6d;"/>
      <rect x="51.1" y="13" width="3.2" height="3.1" style="fill: #c69c6d;"/>
      <rect x="51.1" y="9.8" width="3.2" height="3.2" style="fill: #c69c6d;"/>
      <rect x="48" y="95.7" width="3.2" height="3.2" style="fill: #4e4e4e;"/>
      <rect x="48" y="92.5" width="3.2" height="3.2" style="fill: #666;"/>
      <rect x="48" y="89.3" width="3.2" height="3.2" style="fill: #42210b;"/>
      <rect x="48" y="86.1" width="3.2" height="3.2" style="fill: #42210b;"/>
      <rect x="48" y="83" width="3.2" height="3.2" style="fill: #42210b;"/>
      <rect x="48" y="79.8" width="3.2" height="3.2" style="fill: #42210b;"/>
      <rect x="48" y="76.6" width="3.2" height="3.2" style="fill: #c7b299;"/>
      <rect x="48" y="73.4" width="3.2" height="3.2" style="fill: #c7b299;"/>
      <rect x="48" y="70.2" width="3.2" height="3.2" style="fill: #333;"/>
      <rect x="48" y="67" width="3.2" height="3.2" style="fill: #e2e2e2;"/>
      <rect x="48" y="63.9" width="3.2" height="3.2" style="fill: #e2e2e2;"/>
      <rect x="48" y="60.7" width="3.2" height="3.2" style="fill: #e2e2e2;"/>
      <rect x="48" y="57.5" width="3.2" height="3.2" style="fill: #e2e2e2;"/>
      <rect x="48" y="54.3" width="3.2" height="3.2" style="fill: #e2e2e2;"/>
      <rect x="48" y="51.1" width="3.2" height="3.2" style="fill: #e2e2e2;"/>
      <rect x="48" y="48" width="3.2" height="3.2" style="fill: #e2e2e2;"/>
      <rect x="48" y="44.8" width="3.2" height="3.2" style="fill: #fcd3b2;"/>
      <rect x="48" y="41.6" width="3.2" height="3.2" style="fill: #fcd3b2;"/>
      <rect x="48" y="38.4" width="3.2" height="3.2" style="fill: #fcd3b2;"/>
      <rect x="48" y="35.2" width="3.2" height="3.2" style="fill: #fcd3b2;"/>
      <rect x="48" y="32" width="3.2" height="3.2" style="fill: #fcd3b2;"/>
      <rect x="48" y="28.9" width="3.2" height="3.2" style="fill: #fcd3b2;"/>
      <rect x="48" y="25.7" width="3.2" height="3.2" style="fill: #fcd3b2;"/>
      <rect x="48" y="22.5" width="3.2" height="3.2" style="fill: #fcd3b2;"/>
      <rect x="48" y="19.3" width="3.2" height="3.2" style="fill: #c69c6d;"/>
      <rect x="48" y="16.1" width="3.2" height="3.2" style="fill: #c69c6d;"/>
      <rect x="48" y="13" width="3.2" height="3.1" style="fill: #c69c6d;"/>
      <rect x="48" y="9.8" width="3.2" height="3.2" style="fill: #c69c6d;"/>
      <rect x="44.8" y="95.7" width="3.2" height="3.2" style="fill: #4e4e4e;"/>
      <rect x="44.8" y="92.5" width="3.2" height="3.2" style="fill: #666;"/>
      <rect x="44.8" y="89.3" width="3.2" height="3.2" style="fill: #42210b;"/>
      <rect x="44.8" y="86.1" width="3.2" height="3.2" style="fill: #42210b;"/>
      <rect x="44.8" y="83" width="3.2" height="3.2" style="fill: #603813;"/>
      <rect x="44.8" y="79.8" width="3.2" height="3.2" style="fill: #603813;"/>
      <rect x="44.8" y="76.6" width="3.2" height="3.2" style="fill: #603813;"/>
      <rect x="44.8" y="73.4" width="3.2" height="3.2" style="fill: #603813;"/>
      <rect x="44.8" y="70.2" width="3.2" height="3.2" style="fill: #333;"/>
      <rect x="44.8" y="67" width="3.2" height="3.2" style="fill: #e2e2e2;"/>
      <rect x="44.8" y="63.9" width="3.2" height="3.2" style="fill: #e2e2e2;"/>
      <rect x="44.8" y="60.7" width="3.2" height="3.2" style="fill: #e2e2e2;"/>
      <rect x="44.8" y="57.5" width="3.2" height="3.2" style="fill: #e2e2e2;"/>
      <rect x="44.8" y="54.3" width="3.2" height="3.2" style="fill: #e2e2e2;"/>
      <rect x="44.8" y="51.1" width="3.2" height="3.2" style="fill: #e2e2e2;"/>
      <rect x="44.8" y="48" width="3.2" height="3.2" style="fill: #e2e2e2;"/>
      <rect x="44.8" y="41.6" width="3.2" height="3.2" style="fill: #fcd3b2;"/>
      <rect x="44.8" y="38.4" width="3.2" height="3.2" style="fill: #fcd3b2;"/>
      <rect x="44.8" y="35.2" width="3.2" height="3.2" style="fill: #fcd3b2;"/>
      <rect x="44.8" y="32" width="3.2" height="3.2" style="fill: #5a846b;"/>
      <rect x="44.8" y="28.9" width="3.2" height="3.2" style="fill: #427057;"/>
      <rect x="44.8" y="25.7" width="3.2" height="3.2" style="fill: #fcd3b2;"/>
      <rect x="44.8" y="22.5" width="3.2" height="3.2" style="fill: #c69c6d;"/>
      <rect x="44.8" y="19.3" width="3.2" height="3.2" style="fill: #c69c6d;"/>
      <rect x="44.8" y="16.1" width="3.2" height="3.2" style="fill: #c69c6d;"/>
      <rect x="44.8" y="13" width="3.2" height="3.1" style="fill: #c69c6d;"/>
      <rect x="44.8" y="9.8" width="3.2" height="3.2" style="fill: #c69c6d;"/>
      <rect x="41.6" y="95.7" width="3.2" height="3.2" style="fill: #4e4e4e;"/>
      <rect x="41.6" y="92.5" width="3.2" height="3.2" style="fill: #666;"/>
      <rect x="41.6" y="89.3" width="3.2" height="3.2" style="fill: #42210b;"/>
      <rect x="41.6" y="86.1" width="3.2" height="3.2" style="fill: #42210b;"/>
      <rect x="41.6" y="83" width="3.2" height="3.2" style="fill: #603813;"/>
      <rect x="41.6" y="79.8" width="3.2" height="3.2" style="fill: #603813;"/>
      <rect x="41.6" y="76.6" width="3.2" height="3.2" style="fill: #c7b299;"/>
      <rect x="41.6" y="73.4" width="3.2" height="3.2" style="fill: #ffcca9;"/>
      <rect x="41.6" y="70.2" width="3.2" height="3.2" style="fill: #ffcca9;"/>
      <rect x="41.6" y="67" width="3.2" height="3.2" style="fill: #fcd3b2;"/>
      <rect x="41.6" y="63.9" width="3.2" height="3.2" style="fill: #fcd3b2;"/>
      <rect x="41.6" y="60.7" width="3.2" height="3.2" style="fill: #fcd3b2;"/>
      <rect x="41.6" y="57.5" width="3.2" height="3.2" style="fill: #fcd3b2;"/>
      <rect x="41.6" y="54.3" width="3.2" height="3.2" style="fill: #e2e2e2;"/>
      <rect x="41.6" y="51.1" width="3.2" height="3.2" style="fill: #e2e2e2;"/>
      <rect x="41.6" y="48" width="3.2" height="3.2" style="fill: #e2e2e2;"/>
      <rect x="41.6" y="41.6" width="3.2" height="3.2" style="fill: #fcd3b2;"/>
      <rect x="41.6" y="38.4" width="3.2" height="3.2" style="fill: #fcd3b2;"/>
      <rect x="41.6" y="35.2" width="3.2" height="3.2" style="fill: #fcd3b2;"/>
      <rect x="41.6" y="32" width="3.2" height="3.2" style="fill: #fcd3b2;"/>
      <rect x="41.6" y="28.9" width="3.2" height="3.2" style="fill: #fcd3b2;"/>
      <rect x="41.6" y="25.7" width="3.2" height="3.2" style="fill: #fcd3b2;"/>
      <rect x="41.6" y="22.5" width="3.2" height="3.2" style="fill: #c69c6d;"/>
      <rect x="41.6" y="19.3" width="3.2" height="3.2" style="fill: #c69c6d;"/>
      <rect x="41.6" y="16.1" width="3.2" height="3.2" style="fill: #c69c6d;"/>
      <rect x="41.6" y="13" width="3.2" height="3.1" style="fill: #c69c6d;"/>
      <rect x="41.6" y="9.8" width="3.2" height="3.2" style="fill: #c69c6d;"/>
      <rect x="38.4" y="89.3" width="3.2" height="3.2" style="fill: #42210b;"/>
      <rect x="38.4" y="86.1" width="3.2" height="3.2" style="fill: #42210b;"/>
      <rect x="38.4" y="83" width="3.2" height="3.2" style="fill: #603813;"/>
      <rect x="38.4" y="79.8" width="3.2" height="3.2" style="fill: #603813;"/>
      <rect x="38.4" y="73.4" width="3.2" height="3.2" style="fill: #ffcca9;"/>
      <rect x="38.4" y="70.2" width="3.2" height="3.2" style="fill: #ffcca9;"/>
      <rect x="38.4" y="67" width="3.2" height="3.2" style="fill: #fcd3b2;"/>
      <rect x="38.4" y="63.9" width="3.2" height="3.2" style="fill: #fcd3b2;"/>
      <rect x="38.4" y="60.7" width="3.2" height="3.2" style="fill: #fcd3b2;"/>
      <rect x="38.4" y="57.5" width="3.2" height="3.2" style="fill: #fcd3b2;"/>
      <rect x="38.4" y="54.3" width="3.2" height="3.2" style="fill: #e2e2e2;"/>
      <rect x="38.4" y="51.1" width="3.2" height="3.2" style="fill: #e2e2e2;"/>
      <rect x="38.4" y="41.6" width="3.2" height="3.2" style="fill: #fcd3b2;"/>
      <rect x="38.4" y="38.4" width="3.2" height="3.2" style="fill: #fcd3b2;"/>
      <rect x="38.4" y="35.2" width="3.2" height="3.2" style="fill: #fcd3b2;"/>
      <rect x="38.4" y="32" width="3.2" height="3.2" style="fill: #fcd3b2;"/>
      <rect x="38.4" y="28.9" width="3.2" height="3.2" style="fill: #fcd3b2;"/>
      <rect x="38.4" y="25.7" width="3.2" height="3.2" style="fill: #c69c6d;"/>
      <rect x="38.4" y="22.5" width="3.2" height="3.2" style="fill: #c69c6d;"/>
      <rect x="38.4" y="19.3" width="3.2" height="3.2" style="fill: #c69c6d;"/>
      <rect x="38.4" y="16.1" width="3.2" height="3.2" style="fill: #c69c6d;"/>
      <rect x="38.4" y="13" width="3.2" height="3.1" style="fill: #c69c6d;"/>
      <rect x="38.4" y="9.8" width="3.2" height="3.2" style="fill: #c69c6d;"/>
      <rect x="35.2" y="89.3" width="3.2" height="3.2" style="fill: #42210b;"/>
      <rect x="35.2" y="86.1" width="3.2" height="3.2" style="fill: #42210b;"/>
      <rect x="35.2" y="83" width="3.2" height="3.2" style="fill: #603813;"/>
      <rect x="35.2" y="79.8" width="3.2" height="3.2" style="fill: #603813;"/>
      <rect x="35.2" y="76.6" width="3.2" height="3.2" style="fill: #603813;"/>
      <rect x="35.2" y="73.4" width="3.2" height="3.2" style="fill: #603813;"/>
      <rect x="35.2" y="41.6" width="3.2" height="3.2" style="fill: #fcd3b2;"/>
      <rect x="35.2" y="38.4" width="3.2" height="3.2" style="fill: #fcd3b2;"/>
      <rect x="35.2" y="35.2" width="3.2" height="3.2" style="fill: #fcd3b2;"/>
      <rect x="35.2" y="32" width="3.2" height="3.2" style="fill: #c69c6d;"/>
      <rect x="35.2" y="28.9" width="3.2" height="3.2" style="fill: #c69c6d;"/>
      <rect x="35.2" y="25.7" width="3.2" height="3.2" style="fill: #c69c6d;"/>
      <rect x="35.2" y="22.5" width="3.2" height="3.2" style="fill: #c69c6d;"/>
      <rect x="35.2" y="19.3" width="3.2" height="3.2" style="fill: #c69c6d;"/>
      <rect x="35.2" y="16.1" width="3.2" height="3.2" style="fill: #c69c6d;"/>
      <rect x="35.2" y="13" width="3.2" height="3.1" style="fill: #c69c6d;"/>
      <rect x="35.2" y="9.8" width="3.2" height="3.2" style="fill: #c69c6d;"/>
      <rect x="32.1" y="89.3" width="3.2" height="3.2" style="fill: #42210b;"/>
      <rect x="32.1" y="86.1" width="3.2" height="3.2" style="fill: #42210b;"/>
      <rect x="32.1" y="83" width="3.2" height="3.2" style="fill: #42210b;"/>
      <rect x="32.1" y="79.8" width="3.2" height="3.2" style="fill: #42210b;"/>
      <rect x="32.1" y="38.4" width="3.2" height="3.2" style="fill: #fcd3b2;"/>
      <rect x="32.1" y="35.2" width="3.2" height="3.2" style="fill: #c69c6d;"/>
      <rect x="32.1" y="32" width="3.2" height="3.2" style="fill: #c69c6d;"/>
      <rect x="32.1" y="28.9" width="3.2" height="3.2" style="fill: #c69c6d;"/>
      <rect x="32.1" y="25.7" width="3.2" height="3.2" style="fill: #c69c6d;"/>
      <rect x="32.1" y="22.5" width="3.2" height="3.2" style="fill: #c69c6d;"/>
      <rect x="32.1" y="19.3" width="3.2" height="3.2" style="fill: #c69c6d;"/>
      <rect x="32.1" y="16.1" width="3.2" height="3.2" style="fill: #c69c6d;"/>
      <rect x="32.1" y="13" width="3.2" height="3.1" style="fill: #c69c6d;"/>
      <rect x="28.9" y="35.2" width="3.2" height="3.2" style="fill: #fcd3b2;"/>
      <rect x="28.9" y="32" width="3.2" height="3.2" style="fill: #fcd3b2;"/>
      <rect x="28.9" y="28.9" width="3.2" height="3.2" style="fill: #c69c6d;"/>
      <rect x="28.9" y="25.7" width="3.2" height="3.2" style="fill: #c69c6d;"/>
      <rect x="28.9" y="22.5" width="3.2" height="3.2" style="fill: #c69c6d;"/>
      <rect x="28.9" y="19.3" width="3.2" height="3.2" style="fill: #c69c6d;"/>
      <rect x="28.9" y="16.1" width="3.2" height="3.2" style="fill: #c69c6d;"/>
    </g>
  </g>
</svg>