<?xml version="1.0" encoding="UTF-8"?>
<svg id="Ebene_2" data-name="Ebene 2" xmlns="http://www.w3.org/2000/svg" width="105.9" height="105.9" viewBox="0 0 105.9 105.9">
  <g id="Web-Designer">
    <g>
      <rect x="70.5" y="45" width="3.2" height="3.2" style="fill: #ff7bac;"/>
      <rect x="70.5" y="41.8" width="3.2" height="3.2" style="fill: #ff7bac;"/>
      <rect x="70.5" y="38.6" width="3.2" height="3.2" style="fill: #ff7bac;"/>
      <rect x="70.5" y="35.4" width="3.2" height="3.2" style="fill: #ff7bac;"/>
      <rect x="70.5" y="32.2" width="3.2" height="3.2" style="fill: #ff7bac;"/>
      <rect x="70.5" y="29" width="3.2" height="3.2" style="fill: #c40553;"/>
      <rect x="70.5" y="25.8" width="3.2" height="3.2" style="fill: #c40553;"/>
      <rect x="70.5" y="22.6" width="3.2" height="3.2" style="fill: #ff7bac;"/>
      <rect x="67.3" y="48.2" width="3.2" height="3.2" style="fill: #ff7bac;"/>
      <rect x="67.3" y="45" width="3.2" height="3.2" style="fill: #ff7bac;"/>
      <rect x="67.3" y="41.8" width="3.2" height="3.2" style="fill: #ff7bac;"/>
      <rect x="67.3" y="38.6" width="3.2" height="3.2" style="fill: #ffe3cc;"/>
      <rect x="67.3" y="35.4" width="3.2" height="3.2" style="fill: #ffe3cc;"/>
      <rect x="67.3" y="32.2" width="3.2" height="3.2" style="fill: #ffe3cc;"/>
      <rect x="67.3" y="29" width="3.2" height="3.2" style="fill: #ff7bac;"/>
      <rect x="67.3" y="25.8" width="3.2" height="3.2" style="fill: #c40553;"/>
      <rect x="67.3" y="22.6" width="3.2" height="3.2" style="fill: #c40553;"/>
      <rect x="67.3" y="19.4" width="3.2" height="3.2" style="fill: #ff7bac;"/>
      <rect x="67.3" y="16.2" width="3.2" height="3.2" style="fill: #ff7bac;"/>
      <rect x="64.1" y="51.3" width="3.2" height="3.2" style="fill: #ff7bac;"/>
      <rect x="64.1" y="48.2" width="3.2" height="3.2" style="fill: #ff7bac;"/>
      <rect x="64.1" y="45" width="3.2" height="3.2" style="fill: #ff7bac;"/>
      <rect x="64.1" y="41.8" width="3.2" height="3.2" style="fill: #ffe3cc;"/>
      <rect x="64.1" y="38.6" width="3.2" height="3.2" style="fill: #ffe3cc;"/>
      <rect x="64.1" y="35.4" width="3.2" height="3.2" style="fill: #ffe3cc;"/>
      <rect x="64.1" y="32.2" width="3.2" height="3.2" style="fill: #ffe3cc;"/>
      <rect x="64.1" y="29" width="3.2" height="3.2" style="fill: #ffe3cc;"/>
      <rect x="64.1" y="25.8" width="3.2" height="3.2" style="fill: #ff7bac;"/>
      <rect x="64.1" y="22.6" width="3.2" height="3.2" style="fill: #c40553;"/>
      <rect x="64.1" y="19.4" width="3.2" height="3.2" style="fill: #c40553;"/>
      <rect x="64.1" y="16.2" width="3.2" height="3.2" style="fill: #ff7bac;"/>
      <rect x="64.1" y="13" width="3.2" height="3.2" style="fill: #ff7bac;"/>
      <rect x="60.9" y="96.1" width="3.2" height="3.2" style="fill: #666;"/>
      <rect x="60.9" y="92.9" width="3.2" height="3.2" style="fill: #b6bdc6;"/>
      <rect x="60.9" y="73.7" width="3.2" height="3.2" style="fill: #ffe3cc;"/>
      <rect x="60.9" y="70.5" width="3.2" height="3.2" style="fill: #ffe3cc;"/>
      <rect x="60.9" y="67.3" width="3.2" height="3.2" style="fill: #ffe3cc;"/>
      <rect x="60.9" y="64.1" width="3.2" height="3.2" style="fill: #ffe3cc;"/>
      <rect x="60.9" y="60.9" width="3.2" height="3.2" style="fill: #ffe3cc;"/>
      <rect x="60.9" y="57.7" width="3.2" height="3.2" style="fill: #ffe3cc;"/>
      <rect x="60.9" y="54.5" width="3.2" height="3.2" style="fill: #a4d0ff;"/>
      <rect x="60.9" y="51.3" width="3.2" height="3.2" style="fill: #a4d0ff;"/>
      <rect x="60.9" y="48.2" width="3.2" height="3.2" style="fill: #ff7bac;"/>
      <rect x="60.9" y="45" width="3.2" height="3.2" style="fill: #ff7bac;"/>
      <rect x="60.9" y="41.8" width="3.2" height="3.2" style="fill: #ffe3cc;"/>
      <rect x="60.9" y="38.6" width="3.2" height="3.2" style="fill: #ffe3cc;"/>
      <rect x="60.9" y="35.4" width="3.2" height="3.2" style="fill: #ffe3cc;"/>
      <rect x="60.9" y="32.2" width="3.2" height="3.2" style="fill: #2999ff;"/>
      <rect x="60.9" y="29" width="3.2" height="3.2" style="fill: #30477a;"/>
      <rect x="60.9" y="25.8" width="3.2" height="3.2" style="fill: #ffe3cc;"/>
      <rect x="60.9" y="22.6" width="3.2" height="3.2" style="fill: #ff7bac;"/>
      <rect x="60.9" y="19.4" width="3.2" height="3.2" style="fill: #c40553;"/>
      <rect x="60.9" y="16.2" width="3.2" height="3.2" style="fill: #c40553;"/>
      <rect x="60.9" y="13" width="3.2" height="3.2" style="fill: #ff7bac;"/>
      <rect x="60.9" y="9.8" width="3.2" height="3.2" style="fill: #ff7bac;"/>
      <rect x="57.7" y="96.1" width="3.2" height="3.2" style="fill: #666;"/>
      <rect x="57.7" y="92.9" width="3.2" height="3.2" style="fill: #b6bdc6;"/>
      <rect x="57.7" y="89.7" width="3.2" height="3.2" style="fill: #ff7bac;"/>
      <rect x="57.7" y="73.7" width="3.2" height="3.2" style="fill: #ffe3cc;"/>
      <rect x="57.7" y="70.5" width="3.2" height="3.2" style="fill: #ffe3cc;"/>
      <rect x="57.7" y="67.3" width="3.2" height="3.2" style="fill: #ffe3cc;"/>
      <rect x="57.7" y="64.1" width="3.2" height="3.2" style="fill: #ffe3cc;"/>
      <rect x="57.7" y="60.9" width="3.2" height="3.2" style="fill: #ffe3cc;"/>
      <rect x="57.7" y="57.7" width="3.2" height="3.2" style="fill: #ffe3cc;"/>
      <rect x="57.7" y="54.5" width="3.2" height="3.2" style="fill: #a4d0ff;"/>
      <rect x="57.7" y="51.3" width="3.2" height="3.2" style="fill: #a4d0ff;"/>
      <rect x="57.7" y="48.2" width="3.2" height="3.2" style="fill: #a4d0ff;"/>
      <rect x="57.7" y="45" width="3.2" height="3.2" style="fill: #ff7bac;"/>
      <rect x="57.7" y="41.8" width="3.2" height="3.2" style="fill: #ffe3cc;"/>
      <rect x="57.7" y="38.6" width="3.2" height="3.2" style="fill: #ffe3cc;"/>
      <rect x="57.7" y="35.4" width="3.2" height="3.2" style="fill: #ffe3cc;"/>
      <rect x="57.7" y="32.2" width="3.2" height="3.2" style="fill: #ffe3cc;"/>
      <rect x="57.7" y="29" width="3.2" height="3.2" style="fill: #ffe3cc;"/>
      <rect x="57.7" y="25.8" width="3.2" height="3.2" style="fill: #ffe3cc;"/>
      <rect x="57.7" y="22.6" width="3.2" height="3.2" style="fill: #ffe3cc;"/>
      <rect x="57.7" y="19.4" width="3.2" height="3.2" style="fill: #ff7bac;"/>
      <rect x="57.7" y="16.2" width="3.2" height="3.2" style="fill: #c40553;"/>
      <rect x="57.7" y="13" width="3.2" height="3.2" style="fill: #c40553;"/>
      <rect x="57.7" y="9.8" width="3.2" height="3.2" style="fill: #ff7bac;"/>
      <rect x="54.5" y="96.1" width="3.2" height="3.2" style="fill: #b3b3b3;"/>
      <rect x="54.5" y="92.9" width="3.2" height="3.2" style="fill: #d5d9e0;"/>
      <rect x="54.5" y="89.7" width="3.2" height="3.2" style="fill: #b6bdc6;"/>
      <rect x="54.5" y="86.5" width="3.2" height="3.2" style="fill: #ff7bac;"/>
      <rect x="54.5" y="83.3" width="3.2" height="3.2" style="fill: #162954;"/>
      <rect x="54.5" y="80.1" width="3.2" height="3.2" style="fill: #31c975;"/>
      <rect x="54.5" y="76.9" width="3.2" height="3.2" style="fill: #31c975;"/>
      <rect x="54.5" y="73.7" width="3.2" height="3.2" style="fill: #162954;"/>
      <rect x="54.5" y="70.5" width="3.2" height="3.2" style="fill: #a4d0ff;"/>
      <rect x="54.5" y="67.3" width="3.2" height="3.2" style="fill: #2999ff;"/>
      <rect x="54.5" y="64.1" width="3.2" height="3.2" style="fill: #30477a;"/>
      <rect x="54.5" y="60.9" width="3.2" height="3.2" style="fill: #30477a;"/>
      <rect x="54.5" y="57.7" width="3.2" height="3.2" style="fill: #30477a;"/>
      <rect x="54.5" y="54.5" width="3.2" height="3.2" style="fill: #f9e02b;"/>
      <rect x="54.5" y="51.3" width="3.2" height="3.2" style="fill: #30477a;"/>
      <rect x="54.5" y="48.2" width="3.2" height="3.2" style="fill: #30477a;"/>
      <rect x="54.5" y="45" width="3.2" height="3.2" style="fill: #ff7bac;"/>
      <rect x="54.5" y="41.8" width="3.2" height="3.2" style="fill: #ffe3cc;"/>
      <rect x="54.5" y="38.6" width="3.2" height="3.2" style="fill: #fdada7;"/>
      <rect x="54.5" y="35.4" width="3.2" height="3.2" style="fill: #ffe3cc;"/>
      <rect x="54.5" y="32.2" width="3.2" height="3.2" style="fill: #ffe3cc;"/>
      <rect x="54.5" y="29" width="3.2" height="3.2" style="fill: #ffe3cc;"/>
      <rect x="54.5" y="25.8" width="3.2" height="3.2" style="fill: #ffe3cc;"/>
      <rect x="54.5" y="22.6" width="3.2" height="3.2" style="fill: #ff7bac;"/>
      <rect x="54.5" y="19.4" width="3.2" height="3.2" style="fill: #ff7bac;"/>
      <rect x="54.5" y="16.2" width="3.2" height="3.2" style="fill: #c40553;"/>
      <rect x="54.5" y="13" width="3.2" height="3.2" style="fill: #c40553;"/>
      <rect x="54.5" y="9.8" width="3.2" height="3.2" style="fill: #ff7bac;"/>
      <rect x="51.3" y="96.1" width="3.2" height="3.2" style="fill: #b3b3b3;"/>
      <rect x="51.3" y="92.9" width="3.2" height="3.2" style="fill: #d5d9e0;"/>
      <rect x="51.3" y="89.7" width="3.2" height="3.2" style="fill: #ff7bac;"/>
      <rect x="51.3" y="86.5" width="3.2" height="3.2" style="fill: #162954;"/>
      <rect x="51.3" y="83.3" width="3.2" height="3.2" style="fill: #162954;"/>
      <rect x="51.3" y="80.1" width="3.2" height="3.2" style="fill: #162954;"/>
      <rect x="51.3" y="76.9" width="3.2" height="3.2" style="fill: #31c975;"/>
      <rect x="51.3" y="73.7" width="3.2" height="3.2" style="fill: #162954;"/>
      <rect x="51.3" y="70.5" width="3.2" height="3.2" style="fill: #a4d0ff;"/>
      <rect x="51.3" y="67.3" width="3.2" height="3.2" style="fill: #30477a;"/>
      <rect x="51.3" y="64.1" width="3.2" height="3.2" style="fill: #2999ff;"/>
      <rect x="51.3" y="60.9" width="3.2" height="3.2" style="fill: #162954;"/>
      <rect x="51.3" y="57.7" width="3.2" height="3.2" style="fill: #162954;"/>
      <rect x="51.3" y="54.5" width="3.2" height="3.2" style="fill: #f9e02b;"/>
      <rect x="51.3" y="51.3" width="3.2" height="3.2" style="fill: #a4d0ff;"/>
      <rect x="51.3" y="48.2" width="3.2" height="3.2" style="fill: #a4d0ff;"/>
      <rect x="51.3" y="45" width="3.2" height="3.2" style="fill: #ffe3cc;"/>
      <rect x="51.3" y="41.8" width="3.2" height="3.2" style="fill: #ffe3cc;"/>
      <rect x="51.3" y="38.6" width="3.2" height="3.2" style="fill: #fdada7;"/>
      <rect x="51.3" y="35.4" width="3.2" height="3.2" style="fill: #ffe3cc;"/>
      <rect x="51.3" y="32.2" width="3.2" height="3.2" style="fill: #ffe3cc;"/>
      <rect x="51.3" y="29" width="3.2" height="3.2" style="fill: #ffe3cc;"/>
      <rect x="51.3" y="25.8" width="3.2" height="3.2" style="fill: #ffe3cc;"/>
      <rect x="51.3" y="22.6" width="3.2" height="3.2" style="fill: #ff7bac;"/>
      <rect x="51.3" y="19.4" width="3.2" height="3.2" style="fill: #ff7bac;"/>
      <rect x="51.3" y="16.2" width="3.2" height="3.2" style="fill: #c40553;"/>
      <rect x="51.3" y="13" width="3.2" height="3.2" style="fill: #c40553;"/>
      <rect x="51.3" y="9.8" width="3.2" height="3.2" style="fill: #ff7bac;"/>
      <rect x="48.2" y="96.1" width="3.2" height="3.2" style="fill: #b3b3b3;"/>
      <rect x="48.2" y="92.9" width="3.2" height="3.2" style="fill: #ff9dac;"/>
      <rect x="48.2" y="89.7" width="3.2" height="3.2" style="fill: #d5d9e0;"/>
      <rect x="48.2" y="86.5" width="3.2" height="3.2" style="fill: #ff7bac;"/>
      <rect x="48.2" y="83.3" width="3.2" height="3.2" style="fill: #30477a;"/>
      <rect x="48.2" y="80.1" width="3.2" height="3.2" style="fill: #30477a;"/>
      <rect x="48.2" y="76.9" width="3.2" height="3.2" style="fill: #30477a;"/>
      <rect x="48.2" y="73.7" width="3.2" height="3.2" style="fill: #30477a;"/>
      <rect x="48.2" y="70.5" width="3.2" height="3.2" style="fill: #a4d0ff;"/>
      <rect x="48.2" y="67.3" width="3.2" height="3.2" style="fill: #30477a;"/>
      <rect x="48.2" y="64.1" width="3.2" height="3.2" style="fill: #30477a;"/>
      <rect x="48.2" y="60.9" width="3.2" height="3.2" style="fill: #162954;"/>
      <rect x="48.2" y="57.7" width="3.2" height="3.2" style="fill: #162954;"/>
      <rect x="48.2" y="54.5" width="3.2" height="3.2" style="fill: #30477a;"/>
      <rect x="48.2" y="51.3" width="3.2" height="3.2" style="fill: #a4d0ff;"/>
      <rect x="48.2" y="48.2" width="3.2" height="3.2" style="fill: #a4d0ff;"/>
      <rect x="48.2" y="45" width="3.2" height="3.2" style="fill: #ffe3cc;"/>
      <rect x="48.2" y="41.8" width="3.2" height="3.2" style="fill: #ffe3cc;"/>
      <rect x="48.2" y="38.6" width="3.2" height="3.2" style="fill: #ffe3cc;"/>
      <rect x="48.2" y="35.4" width="3.2" height="3.2" style="fill: #ffe3cc;"/>
      <rect x="48.2" y="32.2" width="3.2" height="3.2" style="fill: #ffe3cc;"/>
      <rect x="48.2" y="29" width="3.2" height="3.2" style="fill: #ffe3cc;"/>
      <rect x="48.2" y="25.8" width="3.2" height="3.2" style="fill: #ffe3cc;"/>
      <rect x="48.2" y="22.6" width="3.2" height="3.2" style="fill: #ff7bac;"/>
      <rect x="48.2" y="19.4" width="3.2" height="3.2" style="fill: #ff7bac;"/>
      <rect x="48.2" y="16.2" width="3.2" height="3.2" style="fill: #c40553;"/>
      <rect x="48.2" y="13" width="3.2" height="3.2" style="fill: #c40553;"/>
      <rect x="48.2" y="9.8" width="3.2" height="3.2" style="fill: #ff7bac;"/>
      <rect x="45" y="96.1" width="3.2" height="3.2" style="fill: #b3b3b3;"/>
      <rect x="45" y="92.9" width="3.2" height="3.2" style="fill: #d5d9e0;"/>
      <rect x="45" y="89.7" width="3.2" height="3.2" style="fill: #ff9dac;"/>
      <rect x="45" y="86.5" width="3.2" height="3.2" style="fill: #30477a;"/>
      <rect x="45" y="83.3" width="3.2" height="3.2" style="fill: #30477a;"/>
      <rect x="45" y="80.1" width="3.2" height="3.2" style="fill: #a91860;"/>
      <rect x="45" y="76.9" width="3.2" height="3.2" style="fill: #30477a;"/>
      <rect x="45" y="73.7" width="3.2" height="3.2" style="fill: #e21e1e;"/>
      <rect x="45" y="70.5" width="3.2" height="3.2" style="fill: #a4d0ff;"/>
      <rect x="45" y="67.3" width="3.2" height="3.2" style="fill: #30477a;"/>
      <rect x="45" y="64.1" width="3.2" height="3.2" style="fill: #30477a;"/>
      <rect x="45" y="60.9" width="3.2" height="3.2" style="fill: #f44b16;"/>
      <rect x="45" y="57.7" width="3.2" height="3.2" style="fill: #30477a;"/>
      <rect x="45" y="54.5" width="3.2" height="3.2" style="fill: #30477a;"/>
      <rect x="45" y="51.3" width="3.2" height="3.2" style="fill: #30477a;"/>
      <rect x="45" y="48.2" width="3.2" height="3.2" style="fill: #30477a;"/>
      <rect x="45" y="45" width="3.2" height="3.2" style="fill: #ff7bac;"/>
      <rect x="45" y="41.8" width="3.2" height="3.2" style="fill: #ffe3cc;"/>
      <rect x="45" y="38.6" width="3.2" height="3.2" style="fill: #ffe3cc;"/>
      <rect x="45" y="35.4" width="3.2" height="3.2" style="fill: #ffe3cc;"/>
      <rect x="45" y="32.2" width="3.2" height="3.2" style="fill: #2999ff;"/>
      <rect x="45" y="29" width="3.2" height="3.2" style="fill: #30477a;"/>
      <rect x="45" y="25.8" width="3.2" height="3.2" style="fill: #ffe3cc;"/>
      <rect x="45" y="22.6" width="3.2" height="3.2" style="fill: #ffe3cc;"/>
      <rect x="45" y="19.4" width="3.2" height="3.2" style="fill: #ff7bac;"/>
      <rect x="45" y="16.2" width="3.2" height="3.2" style="fill: #c40553;"/>
      <rect x="45" y="13" width="3.2" height="3.2" style="fill: #c40553;"/>
      <rect x="45" y="9.8" width="3.2" height="3.2" style="fill: #ff7bac;"/>
      <rect x="41.8" y="96.1" width="3.2" height="3.2" style="fill: #b3b3b3;"/>
      <rect x="41.8" y="92.9" width="3.2" height="3.2" style="fill: #d5d9e0;"/>
      <rect x="41.8" y="89.7" width="3.2" height="3.2" style="fill: #d5d9e0;"/>
      <rect x="41.8" y="86.5" width="3.2" height="3.2" style="fill: #30477a;"/>
      <rect x="41.8" y="83.3" width="3.2" height="3.2" style="fill: #a91860;"/>
      <rect x="41.8" y="80.1" width="3.2" height="3.2" style="fill: #a91860;"/>
      <rect x="41.8" y="76.9" width="3.2" height="3.2" style="fill: #30477a;"/>
      <rect x="41.8" y="73.7" width="3.2" height="3.2" style="fill: #ffe3cc;"/>
      <rect x="41.8" y="70.5" width="3.2" height="3.2" style="fill: #ffe3cc;"/>
      <rect x="41.8" y="67.3" width="3.2" height="3.2" style="fill: #ffe3cc;"/>
      <rect x="41.8" y="64.1" width="3.2" height="3.2" style="fill: #ffe3cc;"/>
      <rect x="41.8" y="60.9" width="3.2" height="3.2" style="fill: #ffe3cc;"/>
      <rect x="41.8" y="57.7" width="3.2" height="3.2" style="fill: #ffe3cc;"/>
      <rect x="41.8" y="54.5" width="3.2" height="3.2" style="fill: #a4d0ff;"/>
      <rect x="41.8" y="51.3" width="3.2" height="3.2" style="fill: #a4d0ff;"/>
      <rect x="41.8" y="48.2" width="3.2" height="3.2" style="fill: #a4d0ff;"/>
      <rect x="41.8" y="45" width="3.2" height="3.2" style="fill: #ff7bac;"/>
      <rect x="41.8" y="41.8" width="3.2" height="3.2" style="fill: #ffe3cc;"/>
      <rect x="41.8" y="38.6" width="3.2" height="3.2" style="fill: #ffe3cc;"/>
      <rect x="41.8" y="35.4" width="3.2" height="3.2" style="fill: #ffe3cc;"/>
      <rect x="41.8" y="32.2" width="3.2" height="3.2" style="fill: #ffe3cc;"/>
      <rect x="41.8" y="29" width="3.2" height="3.2" style="fill: #ffe3cc;"/>
      <rect x="41.8" y="25.8" width="3.2" height="3.2" style="fill: #ffe3cc;"/>
      <rect x="41.8" y="22.6" width="3.2" height="3.2" style="fill: #ff7bac;"/>
      <rect x="41.8" y="19.4" width="3.2" height="3.2" style="fill: #ff7bac;"/>
      <rect x="41.8" y="16.2" width="3.2" height="3.2" style="fill: #c40553;"/>
      <rect x="41.8" y="13" width="3.2" height="3.2" style="fill: #c40553;"/>
      <rect x="41.8" y="9.8" width="3.2" height="3.2" style="fill: #ff7bac;"/>
      <rect x="38.6" y="73.7" width="3.2" height="3.2" style="fill: #ffe3cc;"/>
      <rect x="38.6" y="70.5" width="3.2" height="3.2" style="fill: #ffe3cc;"/>
      <rect x="38.6" y="67.3" width="3.2" height="3.2" style="fill: #ffe3cc;"/>
      <rect x="38.6" y="64.1" width="3.2" height="3.2" style="fill: #ffe3cc;"/>
      <rect x="38.6" y="60.9" width="3.2" height="3.2" style="fill: #ffe3cc;"/>
      <rect x="38.6" y="57.7" width="3.2" height="3.2" style="fill: #ffe3cc;"/>
      <rect x="38.6" y="54.5" width="3.2" height="3.2" style="fill: #a4d0ff;"/>
      <rect x="38.6" y="51.3" width="3.2" height="3.2" style="fill: #a4d0ff;"/>
      <rect x="38.6" y="48.2" width="3.2" height="3.2" style="fill: #ff7bac;"/>
      <rect x="38.6" y="45" width="3.2" height="3.2" style="fill: #ff7bac;"/>
      <rect x="38.6" y="41.8" width="3.2" height="3.2" style="fill: #ffe3cc;"/>
      <rect x="38.6" y="38.6" width="3.2" height="3.2" style="fill: #ffe3cc;"/>
      <rect x="38.6" y="35.4" width="3.2" height="3.2" style="fill: #ffe3cc;"/>
      <rect x="38.6" y="32.2" width="3.2" height="3.2" style="fill: #ffe3cc;"/>
      <rect x="38.6" y="29" width="3.2" height="3.2" style="fill: #ffe3cc;"/>
      <rect x="38.6" y="25.8" width="3.2" height="3.2" style="fill: #ff7bac;"/>
      <rect x="38.6" y="22.6" width="3.2" height="3.2" style="fill: #ff7bac;"/>
      <rect x="38.6" y="19.4" width="3.2" height="3.2" style="fill: #c40553;"/>
      <rect x="38.6" y="16.2" width="3.2" height="3.2" style="fill: #c40553;"/>
      <rect x="38.6" y="13" width="3.2" height="3.2" style="fill: #ff7bac;"/>
      <rect x="38.6" y="9.8" width="3.2" height="3.2" style="fill: #ff7bac;"/>
      <rect x="35.4" y="51.3" width="3.2" height="3.2" style="fill: #ff7bac;"/>
      <rect x="35.4" y="48.2" width="3.2" height="3.2" style="fill: #ff7bac;"/>
      <rect x="35.4" y="45" width="3.2" height="3.2" style="fill: #ff7bac;"/>
      <rect x="35.4" y="41.8" width="3.2" height="3.2" style="fill: #ffe3cc;"/>
      <rect x="35.4" y="38.6" width="3.2" height="3.2" style="fill: #ffe3cc;"/>
      <rect x="35.4" y="35.4" width="3.2" height="3.2" style="fill: #ffe3cc;"/>
      <rect x="35.4" y="32.2" width="3.2" height="3.2" style="fill: #ff7bac;"/>
      <rect x="35.4" y="29" width="3.2" height="3.2" style="fill: #ff7bac;"/>
      <rect x="35.4" y="25.8" width="3.2" height="3.2" style="fill: #ff7bac;"/>
      <rect x="35.4" y="22.6" width="3.2" height="3.2" style="fill: #c40553;"/>
      <rect x="35.4" y="19.4" width="3.2" height="3.2" style="fill: #c40553;"/>
      <rect x="35.4" y="16.2" width="3.2" height="3.2" style="fill: #ff7bac;"/>
      <rect x="35.4" y="13" width="3.2" height="3.2" style="fill: #ff7bac;"/>
      <rect x="35.4" y="9.8" width="3.2" height="3.2" style="fill: #ff7bac;"/>
      <rect x="32.2" y="51.3" width="3.2" height="3.2" style="fill: #ff7bac;"/>
      <rect x="32.2" y="48.2" width="3.2" height="3.2" style="fill: #ff7bac;"/>
      <rect x="32.2" y="45" width="3.2" height="3.2" style="fill: #ff7bac;"/>
      <rect x="32.2" y="41.8" width="3.2" height="3.2" style="fill: #ff7bac;"/>
      <rect x="32.2" y="38.6" width="3.2" height="3.2" style="fill: #ffe3cc;"/>
      <rect x="32.2" y="35.4" width="3.2" height="3.2" style="fill: #ff7bac;"/>
      <rect x="32.2" y="32.2" width="3.2" height="3.2" style="fill: #ff7bac;"/>
      <rect x="32.2" y="29" width="3.2" height="3.2" style="fill: #ff7bac;"/>
      <rect x="32.2" y="25.8" width="3.2" height="3.2" style="fill: #c40553;"/>
      <rect x="32.2" y="22.6" width="3.2" height="3.2" style="fill: #c40553;"/>
      <rect x="32.2" y="19.4" width="3.2" height="3.2" style="fill: #ff7bac;"/>
      <rect x="32.2" y="16.2" width="3.2" height="3.2" style="fill: #ff7bac;"/>
      <rect x="32.2" y="13" width="3.2" height="3.2" style="fill: #ff7bac;"/>
      <rect x="29" y="48.2" width="3.2" height="3.2" style="fill: #ff7bac;"/>
      <rect x="29" y="45" width="3.2" height="3.2" style="fill: #ff7bac;"/>
      <rect x="29" y="41.8" width="3.2" height="3.2" style="fill: #ff7bac;"/>
      <rect x="29" y="38.6" width="3.2" height="3.2" style="fill: #ff7bac;"/>
      <rect x="29" y="35.4" width="3.2" height="3.2" style="fill: #ffe3cc;"/>
      <rect x="29" y="32.2" width="3.2" height="3.2" style="fill: #ffe3cc;"/>
      <rect x="29" y="29" width="3.2" height="3.2" style="fill: #c40553;"/>
      <rect x="29" y="25.8" width="3.2" height="3.2" style="fill: #c40553;"/>
      <rect x="29" y="22.6" width="3.2" height="3.2" style="fill: #ff7bac;"/>
      <rect x="29" y="19.4" width="3.2" height="3.2" style="fill: #ff7bac;"/>
      <rect x="29" y="16.2" width="3.2" height="3.2" style="fill: #ff7bac;"/>
      <rect x="25.8" y="45" width="3.2" height="3.2" style="fill: #ff7bac;"/>
      <rect x="25.8" y="41.8" width="3.2" height="3.2" style="fill: #ff7bac;"/>
      <rect x="25.8" y="38.6" width="3.2" height="3.2" style="fill: #ff7bac;"/>
      <rect x="25.8" y="35.4" width="3.2" height="3.2" style="fill: #ff7bac;"/>
      <rect x="25.8" y="32.2" width="3.2" height="3.2" style="fill: #ff7bac;"/>
      <rect x="25.8" y="29" width="3.2" height="3.2" style="fill: #ff7bac;"/>
      <rect x="25.8" y="25.8" width="3.2" height="3.2" style="fill: #ff7bac;"/>
      <rect x="25.8" y="22.6" width="3.2" height="3.2" style="fill: #ff7bac;"/>
    </g>
  </g>
</svg>