<?xml version="1.0" encoding="UTF-8"?>
<svg id="Ebene_2" data-name="Ebene 2" xmlns="http://www.w3.org/2000/svg" width="105.7" height="105.7" viewBox="0 0 105.7 105.7">
  <g id="Code_Master">
    <g>
      <rect x="73.6" y="22.6" width="3.2" height="3.2" style="fill: #ef7718;"/>
      <rect x="70.3" y="22.6" width="3.2" height="3.2" style="fill: #ef7718;"/>
      <rect x="67.2" y="38.5" width="3.2" height="3.2" style="fill: #fde7d6;"/>
      <rect x="67.2" y="35.3" width="3.2" height="3.2" style="fill: #fde7d6;"/>
      <rect x="67.2" y="32.1" width="3.2" height="3.2" style="fill: #fde7d6;"/>
      <rect x="67.2" y="28.9" width="3.2" height="3.2" style="fill: #fde7d6;"/>
      <rect x="67.2" y="25.7" width="3.2" height="3.2" style="fill: #654737;"/>
      <rect x="67.2" y="22.6" width="3.2" height="3.2" style="fill: #654737;"/>
      <rect x="67.2" y="19.4" width="3.2" height="3.2" style="fill: #ef7718;"/>
      <rect x="64" y="41.7" width="3.2" height="3.2" style="fill: #fde7d6;"/>
      <rect x="64" y="38.5" width="3.2" height="3.2" style="fill: #fde7d6;"/>
      <rect x="64" y="35.3" width="3.2" height="3.2" style="fill: #fde7d6;"/>
      <rect x="64" y="32.1" width="3.2" height="3.2" style="fill: #fde7d6;"/>
      <rect x="64" y="28.9" width="3.2" height="3.2" style="fill: #fde7d6;"/>
      <rect x="64" y="25.7" width="3.2" height="3.2" style="fill: #fde7d6;"/>
      <rect x="64" y="22.6" width="3.2" height="3.2" style="fill: #fde7d6;"/>
      <rect x="64" y="19.4" width="3.2" height="3.2" style="fill: #ef7718;"/>
      <rect x="64" y="16.2" width="3.2" height="3.2"/>
      <rect x="64" y="13" width="3.2" height="3.2"/>
      <rect x="60.8" y="95.9" width="3.2" height="3.2" style="fill: #303030;"/>
      <rect x="60.8" y="92.7" width="3.2" height="3.2" style="fill: #ac611e;"/>
      <rect x="60.8" y="73.6" width="3.2" height="3.2" style="fill: #fde7d6;"/>
      <rect x="60.8" y="70.4" width="3.2" height="3.2" style="fill: #fde7d6;"/>
      <rect x="60.8" y="67.2" width="3.2" height="3.2" style="fill: #fde7d6;"/>
      <rect x="60.8" y="64" width="3.2" height="3.2" style="fill: #fde7d6;"/>
      <rect x="60.8" y="60.8" width="3.2" height="3.2" style="fill: #fde7d6;"/>
      <rect x="60.8" y="57.6" width="3.2" height="3.2" style="fill: #fde7d6;"/>
      <rect x="60.8" y="54.4" width="3.2" height="3.2" style="fill: #1b4b9b;"/>
      <rect x="60.8" y="51.2" width="3.2" height="3.2" style="fill: #1b4b9b;"/>
      <rect x="60.8" y="41.7" width="3.2" height="3.2" style="fill: #fde7d6;"/>
      <rect x="60.8" y="38.5" width="3.2" height="3.2" style="fill: #fde7d6;"/>
      <rect x="60.8" y="35.3" width="3.2" height="3.2" style="fill: #fde7d6;"/>
      <rect x="60.8" y="32.1" width="3.2" height="3.2" style="fill: #452c13;"/>
      <rect x="60.8" y="28.9" width="3.2" height="3.2"/>
      <rect x="60.8" y="25.7" width="3.2" height="3.2" style="fill: #fde7d6;"/>
      <rect x="60.8" y="22.6" width="3.2" height="3.2" style="fill: #654737;"/>
      <rect x="60.8" y="19.4" width="3.2" height="3.2" style="fill: #ef7718;"/>
      <rect x="60.8" y="16.2" width="3.2" height="3.2" style="fill: #1c3e7a;"/>
      <rect x="60.8" y="13" width="3.2" height="3.2" style="fill: #2db7c1;"/>
      <rect x="60.8" y="9.8" width="3.2" height="3.2"/>
      <rect x="57.6" y="95.9" width="3.2" height="3.2" style="fill: #303030;"/>
      <rect x="57.6" y="92.7" width="3.2" height="3.2" style="fill: #ac611e;"/>
      <rect x="57.6" y="89.5" width="3.2" height="3.2" style="fill: #442c13;"/>
      <rect x="57.6" y="73.6" width="3.2" height="3.2" style="fill: #fde7d6;"/>
      <rect x="57.6" y="70.4" width="3.2" height="3.2" style="fill: #fde7d6;"/>
      <rect x="57.6" y="67.2" width="3.2" height="3.2" style="fill: #fde7d6;"/>
      <rect x="57.6" y="64" width="3.2" height="3.2" style="fill: #fde7d6;"/>
      <rect x="57.6" y="60.8" width="3.2" height="3.2" style="fill: #fde7d6;"/>
      <rect x="57.6" y="57.6" width="3.2" height="3.2" style="fill: #fde7d6;"/>
      <rect x="57.6" y="54.4" width="3.2" height="3.2" style="fill: #1b4b9b;"/>
      <rect x="57.6" y="51.2" width="3.2" height="3.2" style="fill: #1b4b9b;"/>
      <rect x="57.6" y="48.1" width="3.2" height="3.2" style="fill: #1b4b9b;"/>
      <rect x="57.6" y="41.7" width="3.2" height="3.2" style="fill: #fde7d6;"/>
      <rect x="57.6" y="38.5" width="3.2" height="3.2" style="fill: #fde7d6;"/>
      <rect x="57.6" y="35.3" width="3.2" height="3.2" style="fill: #fde7d6;"/>
      <rect x="57.6" y="32.1" width="3.2" height="3.2" style="fill: #fde7d6;"/>
      <rect x="57.6" y="28.9" width="3.2" height="3.2" style="fill: #fde7d6;"/>
      <rect x="57.6" y="25.7" width="3.2" height="3.2" style="fill: #fde7d6;"/>
      <rect x="57.6" y="22.6" width="3.2" height="3.2" style="fill: #fde7d6;"/>
      <rect x="57.6" y="19.4" width="3.2" height="3.2" style="fill: #ef7718;"/>
      <rect x="57.6" y="16.2" width="3.2" height="3.2"/>
      <rect x="57.6" y="13" width="3.2" height="3.2"/>
      <rect x="57.6" y="9.8" width="3.2" height="3.2" style="fill: #f8d900;"/>
      <rect x="54.4" y="95.9" width="3.2" height="3.2" style="fill: #4e4e4e;"/>
      <rect x="54.4" y="92.7" width="3.2" height="3.2" style="fill: #ef7718;"/>
      <rect x="54.4" y="89.5" width="3.2" height="3.2" style="fill: #ac611e;"/>
      <rect x="54.4" y="86.3" width="3.2" height="3.2" style="fill: #442c13;"/>
      <rect x="54.4" y="83.1" width="3.2" height="3.2" style="fill: #1f626e;"/>
      <rect x="54.4" y="79.9" width="3.2" height="3.2" style="fill: #1f626e;"/>
      <rect x="54.4" y="76.8" width="3.2" height="3.2" style="fill: #1f626e;"/>
      <rect x="54.4" y="73.6" width="3.2" height="3.2" style="fill: #1f626e;"/>
      <rect x="54.4" y="70.4" width="3.2" height="3.2" style="fill: #1c3e7a;"/>
      <rect x="54.4" y="67.2" width="3.2" height="3.2" style="fill: #1b4b9b;"/>
      <rect x="54.4" y="64" width="3.2" height="3.2" style="fill: #1b4b9b;"/>
      <rect x="54.4" y="60.8" width="3.2" height="3.2" style="fill: #f8d900;"/>
      <rect x="54.4" y="57.6" width="3.2" height="3.2" style="fill: #1b4b9b;"/>
      <rect x="54.4" y="54.4" width="3.2" height="3.2" style="fill: #f8d900;"/>
      <rect x="54.4" y="51.2" width="3.2" height="3.2" style="fill: #1b4b9b;"/>
      <rect x="54.4" y="48.1" width="3.2" height="3.2" style="fill: #1b4b9b;"/>
      <rect x="54.4" y="41.7" width="3.2" height="3.2" style="fill: #fde7d6;"/>
      <rect x="54.4" y="38.5" width="3.2" height="3.2" style="fill: #ffcca9;"/>
      <rect x="54.4" y="35.3" width="3.2" height="3.2" style="fill: #fde7d6;"/>
      <rect x="54.4" y="32.1" width="3.2" height="3.2" style="fill: #fde7d6;"/>
      <rect x="54.4" y="28.9" width="3.2" height="3.2" style="fill: #fde7d6;"/>
      <rect x="54.4" y="25.7" width="3.2" height="3.2" style="fill: #fde7d6;"/>
      <rect x="54.4" y="22.6" width="3.2" height="3.2" style="fill: #654737;"/>
      <rect x="54.4" y="19.4" width="3.2" height="3.2" style="fill: #ef7718;"/>
      <rect x="54.4" y="16.2" width="3.2" height="3.2"/>
      <rect x="54.4" y="13" width="3.2" height="3.2" style="fill: #f8d900;"/>
      <rect x="54.4" y="9.8" width="3.2" height="3.2" style="fill: #f8d900;"/>
      <rect x="51.2" y="95.9" width="3.2" height="3.2" style="fill: #4e4e4e;"/>
      <rect x="51.2" y="92.7" width="3.2" height="3.2" style="fill: #ef7718;"/>
      <rect x="51.2" y="89.5" width="3.2" height="3.2" style="fill: #442c13;"/>
      <rect x="51.2" y="86.3" width="3.2" height="3.2" style="fill: #1f626e;"/>
      <rect x="51.2" y="83.1" width="3.2" height="3.2" style="fill: #1f626e;"/>
      <rect x="51.2" y="79.9" width="3.2" height="3.2" style="fill: #1f626e;"/>
      <rect x="51.2" y="76.8" width="3.2" height="3.2" style="fill: #1f626e;"/>
      <rect x="51.2" y="73.6" width="3.2" height="3.2" style="fill: #1f626e;"/>
      <rect x="51.2" y="70.4" width="3.2" height="3.2" style="fill: #1c3e7a;"/>
      <rect x="51.2" y="67.2" width="3.2" height="3.2" style="fill: #1b4b9b;"/>
      <rect x="51.2" y="64" width="3.2" height="3.2" style="fill: #f8d900;"/>
      <rect x="51.2" y="60.8" width="3.2" height="3.2" style="fill: #f8d900;"/>
      <rect x="51.2" y="57.6" width="3.2" height="3.2" style="fill: #f8d900;"/>
      <rect x="51.2" y="54.4" width="3.2" height="3.2" style="fill: #1b4b9b;"/>
      <rect x="51.2" y="51.2" width="3.2" height="3.2" style="fill: #1b4b9b;"/>
      <rect x="51.2" y="48.1" width="3.2" height="3.2" style="fill: #1b4b9b;"/>
      <rect x="51.2" y="44.9" width="3.2" height="3.2" style="fill: #fde7d6;"/>
      <rect x="51.2" y="41.7" width="3.2" height="3.2" style="fill: #fde7d6;"/>
      <rect x="51.2" y="38.5" width="3.2" height="3.2" style="fill: #ffcca9;"/>
      <rect x="51.2" y="35.3" width="3.2" height="3.2" style="fill: #fde7d6;"/>
      <rect x="51.2" y="32.1" width="3.2" height="3.2" style="fill: #fde7d6;"/>
      <rect x="51.2" y="28.9" width="3.2" height="3.2" style="fill: #fde7d6;"/>
      <rect x="51.2" y="25.7" width="3.2" height="3.2" style="fill: #fde7d6;"/>
      <rect x="51.2" y="22.6" width="3.2" height="3.2" style="fill: #ef7718;"/>
      <rect x="51.2" y="19.4" width="3.2" height="3.2" style="fill: #ef7718;"/>
      <rect x="51.2" y="16.2" width="3.2" height="3.2"/>
      <rect x="51.2" y="13" width="3.2" height="3.2"/>
      <rect x="51.2" y="9.8" width="3.2" height="3.2" style="fill: #f8d900;"/>
      <rect x="48.1" y="95.9" width="3.2" height="3.2" style="fill: #4e4e4e;"/>
      <rect x="48.1" y="92.7" width="3.2" height="3.2" style="fill: #fcd3b2;"/>
      <rect x="48.1" y="89.5" width="3.2" height="3.2" style="fill: #ef7718;"/>
      <rect x="48.1" y="86.3" width="3.2" height="3.2" style="fill: #442c13;"/>
      <rect x="48.1" y="83.1" width="3.2" height="3.2" style="fill: #2b8493;"/>
      <rect x="48.1" y="79.9" width="3.2" height="3.2" style="fill: #2b8493;"/>
      <rect x="48.1" y="76.8" width="3.2" height="3.2" style="fill: #2b8493;"/>
      <rect x="48.1" y="73.6" width="3.2" height="3.2" style="fill: #2b8493;"/>
      <rect x="48.1" y="70.4" width="3.2" height="3.2" style="fill: #1c3e7a;"/>
      <rect x="48.1" y="67.2" width="3.2" height="3.2" style="fill: #f8d900;"/>
      <rect x="48.1" y="64" width="3.2" height="3.2" style="fill: #1b4b9b;"/>
      <rect x="48.1" y="60.8" width="3.2" height="3.2" style="fill: #f8d900;"/>
      <rect x="48.1" y="57.6" width="3.2" height="3.2" style="fill: #1b4b9b;"/>
      <rect x="48.1" y="54.4" width="3.2" height="3.2" style="fill: #1b4b9b;"/>
      <rect x="48.1" y="51.2" width="3.2" height="3.2" style="fill: #1b4b9b;"/>
      <rect x="48.1" y="48.1" width="3.2" height="3.2" style="fill: #1b4b9b;"/>
      <rect x="48.1" y="44.9" width="3.2" height="3.2" style="fill: #fde7d6;"/>
      <rect x="48.1" y="41.7" width="3.2" height="3.2" style="fill: #fde7d6;"/>
      <rect x="48.1" y="38.5" width="3.2" height="3.2" style="fill: #fde7d6;"/>
      <rect x="48.1" y="35.3" width="3.2" height="3.2" style="fill: #fde7d6;"/>
      <rect x="48.1" y="32.1" width="3.2" height="3.2" style="fill: #fde7d6;"/>
      <rect x="48.1" y="28.9" width="3.2" height="3.2" style="fill: #fde7d6;"/>
      <rect x="48.1" y="25.7" width="3.2" height="3.2" style="fill: #fde7d6;"/>
      <rect x="48.1" y="22.6" width="3.2" height="3.2" style="fill: #ef7718;"/>
      <rect x="48.1" y="19.4" width="3.2" height="3.2"/>
      <rect x="48.1" y="16.2" width="3.2" height="3.2" style="fill: #1c3e7a;"/>
      <rect x="48.1" y="13" width="3.2" height="3.2" style="fill: #2db7c1;"/>
      <rect x="48.1" y="9.8" width="3.2" height="3.2"/>
      <rect x="44.9" y="95.9" width="3.2" height="3.2" style="fill: #4e4e4e;"/>
      <rect x="44.9" y="92.7" width="3.2" height="3.2" style="fill: #ef7718;"/>
      <rect x="44.9" y="89.5" width="3.2" height="3.2" style="fill: #fcd3b2;"/>
      <rect x="44.9" y="86.3" width="3.2" height="3.2" style="fill: #2b8493;"/>
      <rect x="44.9" y="83.1" width="3.2" height="3.2" style="fill: #2b8493;"/>
      <rect x="44.9" y="79.9" width="3.2" height="3.2" style="fill: #2b8493;"/>
      <rect x="44.9" y="76.8" width="3.2" height="3.2" style="fill: #2b8493;"/>
      <rect x="44.9" y="73.6" width="3.2" height="3.2" style="fill: #2b8493;"/>
      <rect x="44.9" y="70.4" width="3.2" height="3.2" style="fill: #1c3e7a;"/>
      <rect x="44.9" y="67.2" width="3.2" height="3.2" style="fill: #1b4b9b;"/>
      <rect x="44.9" y="64" width="3.2" height="3.2" style="fill: #1b4b9b;"/>
      <rect x="44.9" y="60.8" width="3.2" height="3.2" style="fill: #1b4b9b;"/>
      <rect x="44.9" y="57.6" width="3.2" height="3.2" style="fill: #1b4b9b;"/>
      <rect x="44.9" y="54.4" width="3.2" height="3.2" style="fill: #1b4b9b;"/>
      <rect x="44.9" y="51.2" width="3.2" height="3.2" style="fill: #1b4b9b;"/>
      <rect x="44.9" y="48.1" width="3.2" height="3.2" style="fill: #1b4b9b;"/>
      <rect x="44.9" y="41.7" width="3.2" height="3.2" style="fill: #fde7d6;"/>
      <rect x="44.9" y="38.5" width="3.2" height="3.2" style="fill: #fde7d6;"/>
      <rect x="44.9" y="35.3" width="3.2" height="3.2" style="fill: #fde7d6;"/>
      <rect x="44.9" y="32.1" width="3.2" height="3.2" style="fill: #452c13;"/>
      <rect x="44.9" y="28.9" width="3.2" height="3.2"/>
      <rect x="44.9" y="25.7" width="3.2" height="3.2" style="fill: #fde7d6;"/>
      <rect x="44.9" y="22.6" width="3.2" height="3.2" style="fill: #ef7718;"/>
      <rect x="44.9" y="19.4" width="3.2" height="3.2"/>
      <rect x="44.9" y="16.2" width="3.2" height="3.2" style="fill: #1c3e7a;"/>
      <rect x="44.9" y="13" width="3.2" height="3.2" style="fill: #1c3e7a;"/>
      <rect x="44.9" y="9.8" width="3.2" height="3.2"/>
      <rect x="41.7" y="95.9" width="3.2" height="3.2" style="fill: #4e4e4e;"/>
      <rect x="41.7" y="92.7" width="3.2" height="3.2" style="fill: #ef7718;"/>
      <rect x="41.7" y="89.5" width="3.2" height="3.2" style="fill: #ef7718;"/>
      <rect x="41.7" y="86.3" width="3.2" height="3.2" style="fill: #2b8493;"/>
      <rect x="41.7" y="83.1" width="3.2" height="3.2" style="fill: #2b8493;"/>
      <rect x="41.7" y="79.9" width="3.2" height="3.2" style="fill: #2b8493;"/>
      <rect x="41.7" y="76.8" width="3.2" height="3.2" style="fill: #2b8493;"/>
      <rect x="41.7" y="73.6" width="3.2" height="3.2" style="fill: #fde7d6;"/>
      <rect x="41.7" y="70.4" width="3.2" height="3.2" style="fill: #fde7d6;"/>
      <rect x="41.7" y="67.2" width="3.2" height="3.2" style="fill: #fde7d6;"/>
      <rect x="41.7" y="64" width="3.2" height="3.2" style="fill: #fde7d6;"/>
      <rect x="41.7" y="60.8" width="3.2" height="3.2" style="fill: #fde7d6;"/>
      <rect x="41.7" y="57.6" width="3.2" height="3.2" style="fill: #fde7d6;"/>
      <rect x="41.7" y="54.4" width="3.2" height="3.2" style="fill: #1b4b9b;"/>
      <rect x="41.7" y="51.2" width="3.2" height="3.2" style="fill: #1b4b9b;"/>
      <rect x="41.7" y="48.1" width="3.2" height="3.2" style="fill: #1b4b9b;"/>
      <rect x="41.7" y="41.7" width="3.2" height="3.2" style="fill: #fde7d6;"/>
      <rect x="41.7" y="38.5" width="3.2" height="3.2" style="fill: #fde7d6;"/>
      <rect x="41.7" y="35.3" width="3.2" height="3.2" style="fill: #fde7d6;"/>
      <rect x="41.7" y="32.1" width="3.2" height="3.2" style="fill: #fde7d6;"/>
      <rect x="41.7" y="28.9" width="3.2" height="3.2" style="fill: #fde7d6;"/>
      <rect x="41.7" y="25.7" width="3.2" height="3.2" style="fill: #fde7d6;"/>
      <rect x="41.7" y="22.6" width="3.2" height="3.2" style="fill: #ef7718;"/>
      <rect x="41.7" y="19.4" width="3.2" height="3.2" style="fill: #f8d900;"/>
      <rect x="41.7" y="16.2" width="3.2" height="3.2"/>
      <rect x="41.7" y="13" width="3.2" height="3.2"/>
      <rect x="41.7" y="9.8" width="3.2" height="3.2" style="fill: #f8d900;"/>
      <rect x="38.5" y="73.6" width="3.2" height="3.2" style="fill: #fde7d6;"/>
      <rect x="38.5" y="70.4" width="3.2" height="3.2" style="fill: #fde7d6;"/>
      <rect x="38.5" y="67.2" width="3.2" height="3.2" style="fill: #fde7d6;"/>
      <rect x="38.5" y="64" width="3.2" height="3.2" style="fill: #fde7d6;"/>
      <rect x="38.5" y="60.8" width="3.2" height="3.2" style="fill: #fde7d6;"/>
      <rect x="38.5" y="57.6" width="3.2" height="3.2" style="fill: #fde7d6;"/>
      <rect x="38.5" y="54.4" width="3.2" height="3.2" style="fill: #1b4b9b;"/>
      <rect x="38.5" y="51.2" width="3.2" height="3.2" style="fill: #1b4b9b;"/>
      <rect x="38.5" y="41.7" width="3.2" height="3.2" style="fill: #fde7d6;"/>
      <rect x="38.5" y="38.5" width="3.2" height="3.2" style="fill: #fde7d6;"/>
      <rect x="38.5" y="35.3" width="3.2" height="3.2" style="fill: #fde7d6;"/>
      <rect x="38.5" y="32.1" width="3.2" height="3.2" style="fill: #fde7d6;"/>
      <rect x="38.5" y="28.9" width="3.2" height="3.2" style="fill: #fde7d6;"/>
      <rect x="38.5" y="25.7" width="3.2" height="3.2" style="fill: #654737;"/>
      <rect x="38.5" y="22.6" width="3.2" height="3.2" style="fill: #f8d900;"/>
      <rect x="38.5" y="19.4" width="3.2" height="3.2"/>
      <rect x="38.5" y="16.2" width="3.2" height="3.2" style="fill: #f8d900;"/>
      <rect x="38.5" y="13" width="3.2" height="3.2" style="fill: #f8d900;"/>
      <rect x="38.5" y="9.8" width="3.2" height="3.2" style="fill: #f8d900;"/>
      <rect x="35.3" y="41.7" width="3.2" height="3.2" style="fill: #fde7d6;"/>
      <rect x="35.3" y="38.5" width="3.2" height="3.2" style="fill: #fde7d6;"/>
      <rect x="35.3" y="35.3" width="3.2" height="3.2" style="fill: #fde7d6;"/>
      <rect x="35.3" y="32.1" width="3.2" height="3.2" style="fill: #654737;"/>
      <rect x="35.3" y="28.9" width="3.2" height="3.2" style="fill: #654737;"/>
      <rect x="35.3" y="25.7" width="3.2" height="3.2" style="fill: #654737;"/>
      <rect x="35.3" y="22.6" width="3.2" height="3.2"/>
      <rect x="35.3" y="19.4" width="3.2" height="3.2" style="fill: #f8d900;"/>
      <rect x="35.3" y="16.2" width="3.2" height="3.2" style="fill: #f8d900;"/>
      <rect x="35.3" y="13" width="3.2" height="3.2" style="fill: #f8d900;"/>
      <rect x="35.3" y="9.8" width="3.2" height="3.2" style="fill: #f8d900;"/>
      <rect x="32.1" y="38.5" width="3.2" height="3.2" style="fill: #fde7d6;"/>
      <rect x="32.1" y="35.3" width="3.2" height="3.2" style="fill: #654737;"/>
      <rect x="32.1" y="32.1" width="3.2" height="3.2" style="fill: #654737;"/>
      <rect x="32.1" y="28.9" width="3.2" height="3.2" style="fill: #654737;"/>
      <rect x="32.1" y="25.7" width="3.2" height="3.2"/>
      <rect x="32.1" y="22.6" width="3.2" height="3.2" style="fill: #f8d900;"/>
      <rect x="32.1" y="19.4" width="3.2" height="3.2" style="fill: #f8d900;"/>
      <rect x="32.1" y="16.2" width="3.2" height="3.2" style="fill: #f8d900;"/>
      <rect x="32.1" y="13" width="3.2" height="3.2" style="fill: #f8d900;"/>
      <rect x="28.9" y="35.3" width="3.2" height="3.2" style="fill: #fde7d6;"/>
      <rect x="28.9" y="32.1" width="3.2" height="3.2" style="fill: #fde7d6;"/>
      <rect x="28.9" y="28.9" width="3.2" height="3.2"/>
      <rect x="28.9" y="25.7" width="3.2" height="3.2" style="fill: #654737;"/>
      <rect x="28.9" y="22.6" width="3.2" height="3.2" style="fill: #f8d900;"/>
      <rect x="28.9" y="19.4" width="3.2" height="3.2" style="fill: #f8d900;"/>
      <rect x="28.9" y="16.2" width="3.2" height="3.2" style="fill: #f8d900;"/>
    </g>
  </g>
</svg>